<?xml version="1.0" encoding="UTF-8"?>
<svg width="17px" height="17px" viewBox="0 0 17 17" version="1.1" xmlns="http://www.w3.org/2000/svg" xmlns:xlink="http://www.w3.org/1999/xlink">
    <!-- Generator: sketchtool 60 (101010) - https://sketch.com -->
    <title>DEA841A8-4555-4CC3-AC9F-3D4B21A567CD</title>
    <desc>Created with sketchtool.</desc>
    <g id="Pages" stroke="none" stroke-width="1" fill="none" fill-rule="evenodd">
        <g id="Contact" transform="translate(-574.000000, -362.000000)" fill="#000000" fill-rule="nonzero">
            <g id="Group-9" transform="translate(130.000000, 349.000000)">
                <g id="Group-8">
                    <g id="Icons/PGP-key" transform="translate(444.000000, 13.000000)">
                        <g id="Group">
                            <g id="icons8-lock">
                                <path d="M8.5,0 C5.37890625,0 2.83333333,2.34975962 2.83333333,5.23076923 L2.83333333,6.53846154 L2.125,6.53846154 C0.957356417,6.53846154 0,7.42217515 0,8.5 L0,15.0384615 C0,16.1162864 0.957356417,17 2.125,17 L14.875,17 C16.0426436,17 17,16.1162864 17,15.0384615 L17,8.5 C17,7.42217515 16.0426436,6.53846154 14.875,6.53846154 L14.1666667,6.53846154 L14.1666667,5.23076923 C14.1666667,2.34975962 11.6210938,0 8.5,0 Z M8.5,1.30769231 C10.8574226,1.30769231 12.75,3.05468815 12.75,5.23076923 L12.75,6.53846154 L4.25,6.53846154 L4.25,5.23076923 C4.25,3.05468815 6.14257883,1.30769231 8.5,1.30769231 Z M2.125,7.84615385 L14.875,7.84615385 C15.2734375,7.84615385 15.5833333,8.13221154 15.5833333,8.5 L15.5833333,15.0384615 C15.5833333,15.40625 15.2734375,15.6923077 14.875,15.6923077 L2.125,15.6923077 C1.7265625,15.6923077 1.41666667,15.40625 1.41666667,15.0384615 L1.41666667,8.5 C1.41666667,8.13221154 1.7265625,7.84615385 2.125,7.84615385 Z" id="Shape"></path>
                            </g>
                        </g>
                    </g>
                </g>
            </g>
        </g>
    </g>
</svg>