<?xml version="1.0" encoding="UTF-8"?>
<svg width="1903px" height="1775px" viewBox="0 0 1903 1775" version="1.1" xmlns="http://www.w3.org/2000/svg" xmlns:xlink="http://www.w3.org/1999/xlink">
    <!-- Generator: sketchtool 60 (101010) - https://sketch.com -->
    <title>8FD940F0-9F5E-41CF-8A5C-EB765FB43DBA@3x</title>
    <desc>Created with sketchtool.</desc>
    <g id="Symbols" stroke="none" stroke-width="1" fill="none" fill-rule="evenodd" stroke-dasharray="3,4">
        <g id="Decoration/Linepattern-(round)" transform="translate(-211.000000, -268.000000)" stroke="#96E1F3" stroke-width="2">
            <g id="linepattern-(round)" transform="translate(1165.000000, 1177.500000) rotate(25.000000) translate(-1165.000000, -1177.500000) translate(297.000000, 284.000000)">
                <path d="M494.836469,1122.93289 C448.515827,1123.94523 446.780966,1133.29328 410.205548,1170.60595 C400.67093,1180.33276 389.788676,1187.19534 380.809856,1198.01514 C362.706273,1219.8306 356.471421,1241.61718 341.302435,1267.11383 C334.507357,1278.53528 326.363826,1288.07557 319.422687,1299.30369 C307.235297,1319.01825 298.17486,1349.5254 289.261482,1369.85201 C283.527236,1382.92874 269.235734,1400.35194 263.401068,1410.34893 C251.780987,1430.25852 241.651559,1452.00991 229.913362,1471.76771 C223.146175,1483.15827 214.906025,1492.48109 207.970981,1503.64913 C187.990294,1535.82558 167.476426,1570.46506 147.836469,1602.93289" id="Path-67"></path>
                <path d="M1101.53162,1131.09654 C1114.18168,1170.61435 1132.51599,1180.02214 1158.08362,1199.35116 C1178.22961,1214.58144 1210.54795,1244.21238 1226.80352,1264.06986 C1261.07769,1305.93853 1327.98951,1402.97473 1344.90379,1428.55722 C1364.38646,1458.02435 1374.544,1495.15165 1392.46669,1525.893 C1406.25976,1549.55113 1417.59837,1563.03747 1433.53162,1584.09654" id="Path-68"></path>
                <path d="M460.283923,1491.24532 C460.283923,1444.46431 460.854653,1397.6767 460.283923,1350.90231 C459.894405,1318.97924 450.141171,1287.28444 453.093256,1253.25902 C453.392506,1249.80989 455.624132,1247.24988 456.889571,1244.24532" id="Path-71" transform="translate(456.537581, 1367.745316) rotate(14.000000) translate(-456.537581, -1367.745316) "></path>
                <path d="M797.954207,414.231281 C796.793953,388.739364 793.838592,363.287437 794.473445,337.75553 C794.934397,319.217379 812.79176,271.621106 815.259772,250.080402 C817.48328,230.673723 817.550688,213.083298 804.571867,205.231281" id="Path-72" transform="translate(805.385099, 309.731281) rotate(-25.000000) translate(-805.385099, -309.731281) "></path>
                <path d="M675.871709,455.787023 C666.284345,453.912156 656.219575,454.915866 647.109618,450.162422 C632.683025,442.634834 619.579203,430.455716 606.237543,419.452922 C602.441512,416.322356 598.672739,412.70959 595.833487,407.875276 C571.20628,365.943223 568.893973,306.792681 550.447372,259.346808 C537.236322,225.36712 503.775477,233.713718 495.871709,201.787023" id="Path-73" transform="translate(585.871709, 328.787023) rotate(14.000000) translate(-585.871709, -328.787023) "></path>
                <path d="M380.424038,1020.76939 C340.650844,1039.36187 297.196798,1045.69629 261.104456,1076.54683 C242.400626,1092.53425 236.581836,1129.04166 223.752967,1154.68666 C218.210254,1165.76659 212.242766,1176.3967 206.019385,1186.6623 C165.074129,1254.20244 110.911588,1313.07498 53.4240376,1345.76939" id="Path-75"></path>
                <path d="M1237.57877,965.473958 C1267.09518,981.356455 1298.24639,991.744835 1326.12799,1013.12145 C1337.20983,1021.61781 1343.69255,1039.36521 1351.96765,1053.17506 C1379.80961,1099.63886 1374.27673,1161.41254 1400.68509,1206.62102 C1417.54808,1235.48877 1446.2632,1249.37708 1467.55107,1266.61889 C1503.7361,1295.92645 1504.75425,1298.41151 1533.57877,1328.47396" id="Path-76"></path>
                <path d="M832.119904,1357.59227 C832.119904,1388.20842 830.72711,1418.90536 832.119904,1449.44074 C833.033706,1469.47478 837.290493,1488.79145 839.011834,1508.68979 C845.718102,1586.21282 843.520418,1651.35426 829.664532,1724.59227" id="Path-77"></path>
                <path d="M1005.76743,1317.48144 C1030.24828,1356.29506 1073.1367,1408.86909 1084.4516,1464.85649 C1092.18838,1503.13896 1080.13308,1574.98224 1100.35376,1602.46517 C1107.93702,1612.77196 1116.62954,1621.14268 1124.76743,1630.48144" id="Path-78"></path>
                <path d="M633.497564,1275.98574 C617.957962,1319.02236 601.076554,1361.05131 586.878759,1405.09558 C576.90168,1436.04639 575.273317,1469.22463 569.165283,1501.74476 C565.077059,1523.5111 557.482626,1553.79593 550.574834,1575.13992 C524.344871,1656.18637 467.007755,1737.30721 417.497564,1786.98574" id="Path-79"></path>
                <path d="M508.766063,487.139149 C442.847706,443.757908 442.06176,446.703829 392.075434,371.180926 C370.561066,338.675486 371.342321,306.260221 342.711175,271.795548 C308.108492,230.142651 267.970687,244.200757 235.941073,218.437809 C228.411818,212.381671 223.157733,201.572036 216.766063,193.139149" id="Path-80"></path>
                <path d="M1324.08785,711.421149 C1404.51472,711.421149 1484.98939,707.298825 1565.36846,711.421149 C1576.17771,711.975512 1615.77442,751.847556 1618.6154,754.140517 C1651.42985,780.625164 1686.88112,782.589005 1723.08785,782.589005" id="Path-81"></path>
                <path d="M1329.42417,448.367986 C1329.42417,337.249388 1357.27293,329.014086 1409.58304,247.867597 C1426.88164,221.033011 1440.30323,154.823377 1442.42417,117.367986" id="Path-82" transform="translate(1385.924171, 282.867986) rotate(33.000000) translate(-1385.924171, -282.867986) "></path>
                <path d="M1248.43361,815.339825 C1262.51728,845.288281 1282.92938,852.417951 1311.39454,867.066388 C1333.82364,878.608611 1369.80458,901.064327 1387.90236,916.113263 C1426.06076,947.843306 1500.55558,1021.3819 1519.38673,1040.76951 C1541.07734,1063.10109 1552.38601,1091.2379 1572.33986,1114.53514 C1587.69607,1132.46438 1600.31967,1142.68496 1618.05861,1158.64451" id="Path-68"></path>
                <path d="M463.209565,636.522491 C452.540294,635.095407 441.339743,635.859397 431.201752,632.241241 C415.147158,626.511504 400.564607,617.241184 385.717377,608.866241 C381.492975,606.483363 377.298906,603.733452 374.139252,600.053741 C346.732933,568.136525 344.159689,523.113196 323.63144,486.999053 C308.92956,461.1349 271.692752,467.48804 262.897065,443.186553" id="Path-73"></path>
                <path d="M422.692731,932.365504 C388.184919,925.076442 353.30111,919.383059 319.169294,910.498317 C310.667071,908.285131 303.59782,902.240748 295.348981,899.217067 C268.357457,889.323097 239.795697,892.112394 211.388044,893.748317 C181.411027,895.474616 147.166098,912.1274 116.559919,919.123317" id="Path-74"></path>
                <path d="M1398.47623,799.381021 C1431.48665,811.407063 1466.32539,819.273024 1497.50748,835.459146 C1509.90113,841.892492 1517.15124,855.330621 1526.40592,865.787271 C1557.54367,900.969125 1551.35583,947.743434 1580.89029,981.974771 C1599.74943,1003.83309 1631.86371,1014.34916 1655.67154,1027.40446 C1696.13998,1049.5958 1697.27866,1051.47746 1729.51529,1074.2404" id="Path-76"></path>
                <path d="M996.881694,1131.62469 C996.881694,1154.70021 995.206553,1177.83662 996.881694,1200.85125 C997.980742,1215.95099 1003.10046,1230.51005 1005.17076,1245.5075 C1013.23652,1303.93692 1010.59332,1353.03429 993.928569,1408.23407" id="Path-77"></path>
                <path d="M1191.0857,1058.40119 C1218.38719,1087.71098 1266.21712,1127.41182 1278.8357,1169.69025 C1287.4639,1198.59894 1274.01961,1252.8508 1296.57008,1273.60431 C1305.02706,1281.38739 1314.72112,1287.70848 1323.79664,1294.76056" id="Path-78"></path>
                <path d="M792.139761,1270.17041 C774.697053,1302.74593 755.748209,1334.55874 739.811636,1367.89698 C728.612682,1391.32444 726.784897,1416.43791 719.928824,1441.05323 C715.339922,1457.52873 706.815413,1480.4521 699.061636,1496.60791 C669.619337,1557.95406 605.260249,1619.35651 549.686636,1656.95948" id="Path-79"></path>
                <path d="M325.412425,843.416995 C251.957972,810.635523 251.082173,812.861637 195.381175,755.791995 C171.407184,731.228931 172.277756,706.73401 140.373363,680.690432 C101.814738,649.215001 57.0881899,659.83815 21.3968003,640.37012 C13.006766,635.793737 7.15200862,627.625328 0.0296127849,621.252932" id="Path-80"></path>
                <path d="M1287.87944,454.617208 C1378.02267,454.617208 1468.21947,451.509678 1558.30912,454.617208 C1570.42423,455.035103 1614.80462,485.091831 1617.98881,486.820333 C1654.76757,506.785244 1694.5017,508.265645 1735.08256,508.265645" id="Path-81"></path>
                <path d="M1213.92032,251.281421 C1213.92032,167.137303 1245.09036,160.901153 1303.63907,99.4532955 C1323.00072,79.1329123 1338.023,28.995929 1340.39688,0.632983043" id="Path-82"></path>
                <path d="M1003.00228,256.351269 C1003.00228,172.207151 1034.17232,165.971001 1092.72103,104.523144 C1112.08268,84.2027609 1127.10496,34.0657776 1129.47884,5.70283162" id="Path-82"></path>
                <path d="M787.365512,1539.20327 C787.365512,1455.05915 818.535556,1448.823 877.084262,1387.37514 C896.445916,1367.05476 911.468192,1316.91778 913.842075,1288.55483" id="Path-82"></path>
                <path d="M569.240931,1662.98399 C569.240931,1578.83987 600.410974,1572.60372 658.959681,1511.15587 C678.321335,1490.83548 693.343611,1440.6985 695.717493,1412.33555" id="Path-82"></path>
            </g>
        </g>
    </g>
</svg>