<?xml version="1.0" encoding="UTF-8"?>
<svg width="22px" height="22px" viewBox="0 0 22 22" version="1.1" xmlns="http://www.w3.org/2000/svg" xmlns:xlink="http://www.w3.org/1999/xlink">
    <!-- Generator: sketchtool 60 (101010) - https://sketch.com -->
    <title>55358B6C-68B0-4FDD-AAA5-87D5DAE86600</title>
    <desc>Created with sketchtool.</desc>
    <g id="Pages" stroke="none" stroke-width="1" fill="none" fill-rule="evenodd">
        <g id="Work-V2" transform="translate(-870.000000, -3878.000000)" fill="#22263D" fill-rule="nonzero">
            <g id="Navigation/Call-to-action-+-footer" transform="translate(0.000000, 3474.000000)">
                <g id="Group-5">
                    <g id="linkedin-in-brands" transform="translate(870.000000, 404.000000)">
                        <path d="M4.92446429,22 L0.363392857,22 L0.363392857,7.31172568 L4.92446429,7.31172568 L4.92446429,22 Z M2.64147321,5.30810953 C1.18299107,5.30810953 0,4.10004684 0,2.64153214 C0,1.18265422 1.18262786,0 2.64147321,0 C4.10031857,0 5.28294643,1.18265422 5.28294643,2.64153214 C5.28294643,4.10004684 4.09946429,5.30810953 2.64147321,5.30810953 Z M21.9950893,22 L17.4438393,22 L17.4438393,14.8498404 C17.4438393,13.1457845 17.4094643,10.9604678 15.0724554,10.9604678 C12.7010714,10.9604678 12.3376786,12.8118485 12.3376786,14.7270698 L12.3376786,22 L7.78151786,22 L7.78151786,7.31172568 L12.1559821,7.31172568 L12.1559821,9.31534184 L12.2198214,9.31534184 C12.82875,8.16129822 14.3162054,6.94341389 16.5353571,6.94341389 C21.1514286,6.94341389 22,9.98321389 22,13.9315163 L22,22 L21.9950893,22 Z" id="Shape"></path>
                    </g>
                </g>
            </g>
        </g>
    </g>
</svg>