<?xml version="1.0" encoding="UTF-8"?>
<svg width="28px" height="18px" viewBox="0 0 28 18" version="1.1" xmlns="http://www.w3.org/2000/svg" xmlns:xlink="http://www.w3.org/1999/xlink">
    <!-- Generator: sketchtool 60 (101010) - https://sketch.com -->
    <title>AB7AD50F-75B1-44A3-82E2-5EFFE4B808A9@3x</title>
    <desc>Created with sketchtool.</desc>
    <g id="Asset-Artboard-Page" stroke="none" stroke-width="1" fill="none" fill-rule="evenodd">
        <g id="Icons/Brands/Behance" fill="#22263D" fill-rule="nonzero">
            <path d="M11.2777778,8.06535586 C12.8236111,7.30767101 13.6305556,6.16117419 13.6305556,4.37662697 C13.6305556,0.857380227 11.0736111,0 8.12291667,0 L0,0 L0,17.6660205 L8.35138889,17.6660205 C11.4819444,17.6660205 14.4229167,16.1257269 14.4229167,12.5366934 C14.4229167,10.3184713 13.3972222,8.67848241 11.2777778,8.06535586 L11.2777778,8.06535586 Z M3.78680556,3.0157851 L7.34027778,3.0157851 C8.70625,3.0157851 9.93611111,3.40958183 9.93611111,5.03461645 C9.93611111,6.53503185 8.97847222,7.13818887 7.62708333,7.13818887 L3.78680556,7.13818887 L3.78680556,3.0157851 L3.78680556,3.0157851 Z M7.83611111,14.6651897 L3.78680556,14.6651897 L3.78680556,9.80005539 L7.91388889,9.80005539 C9.58125,9.80005539 10.6361111,10.5128773 10.6361111,12.3223484 C10.6361111,14.1068956 9.37708333,14.6651897 7.83611111,14.6651897 L7.83611111,14.6651897 Z M25.2631944,2.66685129 L18.2777778,2.66685129 L18.2777778,0.92716699 L25.2631944,0.92716699 L25.2631944,2.66685129 L25.2631944,2.66685129 Z M28,11.4549986 C28,7.67155912 25.8416667,4.5162005 21.9284722,4.5162005 C18.1270833,4.5162005 15.5458333,7.44724453 15.5458333,11.2855165 C15.5458333,15.2683467 17.9909722,18 21.9284722,18 C24.9083333,18 26.8381944,16.6242038 27.7666667,13.6981446 L24.7430556,13.6981446 C24.4173611,14.7898089 23.0756944,15.3680421 22.0354167,15.3680421 C20.0277778,15.3680421 18.9729167,14.1617281 18.9729167,12.1129881 L27.9708333,12.1129881 C27.9854167,11.9036278 28,11.6793132 28,11.4549986 Z M18.9777778,9.89975076 C19.0895833,8.21988369 20.1784722,7.16809748 21.8215278,7.16809748 C23.5423611,7.16809748 24.4076389,8.20492938 24.5534722,9.89975076 L18.9777778,9.89975076 Z" id="Shape"></path>
        </g>
    </g>
</svg>