<?xml version="1.0" encoding="UTF-8"?>
<svg width="23px" height="22px" viewBox="0 0 23 22" version="1.1" xmlns="http://www.w3.org/2000/svg" xmlns:xlink="http://www.w3.org/1999/xlink">
    <!-- Generator: sketchtool 60 (101010) - https://sketch.com -->
    <title>57E3CF7A-779A-464F-BE47-0C75D704E8BD@3x</title>
    <desc>Created with sketchtool.</desc>
    <g id="Asset-Artboard-Page" stroke="none" stroke-width="1" fill="none" fill-rule="evenodd">
        <g id="Icons/Brands/GitHub" fill="#22263D" fill-rule="nonzero">
            <g id="github-brands">
                <path d="M7.69294355,17.7143678 C7.69294355,17.8053507 7.58629032,17.878137 7.45181452,17.878137 C7.29879032,17.8917845 7.1921371,17.8189981 7.1921371,17.7143678 C7.1921371,17.6233849 7.29879032,17.5505986 7.43326613,17.5505986 C7.57237903,17.5369512 7.69294355,17.6097375 7.69294355,17.7143678 Z M6.25080645,17.5096563 C6.21834677,17.6006392 6.31108871,17.7052695 6.45020161,17.7325644 C6.57076613,17.7780558 6.70987903,17.7325644 6.73770161,17.6415815 C6.76552419,17.5505986 6.67741935,17.4459683 6.53830645,17.405026 C6.41774194,17.373182 6.28326613,17.4186734 6.25080645,17.5096563 Z M8.30040323,17.4323209 C8.16592742,17.4641649 8.07318548,17.5505986 8.08709677,17.655229 C8.10100806,17.7462118 8.22157258,17.8053507 8.36068548,17.7735067 C8.49516129,17.7416627 8.58790323,17.655229 8.57399194,17.5642461 C8.56008065,17.4778123 8.43487903,17.4186734 8.30040323,17.4323209 Z M11.3516129,0 C4.91995968,0 0,4.79024893 0,11.099912 C0,16.1449131 3.23669355,20.462051 7.85987903,21.9814652 C8.45342742,22.0860955 8.66209677,21.7267131 8.66209677,21.4310187 C8.66209677,21.1489718 8.64818548,19.5931644 8.64818548,18.6378441 C8.64818548,18.6378441 5.40221774,19.3202158 4.72056452,17.2821991 C4.72056452,17.2821991 4.19193548,15.9583981 3.43145161,15.6172123 C3.43145161,15.6172123 2.36955645,14.9029967 3.50564516,14.9166441 C3.50564516,14.9166441 4.66028226,15.007627 5.29556452,16.0903233 C6.31108871,17.846293 8.01290323,17.341338 8.67600806,17.0410945 C8.78266129,16.3132314 9.08407258,15.8082764 9.41794355,15.5080329 C6.82580645,15.2259859 4.21048387,14.8575052 4.21048387,10.4812284 C4.21048387,9.23021374 4.56290323,8.60243183 5.30483871,7.80178244 C5.18427419,7.50608806 4.79012097,6.2869174 5.42540323,4.71291347 C6.39455645,4.4172191 8.625,5.94118243 8.625,5.94118243 C9.55241935,5.68643035 10.5493952,5.55450517 11.5370968,5.55450517 C12.5247984,5.55450517 13.5217742,5.68643035 14.4491935,5.94118243 C14.4491935,5.94118243 16.6796371,4.41266995 17.6487903,4.71291347 C18.2840726,6.29146654 17.8899194,7.50608806 17.7693548,7.80178244 C18.5112903,8.60698098 18.9657258,9.23476289 18.9657258,10.4812284 C18.9657258,14.8711527 16.2344758,15.2214368 13.6423387,15.5080329 C14.0689516,15.8674153 14.4306452,16.5497869 14.4306452,17.6188358 C14.4306452,19.1518974 14.4167339,21.0488906 14.4167339,21.4219204 C14.4167339,21.7176148 14.6300403,22.0769972 15.2189516,21.9723669 C19.8560484,20.462051 23,16.1449131 23,11.099912 C23,4.79024893 17.7832661,0 11.3516129,0 Z M4.50725806,15.6899986 C4.44697581,15.7354901 4.4608871,15.8401204 4.53971774,15.9265541 C4.61391129,15.9993404 4.72056452,16.0311844 4.78084677,15.9720456 C4.84112903,15.9265541 4.82721774,15.8219238 4.7483871,15.7354901 C4.67419355,15.6627038 4.56754032,15.6308597 4.50725806,15.6899986 Z M4.00645161,15.3215179 C3.97399194,15.3806568 4.0203629,15.4534431 4.11310484,15.4989346 C4.18729839,15.544426 4.28004032,15.5307786 4.3125,15.4670906 C4.34495968,15.4079517 4.29858871,15.3351654 4.20584677,15.2896739 C4.11310484,15.2623791 4.03891129,15.2760265 4.00645161,15.3215179 Z M5.50887097,16.9410133 C5.43467742,17.0001522 5.4625,17.1366265 5.56915323,17.2230602 C5.67580645,17.3276906 5.81028226,17.341338 5.87056452,17.2685517 C5.93084677,17.2094128 5.90302419,17.0729385 5.81028226,16.9865047 C5.70826613,16.8818744 5.56915323,16.868227 5.50887097,16.9410133 Z M4.98024194,16.2722891 C4.90604839,16.3177805 4.90604839,16.4360583 4.98024194,16.5406886 C5.05443548,16.6453189 5.1796371,16.6908104 5.23991935,16.6453189 C5.3141129,16.58618 5.3141129,16.4679023 5.23991935,16.363272 C5.175,16.2586417 5.05443548,16.2131502 4.98024194,16.2722891 Z" id="Shape"></path>
            </g>
        </g>
    </g>
</svg>