<?xml version="1.0" encoding="UTF-8"?>
<svg width="31px" height="14px" viewBox="0 0 31 14" version="1.1" xmlns="http://www.w3.org/2000/svg" xmlns:xlink="http://www.w3.org/1999/xlink">
    <!-- Generator: sketchtool 60 (101010) - https://sketch.com -->
    <title>8ACE7B54-013F-485A-81F6-7DA2FCEB7259@3x</title>
    <desc>Created with sketchtool.</desc>
    <g id="Asset-Artboard-Page" stroke="none" stroke-width="1" fill="none" fill-rule="evenodd">
        <g id="Icons/Brands/Soundcloud" fill="#22263D" fill-rule="nonzero">
            <g id="soundcloud-brands">
                <path d="M5.39677718,7.01259446 L5.6777584,10.2871537 L5.39677718,13.7279597 C5.38224367,13.8539043 5.2901981,13.9496222 5.18361901,13.9496222 C5.07703993,13.9496222 4.98014986,13.8539043 4.98014986,13.7279597 L4.70885765,10.2871537 L4.98014986,7.01259446 C4.98014986,6.90176322 5.07219543,6.80100756 5.18361901,6.80100756 C5.2901981,6.80100756 5.38224367,6.90176322 5.39677718,7.01259446 Z M6.43350098,4.71536524 C6.29785488,4.71536524 6.20580931,4.82619647 6.19127579,4.96725441 L5.94905061,10.2871537 L6.19127579,13.7279597 C6.20580931,13.8690176 6.29785488,13.9798489 6.43350098,13.9798489 C6.55461358,13.9798489 6.66119266,13.8690176 6.66119266,13.7279597 L6.94217388,10.2871537 L6.66119266,4.96725441 C6.66119266,4.82619647 6.55461358,4.71536524 6.43350098,4.71536524 Z M7.66884944,3.50125945 C7.51866982,3.50125945 7.41209074,3.61209068 7.39755723,3.76826196 L7.18439906,10.3173804 L7.39755723,13.7329975 C7.41209074,13.8891688 7.51866982,14 7.66884944,14 C7.80449554,14 7.92560814,13.8891688 7.92560814,13.7329975 L8.18236684,10.3173804 L7.92560814,3.76826196 C7.92560814,3.61209068 7.80449554,3.50125945 7.66884944,3.50125945 Z M0.34880427,8.36775819 C0.280981218,8.36775819 0.242225188,8.4231738 0.227691676,8.49370277 L0,10.2871537 L0.227691676,12.0503778 C0.242225188,12.1209068 0.280981218,12.1763224 0.34880427,12.1763224 C0.416627323,12.1763224 0.455383353,12.1209068 0.469916864,12.0503778 L0.741209074,10.2871537 L0.469916864,8.49370277 C0.455383353,8.4231738 0.416627323,8.36775819 0.34880427,8.36775819 Z M1.49210716,7.26448363 C1.4242841,7.26448363 1.37099456,7.31989924 1.37099456,7.39042821 L1.06094632,10.2871537 L1.37099456,13.1133501 C1.37099456,13.1989924 1.4242841,13.2544081 1.49210716,13.2544081 C1.55993021,13.2544081 1.61321975,13.1989924 1.62775326,13.1284635 L1.97655753,10.2871537 L1.62775326,7.39042821 C1.61321975,7.31989924 1.55993021,7.26448363 1.49210716,7.26448363 L1.49210716,7.26448363 Z M2.7177666,6.69017632 C2.63541004,6.69017632 2.56758699,6.76070529 2.55789798,6.85642317 L2.27691676,10.2871537 L2.55789798,13.6020151 C2.57243149,13.6876574 2.64025454,13.7581864 2.7177666,13.7581864 C2.80012317,13.7581864 2.86794622,13.6876574 2.86794622,13.6020151 L3.20221698,10.2871537 L2.86794622,6.85642317 C2.86794622,6.76070529 2.80012317,6.69017632 2.7177666,6.69017632 L2.7177666,6.69017632 Z M3.94342605,6.57934509 C3.85138048,6.57934509 3.76902392,6.64987406 3.76902392,6.76070529 L3.4880427,10.2871537 L3.76902392,13.7027708 C3.76902392,13.813602 3.85138048,13.884131 3.94342605,13.884131 C4.03547163,13.884131 4.11782819,13.813602 4.1323617,13.7027708 L4.44240994,10.2871537 L4.1323617,6.76070529 C4.11782819,6.64987406 4.03547163,6.57934509 3.94342605,6.57934509 Z M15.6380581,0.992443325 C15.5847686,0.952141058 15.502412,0.921914358 15.434589,0.921914358 C15.3280099,0.921914358 15.2311198,0.962216625 15.1632967,1.01763224 C15.0712512,1.10327456 15.0131171,1.22921914 15.0034281,1.35516373 L15.0034281,1.39546599 L14.8435595,10.2972292 L14.9259161,11.9345088 L15.0082726,13.5314861 C15.0228061,13.768262 15.2117418,13.9647355 15.4394335,13.9647355 C15.6671251,13.9647355 15.8560608,13.768262 15.8560608,13.5314861 L16.0449964,10.2972292 L15.8560608,1.35516373 C15.8366828,1.20403023 15.7591707,1.06297229 15.6380581,0.992443325 L15.6380581,0.992443325 Z M14.3445756,1.76322418 C14.2767526,1.72292191 14.2089295,1.69269521 14.1314174,1.69269521 C14.0539054,1.69269521 13.9812378,1.72292191 13.9182593,1.76322418 C13.8116802,1.83375315 13.7438571,1.95969773 13.7438571,2.10075567 L13.7293236,2.18639798 L13.5936775,10.2871537 C13.5936775,10.2871537 13.5936775,10.302267 13.7438571,13.5919395 L13.7438571,13.6070529 C13.7438571,13.6926952 13.7729242,13.7732997 13.8262137,13.8438287 C13.9085703,13.9395466 14.0151494,14 14.1362619,14 C14.242841,14 14.3397311,13.9445844 14.4075542,13.8740554 C14.4899107,13.8035264 14.5286668,13.7078086 14.5286668,13.5919395 L14.5432003,13.2544081 L14.6933799,10.302267 L14.5335113,2.10075567 C14.5189777,1.95969773 14.4511547,1.83375315 14.3445756,1.76322418 L14.3445756,1.76322418 Z M8.94779843,2.89672544 C8.79761881,2.89672544 8.66681721,3.03778338 8.66681721,3.20403023 L8.45365905,10.2871537 L8.66681721,13.6725441 C8.68135072,13.8387909 8.80246332,13.9647355 8.94779843,13.9647355 C9.10766705,13.9647355 9.22877965,13.8387909 9.24331316,13.6725441 L9.48553835,10.2871537 L9.24331316,3.20403023 C9.23362415,3.03778338 9.11251156,2.89672544 8.94779843,2.89672544 Z M27.1970441,6.0604534 C26.6738377,6.0604534 26.1748538,6.17128463 25.7146259,6.36775819 C25.4045777,2.80100756 22.5269424,0 19.0146772,0 C18.1523556,0 17.3191009,0.166246851 16.5778918,0.473551637 C16.2823771,0.584382872 16.2000205,0.695214106 16.2000205,0.937027708 L16.2000205,13.5163728 C16.2000205,13.768262 16.3889562,13.9496222 16.6166479,13.9798489 L27.1921996,13.9798489 C29.2898697,13.9798489 30.9999898,12.2166247 30.9999898,10.0352645 C31.004824,7.83879093 29.2947142,6.0604534 27.1970441,6.0604534 L27.1970441,6.0604534 Z M12.8234014,3.02267003 C12.6199323,3.02267003 12.4600636,3.18891688 12.4455301,3.41561713 L12.2856615,10.302267 L12.4455301,13.6070529 C12.4600636,13.8186398 12.6199323,13.9848866 12.8234014,13.9848866 C13.0268706,13.9848866 13.1867392,13.8186398 13.1867392,13.6070529 L13.3756749,10.302267 L13.1867392,3.41561713 C13.1722057,3.18891688 13.0268706,3.02267003 12.8234014,3.02267003 Z M10.2267474,2.62972292 C10.0668788,2.62972292 9.91669918,2.78589421 9.91669918,2.96725441 L9.72776353,10.2871537 L9.91669918,13.6574307 C9.93123269,13.8387909 10.0668788,13.9798489 10.2267474,13.9798489 C10.4011496,13.9798489 10.5367957,13.8387909 10.5513292,13.6574307 L10.7644873,10.2871537 L10.5513292,2.96725441 C10.5367957,2.78589421 10.4011496,2.62972292 10.2267474,2.62972292 L10.2267474,2.62972292 Z M11.5202299,2.80100756 C11.3312943,2.80100756 11.1859592,2.95717884 11.1859592,3.14861461 L10.9970235,10.2871537 L11.1859592,13.6322418 C11.2004927,13.8287154 11.3361388,13.9798489 11.5202299,13.9798489 C11.7043211,13.9798489 11.8545007,13.8236776 11.8545007,13.6322418 L12.0579698,10.2871537 L11.8545007,3.14861461 C11.8545007,2.95214106 11.7091656,2.80100756 11.5202299,2.80100756 L11.5202299,2.80100756 Z" id="Shape"></path>
            </g>
        </g>
    </g>
</svg>