<?xml version="1.0" encoding="UTF-8"?>
<svg width="22px" height="19px" viewBox="0 0 22 19" version="1.1" xmlns="http://www.w3.org/2000/svg" xmlns:xlink="http://www.w3.org/1999/xlink">
    <!-- Generator: sketchtool 60 (101010) - https://sketch.com -->
    <title>5C1EB7FB-0E3D-4A8B-883C-4E899BF470A4@3x</title>
    <desc>Created with sketchtool.</desc>
    <g id="Asset-Artboard-Page" stroke="none" stroke-width="1" fill="none" fill-rule="evenodd">
        <g id="Icons/Brands/Vimeo" fill="#22263D" fill-rule="nonzero">
            <g id="vimeo-v-brands">
                <path d="M21.9897529,4.38880625 C21.8915405,6.52726899 20.3987123,9.45539341 17.5014469,13.1731795 C14.5108798,17.0577265 11.9819109,19 9.90962959,19 C8.62795798,19 7.54271113,17.8179598 6.65388905,15.4538795 C4.92535108,9.11696697 4.1887582,5.40408558 2.759768,5.40408558 C2.59280695,5.40408558 2.0182645,5.75232148 1.03123004,6.43898383 L0,5.10489699 C2.53387952,2.88305383 4.9548148,0.411069388 6.47219614,0.273736919 C8.18600225,0.106976064 9.23687476,1.27920678 9.63463492,3.78061961 C11.0439826,12.6827064 11.6676313,14.0266027 14.2309745,9.99491382 C15.1492603,8.54311344 15.6452328,7.43954896 15.7139815,6.67931565 C15.9496912,4.4280441 13.9559798,4.58009077 12.6055595,5.15884903 C13.6858958,1.62253795 15.7532665,-0.0941179085 18.802761,0.00397671212 C21.0518246,0.0628334845 22.117429,1.52934806 21.9897529,4.38880625 L21.9897529,4.38880625 Z" id="Path"></path>
            </g>
        </g>
    </g>
</svg>