<?xml version="1.0" encoding="UTF-8"?>
<svg width="26px" height="18px" viewBox="0 0 26 18" version="1.1" xmlns="http://www.w3.org/2000/svg" xmlns:xlink="http://www.w3.org/1999/xlink">
    <!-- Generator: sketchtool 60 (101010) - https://sketch.com -->
    <title>7522E73D-2BED-432F-95C7-4E8EB487E072@3x</title>
    <desc>Created with sketchtool.</desc>
    <g id="Asset-Artboard-Page" stroke="none" stroke-width="1" fill="none" fill-rule="evenodd">
        <g id="Icons/Brands/Youtube" fill="#22263D" fill-rule="nonzero">
            <g id="youtube-brands">
                <path d="M25.4567048,2.81639063 C25.1576829,1.70779688 24.276661,0.834703125 23.1580308,0.53840625 C21.1304332,0 13,0 13,0 C13,0 4.86961442,0 2.84196919,0.53840625 C1.72333896,0.83475 0.842317087,1.70779688 0.543295235,2.81639063 C0,4.82578125 0,9.0181875 0,9.0181875 C0,9.0181875 0,13.2105938 0.543295235,15.2199844 C0.842317087,16.3285781 1.72333896,17.1652969 2.84196919,17.4615938 C4.86961442,18 13,18 13,18 C13,18 21.1303856,18 23.1580308,17.4615938 C24.276661,17.1652969 25.1576829,16.3285781 25.4567048,15.2199844 C26,13.2105938 26,9.0181875 26,9.0181875 C26,9.0181875 26,4.82578125 25.4567048,2.81639063 Z M10.3408907,12.8245781 L10.3408907,5.21179688 L17.1363182,9.01828125 L10.3408907,12.8245781 Z" id="Shape"></path>
            </g>
        </g>
    </g>
</svg>