<svg id="Layer_1" data-name="Layer 1" xmlns="http://www.w3.org/2000/svg" viewBox="0 0 1131.11 1060.89"><defs><style>.cls-1{fill:none;stroke:#d6d900;stroke-miterlimit:10;stroke-width:0.5px;}</style></defs><title>Artboard 1</title><path class="cls-1" d="M652.29,243.8c.44-6.41-10.91-6.83-13.58-1s.52,12.57,3.75,18.12c80.91,138.94,233.23,230.85,293,380.09,6.4,16,11.7,33,10.07,50.09S934,725.53,917.73,731.26c-12.16,4.29-25.53,1.64-38.13-1l-115-24.54c6.84,51.82,50.5,97.48,42.24,149.09-5.76,36-40.1,65.27-76.6,65.21-42-.07-76-33.14-102.6-65.7-44-53.95-83.4-119.46-75.65-188.67,2.79-24.87,11.6-48.67,21.85-71.5,2.52-5.6,5.19-11.55,4.38-17.63-.69-5.17-3.8-9.67-7-13.78-39.7-51-103.95-75.62-166.17-93-19.85-5.54-40-10.67-58.22-20.36-38.61-20.58-65.1-62.26-67.34-106s19.85-87.87,56.16-112.29c16.28-11,36.52-18.17,55.55-13.37,13.54,3.42,25,12.53,34.47,22.78,30,32.4,44,79,36.81,122.53s-35.35,83.18-74.16,104.26c-12.72,6.91-27,12.29-36.19,23.46-7.5,9.09-10.7,20.92-13,32.48-9.07,46.17-6.39,93.89.07,140.5,5.84,42.06,15.23,84.92,39.18,120,44.36,64.94,128.67,90.1,182.46,147.47a193.51,193.51,0,0,1-90.28-24.38c18.3,10.06,42,5.66,59.06-6.42s28.39-30.57,37.22-49.49c21.36-45.81,30.39-96.47,50.2-143s54.73-91.3,104.07-102.29c43.21-9.62,87.85,8.72,125.16,32.56s71.16,53.71,111.77,71.33c6.85,3,14.21,5.63,21.62,4.71,12.65-1.56,22-13.49,24.71-26s0-25.4-2.89-37.82A947.37,947.37,0,0,0,870.48,345.38c-22.59,10.76-31.9,37.29-47.2,57.09C799,433.85,758,448.65,718.33,449.64c-40.22,1-81.57-11.44-111.26-38.6S561.1,341.21,570,302c12.05-53,63.23-86.67,111.86-110.92C690.07,187,699,182.35,702.6,174c4.35-10-.33-21.47-5.46-31.1-9.14-17.18-20.31-34-36.41-44.91s-38-15-55.26-6c-14.85,7.81-23.66,23.53-30.37,38.92-25.79,59.12-32.82,125-57.45,184.58-7.44,18-17.08,36.11-33.1,47.22-33.71,23.38-79.85,7.35-116.25-11.58s-77.64-40.88-116.22-26.92C225.64,333.76,207.24,359,199.23,386s-7.12,55.66-5.13,83.71c3.58,50.41,12.66,105.06,50,139.14,23.78,21.71,59.37,36.32,65.49,67.94,4.43,22.87-9.11,44.8-19,65.91-31,66.45-25.12,152.33,25.28,205.61,12.12,12.81,27.21,23.87,44.64,26.59s37.26-4.89,44.63-20.92c6.49-14.11,2.28-30.67-3.06-45.26-13.7-37.38-34.27-72.06-46.42-110-13.26-41.39-16.09-85.44-27.59-127.35-23.85-86.85-82.91-158.8-135.77-231.72-3.86-5.33-7.86-11.19-7.71-17.77.13-5.78,3.45-10.93,6.66-15.73l30.37-45.43c4.88-7.31,10-14.84,17.42-19.54,17.29-10.92,39.88-3,60.21-5.17,36.61-3.88,61.81-41.16,66.74-77.64s-5-73.07-10.55-109.46-6.05-76.42,14.9-106.69C392.15,10.71,433.6-3,471.75.54S545.19,22.36,576.8,44c105,71.93,177.9,181.24,271.86,267.1-3.91-11.91-20.3-17.56-30.72-10.6,19.32,116,117.41,205,146.61,318.93,3.72,14.53,5,32.88-7.23,41.58-7.75,5.53-18.17,4.87-27.64,3.86a1152.91,1152.91,0,0,1-130-21.46c-32.45-7.28-65-16.14-93.82-32.75-52.09-30-87.1-82.41-115.55-135.37s-52.69-109-91.43-155-96.18-81.4-156-75.48c-20.91,2.07-41.15,9.05-62.11,10.41-28.85,1.89-57.65-7.06-82.88-21.18-19.77-11.06-43.4-25.64-63-14.36-9,5.16-14.44,14.7-19.1,24C80,314.59,66.33,402.83,104.88,472.28c24.69,44.49,67.54,76,96.48,117.87,36.8,53.23,48.87,119.6,78.9,176.92,8.82,16.83,21.64,34.5,40.51,36.78q9.44-92.67,18.88-185.35c2.83-27.77,5.74-55.88,15.43-82.06s27.07-50.62,52.11-62.94C440.77,457,481.3,465,515.88,479.27c51.7,21.36,97.15,55.54,148,78.92,27.93,12.85,64.63,20.94,86.49-.69,7.84-7.76,12.34-18.29,15.41-28.88,10.81-37.3,6-77.21-.84-115.44a1197.42,1197.42,0,0,0-56.65-207.86c-4-10.65-11.09-23.27-22.41-22.28L648.54,443.55C641.45,493,634.34,542.66,621.46,591c-10.82,40.59-30.42,84.93-70.28,98.17-26.49,8.81-55.86,1.21-80.72-11.49-5.65-2.89-11.46-6.11-17.82-6.23-15.27-.29-24.38,16.11-35.25,26.85-20.62,20.36-54.6,21.89-81.24,10.5s-47.26-33.29-65.4-55.89-34.87-46.74-57.16-65.24"/><path class="cls-1" d="M810.39,500.28c5.86-2.64.86-12.84-5.55-12.43s-10.83,6.4-14.2,11.87c-84.17,137-93.13,314.66-196.35,437.94-11,13.19-23.52,25.9-39.38,32.56s-35.82,6-48.53-5.57c-9.53-8.68-13.52-21.71-17.1-34.09q-16.38-56.44-32.74-112.89c-42.43,30.52-62,90.58-111.39,107.71-34.49,12-76.48-4.47-93.69-36.67-19.81-37.06-6.74-82.65,9.38-121.47,26.71-64.31,65.83-130,130.48-155.86,23.23-9.31,48.37-12.8,73.33-14.56,6.13-.43,12.63-.89,17.61-4.48,4.23-3.05,6.72-7.92,8.83-12.69,26.13-59.08,17.47-127.35,3.36-190.39-4.49-20.11-9.53-40.32-9.58-60.92-.13-43.76,24.07-86.81,61.52-109.45s86.81-24,125.5-3.6c17.35,9.16,33.28,23.59,38,42.62,3.4,13.55.78,27.94-3.77,41.15-14.36,41.75-48.78,76.09-90.56,90.37s-90,8.18-126.93-16.05c-12.11-7.95-23.58-17.95-37.78-20.79-11.56-2.32-23.5.45-34.76,3.92-45,13.84-85.75,38.77-123.77,66.5-34.3,25-67.63,53.57-87.2,91.25-36.24,69.79-18.55,156-43.67,230.5a193.49,193.49,0,0,1-21.2-91.07c-.21,20.88,14.89,39.7,33.58,49s40.36,10.57,61.21,9.4c50.47-2.84,99.38-18.84,149.72-23.37s106.33,5,139.34,43.33c28.92,33.52,33.86,81.54,30.49,125.68S541,945.83,544.63,990c.62,7.44,1.76,15.18,6.07,21.28,7.36,10.41,22.31,13,34.56,9.49s22.39-12,32-20.42A947.55,947.55,0,0,0,824.05,740.57c-20.15-14.82-47.94-10.48-72.62-14.6-39.11-6.53-71.57-35.71-91.18-70.17-19.9-35-28.49-77.29-18.6-116.29s39.8-73.53,78.58-84.22C772.62,440.86,826.5,470,870.86,501.41c7.47,5.29,15.75,10.93,24.87,10.18,10.87-.9,18.76-10.45,24.82-19.52,10.82-16.18,20.32-34,22.36-53.32s-4.75-40.61-20.88-51.51c-13.9-9.4-31.92-9.72-48.65-8.36-64.29,5.23-125.63,30.16-189.81,36.66-19.39,2-39.89,2-57.25-6.84-36.54-18.66-44.24-66.89-44.76-107.92s-.7-87.74-31.24-115.13c-20.93-18.78-51.88-23.05-79.41-17.37s-52.42,20.05-76.19,35.06c-42.73,27-86.58,60.83-99,109.83-7.89,31.22-3.93,69.49-28.9,89.83-18.06,14.72-43.79,13.16-67.05,14.45-73.24,4.06-146.1,49.88-169.22,119.49-5.56,16.74-8.17,35.26-2.32,51.9s21.92,30.53,39.53,29.44c15.5-.95,28.11-12.49,38.43-24.1,26.46-29.74,47.29-64.27,75-92.89,30.2-31.26,67.68-54.58,99.17-84.54,65.25-62.08,100.73-148.13,140-229.19,2.86-5.92,6.14-12.22,12-15.2,5.15-2.62,11.27-2.12,17-1.57l54.38,5.28c8.76.85,17.8,1.79,25.46,6.12,17.79,10.06,21.51,33.71,33,50.61,20.73,30.41,65.5,35,100,22.09s62-38.93,91.47-61,64.48-41.47,101.05-37.32c38.07,4.32,69.74,34.37,84.67,69.66s15.5,75,11.37,113.11C937,465.84,875.16,581.74,843.94,705.14c8.64-9.08,5.87-26.2-5.19-32.09-93.1,71.89-125.11,200.39-211.7,280C616,963.19,600.43,973,587,966.33c-8.54-4.22-12.88-13.71-16.46-22.53a1151.66,1151.66,0,0,1-42.59-124.72c-8.92-32-16.51-64.92-15.5-98.16,1.83-60.09,31.43-115.71,64.65-165.82s71.15-98,93.35-153.86S696.69,278,663.19,228.09c-11.71-17.45-27.43-32-38.55-49.81-15.3-24.53-21-54.14-20.52-83,.4-22.64,2.08-50.36-17.15-62.34-8.8-5.48-19.79-5.77-30.15-5.5C477.42,29.46,393.21,59.15,350.24,126c-27.53,42.8-35.05,95.47-58.25,140.76-29.5,57.59-82.27,99.61-118.58,153.17-10.66,15.73-20.17,35.39-13.26,53.09L332.4,402c25.81-10.64,52-21.37,79.6-25.21s57.41-.08,80.11,16.16c30.43,21.78,42.54,61.27,46.3,98.5,5.62,55.65-3,111.86.43,167.7,1.88,30.69,12.1,66.85,41.5,75.88,10.54,3.24,21.95,2.23,32.74-.08,38-8.11,70.84-31.25,101.32-55.32A1198.29,1198.29,0,0,0,870.77,531.4c7.51-8.53,15.26-20.77,9-30.28l-247.19,90.3c-47,17.15-94.05,34.35-142.7,45.84-40.88,9.66-89.22,13.36-119.74-15.5-20.28-19.18-27.47-48.65-28-76.56-.13-6.35,0-13-2.93-18.65-7-13.59-25.73-13.87-40.33-18.37-27.69-8.54-45.1-37.76-47.67-66.62s7-57.38,18.33-84.05,24.7-52.82,30.45-81.22"/><path class="cls-1" d="M680.77,252c.44-6.41-10.91-6.83-13.58-1s.52,12.57,3.75,18.12C751.84,408,904.17,500,964,649.19c6.4,16,11.7,33,10.07,50.09s-11.63,34.41-27.85,40.13c-12.16,4.29-25.53,1.64-38.13-1l-115-24.54c6.84,51.82,50.5,97.47,42.24,149.09-5.76,36-40.1,65.27-76.6,65.21-42-.07-76-33.14-102.6-65.7-44-53.95-83.4-119.46-75.65-188.67,2.79-24.87,11.6-48.67,21.85-71.5,2.52-5.6,5.19-11.55,4.38-17.64-.69-5.17-3.81-9.66-7-13.77-39.7-51-104-75.62-166.17-93-19.85-5.55-40-10.67-58.22-20.36-38.61-20.58-65.1-62.26-67.34-106s19.85-87.87,56.16-112.29c16.28-10.95,36.52-18.17,55.55-13.37,13.54,3.42,25,12.53,34.47,22.78,30,32.4,44,79,36.81,122.53s-35.35,83.18-74.16,104.25c-12.72,6.92-27,12.3-36.19,23.47-7.5,9.08-10.7,20.91-13,32.48-9.07,46.17-6.39,93.89.07,140.5,5.84,42.06,15.23,84.92,39.18,120C451.28,856.8,535.59,882,589.38,939.34A193.51,193.51,0,0,1,499.1,915c18.3,10.06,42,5.66,59.06-6.42s28.39-30.57,37.22-49.49c21.36-45.81,30.39-96.48,50.2-143s54.73-91.3,104.06-102.29c43.22-9.63,87.86,8.72,125.17,32.56S946,700.05,986.58,717.67c6.85,3,14.21,5.63,21.62,4.71,12.65-1.56,22-13.49,24.71-26s0-25.4-2.89-37.82A947.37,947.37,0,0,0,899,353.54c-22.59,10.76-31.9,37.29-47.2,57.09-24.24,31.37-65.31,46.18-105,47.17-40.22,1-81.57-11.44-111.26-38.6s-46-69.83-37-109.07c12-53,63.23-86.66,111.86-110.91,8.19-4.09,17.07-8.71,20.72-17.11,4.35-10-.33-21.47-5.46-31.1-9.14-17.18-20.31-34-36.41-44.91s-38-15-55.26-6c-14.85,7.81-23.66,23.53-30.37,38.92-25.79,59.12-32.82,125-57.45,184.58-7.44,18-17.08,36.11-33.1,47.22-33.71,23.38-79.85,7.35-116.25-11.59s-77.64-40.87-116.22-26.91c-26.44,9.56-44.84,34.81-52.85,61.76s-7.12,55.66-5.13,83.71c3.58,50.41,12.66,105.06,50,139.14,23.78,21.71,59.37,36.32,65.49,67.93,4.43,22.88-9.11,44.81-19,65.92C288,817.27,294,903.15,344.35,956.43,356.47,969.24,371.56,980.3,389,983s37.26-4.88,44.63-20.91c6.49-14.11,2.28-30.68-3.06-45.26-13.7-37.38-34.27-72.06-46.42-110-13.26-41.39-16.09-85.44-27.59-127.35-23.85-86.85-82.91-158.8-135.77-231.73-3.86-5.32-7.86-11.18-7.71-17.76.13-5.78,3.45-10.93,6.66-15.73l30.37-45.43c4.88-7.31,10-14.84,17.42-19.54,17.29-10.92,39.88-3,60.21-5.17,36.61-3.88,61.81-41.16,66.74-77.64s-5-73.08-10.55-109.46-6.05-76.42,14.9-106.69c21.81-31.5,63.26-45.2,101.41-41.67s73.44,21.82,105,43.47c105,71.92,177.9,181.24,271.86,267.1-3.91-11.91-20.3-17.57-30.72-10.61,19.32,116,117.41,205,146.61,318.94,3.72,14.53,5,32.88-7.23,41.58-7.75,5.52-18.17,4.86-27.64,3.85a1150.63,1150.63,0,0,1-130-21.45c-32.45-7.28-65-16.14-93.82-32.75-52.09-30-87.1-82.41-115.55-135.37s-52.69-109-91.43-155-96.18-81.4-156-75.48c-20.91,2.07-41.15,9-62.11,10.41-28.85,1.89-57.65-7.06-82.88-21.18-19.77-11.06-43.4-25.65-63-14.37-9,5.17-14.44,14.71-19.1,24C108.47,322.74,94.81,411,133.36,480.43c24.69,44.49,67.54,76,96.48,117.88,36.8,53.23,48.87,119.6,78.9,176.92,8.82,16.83,21.64,34.5,40.51,36.78q9.44-92.67,18.88-185.35c2.83-27.77,5.74-55.88,15.43-82.06s27.07-50.62,52.11-62.94c33.58-16.52,74.11-8.53,108.69,5.77,51.7,21.36,97.15,55.54,148,78.92,27.93,12.85,64.63,20.94,86.49-.69,7.84-7.76,12.34-18.29,15.41-28.89,10.81-37.29,6-77.2-.84-115.44a1197.31,1197.31,0,0,0-56.65-207.85c-4-10.66-11.09-23.27-22.41-22.28L677,451.71c-7.09,49.49-14.2,99.11-27.08,147.41-10.82,40.59-30.42,84.94-70.28,98.18-26.49,8.8-55.86,1.21-80.72-11.49-5.65-2.89-11.46-6.11-17.82-6.23-15.27-.29-24.38,16.11-35.25,26.85-20.62,20.36-54.6,21.89-81.24,10.5s-47.26-33.29-65.4-55.89-34.87-46.74-57.16-65.24"/><path class="cls-1" d="M580.24,761.06c4.65,2.81,7.64-7.49,3.94-12.15s-9.45-4.25-14.33-3.35C447.68,767.91,343.49,873.77,218.67,872.82c-13.36-.1-27.22-1.6-39.54-9.54S156.37,839.63,156,822.53c-.3-12.82,4.83-24.15,9.8-34.75l45.39-96.73C171.11,677.88,126.92,701,90.6,674c-25.36-18.86-38.92-61.49-30.23-95.11,10-38.71,42.56-57.62,73-69.88,50.42-20.31,108.32-32,157.81,1.18,17.78,11.91,33.35,29,47.85,47,3.56,4.43,7.33,9.12,12,10.67,4,1.31,8.06.12,11.87-1.29,47.19-17.44,80.67-67.39,108.28-118.21,8.8-16.2,17.38-32.89,28.86-46,24.4-27.86,61.57-36.61,94.51-22.25s60.46,51.31,70,93.95c4.26,19.12,4.83,40.49-3.23,56.22-5.74,11.2-15.2,18.32-25.05,23.22-31.12,15.47-69,10.86-99.57-12.12S483.4,477.5,477,433.82c-2.11-14.33-2.74-29.48-8.84-42.18-5-10.33-13-17.72-21-24.16C415,341.77,379,326.31,342.89,314.75c-32.57-10.43-66.58-17.88-98.24-9C186,322.26,147.39,390.5,92.12,418.52c7.88-28.8,21.56-54.47,39.44-74-11.79,13.08-14.14,36.6-9.21,56.84s16,37.66,27.89,52.91c28.92,36.9,64.36,64.26,94.16,100S299.15,639,295.63,688.57c-3.08,43.45-27.25,77.7-53.75,103.13s-56.67,45.4-79.34,76.21c-3.83,5.19-7.54,11-8.61,18.15-1.83,12.25,4.79,25.4,13.41,32.54s18.83,9.55,28.72,11.55c86.33,17.41,173.85,15.31,257.23-6.17-2.63-24.86-20.1-43.41-31.17-65-17.53-34.14-18.79-77.55-10.15-114.45,8.78-37.45,27.78-70.89,54.95-88s62.66-16.14,89.64,6.83c36.44,31,49.31,90.85,55.79,144.78,1.09,9.08,2.42,19,7.78,25.53,6.39,7.76,16,7.75,24.36,6.65,14.9-2,30-6,41.92-16.68s20.13-29.41,17.49-48.7c-2.28-16.62-11.86-30.64-21.68-42.61-37.74-46-84.9-77.21-123.29-122.31-11.6-13.63-22.73-29.31-27.18-48.25-9.36-39.86,13.44-76.36,36.09-102.79s48.68-56.21,47.46-97c-.84-28-15.21-54.4-33.3-71.91s-39.6-27.48-60.86-36.19c-38.23-15.65-80.9-27.81-115-6.22-21.73,13.76-41,41.07-65.87,34.83-18-4.51-31.07-25.23-44.39-42.26-41.93-53.59-107-80.4-158.45-54-12.37,6.36-24.14,16.1-30.28,31.15s-5.19,36.18,5,49C121,277.69,134.3,280,146.38,280.6c31,1.42,61.54-4.51,92.53-1.46,33.83,3.34,67.17,17.28,101,22.42,70.05,10.66,137.37-16.73,204-38.05,4.87-1.56,10.16-3,15-.43,4.26,2.29,7.29,7.29,10.09,12.05l26.51,45.06c4.26,7.25,8.64,14.78,10.36,23.4,4,20-7.2,37.89-10.41,57.44-5.78,35.19,15.91,72.43,41.79,90.68s55.37,22.88,83.67,31.41,58.1,23.14,75.59,53.83c18.2,31.93,18.55,75.28,6.91,109.12s-33.55,59.49-57.08,80.48c-78.19,69.77-176.49,95.86-262.39,150.2,9.75.87,17.83-12.11,15.13-24.33-90.61-25.8-179.79,31.18-271.19,15.28-11.66-2-25.56-7.76-29.13-22.29-2.26-9.22.69-18.57,3.68-26.92A1159.52,1159.52,0,0,1,249,746.71c13.08-27.17,27.35-53.86,46.48-74.17,34.59-36.72,81.72-49.31,127.73-55.63s93.31-7.59,136.57-26,83.12-58.06,92.89-115.42c3.41-20.05,3-41.33,7-61.16,5.43-27.3,18.87-50.48,35.31-68.43,12.88-14.06,29.29-30.36,25.57-52.7-1.7-10.23-7.49-18.84-13.26-26.61-44.15-59.58-106.36-105.33-167-95.9-38.83,6-72.35,33.69-110.24,44.63-48.17,13.92-100.25.1-149.86,6.24-14.57,1.8-30.7,7-36.86,23.51l133,87.06c19.92,13,40.08,26.28,57.2,45.05s31.14,44,34.35,71.68c4.3,37.16-11.22,71.51-30,98-28.08,39.62-64.17,68.67-93.53,106.72-16.14,20.92-30.82,51.7-19.95,80,3.9,10.14,10.64,18.25,17.77,25.06,25.1,24,55.84,34.5,85.8,42.61a757,757,0,0,0,167.54,25.9c8.84.35,19.88-1.49,21.83-12.29L433,682.54c-35-25.13-70.14-50.34-102.91-80.36C302.55,577,274.3,542.24,273.91,500.52c-.26-27.73,12.32-51.94,27.61-70.08,3.48-4.13,7.25-8.27,8.84-14.08,3.83-14-6.17-28.53-11.57-42.58-10.22-26.65-3.31-58.55,11.43-78.82s35.87-31.06,56.92-39.28,42.91-14.57,61.9-28.17"/><path class="cls-1" d="M685.08,257.46c.44-6.41-10.91-6.82-13.58-1s.52,12.57,3.75,18.13c80.91,138.94,233.23,230.84,293,380.08,6.4,16,11.7,33,10.08,50.1s-11.64,34.4-27.86,40.13c-12.15,4.29-25.53,1.64-38.13-1l-115-24.53c6.84,51.81,50.5,97.47,42.24,149.08-5.76,36-40.1,65.28-76.6,65.21-42-.07-76-33.14-102.6-65.7-44-53.94-83.4-119.46-75.65-188.67,2.79-24.87,11.6-48.67,21.85-71.49,2.52-5.61,5.19-11.55,4.38-17.64-.69-5.17-3.8-9.66-7-13.78-39.7-51-103.95-75.61-166.17-93-19.84-5.54-40-10.67-58.21-20.36-38.62-20.58-65.11-62.25-67.35-106s19.85-87.87,56.16-112.29C384.75,233.8,405,226.59,424,231.38c13.54,3.42,25,12.53,34.47,22.78,30,32.41,44,79,36.81,122.53S460,459.88,421.15,481c-12.73,6.91-27,12.29-36.2,23.46-7.5,9.09-10.7,20.92-13,32.48-9.07,46.17-6.39,93.9.07,140.5,5.84,42.06,15.23,84.93,39.18,120,44.36,64.94,128.67,90.11,182.46,147.48a193.52,193.52,0,0,1-90.28-24.39c18.3,10.06,42,5.66,59.06-6.42s28.4-30.56,37.22-49.49c21.36-45.81,30.39-96.47,50.2-143S704.62,630.28,754,619.29c43.21-9.63,87.86,8.71,125.16,32.56s71.16,53.7,111.77,71.33c6.85,3,14.21,5.62,21.62,4.71,12.66-1.57,22-13.49,24.71-26s0-25.41-2.88-37.82A947.52,947.52,0,0,0,903.27,359.05c-22.59,10.75-31.9,37.28-47.2,57.08-24.24,31.38-65.31,46.19-105,47.17-40.22,1-81.57-11.44-111.25-38.6s-46-69.83-37.06-109.06c12.05-53,63.23-86.67,111.86-110.92,8.19-4.09,17.08-8.71,20.73-17.1,4.34-10-.34-21.48-5.46-31.1-9.15-17.19-20.32-34-36.42-44.92s-38-15-55.26-5.95c-14.85,7.81-23.65,23.53-30.37,38.91-25.79,59.12-32.82,125-57.44,184.58-7.45,18-17.09,36.11-33.11,47.22-33.71,23.38-79.85,7.35-116.25-11.58s-77.64-40.87-116.22-26.92C258.43,347.42,240,372.67,232,399.62s-7.12,55.67-5.13,83.71c3.58,50.42,12.66,105.06,50,139.14,23.78,21.72,59.37,36.32,65.49,67.94,4.43,22.88-9.11,44.81-19,65.92-31.06,66.45-25.13,152.32,25.27,205.6,12.13,12.82,27.21,23.87,44.64,26.59s37.26-4.89,44.63-20.91c6.49-14.12,2.28-30.68-3.06-45.26-13.7-37.38-34.27-72.06-46.42-110C375.2,771,372.36,726.93,360.86,685,337,598.17,278,526.22,225.09,453.3c-3.86-5.33-7.86-11.19-7.71-17.77.13-5.77,3.45-10.92,6.66-15.73l30.37-45.43c4.89-7.31,10-14.84,17.42-19.53,17.29-10.92,39.88-3,60.21-5.17,36.61-3.89,61.81-41.17,66.74-77.65s-5-73.07-10.55-109.46-6.05-76.42,14.9-106.68c21.81-31.51,63.26-45.2,101.41-41.68S578,36,609.59,57.67c105,71.93,177.9,181.24,271.87,267.1-3.92-11.91-20.31-17.56-30.73-10.6,19.32,116,117.41,205,146.61,318.93,3.73,14.53,5,32.88-7.23,41.58-7.75,5.53-18.17,4.87-27.63,3.86a1152.14,1152.14,0,0,1-130-21.45c-32.45-7.28-65-16.15-93.83-32.75-52.09-30-87.1-82.42-115.55-135.38s-52.69-109-91.43-155-96.18-81.39-156-75.48c-20.9,2.07-41.15,9-62.11,10.42-28.85,1.88-57.65-7.07-82.88-21.19-19.76-11.06-43.4-25.64-63-14.36-9,5.16-14.44,14.7-19.1,24-35.72,70.94-49.38,159.18-10.83,228.63,24.69,44.49,67.54,76,96.48,117.88C271,657,283,723.41,313.05,780.73c8.82,16.83,21.64,34.5,40.51,36.79q9.44-92.68,18.88-185.36c2.83-27.76,5.74-55.88,15.43-82s27.07-50.63,52.12-62.95c33.57-16.52,74.1-8.52,108.68,5.77,51.7,21.36,97.15,55.54,148,78.92,27.93,12.85,64.63,20.94,86.49-.69,7.84-7.76,12.34-18.28,15.41-28.88,10.81-37.3,6-77.21-.84-115.44A1197.66,1197.66,0,0,0,741.05,219c-4-10.65-11.09-23.26-22.41-22.28L681.33,457.21c-7.09,49.49-14.2,99.11-27.08,147.42-10.82,40.59-30.41,84.93-70.28,98.18-26.49,8.8-55.86,1.2-80.72-11.49-5.65-2.89-11.46-6.12-17.81-6.24-15.28-.28-24.39,16.11-35.26,26.85-20.61,20.36-54.6,21.89-81.24,10.5s-47.26-33.29-65.4-55.88-34.86-46.75-57.16-65.25"/><path class="cls-1" d="M843.18,513.94c5.86-2.64.87-12.84-5.55-12.43s-10.83,6.4-14.2,11.88c-84.17,137-93.13,314.66-196.35,437.93-11,13.19-23.52,25.9-39.37,32.57s-35.82,6-48.54-5.57c-9.52-8.68-13.51-21.72-17.1-34.1q-16.38-56.44-32.74-112.89c-42.43,30.53-62,90.58-111.39,107.71-34.49,12-76.48-4.47-93.69-36.66-19.81-37.07-6.74-82.66,9.38-121.48,26.72-64.31,65.83-130,130.48-155.86,23.23-9.3,48.37-12.8,73.33-14.56,6.13-.43,12.63-.89,17.61-4.48,4.23-3,6.72-7.92,8.83-12.69C550,534.23,541.36,466,527.25,402.92c-4.5-20.1-9.53-40.32-9.59-60.92-.13-43.76,24.07-86.8,61.52-109.44S666,208.5,704.68,229c17.35,9.17,33.28,23.59,38.05,42.62,3.39,13.55.77,27.94-3.77,41.15-14.37,41.75-48.79,76.09-90.57,90.37s-90,8.18-126.93-16c-12.1-7.94-23.58-18-37.78-20.79-11.56-2.31-23.49.46-34.76,3.92-45,13.85-85.75,38.77-123.77,66.5-34.3,25-67.63,53.57-87.19,91.25-36.25,69.79-18.56,156-43.68,230.51a193.55,193.55,0,0,1-21.2-91.08c-.21,20.88,14.89,39.71,33.58,49s40.37,10.57,61.21,9.4c50.47-2.83,99.38-18.84,149.72-23.37s106.33,5,139.34,43.33c28.92,33.53,33.86,81.54,30.49,125.69s-13.67,88.09-10,132.21c.62,7.44,1.76,15.18,6.07,21.28,7.36,10.41,22.32,13,34.56,9.5s22.39-12,32-20.43A947.55,947.55,0,0,0,856.84,754.23c-20.15-14.82-47.94-10.48-72.61-14.6-39.12-6.52-71.58-35.71-91.19-70.17-19.9-35-28.49-77.29-18.6-116.28S714.24,479.64,753,469c52.39-14.44,106.27,14.73,150.63,46.12,7.48,5.28,15.75,10.92,24.87,10.17,10.87-.9,18.76-10.45,24.83-19.52,10.82-16.18,20.32-34,22.35-53.32S971,411.8,954.82,400.9c-13.9-9.39-31.92-9.72-48.65-8.36-64.29,5.23-125.63,30.17-189.81,36.66-19.39,2-39.89,2-57.25-6.84-36.54-18.65-44.24-66.89-44.76-107.91s-.7-87.74-31.24-115.14c-20.93-18.77-51.87-23.05-79.41-17.37S451.29,202,427.52,217c-42.74,27-86.59,60.83-99,109.83-7.89,31.23-3.93,69.49-28.89,89.83-18.07,14.72-43.79,13.16-67.06,14.45C159.36,435.17,86.49,481,63.37,550.6c-5.56,16.74-8.17,35.26-2.32,51.9S83,633,100.58,631.94c15.5-1,28.11-12.49,38.44-24.09C165.48,578.1,186.31,543.58,214,515c30.2-31.26,67.68-54.58,99.17-84.54,65.25-62.07,100.73-148.13,140-229.19,2.87-5.92,6.14-12.22,12-15.2,5.16-2.61,11.27-2.12,17-1.56l54.39,5.27c8.75.85,17.79,1.79,25.45,6.12,17.79,10.07,21.51,33.71,33,50.61,20.73,30.42,65.5,35,100,22.09s62-38.93,91.47-61.05,64.48-41.46,101-37.31c38.07,4.32,69.74,34.36,84.67,69.65s15.5,75,11.37,113.11C969.82,479.5,908,595.4,876.73,718.8c8.64-9.08,5.88-26.19-5.18-32.09-93.11,71.89-125.12,200.39-211.71,280-11,10.15-26.62,19.93-40.06,13.29-8.53-4.23-12.88-13.71-16.46-22.53a1152.34,1152.34,0,0,1-42.58-124.72c-8.93-32-16.52-64.92-15.51-98.16,1.83-60.1,31.43-115.72,64.65-165.83s71.16-98,93.36-153.85S729.48,291.67,696,241.75c-11.71-17.45-27.43-32-38.55-49.81-15.3-24.53-21-54.13-20.52-83,.4-22.65,2.08-50.37-17.15-62.35-8.8-5.48-19.78-5.76-30.15-5.49C510.21,43.13,426,72.82,383,139.62c-27.53,42.79-35,95.46-58.25,140.75C295.28,338,242.51,380,206.2,433.55c-10.66,15.72-20.17,35.38-13.26,53.08l172.25-71c25.81-10.64,52-21.37,79.6-25.2s57.41-.09,80.11,16.15c30.43,21.78,42.55,61.27,46.3,98.5,5.62,55.65-3,111.87.43,167.7,1.88,30.69,12.11,66.85,41.5,75.88,10.55,3.24,22,2.23,32.74-.08,38-8.11,70.84-31.25,101.32-55.32A1198.21,1198.21,0,0,0,903.56,545.07c7.51-8.53,15.26-20.78,9-30.29L665.4,605.08c-46.95,17.16-94,34.35-142.7,45.84-40.88,9.66-89.22,13.37-119.74-15.5-20.28-19.18-27.47-48.65-28-76.56-.13-6.35,0-13-2.93-18.64-7-13.6-25.73-13.88-40.33-18.38-27.69-8.53-45.1-37.75-47.67-66.61s7-57.39,18.33-84.05S327,318.35,332.78,290"/><path class="cls-1" d="M713.56,265.62c.44-6.41-10.91-6.83-13.58-1s.52,12.57,3.75,18.12C784.64,421.7,937,513.61,996.78,662.85c6.4,16,11.7,33,10.08,50.1s-11.64,34.4-27.86,40.13c-12.15,4.29-25.53,1.64-38.13-1.05l-115-24.53c6.84,51.81,50.5,97.47,42.24,149.08-5.76,36-40.1,65.27-76.6,65.21-42-.07-76-33.14-102.6-65.7-44-54-83.4-119.46-75.65-188.67,2.79-24.87,11.6-48.67,21.85-71.5,2.52-5.6,5.19-11.54,4.38-17.63-.69-5.17-3.8-9.66-7-13.78-39.7-51-103.95-75.62-166.17-93-19.84-5.54-40-10.67-58.21-20.36-38.62-20.58-65.11-62.26-67.35-106S360.64,277.33,397,252.91c16.28-10.95,36.52-18.16,55.55-13.37,13.54,3.42,25,12.53,34.47,22.78,30,32.4,44,79,36.81,122.53S488.43,468,449.63,489.11c-12.73,6.91-27,12.29-36.2,23.46-7.5,9.09-10.7,20.92-13,32.48-9.07,46.17-6.39,93.89.07,140.5,5.84,42.06,15.23,84.92,39.18,120C484.07,870.47,568.38,895.64,622.17,953a193.52,193.52,0,0,1-90.28-24.39c18.3,10.06,42,5.66,59.06-6.42s28.4-30.57,37.22-49.49c21.36-45.81,30.39-96.47,50.2-143s54.73-91.29,104.07-102.29c43.21-9.62,87.86,8.72,125.16,32.56s71.16,53.71,111.77,71.34c6.85,3,14.21,5.62,21.62,4.71,12.65-1.57,22-13.5,24.71-26s0-25.4-2.88-37.82a947.47,947.47,0,0,0-131.07-305c-22.59,10.75-31.9,37.28-47.2,57.08-24.24,31.38-65.31,46.19-104.95,47.17-40.22,1-81.57-11.44-111.26-38.6s-46-69.83-37.05-109.06c12.05-53,63.23-86.67,111.86-110.92,8.19-4.09,17.08-8.71,20.73-17.11,4.34-10-.34-21.47-5.46-31.1-9.15-17.18-20.32-34-36.42-44.91s-38-15-55.26-6c-14.85,7.82-23.65,23.54-30.37,38.92-25.79,59.12-32.82,125-57.45,184.58-7.44,18-17.08,36.11-33.1,47.22-33.71,23.38-79.85,7.35-116.25-11.58S351.93,332.07,313.35,346c-26.44,9.56-44.83,34.81-52.85,61.76s-7.12,55.67-5.13,83.71c3.58,50.42,12.66,105.06,50,139.14,23.78,21.71,59.37,36.32,65.49,67.94,4.43,22.87-9.11,44.81-19,65.92-31.06,66.44-25.13,152.32,25.27,205.6,12.13,12.82,27.21,23.87,44.64,26.59s37.26-4.89,44.63-20.92c6.49-14.11,2.28-30.67-3.06-45.26-13.7-37.37-34.27-72-46.42-110-13.25-41.39-16.09-85.44-27.59-127.35-23.85-86.85-82.9-158.8-135.77-231.72-3.86-5.33-7.86-11.19-7.71-17.77.13-5.77,3.45-10.93,6.66-15.73l30.37-45.43c4.89-7.31,10-14.84,17.42-19.53,17.29-10.92,39.88-3,60.21-5.18,36.61-3.88,61.81-41.16,66.74-77.64s-5-73.07-10.55-109.46-6-76.42,14.9-106.69c21.81-31.5,63.26-45.2,101.41-41.67s73.44,21.82,105.05,43.47c105,71.93,177.9,181.24,271.87,267.1-3.92-11.91-20.31-17.56-30.73-10.6,19.32,116,117.41,205,146.61,318.93,3.73,14.53,5,32.88-7.23,41.58-7.75,5.53-18.17,4.87-27.64,3.86a1154.6,1154.6,0,0,1-130-21.45c-32.45-7.29-65-16.15-93.83-32.76-52.09-30-87.1-82.41-115.55-135.37s-52.69-109-91.43-155-96.18-81.39-156-75.48c-20.9,2.07-41.15,9.05-62.11,10.42-28.85,1.88-57.65-7.07-82.88-21.19-19.76-11.06-43.4-25.64-63-14.36-9,5.16-14.44,14.7-19.1,24-35.72,70.94-49.38,159.18-10.83,228.63,24.69,44.49,67.54,76,96.48,117.87,36.8,53.23,48.87,119.6,78.9,176.92,8.82,16.83,21.64,34.5,40.51,36.78q9.43-92.67,18.88-185.35c2.83-27.77,5.74-55.88,15.43-82.05s27.07-50.63,52.12-62.95c33.57-16.52,74.1-8.52,108.68,5.77,51.7,21.36,97.15,55.54,148,78.92,27.93,12.85,64.63,20.94,86.49-.69C819.45,571.56,824,561,827,550.44c10.81-37.3,6-77.21-.84-115.44a1197.66,1197.66,0,0,0-56.65-207.86c-4-10.65-11.09-23.27-22.41-22.28L709.81,465.37c-7.09,49.49-14.2,99.11-27.08,147.42-10.82,40.59-30.41,84.93-70.28,98.18-26.49,8.8-55.86,1.2-80.72-11.49-5.65-2.89-11.46-6.12-17.81-6.24-15.28-.29-24.39,16.11-35.26,26.85-20.62,20.36-54.6,21.89-81.24,10.5S350.16,697.3,332,674.71,297.15,628,274.86,609.46"/><path class="cls-1" d="M613,774.72c4.65,2.82,7.64-7.49,3.94-12.15s-9.44-4.25-14.33-3.35C480.47,781.57,376.28,887.43,251.46,886.48c-13.35-.1-27.22-1.6-39.53-9.53s-22.77-23.66-23.17-40.76c-.31-12.81,4.82-24.14,9.8-34.75q22.68-48.36,45.38-96.73c-40-13.17-84.22,9.91-120.54-17.09C98,668.76,84.48,626.13,93.16,592.51c10-38.71,42.56-57.62,73-69.88,50.42-20.31,108.32-32,157.81,1.18,17.78,11.92,33.35,29,47.85,47,3.56,4.42,7.34,9.12,12,10.66,4,1.31,8.07.12,11.87-1.28C442.91,562.75,476.39,512.8,504,462c8.8-16.2,17.38-32.88,28.86-46,24.4-27.86,61.57-36.61,94.51-22.25s60.47,51.31,70,93.95c4.27,19.13,4.83,40.49-3.23,56.23-5.74,11.2-15.2,18.32-25,23.21C638,582.59,600.12,578,569.51,555s-53.32-63.84-59.77-107.52C507.63,433.15,507,418,500.9,405.3c-5-10.32-13-17.72-21-24.16-32.1-25.7-68.12-41.17-104.21-52.73-32.57-10.43-66.58-17.88-98.24-9-58.65,16.49-97.26,84.74-152.53,112.75,7.88-28.79,21.56-54.47,39.44-74-11.79,13.08-14.14,36.61-9.21,56.84s16,37.66,27.9,52.91c28.91,36.9,64.35,64.26,94.15,100s54.75,84.75,51.23,134.35c-3.08,43.45-27.25,77.71-53.75,103.13s-56.66,45.4-79.34,76.21c-3.83,5.2-7.54,11-8.61,18.16-1.83,12.25,4.79,25.39,13.41,32.53s18.83,9.55,28.73,11.55c86.32,17.41,173.84,15.32,257.22-6.16-2.63-24.86-20.1-43.42-31.16-65-17.54-34.13-18.8-77.55-10.15-114.45,8.77-37.44,27.78-70.89,54.94-88s62.66-16.13,89.64,6.83c36.44,31,49.31,90.85,55.79,144.78,1.09,9.09,2.42,19,7.78,25.53,6.39,7.77,16,7.76,24.36,6.65,14.91-2,30-6,41.92-16.68s20.13-29.41,17.49-48.69C734.41,772,724.83,758,715,746c-37.75-46-84.91-77.21-123.29-122.31-11.61-13.63-22.74-29.31-27.19-48.25-9.36-39.85,13.44-76.36,36.09-102.79s48.68-56.2,47.46-97c-.84-28-15.21-54.41-33.3-71.92s-39.59-27.48-60.86-36.18c-38.23-15.65-80.9-27.82-115-6.22-21.72,13.75-41,41.06-65.87,34.82-18-4.51-31.07-25.23-44.39-42.25-41.93-53.59-107-80.4-158.45-54-12.37,6.36-24.14,16.11-30.28,31.15s-5.19,36.18,4.95,49c8.93,11.28,22.21,13.63,34.29,14.18,31,1.42,61.54-4.51,92.53-1.45,33.83,3.33,67.17,17.27,101,22.42,70.05,10.65,137.37-16.74,204-38.06,4.86-1.55,10.15-3,15-.43,4.25,2.29,7.28,7.29,10.08,12.05l26.51,45.06c4.27,7.25,8.64,14.78,10.36,23.4,4,20-7.19,37.89-10.41,57.44-5.78,35.19,15.91,72.44,41.79,90.69s55.37,22.88,83.67,31.41,58.1,23.14,75.59,53.82c18.2,31.94,18.55,75.29,6.91,109.12s-33.55,59.49-57.08,80.49C700.87,850,602.56,876.07,516.66,930.42c9.76.87,17.83-12.12,15.13-24.34C441.18,880.29,352,937.27,260.6,921.36c-11.66-2-25.56-7.76-29.13-22.29-2.26-9.22.69-18.57,3.68-26.92a1159.52,1159.52,0,0,1,46.67-111.78c13.08-27.17,27.35-53.85,46.49-74.17C362.89,649.48,410,636.89,456,630.58s93.32-7.6,136.58-26,83.11-58.06,92.88-115.43c3.41-20.05,3-41.32,7-61.16,5.43-27.3,18.88-50.47,35.31-68.42,12.88-14.07,29.29-30.37,25.57-52.71-1.7-10.23-7.49-18.83-13.25-26.61-44.16-59.58-106.37-105.33-167-95.9-38.83,6-72.35,33.69-110.24,44.63-48.17,13.92-100.24.11-149.86,6.24-14.56,1.8-30.7,7-36.86,23.51l133,87.06c19.92,13,40.08,26.29,57.2,45.05s31.14,44,34.35,71.69c4.3,37.15-11.21,71.5-30,98-28.08,39.62-64.17,68.67-93.53,106.72-16.14,20.92-30.82,51.7-20,80,3.9,10.15,10.64,18.25,17.77,25.06,25.1,24,55.84,34.51,85.8,42.61a757,757,0,0,0,167.55,25.9c8.83.35,19.87-1.48,21.82-12.29L465.79,696.2c-35-25.13-70.14-50.33-102.91-80.35-27.54-25.23-55.79-60-56.18-101.67-.26-27.72,12.32-51.94,27.61-70.08,3.49-4.12,7.25-8.27,8.84-14.08,3.83-14-6.17-28.53-11.56-42.58-10.23-26.65-3.32-58.54,11.42-78.82s35.87-31.05,56.92-39.28,42.91-14.57,61.91-28.17"/><path class="cls-1" d="M717.87,271.13c.45-6.41-10.91-6.83-13.58-1s.52,12.58,3.75,18.13C789,427.21,941.27,519.12,1001.09,668.35c6.4,16,11.7,33,10.08,50.1s-11.64,34.41-27.86,40.13c-12.15,4.29-25.53,1.64-38.13-1.05L830.22,733c6.84,51.82,50.5,97.47,42.25,149.08-5.77,36-40.11,65.28-76.61,65.22-42-.07-76-33.14-102.6-65.7-44-54-83.4-119.47-75.64-188.68,2.78-24.86,11.59-48.67,21.84-71.49,2.52-5.6,5.19-11.55,4.38-17.64-.69-5.17-3.8-9.66-7-13.77-39.7-51-104-75.62-166.17-93-19.84-5.54-40-10.66-58.21-20.35-38.62-20.58-65.11-62.26-67.35-106S365,282.84,401.26,258.42c16.28-11,36.52-18.17,55.55-13.37,13.55,3.41,25,12.53,34.48,22.78,30,32.4,44,79,36.8,122.53s-35.35,83.18-74.15,104.25c-12.73,6.91-27,12.29-36.19,23.46-7.51,9.09-10.71,20.92-13,32.48-9.06,46.18-6.39,93.9.08,140.51C410.68,733.11,420.07,776,444,811c44.36,64.93,128.67,90.1,182.46,147.47a193.51,193.51,0,0,1-90.28-24.38c18.3,10.06,42,5.65,59.06-6.42s28.4-30.57,37.22-49.49c21.37-45.82,30.39-96.48,50.2-143S737.41,643.94,786.75,633c43.21-9.63,87.86,8.72,125.16,32.56s71.16,53.7,111.77,71.33c6.85,3,14.21,5.63,21.62,4.71,12.66-1.56,22-13.49,24.71-26s0-25.4-2.88-37.82A947.71,947.71,0,0,0,936.07,372.71c-22.59,10.75-31.91,37.29-47.21,57.08-24.24,31.38-65.31,46.19-105,47.17-40.22,1-81.57-11.44-111.25-38.59s-46-69.84-37.06-109.07c12-53,63.23-86.66,111.86-110.92,8.2-4.08,17.08-8.71,20.73-17.1,4.35-10-.34-21.47-5.46-31.1-9.15-17.19-20.32-34-36.41-44.91s-38-15-55.27-6c-14.85,7.81-23.65,23.53-30.36,38.91-25.8,59.12-32.83,125-57.45,184.59-7.45,18-17.08,36.11-33.1,47.21-33.72,23.38-79.86,7.35-116.25-11.58s-77.65-40.87-116.23-26.92c-26.43,9.57-44.83,34.82-52.85,61.76S257.69,469,259.68,497c3.58,50.42,12.66,105.06,50,139.14,23.78,21.72,59.37,36.33,65.49,67.94,4.43,22.88-9.11,44.81-19,65.92-31.06,66.45-25.13,152.32,25.27,205.61,12.13,12.81,27.21,23.87,44.64,26.58s37.27-4.88,44.63-20.91c6.49-14.11,2.29-30.68-3.06-45.26C454,898.63,433.39,864,421.25,826c-13.26-41.4-16.09-85.44-27.6-127.36C369.8,611.83,310.75,539.88,257.89,467c-3.87-5.32-7.87-11.19-7.72-17.76.13-5.78,3.46-10.93,6.67-15.73L287.2,388c4.89-7.31,10-14.83,17.42-19.53,17.29-10.92,39.88-3,60.22-5.17,36.6-3.88,61.81-41.16,66.74-77.64s-5-73.08-10.55-109.46-6-76.43,14.9-106.69c21.8-31.5,63.25-45.2,101.41-41.67s73.43,21.82,105,43.46c105,71.93,177.9,181.24,271.87,267.1-3.92-11.9-20.31-17.56-30.73-10.6,19.32,116,117.41,205,146.61,318.94,3.73,14.52,5,32.87-7.23,41.58-7.75,5.52-18.17,4.86-27.63,3.85a1152.14,1152.14,0,0,1-130-21.45c-32.45-7.28-65-16.14-93.83-32.75-52.08-30-87.1-82.41-115.54-135.38s-52.7-109-91.43-155-96.19-81.4-156-75.48c-20.9,2.06-41.14,9-62.11,10.41-28.85,1.88-57.64-7.07-82.88-21.18-19.76-11.06-43.4-25.65-63-14.37-9,5.16-14.44,14.71-19.1,24-35.72,70.94-49.38,159.18-10.83,228.63,24.69,44.49,67.55,76,96.48,117.88,36.81,53.23,48.88,119.59,78.9,176.92,8.82,16.83,21.65,34.5,40.51,36.78q9.45-92.68,18.89-185.36c2.83-27.76,5.73-55.88,15.42-82.05s27.07-50.63,52.12-62.95c33.57-16.51,74.1-8.52,108.68,5.77,51.7,21.37,97.15,55.54,148,78.92,27.93,12.86,64.63,21,86.49-.69,7.84-7.76,12.34-18.28,15.41-28.88,10.81-37.3,6-77.2-.84-115.44a1198.52,1198.52,0,0,0-56.64-207.86c-4-10.65-11.1-23.26-22.42-22.27l-37.31,260.5C707,520.36,699.92,570,687,618.29c-10.82,40.59-30.41,84.94-70.28,98.18-26.49,8.8-55.86,1.21-80.71-11.49-5.66-2.89-11.47-6.12-17.82-6.24-15.28-.28-24.39,16.11-35.26,26.85-20.61,20.36-54.6,21.89-81.24,10.51s-47.26-33.29-65.4-55.89S301.47,633.47,279.17,615"/><path class="cls-1" d="M876,527.6c5.85-2.64.86-12.84-5.56-12.43s-10.83,6.4-14.19,11.88C772.05,664,763.09,841.71,659.87,965c-11,13.19-23.52,25.91-39.37,32.57s-35.82,6-48.54-5.57c-9.52-8.68-13.51-21.72-17.1-34.1Q538.5,901.44,522.12,845c-42.42,30.53-62,90.58-111.39,107.71-34.48,12-76.48-4.47-93.69-36.66-19.81-37.07-6.74-82.66,9.38-121.47,26.72-64.32,65.84-130,130.48-155.87,23.23-9.3,48.37-12.8,73.33-14.55,6.13-.43,12.63-.89,17.61-4.48,4.24-3,6.72-7.92,8.83-12.69,26.13-59.08,17.48-127.36,3.37-190.4-4.5-20.1-9.53-40.32-9.59-60.92-.13-43.75,24.07-86.8,61.52-109.44s86.81-24.06,125.5-3.61c17.35,9.17,33.28,23.59,38,42.63,3.39,13.55.77,27.94-3.77,41.15-14.37,41.75-48.78,76.09-90.57,90.37s-90,8.18-126.92-16.05c-12.11-7.95-23.59-18-37.79-20.8-11.55-2.31-23.49.46-34.75,3.93-45,13.84-85.76,38.76-123.77,66.5-34.31,25-67.64,53.57-87.2,91.25-36.24,69.79-18.56,156-43.68,230.5A193.55,193.55,0,0,1,205.87,681c-.21,20.88,14.89,39.71,33.58,49s40.37,10.57,61.21,9.39C351.13,736.58,400,720.57,450.38,716s106.33,5.06,139.34,43.33c28.92,33.53,33.86,81.54,30.5,125.69s-13.68,88.09-10,132.21c.62,7.45,1.76,15.18,6.07,21.28,7.36,10.41,22.32,13,34.56,9.5s22.39-12,32-20.43A947.5,947.5,0,0,0,889.64,767.9c-20.16-14.82-47.95-10.49-72.62-14.6-39.11-6.53-71.58-35.71-91.19-70.18-19.89-35-28.49-77.29-18.6-116.28s39.8-73.53,78.59-84.22c52.38-14.44,106.26,14.74,150.62,46.12,7.48,5.29,15.75,10.93,24.87,10.17,10.87-.9,18.76-10.45,24.83-19.51,10.82-16.19,20.32-34,22.35-53.32s-4.75-40.62-20.88-51.52c-13.9-9.39-31.92-9.71-48.64-8.35-64.3,5.22-125.64,30.16-189.81,36.65-19.4,2-39.9,2-57.26-6.84-36.54-18.65-44.23-66.89-44.76-107.91s-.7-87.74-31.24-115.14C595,194.2,564,189.93,536.49,195.6s-52.41,20.06-76.18,35.07c-42.74,27-86.59,60.83-99,109.83-7.89,31.22-3.94,69.48-28.9,89.83-18.07,14.72-43.79,13.16-67.06,14.44-73.23,4.06-146.1,49.89-169.22,119.5C90.6,581,88,599.53,93.84,616.17s21.93,30.52,39.53,29.44c15.5-1,28.11-12.5,38.44-24.1,26.46-29.75,47.29-64.27,74.95-92.9C277,497.36,314.44,474,345.93,444.08c65.25-62.08,100.73-148.14,140-229.2,2.87-5.92,6.14-12.22,12-15.2,5.15-2.61,11.26-2.12,17-1.56l54.39,5.27c8.75.85,17.8,1.79,25.45,6.12,17.79,10.07,21.51,33.72,33,50.61,20.72,30.42,65.49,35,100,22.1s62-38.93,91.46-61.06,64.48-41.46,101-37.31c38.07,4.32,69.74,34.37,84.67,69.65s15.5,75,11.37,113.12c-13.72,126.54-75.58,242.45-106.81,365.85,8.64-9.08,5.88-26.2-5.18-32.09-93.11,71.88-125.12,200.38-211.71,280-11,10.15-26.62,19.94-40.06,13.29-8.53-4.22-12.88-13.71-16.46-22.53a1152.34,1152.34,0,0,1-42.58-124.72c-8.93-32-16.52-64.92-15.51-98.16,1.83-60.09,31.44-115.72,64.65-165.82s71.16-98,93.36-153.86,26.24-123.24-7.26-173.16c-11.71-17.44-27.43-32-38.55-49.81-15.3-24.53-21-54.13-20.52-83,.4-22.65,2.08-50.37-17.15-62.34-8.8-5.49-19.78-5.77-30.15-5.5C543,56.79,458.79,86.48,415.82,153.28c-27.53,42.79-35.05,95.47-58.25,140.75-29.5,57.6-82.27,99.62-118.58,153.18-10.66,15.73-20.17,35.38-13.26,53.08l172.26-71c25.8-10.63,51.95-21.36,79.59-25.2S535,404,557.69,420.25C588.12,442,600.24,481.51,604,518.74c5.62,55.66-3,111.87.42,167.7,1.88,30.69,12.11,66.85,41.5,75.88,10.55,3.24,22,2.23,32.74-.07,38-8.11,70.85-31.26,101.32-55.33A1196.91,1196.91,0,0,0,936.35,558.73c7.52-8.53,15.26-20.78,9-30.29L698.2,618.75c-47,17.15-94.05,34.34-142.71,45.84-40.88,9.66-89.22,13.36-119.74-15.51-20.28-19.18-27.47-48.64-28-76.55-.13-6.35,0-13-2.93-18.65-7-13.6-25.73-13.87-40.33-18.38-27.68-8.53-45.1-37.75-47.66-66.61s7-57.39,18.32-84.05,24.7-52.83,30.46-81.22"/><path class="cls-1" d="M746.35,279.29c.45-6.41-10.91-6.83-13.58-1s.52,12.57,3.75,18.13c80.91,138.94,233.23,230.85,293,380.08,6.4,16,11.7,33,10.08,50.1S1028,761,1011.79,766.74c-12.15,4.29-25.53,1.64-38.13-1l-115-24.53C865.54,793,909.2,838.63,901,890.24c-5.77,36-40.11,65.28-76.61,65.22-42-.08-76-33.14-102.6-65.7-44-54-83.4-119.47-75.64-188.68,2.78-24.86,11.59-48.67,21.84-71.49,2.52-5.61,5.19-11.55,4.38-17.64-.69-5.17-3.8-9.66-7-13.78-39.7-51-103.95-75.61-166.17-93-19.84-5.54-40-10.66-58.21-20.35-38.62-20.59-65.11-62.26-67.35-106s19.85-87.87,56.16-112.3c16.28-10.95,36.52-18.16,55.55-13.36,13.55,3.41,25,12.52,34.48,22.78,30,32.4,44,79,36.8,122.53s-35.35,83.18-74.15,104.25c-12.73,6.91-27,12.29-36.2,23.46-7.5,9.09-10.7,20.92-13,32.48-9.06,46.17-6.39,93.9.08,140.51,5.83,42,15.22,84.92,39.17,120C516.86,884.13,601.17,909.3,655,966.67a193.63,193.63,0,0,1-90.28-24.38c18.3,10.05,42,5.65,59.06-6.42s28.4-30.57,37.22-49.5c21.37-45.81,30.39-96.47,50.2-143s54.73-91.3,104.07-102.29c43.21-9.63,87.86,8.72,125.16,32.56s71.16,53.7,111.77,71.33c6.85,3,14.21,5.63,21.62,4.71,12.66-1.57,22-13.49,24.71-26s0-25.4-2.88-37.82A947.71,947.71,0,0,0,964.55,380.87C942,391.62,932.64,418.16,917.34,438c-24.24,31.38-65.31,46.19-105,47.17-40.22,1-81.57-11.44-111.25-38.59s-46-69.84-37.06-109.07c12-53,63.23-86.67,111.86-110.92,8.2-4.08,17.08-8.71,20.73-17.1,4.34-10-.34-21.47-5.46-31.1-9.15-17.19-20.32-34-36.41-44.91s-38-15-55.27-6c-14.85,7.81-23.65,23.53-30.36,38.91-25.8,59.12-32.83,125-57.45,184.58-7.45,18-17.08,36.11-33.1,47.22-33.72,23.38-79.86,7.35-116.25-11.58s-77.65-40.87-116.23-26.92c-26.43,9.57-44.83,34.82-52.85,61.76s-7.12,55.67-5.13,83.71c3.58,50.42,12.66,105.06,50,139.14,23.78,21.72,59.37,36.33,65.49,67.94,4.43,22.88-9.11,44.81-19,65.92-31.06,66.45-25.13,152.32,25.27,205.6,12.13,12.82,27.21,23.88,44.64,26.59s37.26-4.88,44.63-20.91c6.49-14.11,2.29-30.68-3.06-45.26-13.7-37.38-34.27-72.06-46.41-110-13.26-41.4-16.09-85.44-27.6-127.36C398.28,620,339.23,548,286.36,475.12c-3.86-5.33-7.86-11.19-7.71-17.77.13-5.77,3.46-10.92,6.67-15.73l30.36-45.43c4.89-7.31,10-14.84,17.42-19.53,17.29-10.92,39.88-3,60.22-5.17,36.6-3.88,61.81-41.17,66.74-77.64s-5-73.08-10.55-109.46S443.46,108,464.41,77.7c21.8-31.51,63.25-45.2,101.4-41.67s73.44,21.81,105.05,43.46c105,71.93,177.9,181.24,271.87,267.1C938.81,334.69,922.42,329,912,336c19.32,116,117.41,205,146.61,318.94,3.73,14.52,5,32.87-7.23,41.58-7.75,5.52-18.17,4.86-27.63,3.85a1152.14,1152.14,0,0,1-130-21.45c-32.45-7.28-65-16.14-93.83-32.75-52.08-30-87.1-82.41-115.55-135.38s-52.69-109-91.42-155-96.19-81.4-156-75.48c-20.9,2.06-41.14,9-62.11,10.41-28.85,1.88-57.64-7.07-82.88-21.18-19.76-11.07-43.4-25.65-63-14.37-9,5.16-14.44,14.71-19.1,24-35.72,70.94-49.38,159.18-10.83,228.63,24.69,44.49,67.55,76,96.48,117.88,36.81,53.22,48.88,119.59,78.9,176.91,8.82,16.84,21.65,34.5,40.51,36.79q9.44-92.69,18.89-185.36c2.82-27.76,5.73-55.88,15.42-82.05S476.21,521.3,501.26,509c33.57-16.52,74.1-8.52,108.68,5.77,51.7,21.37,97.15,55.54,148,78.92,27.93,12.86,64.63,20.94,86.49-.69,7.84-7.76,12.34-18.28,15.41-28.88,10.81-37.3,6-77.21-.84-115.44A1198.52,1198.52,0,0,0,802.33,240.8c-4-10.65-11.1-23.26-22.42-22.28L742.6,479c-7.09,49.49-14.2,99.12-27.08,147.42-10.82,40.59-30.41,84.93-70.28,98.18-26.49,8.8-55.86,1.21-80.71-11.49-5.66-2.89-11.47-6.12-17.82-6.24-15.28-.28-24.39,16.11-35.26,26.85-20.61,20.36-54.6,21.89-81.24,10.51S383,711,364.81,688.37,330,641.63,307.65,623.13"/><path class="cls-1" d="M645.82,788.38c4.65,2.82,7.65-7.49,3.94-12.14s-9.44-4.25-14.33-3.36C513.26,795.24,409.07,901.09,284.25,900.14c-13.35-.1-27.22-1.6-39.53-9.53S222,867,221.55,849.85c-.31-12.81,4.82-24.14,9.8-34.75q22.69-48.36,45.38-96.73c-40-13.17-84.22,9.91-120.54-17.09-25.37-18.85-38.92-61.49-30.24-95.11,10-38.71,42.56-57.61,73-69.87,50.43-20.32,108.32-32,157.81,1.18,17.78,11.91,33.35,29,47.85,47,3.56,4.42,7.34,9.12,12,10.66,4,1.31,8.07.13,11.88-1.28,47.18-17.44,80.66-67.4,108.27-118.21,8.8-16.21,17.38-32.89,28.86-46,24.4-27.85,61.58-36.61,94.51-22.25s60.47,51.31,70,94c4.27,19.12,4.83,40.48-3.23,56.22-5.74,11.2-15.2,18.32-25,23.21-31.12,15.47-69,10.87-99.57-12.12S549,504.82,542.53,461.14c-2.11-14.33-2.73-29.48-8.83-42.17-5-10.33-13-17.73-21-24.16-32.1-25.71-68.12-41.18-104.21-52.73-32.57-10.43-66.58-17.89-98.24-9C251.58,349.58,213,417.83,157.7,445.84c7.88-28.79,21.56-54.46,39.44-74-11.79,13.09-14.13,36.61-9.21,56.85s15.95,37.66,27.9,52.9c28.91,36.91,64.35,64.26,94.15,100s54.75,84.75,51.23,134.36C358.13,759.34,334,793.6,307.46,819s-56.66,45.4-79.34,76.21c-3.83,5.2-7.53,11-8.61,18.16-1.83,12.25,4.79,25.39,13.41,32.53s18.83,9.56,28.73,11.55c86.32,17.42,173.85,15.32,257.22-6.16-2.63-24.86-20.1-43.42-31.16-65-17.54-34.13-18.8-77.54-10.15-114.45,8.77-37.44,27.78-70.89,54.94-88s62.66-16.13,89.64,6.84c36.45,31,49.31,90.84,55.79,144.77,1.09,9.09,2.42,19,7.79,25.53,6.38,7.77,16,7.76,24.35,6.66,14.91-2,30-6,41.92-16.69s20.13-29.41,17.49-48.69c-2.28-16.63-11.85-30.65-21.67-42.61-37.74-46-84.91-77.22-123.29-122.31-11.6-13.63-22.74-29.32-27.19-48.26-9.36-39.85,13.44-76.36,36.09-102.79s48.68-56.2,47.46-97c-.84-28-15.21-54.41-33.3-71.92S608,289.91,586.72,281.21c-38.23-15.65-80.9-27.81-115-6.22-21.73,13.75-41,41.06-65.88,34.83-18-4.52-31.07-25.24-44.39-42.26-41.93-53.59-107-80.4-158.45-54-12.37,6.36-24.14,16.11-30.28,31.15s-5.19,36.18,4.95,49C186.6,305,199.88,307.37,212,307.92c31,1.43,61.55-4.5,92.53-1.45,33.84,3.33,67.17,17.28,101,22.42,70.05,10.66,137.38-16.73,204-38.05,4.86-1.56,10.15-3,15-.44,4.25,2.29,7.28,7.29,10.08,12.06L661,347.51c4.27,7.26,8.64,14.79,10.36,23.4,4,20-7.19,37.89-10.4,57.44-5.79,35.2,15.9,72.44,41.78,90.69s55.37,22.88,83.67,31.41,58.1,23.14,75.59,53.82c18.2,31.94,18.56,75.29,6.91,109.13s-33.55,59.48-57.08,80.48c-78.18,69.76-176.49,95.86-262.39,150.2,9.76.87,17.83-12.11,15.13-24.33C474,894,384.79,950.93,293.39,935c-11.66-2-25.56-7.77-29.13-22.29-2.26-9.23.7-18.58,3.68-26.92A1159.7,1159.7,0,0,1,314.61,774c13.08-27.17,27.35-53.85,46.49-74.17,34.58-36.72,81.72-49.3,127.72-55.62s93.32-7.6,136.58-26,83.11-58.06,92.88-115.43c3.41-20,3-41.32,7-61.16,5.43-27.3,18.88-50.47,35.32-68.42,12.87-14.06,29.28-30.37,25.56-52.71-1.7-10.23-7.49-18.83-13.25-26.61-44.16-59.58-106.37-105.33-167-95.9-38.84,6-72.36,33.69-110.24,44.64-48.18,13.91-100.25.1-149.86,6.23-14.57,1.81-30.71,7-36.86,23.51l133,87.06c19.92,13,40.08,26.29,57.2,45.06s31.14,44,34.35,71.68c4.3,37.15-11.21,71.5-30,98-28.07,39.62-64.17,68.67-93.53,106.72-16.14,20.92-30.82,51.71-19.95,80,3.9,10.14,10.64,18.24,17.77,25,25.1,24,55.85,34.51,85.81,42.61a757,757,0,0,0,167.54,25.9c8.83.35,19.87-1.48,21.82-12.29L498.58,709.86c-35-25.12-70.14-50.33-102.91-80.35-27.54-25.23-55.79-60-56.18-101.67-.26-27.72,12.32-51.93,27.62-70.07,3.48-4.13,7.25-8.27,8.84-14.08,3.82-14-6.18-28.54-11.57-42.59-10.23-26.65-3.32-58.54,11.43-78.82s35.86-31,56.91-39.27,42.91-14.57,61.91-28.17"/></svg>