<?xml version="1.0" encoding="utf-8"?>
<!-- Generator: Adobe Illustrator 23.0.1, SVG Export Plug-In . SVG Version: 6.00 Build 0)  -->
<svg version="1.1" id="Layer_1" xmlns="http://www.w3.org/2000/svg" xmlns:xlink="http://www.w3.org/1999/xlink" x="0px" y="0px"
	 viewBox="0 0 1262.4 1166.9" style="enable-background:new 0 0 1262.4 1166.9;" xml:space="preserve">
<style type="text/css">
	.st0{fill:#FCFC6D;stroke:#C3C3C3;stroke-width:0.75;stroke-miterlimit:10;}
</style>
<title>Artboard 1</title>
<g>
	<path class="st0" d="M284.7,527c-18.7,10.8,37.1,48.5,37.1,48.5c2.6,5.3,21,8.8,22.9,13.7c2.6,5.7,72.7-13.7,71.4-7.5
		c-0.5,1.2-1,2.7-1.6,3.9c-5.4,10.5-16.1,18.7-26.6,25.4c-23,14.7-50.5,27.1-77.4,21.2c-9.7-2.1-18.7-6.5-27.3-11.4
		c-2.1-1.2-4.3-2.5-6.8-2.4c-2.1,0.1-4,1.1-5.7,2.1c-21.7,13.1-34,36.8-43.4,59.9c-3,7.4-5.8,14.9-10.4,21.5
		c-9.7,14-27.2,22.4-44.5,21.5s-33.8-11.3-42-26.2c-3.7-6.7-5.7-14.8-3-21.9c1.9-5.1,5.9-9.1,10.4-12.3c14-10.2,32.9-13.6,49.8-9.1
		s31.4,17,38.1,32.8c2.2,5.2,3.8,10.9,7.8,14.9c3.3,3.3,7.8,5,12.3,6.3c17.8,5.4,36.7,6.3,55.4,5.8c16.8-0.5,34.1-2.3,48.9-10.1
		c27.4-14.3,40.7-45.7,65.5-63.9c-1.5,12.1-6.1,23.7-13.3,33.7c4.7-6.6,3.9-15.9-0.1-22.9c-4.1-7.1-10.9-12.2-18-16.3
		c-17.2-10.1-36.8-15.7-54.3-25.2c-3.8-2-7.5-4.3-11-6.9c-1.2-0.9-2.3-1.7-3.5-2.6s-2.2-1.8-3.3-2.8c-9.6-8.6-16.9-19.4-18.4-31.9
		c-2-17,7-33.4,17.9-46.7c10.9-13.3-28.8-17.4-20.2-32.3c1.5-2.5,7.4-25.5,7.4-28.3c-0.1-4.9-23.8-10.9-28.6-12.4
		c-4.8-1.6-10.8-2.1-15.8-1.5c-43.8,5.2-18.1,33.5-57.3,53.2c3.3,9.1,13.4,13.8,20.6,20.5c11.4,10.6,15.6,27,14.4,42.2
		c-1.2,15.5-7.8,30.8-19.7,41.1c-11.9,10.3-29.4,14.8-44.5,9.7c-20.4-6.8-31.6-27.9-39.2-47.5c-1.3-3.3-2.7-6.9-5.9-8.7
		c-3.8-2.1-8.5-0.8-12.5,0.8c-7.1,2.8-14.2,6.4-19.2,12.1c-5,5.7-7.4,14-4.6,21c2.5,6,8.3,10.1,14.1,13.3
		c22.3,12.4,47.9,17.8,70.4,29.7c6.8,3.6,13.5,8.1,17.3,14.7c7.9,13.9-0.3,31-9.3,44.2c-8.9,13.2-19.2,28.1-15.3,43.5
		c2.7,10.5,11.9,18.7,22.2,22.9c10.3,4.2,21.7,5,32.8,5.4c20,0.7,41.9-0.5,56.9-13.4c9.5-8.2,16.7-21.3,29.4-22.3
		c9.2-0.8,17.3,5.4,25.2,10c24.9,14.7,59,16,82.1-1.2c5.5-4.1,10.5-9.5,12.3-16c1.8-6.6-0.4-14.5-6.4-18c-5.3-3.1-12-2.1-18-0.7
		c-15.3,3.7-29.8,10.2-45.2,13.3c-16.8,3.4-34.3,2.6-51.3,5.3c-35.2,5.6-65.9,25.2-96.8,42.5c-2.3,1.3-4.7,2.6-7.3,2.2
		c-2.3-0.3-4.2-1.8-5.9-3.2L177,746.4c-2.7-2.2-5.4-4.5-7-7.5c-3.6-7.1,0.4-15.4,0.4-23.3c-0.1-14.2-13.7-25.4-27.9-28.8
		c-14.2-3.4-29-1.1-43.6-0.5s-30.4-0.8-41.5-10.1c-11.5-9.7-15.3-26.2-12.3-40.7c2.9-14.5,11.6-27.3,21.4-38.5
		c32.6-37.3,78.6-60.8,116.3-93.3c-4.9,1-7.7,7.1-5.4,11.4c46.5-2.6,85.5-36.6,131.6-43.1c5.9-0.8,13.2-0.6,16.1,4.5
		c1.9,3.2,1.2,7.2,0.4,10.8c-3.6,16.6-8.2,33-13.7,49c-4.2,12.2-9,24.3-16.7,34.7c-13.9,18.8-36,30-58,38.7
		c-22,8.7-45.1,15.7-64.8,28.7c-19.7,13-36,33.6-36.1,56.8c0,8.1,1.9,16.2,1.6,24.3c-0.4,11.2-5.1,21.8-11.7,30.9
		c-5.2,7.1-11.9,15.6-8.2,23.6c1.7,3.7,5.2,6.2,8.7,8.3c26.5,16.7,60.7,25.6,89.7,13.7c18.5-7.6,32.7-22.8,50.4-32.2
		c22.5-11.9,49.1-13.8,72.9-23c7-2.7,14.5-6.9,16.1-14c-24.1-5-48.2-10-72.3-14.9c-10.8-2.2-21.8-4.5-31.7-9.3
		c-9.9-4.8-18.9-12.5-22.7-22.6c-5.1-13.6-0.4-28.8,6.7-41.5c10.5-19,25.8-35,37.1-53.5c6.2-10.2,10.9-23.9,3.2-33.2
		c-2.7-3.3-6.7-5.5-10.8-7.1c-14.3-5.7-30.2-5.5-45.5-4.5c-28.4,1.9-56.6,6.3-84.2,13.1c-4.4,1.1-9.6,3.3-9.7,7.7L226.9,586
		c19.2,4.8,38.5,9.6,57,16.5c15.6,5.8,32.2,15.2,35.9,31.1c2.4,10.5-1.8,21.5-7.8,30.5c-1.4,2-2.9,4.1-3.2,6.6
		c-0.7,5.9,5.4,10,9.2,14.6c7.2,8.8,6.4,21.9,0.9,31.6c-5.6,9.8-15,16.8-24.7,22.8c-9.6,6-19.8,11.4-28,19.2"/>
	<path class="st0" d="M288.2,542.9c-18.7,10.8,37.1,48.5,37.1,48.5c2.6,5.3,21,8.8,22.9,13.7c2.6,5.7,72.7-13.7,71.4-7.5
		c-0.5,1.2-1,2.7-1.6,3.9c-5.4,10.5-16.1,18.7-26.6,25.4c-23,14.7-50.5,27.1-77.4,21.2c-9.7-2.1-18.7-6.5-27.3-11.4
		c-2.1-1.2-4.3-2.5-6.8-2.4c-2.1,0.1-4,1.1-5.7,2.1c-21.7,13.1-34,36.8-43.4,59.9c-3,7.4-5.8,14.9-10.4,21.5
		c-9.7,14-27.2,22.4-44.5,21.5c-17.3-1-33.8-11.3-42-26.2c-3.7-6.7-5.7-14.8-3-21.9c1.9-5.1,5.9-9.1,10.4-12.3
		c14-10.2,32.9-13.6,49.8-9.1c16.9,4.6,31.4,17,38.1,32.8c2.2,5.2,3.8,10.9,7.8,14.9c3.3,3.3,7.8,5,12.3,6.3
		c17.8,5.4,36.7,6.3,55.4,5.8c16.8-0.5,34.1-2.3,48.9-10.1c27.4-14.3,40.7-45.7,65.5-63.9c-1.5,12.1-6.1,23.7-13.3,33.7
		c4.7-6.6,3.9-15.9-0.1-22.9c-4.1-7.1-10.9-12.2-18-16.3c-17.2-10.1-36.8-15.7-54.3-25.2c-3.8-2-7.5-4.3-11-6.9
		c-1.2-0.9-2.3-1.7-3.5-2.6c-1.1-0.9-2.2-1.8-3.3-2.8c-9.6-8.6-16.9-19.4-18.4-31.9c-2-17,7-33.4,17.9-46.7s-28.8-17.4-20.2-32.3
		c1.5-2.5,7.4-25.5,7.4-28.3c-0.1-4.9-23.8-10.9-28.6-12.4c-4.8-1.6-10.8-2.1-15.8-1.5c-43.8,5.2-18.1,33.5-57.3,53.2
		c3.3,9.1,13.4,13.8,20.6,20.5c11.4,10.6,15.6,27,14.4,42.2c-1.2,15.5-7.8,30.8-19.7,41.1c-11.9,10.3-29.4,14.8-44.5,9.7
		c-20.4-6.8-31.6-27.9-39.2-47.5c-1.3-3.3-2.7-6.9-5.9-8.7c-3.8-2.1-8.5-0.8-12.5,0.8c-7.1,2.8-14.2,6.4-19.2,12.1
		c-5,5.7-7.4,14-4.6,21c2.5,6,8.3,10.1,14.1,13.3c22.3,12.4,47.9,17.8,70.4,29.7c6.8,3.6,13.5,8.1,17.3,14.7
		c7.9,13.9-0.3,31-9.3,44.2c-8.9,13.2-19.2,28.1-15.3,43.5c2.7,10.5,11.9,18.7,22.2,22.9c10.3,4.2,21.7,5,32.8,5.4
		c20,0.7,41.9-0.5,56.9-13.4c9.5-8.2,16.7-21.3,29.4-22.3c9.2-0.8,17.3,5.4,25.2,10c24.9,14.7,59,16,82.1-1.2
		c5.5-4.1,10.5-9.5,12.3-16c1.8-6.6-0.4-14.5-6.4-18c-5.3-3.1-12-2.1-18-0.7c-15.3,3.7-29.8,10.2-45.2,13.3
		c-16.8,3.4-34.3,2.6-51.3,5.3c-35.2,5.6-65.9,25.2-96.8,42.5c-2.3,1.3-4.7,2.6-7.3,2.2c-2.3-0.3-4.2-1.8-5.9-3.2l-16.7-13.5
		c-2.7-2.2-5.4-4.5-7-7.5c-3.6-7.1,0.4-15.4,0.4-23.3c-0.1-14.2-13.7-25.4-27.9-28.8c-14.2-3.4-29-1.1-43.6-0.5S72,701.3,61,692
		c-11.5-9.7-15.3-26.2-12.3-40.7c2.9-14.5,11.6-27.3,21.4-38.5c32.6-37.3,78.6-60.8,116.3-93.3c-4.9,1-7.7,7.1-5.4,11.4
		c46.5-2.6,85.5-36.6,131.6-43.1c5.9-0.8,13.2-0.6,16.1,4.5c1.9,3.2,1.2,7.2,0.4,10.8c-3.6,16.6-8.2,33-13.7,49
		c-4.2,12.2-9,24.3-16.7,34.7c-13.9,18.8-36,30-58,38.7s-45.1,15.7-64.8,28.7c-19.7,13-36,33.6-36.1,56.8c0,8.1,1.9,16.2,1.6,24.3
		c-0.4,11.2-5.1,21.8-11.7,30.9c-5.2,7.1-11.9,15.6-8.2,23.6c1.7,3.7,5.2,6.2,8.7,8.3c26.5,16.7,60.7,25.6,89.7,13.7
		c18.5-7.6,32.7-22.8,50.4-32.2c22.5-11.9,49.1-13.8,72.9-23c7-2.7,14.5-6.9,16.1-14c-24.1-5-48.2-10-72.3-14.9
		c-10.8-2.2-21.8-4.5-31.7-9.3c-9.9-4.8-18.9-12.5-22.7-22.6c-5.1-13.6-0.4-28.8,6.7-41.5c10.5-19,25.8-35,37.1-53.5
		c6.2-10.2,10.9-23.9,3.2-33.2c-2.7-3.3-6.7-5.5-10.8-7.1c-14.3-5.7-30.2-5.5-45.5-4.5c-28.4,1.9-56.6,6.3-84.2,13.1
		c-4.4,1.1-9.6,3.3-9.7,7.7l101.2,25.1c19.2,4.8,38.5,9.6,57,16.5c15.6,5.8,32.2,15.2,35.9,31.1c2.4,10.5-1.8,21.5-7.8,30.5
		c-1.4,2-2.9,4.1-3.2,6.6c-0.7,5.9,5.4,10,9.2,14.6c7.2,8.8,6.4,21.9,0.9,31.6c-5.6,9.8-15,16.8-24.7,22.8s-19.8,11.4-28,19.2"/>
	<path class="st0" d="M274.9,552c-18.7,10.8,37.1,48.5,37.1,48.5c2.6,5.3,21,8.8,22.9,13.7c2.6,5.7,72.7-13.7,71.4-7.5
		c-0.5,1.2-1,2.7-1.6,3.9c-5.4,10.5-16.1,18.7-26.6,25.4c-23,14.7-50.5,27.1-77.4,21.2c-9.7-2.1-18.7-6.5-27.3-11.4
		c-2.1-1.2-4.3-2.5-6.8-2.4c-2.1,0.1-4,1.1-5.7,2.1c-21.7,13.1-34,36.8-43.4,59.9c-3,7.4-5.8,14.9-10.4,21.5
		c-9.7,14-27.2,22.4-44.5,21.5c-17.3-1-33.8-11.3-42-26.2c-3.7-6.7-5.7-14.8-3-21.9c1.9-5.1,5.9-9.1,10.4-12.3
		c14-10.2,32.9-13.6,49.8-9.1c16.9,4.6,31.4,17,38.1,32.8c2.2,5.2,3.8,10.9,7.8,14.9c3.3,3.3,7.8,5,12.3,6.3
		c17.8,5.4,36.7,6.3,55.4,5.8c16.8-0.5,34.1-2.3,48.9-10.1c27.4-14.3,40.7-45.7,65.5-63.9c-1.5,12.1-6.1,23.7-13.3,33.7
		c4.7-6.6,3.9-15.9-0.1-22.9c-4.1-7.1-10.9-12.2-18-16.3c-17.2-10.1-36.8-15.7-54.3-25.2c-3.8-2-7.5-4.3-11-6.9
		c-1.2-0.9-2.3-1.7-3.5-2.6c-1.1-0.9-2.2-1.8-3.3-2.8c-9.6-8.6-16.9-19.4-18.4-31.9c-2-17,7-33.4,17.9-46.7s-28.8-17.4-20.2-32.3
		c1.5-2.5,7.4-25.5,7.4-28.3c-0.1-4.9-23.8-10.9-28.6-12.4c-4.8-1.6-10.8-2.1-15.8-1.5c-43.8,5.2-18.1,33.5-57.3,53.2
		c3.3,9.1,13.4,13.8,20.6,20.5c11.4,10.6,15.6,27,14.4,42.2c-1.2,15.5-7.8,30.8-19.7,41.1c-11.9,10.3-29.4,14.8-44.5,9.7
		c-20.4-6.8-31.6-27.9-39.2-47.5c-1.3-3.3-2.7-6.9-5.9-8.7c-3.8-2.1-8.5-0.8-12.5,0.8c-7.1,2.8-14.2,6.4-19.2,12.1
		c-5,5.7-7.4,14-4.6,21c2.5,6,8.3,10.1,14.1,13.3c22.3,12.4,47.9,17.8,70.4,29.7c6.8,3.6,13.5,8.1,17.3,14.7
		c7.9,13.9-0.3,31-9.3,44.2c-8.9,13.2-19.2,28.1-15.3,43.5c2.7,10.5,11.9,18.7,22.2,22.9c10.3,4.2,21.7,5,32.8,5.4
		c20,0.7,41.9-0.5,56.9-13.4c9.5-8.2,16.7-21.3,29.4-22.3c9.2-0.8,17.3,5.4,25.2,10c24.9,14.7,59,16,82.1-1.2
		c5.5-4.1,10.5-9.5,12.3-16c1.8-6.6-0.4-14.5-6.4-18c-5.3-3.1-12-2.1-18-0.7c-15.3,3.7-29.8,10.2-45.2,13.3
		c-16.8,3.4-34.3,2.6-51.3,5.3c-35.2,5.6-65.9,25.2-96.8,42.5c-2.3,1.3-4.7,2.6-7.3,2.2c-2.3-0.3-4.2-1.8-5.9-3.2l-16.7-13.5
		c-2.7-2.2-5.4-4.5-7-7.5c-3.6-7.1,0.4-15.4,0.4-23.3c-0.1-14.2-13.7-25.4-27.9-28.8c-14.2-3.4-29-1.1-43.6-0.5
		c-14.6,0.6-30.4-0.8-41.5-10.1c-11.5-9.7-15.3-26.2-12.3-40.7s11.6-27.3,21.4-38.5c32.6-37.3,78.6-60.8,116.3-93.3
		c-4.9,1-7.7,7.1-5.4,11.4c46.5-2.6,85.5-36.6,131.6-43.1c5.9-0.8,13.2-0.6,16.1,4.5c1.9,3.2,1.2,7.2,0.4,10.8
		c-3.6,16.6-8.2,33-13.7,49c-4.2,12.2-9,24.3-16.7,34.7c-13.9,18.8-36,30-58,38.7c-22,8.7-45.1,15.7-64.8,28.7
		c-19.7,13-36,33.6-36.1,56.8c0,8.1,1.9,16.2,1.6,24.3c-0.4,11.2-5.1,21.8-11.7,30.9c-5.2,7.1-11.9,15.6-8.2,23.6
		c1.7,3.7,5.2,6.2,8.7,8.3c26.5,16.7,60.7,25.6,89.7,13.7c18.5-7.6,32.7-22.8,50.4-32.2c22.5-11.9,49.1-13.8,72.9-23
		c7-2.7,14.5-6.9,16.1-14c-24.1-5-48.2-10-72.3-14.9c-10.8-2.2-21.8-4.5-31.7-9.3c-9.9-4.8-18.9-12.5-22.7-22.6
		c-5.1-13.6-0.4-28.8,6.7-41.5c10.5-19,25.8-35,37.1-53.5c6.2-10.2,10.9-23.9,3.2-33.2c-2.7-3.3-6.7-5.5-10.8-7.1
		c-14.3-5.7-30.2-5.5-45.5-4.5c-28.4,1.9-56.6,6.3-84.2,13.1c-4.4,1.1-9.6,3.3-9.7,7.7l101.2,25.1c19.2,4.8,38.5,9.6,57,16.5
		c15.6,5.8,32.2,15.2,35.9,31.1c2.4,10.5-1.8,21.5-7.8,30.5c-1.4,2-2.9,4.1-3.2,6.6c-0.7,5.9,5.4,10,9.2,14.6
		c7.2,8.8,6.4,21.9,0.9,31.6c-5.6,9.8-15,16.8-24.7,22.8s-19.8,11.4-28,19.2"/>
	<path class="st0" d="M282,514.4c-20.4,12.2,40.4,54.3,40.4,54.3c2.9,6,22.9,9.8,24.9,15.3c2.8,6.4,79.5-15.6,78-8.6
		c-0.5,1.4-1.1,3.1-1.7,4.4c-6,11.8-17.7,21.1-29.1,28.5c-25.2,16.5-55.2,30.5-84.7,24c-10.6-2.3-20.4-7.2-29.8-12.6
		c-2.3-1.3-4.7-2.8-7.4-2.7c-2.3,0.1-4.3,1.2-6.2,2.4c-23.8,14.8-37.3,41.3-47.6,67.3c-3.3,8.3-6.4,16.7-11.4,24.1
		c-10.6,15.7-29.8,25.2-48.7,24.2c-18.9-1-36.9-12.5-45.8-29.3c-4-7.5-6.2-16.5-3.2-24.5c2.1-5.7,6.5-10.2,11.4-13.8
		c15.3-11.5,36-15.4,54.4-10.3s34.2,19,41.5,36.7c2.4,5.8,4.1,12.2,8.5,16.6c3.6,3.6,8.5,5.6,13.4,7.1c19.5,6,40.1,7,60.5,6.3
		c18.4-0.6,37.2-2.7,53.4-11.4c30-16.2,44.6-51.3,71.8-71.9c-1.7,13.6-6.7,26.6-14.6,37.8c5.2-7.4,4.3-17.8-0.1-25.7
		c-4.4-7.9-11.9-13.6-19.6-18.3c-18.8-11.3-40.2-17.5-59.3-28.1c-4.1-2.3-8.1-4.9-12-7.7c-1.3-1-2.5-1.9-3.8-2.9
		c-1.2-1-2.4-2.1-3.6-3.1c-10.5-9.6-18.4-21.7-20-35.7c-2.2-19,7.7-37.4,19.7-52.4c12-15-31.4-19.5-22-36.2
		c1.6-2.8,8.2-28.6,8.1-31.8c-0.1-5.5-25.9-12.1-31.2-13.9c-5.3-1.7-11.8-2.4-17.2-1.7c-47.9,6-19.8,37.6-62.7,59.8
		c3.6,10.2,14.6,15.4,22.4,22.9c12.4,11.9,16.9,30.2,15.6,47.3c-1.4,17.4-8.6,34.6-21.7,46.2c-13,11.6-32.1,16.6-48.6,11
		c-22.3-7.6-34.4-31.2-42.7-53.2c-1.4-3.7-3-7.8-6.4-9.7c-4.1-2.3-9.3-0.8-13.6,0.9c-7.8,3.2-15.6,7.2-21,13.6
		c-5.4,6.4-8.2,15.7-5.1,23.5c2.7,6.7,9.1,11.3,15.4,14.8c24.3,13.8,52.3,19.8,76.9,33.1c7.4,4,14.8,9,18.8,16.4
		c8.5,15.6-0.5,34.7-10.3,49.5s-21.1,31.6-16.9,48.8c2.9,11.8,12.9,20.9,24.2,25.6c11.3,4.7,23.6,5.6,35.8,6
		c21.9,0.7,45.8-0.7,62.2-15.2c10.4-9.3,18.3-23.9,32.2-25.1c10-0.9,18.9,6,27.5,11.2c27.2,16.4,64.4,17.7,89.7-1.6
		c6.1-4.6,11.5-10.6,13.5-18c2-7.4-0.4-16.3-7-20.2c-5.8-3.4-13.1-2.4-19.6-0.7c-16.7,4.2-32.6,11.5-49.5,15
		c-18.4,3.8-37.5,3.1-56.1,6.1c-38.5,6.3-72.1,28.5-105.9,48c-2.5,1.4-5.2,2.9-8,2.5c-2.5-0.3-4.5-2-6.5-3.6l-18.2-15.1
		c-2.9-2.4-5.9-5-7.6-8.4c-3.9-7.9,0.5-17.3,0.5-26.2c0-15.9-14.9-28.5-30.4-32.3c-15.5-3.8-31.7-1.2-47.6-0.4
		c-15.9,0.7-33.2-0.9-45.3-11.2c-12.6-10.8-16.6-29.3-13.4-45.6c3.3-16.3,12.7-30.6,23.5-43.3c35.7-42,86.1-68.4,127.3-105
		c-5.3,1.1-8.5,7.9-6,12.7c50.8-3.1,93.6-41.3,143.9-48.7c6.4-0.9,14.4-0.7,17.6,5c2,3.6,1.3,8,0.4,12.1c-4,18.6-9,37-15.1,55
		c-4.6,13.6-9.9,27.3-18.3,38.9c-15.3,21.1-39.4,33.8-63.5,43.6c-24.1,9.9-49.3,17.8-70.9,32.4c-21.6,14.6-39.4,37.7-39.6,63.8
		c-0.1,9.1,2,18.1,1.7,27.2c-0.5,12.5-5.7,24.5-12.9,34.7c-5.7,8-13,17.5-9,26.5c1.8,4.1,5.7,6.9,9.5,9.3
		c28.9,18.6,66.3,28.5,97.9,15.1c20.3-8.6,35.8-25.6,55.1-36.2c24.6-13.4,53.7-15.6,79.7-26c7.6-3,15.8-7.8,17.7-15.8
		c-26.3-5.5-52.6-11-78.9-16.5c-11.8-2.5-23.8-5-34.6-10.4c-10.8-5.4-20.6-13.9-24.7-25.3c-5.6-15.2-0.3-32.3,7.4-46.5
		c11.5-21.3,28.3-39.3,40.7-60.2c6.8-11.4,11.9-26.9,3.6-37.3c-3-3.7-7.3-6.1-11.7-7.9c-15.6-6.3-33-6.1-49.7-4.9
		c-31.1,2.2-61.9,7.2-92.1,15c-4.8,1.2-10.5,3.7-10.6,8.6l110.5,27.9c21,5.3,42,10.6,62.3,18.3c17,6.5,35.2,16.9,39.1,34.7
		c2.6,11.8-2,24.1-8.6,34.2c-1.5,2.3-3.1,4.7-3.5,7.4c-0.8,6.6,5.8,11.2,10,16.4c7.8,9.8,7,24.5,0.8,35.5s-16.5,18.8-27,25.6
		S270,765.7,261,774.4"/>
	<path class="st0" d="M275.7,514.4c-20.4,12.2,40.4,54.3,40.4,54.3c2.9,6,22.9,9.8,24.9,15.3c2.8,6.4,79.5-15.6,78-8.6
		c-0.5,1.4-1.1,3.1-1.7,4.4c-6,11.8-17.7,21.1-29.1,28.5c-25.2,16.5-55.2,30.5-84.7,24c-10.6-2.3-20.4-7.2-29.8-12.6
		c-2.3-1.3-4.7-2.8-7.4-2.7c-2.3,0.1-4.3,1.2-6.2,2.4c-23.8,14.8-37.3,41.3-47.6,67.3c-3.3,8.3-6.4,16.7-11.4,24.1
		c-10.6,15.7-29.8,25.2-48.7,24.2c-18.9-1-36.9-12.5-45.8-29.3c-4-7.5-6.2-16.5-3.2-24.5c2.1-5.7,6.5-10.2,11.4-13.8
		c15.3-11.5,36-15.4,54.4-10.3s34.2,19,41.5,36.7c2.4,5.8,4.1,12.2,8.5,16.6c3.6,3.6,8.5,5.6,13.4,7.1c19.5,6,40.1,7,60.5,6.3
		c18.4-0.6,37.2-2.7,53.4-11.4c30-16.2,44.6-51.3,71.8-71.9c-1.7,13.6-6.7,26.6-14.6,37.8c5.2-7.4,4.3-17.8-0.1-25.7
		c-4.4-7.9-11.9-13.6-19.6-18.3c-18.8-11.3-40.2-17.5-59.3-28.1c-4.1-2.3-8.1-4.9-12-7.7c-1.3-1-2.5-1.9-3.8-2.9
		c-1.2-1-2.4-2.1-3.6-3.1c-10.5-9.6-18.4-21.7-20-35.7c-2.2-19,7.7-37.4,19.7-52.4c12-15-31.4-19.5-22-36.2
		c1.6-2.8,8.2-28.6,8.1-31.8c-0.1-5.5-25.9-12.1-31.2-13.9c-5.3-1.7-11.8-2.4-17.2-1.7c-47.9,6-19.8,37.6-62.7,59.8
		c3.6,10.2,14.6,15.4,22.4,22.9c12.4,11.9,16.9,30.2,15.6,47.3c-1.4,17.4-8.6,34.6-21.7,46.2c-13,11.6-32.1,16.6-48.6,11
		c-22.3-7.6-34.4-31.2-42.7-53.2c-1.4-3.7-3-7.8-6.4-9.7c-4.1-2.3-9.3-0.8-13.6,0.9c-7.8,3.2-15.6,7.2-21,13.6
		c-5.4,6.4-8.2,15.7-5.1,23.5c2.7,6.7,9.1,11.3,15.4,14.8c24.3,13.8,52.3,19.8,76.9,33.1c7.4,4,14.8,9,18.8,16.4
		c8.5,15.6-0.5,34.7-10.3,49.5s-21.1,31.6-16.9,48.8c2.9,11.8,12.9,20.9,24.2,25.6c11.3,4.7,23.6,5.6,35.8,6
		c21.9,0.7,45.8-0.7,62.2-15.2c10.4-9.3,18.3-23.9,32.2-25.1c10-0.9,18.9,6,27.5,11.2c27.2,16.4,64.4,17.7,89.7-1.6
		c6.1-4.6,11.5-10.6,13.5-18c2-7.4-0.4-16.3-7-20.2c-5.8-3.4-13.1-2.4-19.6-0.7c-16.7,4.2-32.6,11.5-49.5,15
		c-18.4,3.8-37.5,3.1-56.1,6.1c-38.5,6.3-72.1,28.5-105.9,48c-2.5,1.4-5.2,2.9-8,2.5c-2.5-0.3-4.5-2-6.5-3.6l-18.2-15.1
		c-2.9-2.4-5.9-5-7.6-8.4c-3.9-7.9,0.5-17.3,0.5-26.2c0-15.9-14.9-28.5-30.4-32.3c-15.5-3.8-31.7-1.2-47.6-0.4
		c-15.9,0.7-33.2-0.9-45.3-11.2c-12.6-10.8-16.6-29.3-13.4-45.6c3.3-16.3,12.7-30.6,23.5-43.3c35.7-42,86.1-68.4,127.3-105
		c-5.3,1.1-8.5,7.9-6,12.7c50.8-3.1,93.6-41.3,143.9-48.7c6.4-0.9,14.4-0.7,17.6,5c2,3.6,1.3,8,0.4,12.1c-4,18.6-9,37-15.1,55
		c-4.6,13.6-9.9,27.3-18.3,38.9c-15.3,21.1-39.4,33.8-63.5,43.6c-24.1,9.9-49.3,17.8-70.9,32.4c-21.6,14.6-39.4,37.7-39.6,63.8
		c-0.1,9.1,2,18.1,1.7,27.2c-0.5,12.5-5.7,24.5-12.9,34.7c-5.7,8-13,17.5-9,26.5c1.8,4.1,5.7,6.9,9.5,9.3
		c28.9,18.6,66.3,28.5,97.9,15.1c20.3-8.6,35.8-25.6,55.1-36.2c24.6-13.4,53.7-15.6,79.7-26c7.6-3,15.8-7.8,17.7-15.8
		c-26.3-5.5-52.6-11-78.9-16.5c-11.8-2.5-23.8-5-34.6-10.4c-10.8-5.4-20.6-13.9-24.7-25.3c-5.6-15.2-0.3-32.3,7.4-46.5
		c11.5-21.3,28.3-39.3,40.7-60.2c6.8-11.4,11.9-26.9,3.6-37.3c-3-3.7-7.3-6.1-11.7-7.9c-15.6-6.3-33-6.1-49.7-4.9
		c-31.1,2.2-61.9,7.2-92.1,15c-4.8,1.2-10.5,3.7-10.6,8.6l110.5,27.9c21,5.3,42,10.6,62.3,18.3c17,6.5,35.2,16.9,39.1,34.7
		c2.6,11.8-2,24.1-8.6,34.2c-1.5,2.3-3.1,4.7-3.5,7.4c-0.8,6.6,5.8,11.2,10,16.4c7.8,9.8,7,24.5,0.8,35.5c-6.1,11-16.5,18.8-27,25.6
		s-21.7,12.9-30.7,21.7"/>
	<path class="st0" d="M283.2,502.8c-20.4,12.2,40.4,54.3,40.4,54.3c2.9,6,22.9,9.8,24.9,15.3c2.8,6.4,79.5-15.6,78-8.6
		c-0.5,1.4-1.1,3.1-1.7,4.4c-6,11.8-17.7,21.1-29.1,28.5c-25.2,16.5-55.2,30.5-84.7,24c-10.6-2.3-20.4-7.2-29.8-12.6
		c-2.3-1.3-4.7-2.8-7.4-2.7c-2.3,0.1-4.3,1.2-6.2,2.4c-23.8,14.8-37.3,41.3-47.6,67.3c-3.3,8.3-6.4,16.7-11.4,24.1
		c-10.6,15.7-29.8,25.2-48.7,24.2c-18.9-1-36.9-12.5-45.8-29.3c-4-7.5-6.2-16.5-3.2-24.5c2.1-5.7,6.5-10.2,11.4-13.8
		c15.3-11.5,36-15.4,54.4-10.3s34.2,19,41.5,36.7c2.4,5.8,4.1,12.2,8.5,16.6c3.6,3.6,8.5,5.6,13.4,7.1c19.5,6,40.1,7,60.5,6.3
		c18.4-0.6,37.2-2.7,53.4-11.4c30-16.2,44.6-51.3,71.8-71.9c-1.7,13.6-6.7,26.6-14.6,37.8c5.2-7.4,4.3-17.8-0.1-25.7
		c-4.4-7.9-11.9-13.6-19.6-18.3c-18.8-11.3-40.2-17.5-59.3-28.1c-4.1-2.3-8.1-4.9-12-7.7c-1.3-1-2.5-1.9-3.8-2.9
		c-1.2-1-2.4-2.1-3.6-3.1c-10.5-9.6-18.4-21.7-20-35.7c-2.2-19,7.7-37.4,19.7-52.4s-31.4-19.5-22-36.2c1.6-2.8,8.2-28.6,8.1-31.8
		c-0.1-5.5-25.9-12.1-31.2-13.9c-5.3-1.7-11.8-2.4-17.2-1.7c-47.9,6-19.8,37.6-62.7,59.8c3.6,10.2,14.6,15.4,22.4,22.9
		c12.4,11.9,16.9,30.2,15.6,47.3c-1.4,17.4-8.6,34.6-21.7,46.2c-13,11.6-32.1,16.6-48.6,11c-22.3-7.6-34.4-31.2-42.7-53.2
		c-1.4-3.7-3-7.8-6.4-9.7c-4.1-2.3-9.3-0.8-13.6,0.9c-7.8,3.2-15.6,7.2-21,13.6c-5.4,6.4-8.2,15.7-5.1,23.5
		c2.7,6.7,9.1,11.3,15.4,14.8c24.3,13.8,52.3,19.8,76.9,33.1c7.4,4,14.8,9,18.8,16.4c8.5,15.6-0.5,34.7-10.3,49.5
		s-21.1,31.6-16.9,48.8c2.9,11.8,12.9,20.9,24.2,25.6c11.3,4.7,23.6,5.6,35.8,6c21.9,0.7,45.8-0.7,62.2-15.2
		c10.4-9.3,18.3-23.9,32.2-25.1c10-0.9,18.9,6,27.5,11.2c27.2,16.4,64.4,17.7,89.7-1.6c6.1-4.6,11.5-10.6,13.5-18
		c2-7.4-0.4-16.3-7-20.2c-5.8-3.4-13.1-2.4-19.6-0.7c-16.7,4.2-32.6,11.5-49.5,15c-18.4,3.8-37.5,3.1-56.1,6.1
		c-38.5,6.3-72.1,28.5-105.9,48c-2.5,1.4-5.2,2.9-8,2.5c-2.5-0.3-4.5-2-6.5-3.6l-18.2-15.1c-2.9-2.4-5.9-5-7.6-8.4
		c-3.9-7.9,0.5-17.3,0.5-26.2c0-15.9-14.9-28.5-30.4-32.3c-15.5-3.8-31.7-1.2-47.6-0.4c-15.9,0.7-33.2-0.9-45.3-11.2
		c-12.6-10.8-16.6-29.3-13.4-45.6c3.3-16.3,12.7-30.6,23.5-43.3c35.7-42,86.1-68.4,127.3-105c-5.3,1.1-8.5,7.9-6,12.7
		c50.8-3.1,93.6-41.3,143.9-48.7c6.4-0.9,14.4-0.7,17.6,5c2,3.6,1.3,8,0.4,12.1c-4,18.6-9,37-15.1,55c-4.6,13.6-9.9,27.3-18.3,38.9
		c-15.3,21.1-39.4,33.8-63.5,43.6c-24.1,9.9-49.3,17.8-70.9,32.4c-21.6,14.6-39.4,37.7-39.6,63.8c-0.1,9.1,2,18.1,1.7,27.2
		c-0.5,12.5-5.7,24.5-12.9,34.7c-5.7,8-13,17.5-9,26.5c1.8,4.1,5.7,6.9,9.5,9.3c28.9,18.6,66.3,28.5,97.9,15.1
		c20.3-8.6,35.8-25.6,55.1-36.2c24.6-13.4,53.7-15.6,79.7-26c7.6-3,15.8-7.8,17.7-15.8c-26.3-5.5-52.6-11-78.9-16.5
		c-11.8-2.5-23.8-5-34.6-10.4c-10.8-5.4-20.6-13.9-24.7-25.3c-5.6-15.2-0.3-32.3,7.4-46.5c11.5-21.3,28.3-39.3,40.7-60.2
		c6.8-11.4,11.9-26.9,3.6-37.3c-3-3.7-7.3-6.1-11.7-7.9c-15.6-6.3-33-6.1-49.7-4.9c-31.1,2.2-61.9,7.2-92.1,15
		c-4.8,1.2-10.5,3.7-10.6,8.6l110.5,27.9c21,5.3,42,10.6,62.3,18.3c17,6.5,35.2,16.9,39.1,34.7c2.6,11.8-2,24.1-8.6,34.2
		c-1.5,2.3-3.1,4.7-3.5,7.4c-0.8,6.6,5.8,11.2,10,16.4c7.8,9.8,7,24.5,0.8,35.5c-6.1,11-16.5,18.8-27,25.6
		c-10.6,6.8-21.7,12.9-30.7,21.7"/>
	<path class="st0" d="M290.9,497.8c-20.4,12.2,40.4,54.3,40.4,54.3c2.9,6,22.9,9.8,24.9,15.3c2.8,6.4,79.5-15.6,78-8.6
		c-0.5,1.4-1.1,3.1-1.7,4.4c-6,11.8-17.7,21.1-29.1,28.5c-25.2,16.5-55.2,30.5-84.7,24c-10.6-2.3-20.4-7.2-29.8-12.6
		c-2.3-1.3-4.7-2.8-7.4-2.7c-2.3,0.1-4.3,1.2-6.2,2.4c-23.8,14.8-37.3,41.3-47.6,67.3c-3.3,8.3-6.4,16.7-11.4,24.1
		c-10.6,15.7-29.8,25.2-48.7,24.2s-36.9-12.5-45.8-29.3c-4-7.5-6.2-16.5-3.2-24.5c2.1-5.7,6.5-10.2,11.4-13.8
		c15.3-11.5,36-15.4,54.4-10.3s34.2,19,41.5,36.7c2.4,5.8,4.1,12.2,8.5,16.6c3.6,3.6,8.5,5.6,13.4,7.1c19.5,6,40.1,7,60.5,6.3
		c18.4-0.6,37.2-2.7,53.4-11.4c30-16.2,44.6-51.3,71.8-71.9c-1.7,13.6-6.7,26.6-14.6,37.8c5.2-7.4,4.3-17.8-0.1-25.7
		c-4.4-7.9-11.9-13.6-19.6-18.3c-18.8-11.3-40.2-17.5-59.3-28.1c-4.1-2.3-8.1-4.9-12-7.7c-1.3-1-2.5-1.9-3.8-2.9
		c-1.2-1-2.4-2.1-3.6-3.1c-10.5-9.6-18.4-21.7-20-35.7c-2.2-19,7.7-37.4,19.7-52.4c12-15-31.4-19.5-22-36.2
		c1.6-2.8,8.2-28.6,8.1-31.8c-0.1-5.5-25.9-12.1-31.2-13.9c-5.3-1.7-11.8-2.4-17.2-1.7c-47.9,6-19.8,37.6-62.7,59.8
		c3.6,10.2,14.6,15.4,22.4,22.9c12.4,11.9,16.9,30.2,15.6,47.3c-1.4,17.4-8.6,34.6-21.7,46.2c-13,11.6-32.1,16.6-48.6,11
		c-22.3-7.6-34.4-31.2-42.7-53.2c-1.4-3.7-3-7.8-6.4-9.7c-4.1-2.3-9.3-0.8-13.6,0.9c-7.8,3.2-15.6,7.2-21,13.6
		c-5.4,6.4-8.2,15.7-5.1,23.5c2.7,6.7,9.1,11.3,15.4,14.8c24.3,13.8,52.3,19.8,76.9,33.1c7.4,4,14.8,9,18.8,16.4
		c8.5,15.6-0.5,34.7-10.3,49.5s-21.1,31.6-16.9,48.8c2.9,11.8,12.9,20.9,24.2,25.6s23.6,5.6,35.8,6c21.9,0.7,45.8-0.7,62.2-15.2
		c10.4-9.3,18.3-23.9,32.2-25.1c10-0.9,18.9,6,27.5,11.2c27.2,16.4,64.4,17.7,89.7-1.6c6.1-4.6,11.5-10.6,13.5-18
		c2-7.4-0.4-16.3-7-20.2c-5.8-3.4-13.1-2.4-19.6-0.7c-16.7,4.2-32.6,11.5-49.5,15c-18.4,3.8-37.5,3.1-56.1,6.1
		c-38.5,6.3-72.1,28.5-105.9,48c-2.5,1.4-5.2,2.9-8,2.5c-2.5-0.3-4.5-2-6.5-3.6l-18.2-15.1c-2.9-2.4-5.9-5-7.6-8.4
		c-3.9-7.9,0.5-17.3,0.5-26.2c0-15.9-14.9-28.5-30.4-32.3c-15.5-3.8-31.7-1.2-47.6-0.4s-33.2-0.9-45.3-11.2
		c-12.6-10.8-16.6-29.3-13.4-45.6c3.3-16.3,12.7-30.6,23.5-43.3c35.7-42,86.1-68.4,127.3-105c-5.3,1.1-8.5,7.9-6,12.7
		c50.8-3.1,93.6-41.3,143.9-48.7c6.4-0.9,14.4-0.7,17.6,5c2,3.6,1.3,8,0.4,12.1c-4,18.6-9,37-15.1,55c-4.6,13.6-9.9,27.3-18.3,38.9
		c-15.3,21.1-39.4,33.8-63.5,43.6c-24.1,9.9-49.3,17.8-70.9,32.4c-21.6,14.6-39.4,37.7-39.6,63.8c-0.1,9.1,2,18.1,1.7,27.2
		c-0.5,12.5-5.7,24.5-12.9,34.7c-5.7,8-13,17.5-9,26.5c1.8,4.1,5.7,6.9,9.5,9.3c28.9,18.6,66.3,28.5,97.9,15.1
		c20.3-8.6,35.8-25.6,55.1-36.2c24.6-13.4,53.7-15.6,79.7-26c7.6-3,15.8-7.8,17.7-15.8c-26.3-5.5-52.6-11-78.9-16.5
		c-11.8-2.5-23.8-5-34.6-10.4c-10.8-5.4-20.6-13.9-24.7-25.3c-5.6-15.2-0.3-32.3,7.4-46.5c11.5-21.3,28.3-39.3,40.7-60.2
		c6.8-11.4,11.9-26.9,3.6-37.3c-3-3.7-7.3-6.1-11.7-7.9c-15.6-6.3-33-6.1-49.7-4.9c-31.1,2.2-61.9,7.2-92.1,15
		c-4.8,1.2-10.5,3.7-10.6,8.6l110.5,27.9c21,5.3,42,10.6,62.3,18.3c17,6.5,35.2,16.9,39.1,34.7c2.6,11.8-2,24.1-8.6,34.2
		c-1.5,2.3-3.1,4.7-3.5,7.4c-0.8,6.6,5.8,11.2,10,16.4c7.8,9.8,7,24.5,0.8,35.5c-6.1,11-16.5,18.8-27,25.6s-21.7,12.9-30.7,21.7"/>
	<path class="st0" d="M296.8,491.1c-20.4,12.2,40.4,54.3,40.4,54.3c2.9,6,22.9,9.8,24.9,15.3c2.8,6.4,79.5-15.6,78-8.6
		c-0.5,1.4-1.1,3.1-1.7,4.4c-6,11.8-17.7,21.1-29.1,28.5c-25.2,16.5-55.2,30.5-84.7,24c-10.6-2.3-20.4-7.2-29.8-12.6
		c-2.3-1.3-4.7-2.8-7.4-2.7c-2.3,0.1-4.3,1.2-6.2,2.4c-23.8,14.8-37.3,41.3-47.6,67.3c-3.3,8.3-6.4,16.7-11.4,24.1
		c-10.6,15.7-29.8,25.2-48.7,24.2c-18.9-1-36.9-12.5-45.8-29.3c-4-7.5-6.2-16.5-3.2-24.5c2.1-5.7,6.5-10.2,11.4-13.8
		c15.3-11.5,36-15.4,54.4-10.3s34.2,19,41.5,36.7c2.4,5.8,4.1,12.2,8.5,16.6c3.6,3.6,8.5,5.6,13.4,7.1c19.5,6,40.1,7,60.5,6.3
		c18.4-0.6,37.2-2.7,53.4-11.4c30-16.2,44.6-51.3,71.8-71.9c-1.7,13.6-6.7,26.6-14.6,37.8c5.2-7.4,4.3-17.8-0.1-25.7
		c-4.4-7.9-11.9-13.6-19.6-18.3c-18.8-11.3-40.2-17.5-59.3-28.1c-4.1-2.3-8.1-4.9-12-7.7c-1.3-1-2.5-1.9-3.8-2.9s-2.4-2.1-3.6-3.1
		c-10.5-9.6-18.4-21.7-20-35.7c-2.2-19,7.7-37.4,19.7-52.4s-31.4-19.5-22-36.2c1.6-2.8,8.2-28.6,8.1-31.8
		c-0.1-5.5-25.9-12.1-31.2-13.9c-5.3-1.7-11.8-2.4-17.2-1.7c-47.9,6-19.8,37.6-62.7,59.8c3.6,10.2,14.6,15.4,22.4,22.9
		c12.4,11.9,16.9,30.2,15.6,47.3c-1.4,17.4-8.6,34.6-21.7,46.2c-13,11.6-32.1,16.6-48.6,11c-22.3-7.6-34.4-31.2-42.7-53.2
		c-1.4-3.7-3-7.8-6.4-9.7c-4.1-2.3-9.3-0.8-13.6,0.9c-7.8,3.2-15.6,7.2-21,13.6c-5.4,6.4-8.2,15.7-5.1,23.5
		c2.7,6.7,9.1,11.3,15.4,14.8c24.3,13.8,52.3,19.8,76.9,33.1c7.4,4,14.8,9,18.8,16.4c8.5,15.6-0.5,34.7-10.3,49.5
		s-21.1,31.6-16.9,48.8c2.9,11.8,12.9,20.9,24.2,25.6c11.3,4.7,23.6,5.6,35.8,6c21.9,0.7,45.8-0.7,62.2-15.2
		c10.4-9.3,18.3-23.9,32.2-25.1c10-0.9,18.9,6,27.5,11.2c27.2,16.4,64.4,17.7,89.7-1.6c6.1-4.6,11.5-10.6,13.5-18
		c2-7.4-0.4-16.3-7-20.2c-5.8-3.4-13.1-2.4-19.6-0.7c-16.7,4.2-32.6,11.5-49.5,15c-18.4,3.8-37.5,3.1-56.1,6.1
		c-38.5,6.3-72.1,28.5-105.9,48c-2.5,1.4-5.2,2.9-8,2.5c-2.5-0.3-4.5-2-6.5-3.6l-18.2-15.1c-2.9-2.4-5.9-5-7.6-8.4
		c-3.9-7.9,0.5-17.3,0.5-26.2c0-15.9-14.9-28.5-30.4-32.3c-15.5-3.8-31.7-1.2-47.6-0.4c-15.9,0.7-33.2-0.9-45.3-11.2
		c-12.6-10.8-16.6-29.3-13.4-45.6c3.3-16.3,12.7-30.6,23.5-43.3c35.7-42,86.1-68.4,127.3-105c-5.3,1.1-8.5,7.9-6,12.7
		c50.8-3.1,93.6-41.3,143.9-48.7c6.4-0.9,14.4-0.7,17.6,5c2,3.6,1.3,8,0.4,12.1c-4,18.6-9,37-15.1,55c-4.6,13.6-9.9,27.3-18.3,38.9
		c-15.3,21.1-39.4,33.8-63.5,43.6c-24.1,9.9-49.3,17.8-70.9,32.4c-21.6,14.6-39.4,37.7-39.6,63.8c-0.1,9.1,2,18.1,1.7,27.2
		c-0.5,12.5-5.7,24.5-12.9,34.7c-5.7,8-13,17.5-9,26.5c1.8,4.1,5.7,6.9,9.5,9.3c28.9,18.6,66.3,28.5,97.9,15.1
		c20.3-8.6,35.8-25.6,55.1-36.2c24.6-13.4,53.7-15.6,79.7-26c7.6-3,15.8-7.8,17.7-15.8c-26.3-5.5-52.6-11-78.9-16.5
		c-11.8-2.5-23.8-5-34.6-10.4c-10.8-5.4-20.6-13.9-24.7-25.3c-5.6-15.2-0.3-32.3,7.4-46.5c11.5-21.3,28.3-39.3,40.7-60.2
		c6.8-11.4,11.9-26.9,3.6-37.3c-3-3.7-7.3-6.1-11.7-7.9c-15.6-6.3-33-6.1-49.7-4.9c-31.1,2.2-61.9,7.2-92.1,15
		c-4.8,1.2-10.5,3.7-10.6,8.6l110.5,27.9c21,5.3,42,10.6,62.3,18.3c17,6.5,35.2,16.9,39.1,34.7c2.6,11.8-2,24.1-8.6,34.2
		c-1.5,2.3-3.1,4.7-3.5,7.4c-0.8,6.6,5.8,11.2,10,16.4c7.8,9.8,7,24.5,0.8,35.5s-16.5,18.8-27,25.6c-10.6,6.8-21.7,12.9-30.7,21.7"
		/>
	<path class="st0" d="M306.9,480.9c-20.4,12.2,40.4,54.3,40.4,54.3c2.9,6,22.9,9.8,24.9,15.3c2.8,6.4,79.5-15.6,78-8.6
		c-0.5,1.4-1.1,3.1-1.7,4.4c-6,11.8-17.7,21.1-29.1,28.5c-25.2,16.5-55.2,30.5-84.7,24c-10.6-2.3-20.4-7.2-29.8-12.6
		c-2.3-1.3-4.7-2.8-7.4-2.7c-2.3,0.1-4.3,1.2-6.2,2.4c-23.8,14.8-37.3,41.3-47.6,67.3c-3.3,8.3-6.4,16.7-11.4,24.1
		c-10.6,15.7-29.8,25.2-48.7,24.2s-36.9-12.5-45.8-29.3c-4-7.5-6.2-16.5-3.2-24.5c2.1-5.7,6.5-10.2,11.4-13.8
		c15.3-11.5,36-15.4,54.4-10.3s34.2,19,41.5,36.7c2.4,5.8,4.1,12.2,8.5,16.6c3.6,3.6,8.5,5.6,13.4,7.1c19.5,6,40.1,7,60.5,6.3
		c18.4-0.6,37.2-2.7,53.4-11.4c30-16.2,44.6-51.3,71.8-71.9c-1.7,13.6-6.7,26.6-14.6,37.8c5.2-7.4,4.3-17.8-0.1-25.7
		c-4.4-7.9-11.9-13.6-19.6-18.3c-18.8-11.3-40.2-17.5-59.3-28.1c-4.1-2.3-8.1-4.9-12-7.7c-1.3-1-2.5-1.9-3.8-2.9
		c-1.2-1-2.4-2.1-3.6-3.1c-10.5-9.6-18.4-21.7-20-35.7c-2.2-19,7.7-37.4,19.7-52.4c12-15-31.4-19.5-22-36.2
		c1.6-2.8,8.2-28.6,8.1-31.8c-0.1-5.5-25.9-12.1-31.2-13.9c-5.3-1.7-11.8-2.4-17.2-1.7c-47.9,6-19.8,37.6-62.7,59.8
		c3.6,10.2,14.6,15.4,22.4,22.9c12.4,11.9,16.9,30.2,15.6,47.3c-1.4,17.4-8.6,34.6-21.7,46.2c-13,11.6-32.1,16.6-48.6,11
		c-22.3-7.6-34.4-31.2-42.7-53.2c-1.4-3.7-3-7.8-6.4-9.7c-4.1-2.3-9.3-0.8-13.6,0.9c-7.8,3.2-15.6,7.2-21,13.6
		c-5.4,6.4-8.2,15.7-5.1,23.5c2.7,6.7,9.1,11.3,15.4,14.8c24.3,13.8,52.3,19.8,76.9,33.1c7.4,4,14.8,9,18.8,16.4
		c8.5,15.6-0.5,34.7-10.3,49.5s-21.1,31.6-16.9,48.8c2.9,11.8,12.9,20.9,24.2,25.6c11.3,4.7,23.6,5.6,35.8,6
		c21.9,0.7,45.8-0.7,62.2-15.2c10.4-9.3,18.3-23.9,32.2-25.1c10-0.9,18.9,6,27.5,11.2c27.2,16.4,64.4,17.7,89.7-1.6
		c6.1-4.6,11.5-10.6,13.5-18c2-7.4-0.4-16.3-7-20.2c-5.8-3.4-13.1-2.4-19.6-0.7c-16.7,4.2-32.6,11.5-49.5,15
		c-18.4,3.8-37.5,3.1-56.1,6.1c-38.5,6.3-72.1,28.5-105.9,48c-2.5,1.4-5.2,2.9-8,2.5c-2.5-0.3-4.5-2-6.5-3.6l-18.2-15.1
		c-2.9-2.4-5.9-5-7.6-8.4c-3.9-7.9,0.5-17.3,0.5-26.2c0-15.9-14.9-28.5-30.4-32.3s-31.7-1.2-47.6-0.4c-15.9,0.7-33.2-0.9-45.3-11.2
		c-12.6-10.8-16.6-29.3-13.4-45.6c3.3-16.3,12.7-30.6,23.5-43.3c35.7-42,86.1-68.4,127.3-105c-5.3,1.1-8.5,7.9-6,12.7
		c50.8-3.1,93.6-41.3,143.9-48.7c6.4-0.9,14.4-0.7,17.6,5c2,3.6,1.3,8,0.4,12.1c-4,18.6-9,37-15.1,55c-4.6,13.6-9.9,27.3-18.3,38.9
		c-15.3,21.1-39.4,33.8-63.5,43.6c-24.1,9.9-49.3,17.8-70.9,32.4c-21.6,14.6-39.4,37.7-39.6,63.8c-0.1,9.1,2,18.1,1.7,27.2
		c-0.5,12.5-5.7,24.5-12.9,34.7c-5.7,8-13,17.5-9,26.5c1.8,4.1,5.7,6.9,9.5,9.3c28.9,18.6,66.3,28.5,97.9,15.1
		c20.3-8.6,35.8-25.6,55.1-36.2c24.6-13.4,53.7-15.6,79.7-26c7.6-3,15.8-7.8,17.7-15.8c-26.3-5.5-52.6-11-78.9-16.5
		c-11.8-2.5-23.8-5-34.6-10.4s-20.6-13.9-24.7-25.3c-5.6-15.2-0.3-32.3,7.4-46.5c11.5-21.3,28.3-39.3,40.7-60.2
		c6.8-11.4,11.9-26.9,3.6-37.3c-3-3.7-7.3-6.1-11.7-7.9c-15.6-6.3-33-6.1-49.7-4.9c-31.1,2.2-61.9,7.2-92.1,15
		c-4.8,1.2-10.5,3.7-10.6,8.6l110.5,27.9c21,5.3,42,10.6,62.3,18.3c17,6.5,35.2,16.9,39.1,34.7c2.6,11.8-2,24.1-8.6,34.2
		c-1.5,2.3-3.1,4.7-3.5,7.4c-0.8,6.6,5.8,11.2,10,16.4c7.8,9.8,7,24.5,0.8,35.5c-6.1,11-16.5,18.8-27,25.6s-21.7,12.9-30.7,21.7"/>
</g>
<path class="st0" d="M901.8,679c-33-44-115,106-115,106c-13,8-17,55-29,61c-14,8,55,178.9,38.7,177.2c-3.2-0.8-7.3-1.7-10.4-2.9
	c-28.5-10.9-52.6-35.6-72.6-60c-44-54-83.4-119.5-75.7-188.7c2.8-24.9,11.6-48.7,21.8-71.5c2.5-5.6,5.2-11.5,4.4-17.6
	c-0.7-5.2-3.8-9.7-7-13.8c-39.7-51-104-75.6-166.2-93c-19.9-5.5-40-10.7-58.2-20.4c-38.6-20.6-65.1-62.3-67.3-106
	s19.9-87.9,56.2-112.3c16.3-11,36.5-18.2,55.5-13.4c13.5,3.4,25,12.5,34.5,22.8c30,32.4,44,79,36.8,122.5s-35.4,83.2-74.2,104.3
	c-12.7,6.9-27,12.3-36.2,23.5c-7.5,9.1-10.7,20.9-13,32.5c-9.1,46.2-6.4,93.9,0.1,140.5c5.8,42.1,15.2,84.9,39.2,120
	c44.4,64.9,128.7,90.1,182.5,147.5c-31.6-0.6-62.6-9-90.3-24.4c18.3,10.1,42,5.7,59.1-6.4s28.4-30.6,37.2-49.5
	c21.4-45.8,30.4-96.5,50.2-143c4.2-10,9.2-19.9,14.8-29.4c1.9-3.2,3.8-6.3,5.8-9.4c2-3.1,4.1-6.1,6.3-9
	c19.6-26.5,45.4-47.5,77.1-54.6c43.2-9.6,87.8,8.7,125.2,32.6s37.1-76.8,77.7-59.2c6.8,3,67.6,11.9,75,11
	c12.7-1.6,21.6-62.5,24.3-75c2.7-12.5,2.6-27.6-0.3-40c-25.4-108.6-91.2-36.4-152.5-129.6c-22.6,10.8-31.9,37.3-47.2,57.1
	c-24.3,31.4-65.3,46.2-104.9,47.2c-40.2,1-81.6-11.4-111.3-38.6c-29.7-27.2-46-69.8-37.1-109c12-53,63.2-86.7,111.9-110.9
	c8.2-4.1,17.1-8.7,20.7-17.1c4.3-10-0.3-21.5-5.5-31.1c-9.1-17.2-20.3-34-36.4-44.9s-38-15-55.3-6c-14.8,7.8-23.7,23.5-30.4,38.9
	c-25.8,59.1-32.8,125-57.5,184.6c-7.4,18-17.1,36.1-33.1,47.2c-33.7,23.4-79.9,7.4-116.2-11.6s-77.6-40.9-116.2-26.9
	c-26.4,9.6-44.8,34.8-52.8,61.8c-8,27-7.1,55.7-5.1,83.7c3.6,50.4,12.7,105.1,50,139.1c23.8,21.7,59.4,36.3,65.5,67.9
	c4.4,22.9-9.1,44.8-19,65.9c-31,66.5-25.1,152.3,25.3,205.6c12.1,12.8,27.2,23.9,44.6,26.6c17.4,2.7,37.3-4.9,44.6-20.9
	c6.5-14.1,2.3-30.7-3.1-45.3c-13.7-37.4-34.3-72.1-46.4-110c-13.3-41.4-16.1-85.4-27.6-127.3c-23.9-86.8-82.9-158.8-135.8-231.7
	c-3.9-5.3-7.9-11.2-7.7-17.8c0.1-5.8,3.5-10.9,6.7-15.7l30.4-45.4c4.9-7.3,10-14.8,17.4-19.5c17.3-10.9,39.9-3,60.2-5.2
	c36.6-3.9,61.8-41.2,66.7-77.6s-5-73.1-10.5-109.5s-6-76.4,14.9-106.7c21.8-31.5,63.3-45.2,101.4-41.7c38.1,3.5,73.4,21.8,105,43.5
	c105,71.9,177.9,181.2,271.9,267.1c-3.9-11.9-20.3-17.6-30.7-10.6c19.3,116,117.4,205,146.6,318.9c3.7,14.5,5,32.9-7.2,41.6
	c-7.8,5.5-18.2,4.9-27.6,3.9c-43.7-4.7-87.1-11.8-130-21.5c-32.5-7.3-65-16.1-93.8-32.8c-52.1-30-87.1-82.4-115.5-135.4
	s-52.7-109-91.4-155s-96.2-81.4-156-75.5c-20.9,2.1-41.1,9-62.1,10.4c-28.9,1.9-57.6-7.1-82.9-21.2c-19.8-11.1-43.4-25.6-63-14.4
	c-9,5.2-14.4,14.7-19.1,24c-35.8,70.9-49.5,159.2-10.9,228.6c24.7,44.5,67.5,76,96.5,117.9c36.8,53.2,48.9,119.6,78.9,176.9
	c8.8,16.8,21.6,34.5,40.5,36.8c6.3-61.8,12.6-123.6,18.9-185.3c2.8-27.8,5.7-55.9,15.4-82.1s27.1-50.6,52.1-62.9
	c33.6-16.5,74.1-8.5,108.7,5.8c51.7,21.4,97.2,55.5,148,78.9c27.9,12.8,64.6,20.9,86.5-0.7c7.8-7.8,12.3-18.3,15.4-28.9
	c10.8-37.3,6-77.2-0.8-115.4c-12.6-70.8-31.6-140.4-56.7-207.9c-4-10.6-11.1-23.3-22.4-22.3l-37.3,260.5
	c-7.1,49.5-14.2,99.1-27.1,147.5c-10.8,40.6-30.4,84.9-70.3,98.2c-26.5,8.8-55.9,1.2-80.7-11.5c-5.6-2.9-11.5-6.1-17.8-6.2
	c-15.3-0.3-24.4,16.1-35.2,26.8c-20.6,20.4-54.6,21.9-81.2,10.5s-47.3-33.3-65.4-55.9s-34.9-46.7-57.2-65.2"/>
<path class="st0" d="M861.8,692c-33-44-115,106-115,106c-13,8-17,55-29,61c-14,8,55,178.9,38.7,177.2c-3.2-0.8-7.3-1.7-10.4-2.9
	c-28.5-10.9-52.6-35.6-72.6-60c-44-54-83.4-119.5-75.7-188.7c2.8-24.9,11.6-48.7,21.8-71.5c2.5-5.6,5.2-11.5,4.4-17.6
	c-0.7-5.2-3.8-9.7-7-13.8c-39.7-51-104-75.6-166.2-93c-19.9-5.5-40-10.7-58.2-20.4c-38.6-20.6-65.1-62.3-67.3-106
	s19.9-87.9,56.2-112.3c16.3-11,36.5-18.2,55.5-13.4c13.5,3.4,25,12.5,34.5,22.8c30,32.4,44,79,36.8,122.5
	c-7.2,43.5-35.4,83.2-74.2,104.3c-12.7,6.9-27,12.3-36.2,23.5c-7.5,9.1-10.7,20.9-13,32.5c-9.1,46.2-6.4,93.9,0.1,140.5
	c5.8,42.1,15.2,84.9,39.2,120c44.4,64.9,128.7,90.1,182.5,147.5c-31.6-0.6-62.6-9-90.3-24.4c18.3,10.1,42,5.7,59.1-6.4
	c17.1-12.1,28.4-30.6,37.2-49.5c21.4-45.8,30.4-96.5,50.2-143c4.2-10,9.2-19.9,14.8-29.4c1.9-3.2,3.8-6.3,5.8-9.4
	c2-3.1,4.1-6.1,6.3-9c19.6-26.5,45.4-47.5,77.1-54.6c43.2-9.6,87.8,8.7,125.2,32.6s37.1-76.8,77.7-59.2c6.8,3,67.6,11.9,75,11
	c12.7-1.6,21.6-62.5,24.3-75c2.7-12.5,2.6-27.6-0.3-40c-25.4-108.6-91.2-36.4-152.5-129.6c-22.6,10.8-31.9,37.3-47.2,57.1
	c-24.3,31.4-65.3,46.2-104.9,47.2c-40.2,1-81.6-11.4-111.3-38.6c-29.7-27.2-46-69.8-37.1-109c12-53,63.2-86.7,111.9-110.9
	c8.2-4.1,17.1-8.7,20.7-17.1c4.3-10-0.3-21.5-5.5-31.1c-9.1-17.2-20.3-34-36.4-44.9s-38-15-55.3-6c-14.8,7.8-23.7,23.5-30.4,38.9
	c-25.8,59.1-32.8,125-57.5,184.6c-7.4,18-17.1,36.1-33.1,47.2c-33.7,23.4-79.9,7.4-116.2-11.6s-77.6-40.9-116.2-26.9
	c-26.4,9.6-44.8,34.8-52.8,61.8c-8,27-7.1,55.7-5.1,83.7c3.6,50.4,12.7,105.1,50,139.1c23.8,21.7,59.4,36.3,65.5,67.9
	c4.4,22.9-9.1,44.8-19,65.9c-31,66.5-25.1,152.3,25.3,205.6c12.1,12.8,27.2,23.9,44.6,26.6c17.4,2.7,37.3-4.9,44.6-20.9
	c6.5-14.1,2.3-30.7-3.1-45.3c-13.7-37.4-34.3-72.1-46.4-110c-13.3-41.4-16.1-85.4-27.6-127.3c-23.9-86.8-82.9-158.8-135.8-231.7
	c-3.9-5.3-7.9-11.2-7.7-17.8c0.1-5.8,3.4-10.9,6.7-15.7l30.4-45.4c4.9-7.3,10-14.8,17.4-19.5c17.3-10.9,39.9-3,60.2-5.2
	c36.6-3.9,61.8-41.2,66.7-77.6s-5-73.1-10.5-109.5s-6-76.4,14.9-106.7c21.8-31.5,63.3-45.2,101.4-41.7c38.1,3.5,73.4,21.8,105,43.5
	c105,71.9,177.9,181.2,271.9,267.1c-3.9-11.9-20.3-17.6-30.7-10.6c19.3,116,117.4,205,146.6,318.9c3.7,14.5,5,32.9-7.2,41.6
	c-7.8,5.5-18.2,4.9-27.6,3.9c-43.7-4.7-87.1-11.8-130-21.5c-32.5-7.3-65-16.1-93.8-32.8c-52.1-30-87.1-82.4-115.5-135.4
	s-52.7-109-91.4-155s-96.2-81.4-156-75.5c-20.9,2.1-41.1,9-62.1,10.4c-28.9,1.9-57.6-7.1-82.9-21.2c-19.8-11.1-43.4-25.6-63-14.4
	c-9,5.2-14.4,14.7-19.1,24c-35.8,70.9-49.5,159.2-10.9,228.6c24.7,44.5,67.5,76,96.5,117.9c36.8,53.2,48.9,119.6,78.9,176.9
	c8.8,16.8,21.6,34.5,40.5,36.8c6.3-61.8,12.6-123.6,18.9-185.3c2.8-27.8,5.7-55.9,15.4-82.1s27.1-50.6,52.1-62.9
	c33.6-16.5,74.1-8.5,108.7,5.8c51.7,21.4,97.2,55.5,148,78.9c27.9,12.8,64.6,20.9,86.5-0.7c7.8-7.8,12.3-18.3,15.4-28.9
	c10.8-37.3,6-77.2-0.8-115.4c-12.6-70.8-31.6-140.4-56.7-207.9c-4-10.6-11.1-23.3-22.4-22.3l-37.3,260.5
	c-7.1,49.5-14.2,99.1-27.1,147.5c-10.8,40.6-30.4,84.9-70.3,98.2c-26.5,8.8-55.9,1.2-80.7-11.5c-5.6-2.9-11.5-6.1-17.8-6.2
	c-15.3-0.3-24.4,16.1-35.2,26.8c-20.6,20.4-54.6,21.9-81.2,10.5s-47.3-33.3-65.4-55.9s-34.9-46.7-57.2-65.2"/>
<path class="st0" d="M834.8,661c-33-44-115,106-115,106c-13,8-17,55-29,61c-14,8,55,178.9,38.7,177.2c-3.2-0.8-7.3-1.7-10.4-2.9
	c-28.5-10.9-52.6-35.6-72.6-60c-44-54-83.4-119.5-75.7-188.7c2.8-24.9,11.6-48.7,21.8-71.5c2.5-5.6,5.2-11.5,4.4-17.6
	c-0.7-5.2-3.8-9.7-7-13.8c-39.7-51-104-75.6-166.2-93c-19.9-5.5-40-10.7-58.2-20.4c-38.6-20.6-65.1-62.3-67.3-106
	s19.9-87.9,56.2-112.3c16.3-11,36.5-18.2,55.5-13.4c13.5,3.4,25,12.5,34.5,22.8c30,32.4,44,79,36.8,122.5s-35.4,83.2-74.2,104.3
	c-12.7,6.9-27,12.3-36.2,23.5c-7.5,9.1-10.7,20.9-13,32.5c-9.1,46.2-6.4,93.9,0.1,140.5c5.8,42.1,15.2,84.9,39.2,120
	c44.4,64.9,128.7,90.1,182.5,147.5c-31.6-0.6-62.6-9-90.3-24.4c18.3,10.1,42,5.7,59.1-6.4s28.4-30.6,37.2-49.5
	c21.4-45.8,30.4-96.5,50.2-143c4.2-10,9.2-19.9,14.8-29.4c1.9-3.2,3.8-6.3,5.8-9.4c2-3.1,4.1-6.1,6.3-9
	c19.6-26.5,45.4-47.5,77.1-54.6c43.2-9.6,87.8,8.7,125.2,32.6s37.1-76.8,77.7-59.2c6.8,3,67.6,11.9,75,11
	c12.6-1.6,21.6-62.5,24.3-75c2.7-12.5,2.6-27.6-0.3-40c-25.4-108.6-91.2-36.4-152.5-129.6c-22.6,10.8-31.9,37.3-47.2,57.1
	c-24.3,31.4-65.3,46.2-104.9,47.2c-40.2,1-81.6-11.4-111.3-38.6c-29.7-27.2-46-69.8-37.1-109c12-53,63.2-86.7,111.9-110.9
	c8.2-4.1,17.1-8.7,20.7-17.1c4.3-10-0.3-21.5-5.5-31.1c-9.1-17.2-20.3-34-36.4-44.9s-38-15-55.3-6c-14.8,7.8-23.7,23.5-30.4,38.9
	c-25.8,59.1-32.8,125-57.5,184.6c-7.4,18-17.1,36.1-33.1,47.2c-33.7,23.4-79.9,7.4-116.2-11.6s-77.6-40.9-116.2-26.9
	c-26.4,9.6-44.8,34.8-52.8,61.8s-7.1,55.7-5.1,83.7c3.6,50.4,12.7,105.1,50,139.1c23.8,21.7,59.4,36.3,65.5,67.9
	c4.4,22.9-9.1,44.8-19,65.9c-31,66.5-25.1,152.3,25.3,205.6c12.1,12.8,27.2,23.9,44.6,26.6c17.4,2.7,37.3-4.9,44.6-20.9
	c6.5-14.1,2.3-30.7-3.1-45.3c-13.7-37.4-34.3-72.1-46.4-110c-13.3-41.4-16.1-85.4-27.6-127.3c-23.9-86.8-82.9-158.8-135.8-231.7
	c-3.9-5.3-7.9-11.2-7.7-17.8c0.1-5.8,3.4-10.9,6.7-15.7l30.4-45.4c4.9-7.3,10-14.8,17.4-19.5c17.3-10.9,39.9-3,60.2-5.2
	c36.6-3.9,61.8-41.2,66.7-77.6s-5-73.1-10.5-109.5s-6-76.4,14.9-106.7C411,98.7,452.4,85,490.6,88.5S564,110.3,595.6,132
	c105,71.9,177.9,181.2,271.9,267.1c-3.9-11.9-20.3-17.6-30.7-10.6c19.3,116,117.4,205,146.6,318.9c3.7,14.5,5,32.9-7.2,41.6
	c-7.8,5.5-18.2,4.9-27.6,3.9c-43.7-4.7-87.1-11.8-130-21.5c-32.5-7.3-65-16.1-93.8-32.8c-52.1-30-87.1-82.4-115.5-135.4
	s-52.7-109-91.4-155s-96.2-81.4-156-75.5c-20.9,2.1-41.1,9-62.1,10.4c-28.9,1.9-57.6-7.1-82.9-21.2c-19.8-11.1-43.4-25.6-63-14.4
	c-9,5.2-14.4,14.7-19.1,24c-35.8,70.9-49.5,159.2-10.9,228.6c24.7,44.5,67.5,76,96.5,117.9c36.8,53.2,48.9,119.6,78.9,176.9
	c8.8,16.8,21.6,34.5,40.5,36.8c6.3-61.8,12.6-123.6,18.9-185.3c2.8-27.8,5.7-55.9,15.4-82.1s27.1-50.6,52.1-62.9
	c33.6-16.5,74.1-8.5,108.7,5.8c51.7,21.4,97.2,55.5,148,78.9c27.9,12.8,64.6,20.9,86.5-0.7c7.8-7.8,12.3-18.3,15.4-28.9
	c10.8-37.3,6-77.2-0.8-115.4c-12.6-70.8-31.6-140.4-56.7-207.9c-4-10.6-11.1-23.3-22.4-22.3l-37.3,260.5
	c-7.1,49.5-14.2,99.1-27.1,147.5c-10.8,40.6-30.4,84.9-70.3,98.2c-26.5,8.8-55.9,1.2-80.7-11.5c-5.6-2.9-11.5-6.1-17.8-6.2
	c-15.3-0.3-24.4,16.1-35.2,26.8c-20.6,20.4-54.6,21.9-81.2,10.5s-47.3-33.3-65.4-55.9s-34.9-46.7-57.2-65.2"/>
<path class="st0" d="M933.8,668.8c-37-48.1-129,115.8-129,115.8c-14.6,8.7-19.1,60.1-32.5,66.6c-15.7,8.7,61.7,195.4,43.4,193.5
	c-3.6-0.9-8.2-1.8-11.7-3.2c-32-11.9-59-38.8-81.4-65.5c-49.4-58.9-93.5-130.5-84.8-206.1c3.1-27.2,13-53.2,24.5-78.1
	c2.8-6.1,5.8-12.6,4.9-19.3c-0.8-5.6-4.3-10.6-7.9-15.1c-44.5-55.7-116.6-82.6-186.4-101.6c-22.3-6.1-44.9-11.7-65.3-22.2
	c-43.3-22.5-73-68-75.5-115.8c-2.5-47.8,22.3-96,63-122.7c18.3-12,41-19.8,62.3-14.6c15.2,3.7,28,13.7,38.7,24.9
	c33.6,35.4,49.4,86.3,41.3,133.8s-39.6,90.9-83.2,113.9c-14.3,7.5-30.3,13.4-40.6,25.6c-8.4,9.9-12,22.9-14.6,35.5
	c-10.2,50.4-7.2,102.6,0.1,153.5c6.6,45.9,17.1,92.8,43.9,131.1c49.8,70.9,144.3,98.4,204.6,161.1c-35.5-0.7-70.2-9.8-101.3-26.6
	c20.5,11,47.1,6.2,66.2-7c19.1-13.2,31.8-33.4,41.7-54.1c24-50,34.1-105.4,56.3-156.2c4.8-10.9,10.3-21.7,16.6-32.1
	c2.1-3.5,4.3-6.9,6.6-10.2s4.6-6.6,7.1-9.8c22-28.9,50.9-51.9,86.5-59.6c48.5-10.5,98.5,9.5,140.4,35.6c41.8,26,41.6-83.9,87.2-64.6
	c7.7,3.3,75.8,13,84.1,12c14.2-1.7,24.2-68.3,27.3-81.9c3-13.7,2.9-30.1-0.3-43.7c-28.5-118.6-102.3-39.8-171.1-141.6
	c-25.3,11.8-35.8,40.7-52.9,62.4c-27.2,34.3-73.2,50.4-117.7,51.5c-45.1,1.1-91.5-12.5-124.8-42.2c-33.3-29.7-51.6-76.3-41.6-119.1
	c13.5-57.9,70.9-94.7,125.5-121.2c9.2-4.5,19.2-9.5,23.3-18.7c4.9-10.9-0.4-23.5-6.1-34c-10.3-18.8-22.8-37.1-40.8-49.1
	c-18.1-11.9-42.6-16.4-62-6.6c-16.7,8.5-26.5,25.7-34.1,42.5c-28.9,64.6-36.8,136.5-64.4,201.6c-8.3,19.7-19.2,39.4-37.1,51.6
	c-37.8,25.5-89.6,8-130.4-12.6c-40.8-20.7-87.1-44.7-130.4-29.4c-29.7,10.4-50.3,38-59.3,67.5c-9,29.5-8,60.8-5.8,91.4
	c4,55.1,14.2,114.8,56.1,152c26.7,23.7,66.6,39.7,73.5,74.2c5,25-10.2,48.9-21.3,72c-34.8,72.6-28.2,166.4,28.4,224.6
	c13.6,14,30.5,26.1,50.1,29c19.5,3,41.8-5.3,50.1-22.9c7.3-15.4,2.6-33.5-3.4-49.4c-15.4-40.8-38.4-78.7-52.1-120.1
	c-14.9-45.2-18-93.3-30.9-139.1c-26.8-94.9-93-173.5-152.3-253.1c-4.3-5.8-8.8-12.2-8.6-19.4c0.1-6.3,3.9-11.9,7.5-17.2l34.1-49.6
	c5.5-8,11.2-16.2,19.5-21.3c19.4-11.9,44.7-3.3,67.5-5.6c41.1-4.2,69.3-45,74.9-84.8s-5.6-79.8-11.8-119.6
	c-6.2-39.7-6.8-83.5,16.7-116.5c24.5-34.4,71-49.4,113.7-45.5C590.4,47.4,630,67.4,665.5,91C783.2,169.6,865,289,970.4,382.8
	c-4.4-13-22.8-19.2-34.5-11.6c21.7,126.7,131.7,223.9,164.4,348.4c4.2,15.9,5.6,35.9-8.1,45.4c-8.7,6-20.4,5.3-31,4.2
	c-49-5.1-97.7-12.9-145.8-23.4c-36.4-8-72.9-17.6-105.2-35.8c-58.4-32.8-97.7-90-129.6-147.9c-31.9-57.8-59.1-119.1-102.5-169.3
	s-107.9-88.9-175-82.4c-23.5,2.3-46.2,9.9-69.7,11.4c-32.4,2.1-64.7-7.7-93-23.1c-22.2-12.1-48.7-28-70.7-15.7
	c-10.1,5.6-16.2,16.1-21.4,26.2c-40.1,77.5-55.5,173.8-12.2,249.7c27.7,48.6,75.8,83,108.2,128.7c41.3,58.1,54.8,130.6,88.5,193.2
	c9.9,18.4,24.3,37.7,45.4,40.2c7.1-67.5,14.1-135,21.2-202.5c3.2-30.3,6.4-61,17.3-89.6c10.9-28.6,30.4-55.3,58.4-68.7
	c37.7-18,83.1-9.3,121.9,6.3c58,23.3,109,60.7,166,86.2c31.3,14,72.5,22.9,97-0.8c8.8-8.5,13.8-20,17.3-31.5
	c12.1-40.7,6.7-84.3-0.9-126.1c-14.1-77.4-35.4-153.4-63.5-227c-4.5-11.6-12.4-25.4-25.1-24.3l-41.9,284.5
	c-8,54-15.9,108.3-30.4,161.1c-12.1,44.3-34.1,92.8-78.8,107.2c-29.7,9.6-62.7,1.3-90.5-12.6c-6.3-3.2-12.9-6.7-20-6.8
	c-17.1-0.3-27.3,17.6-39.5,29.3c-23.1,22.2-61.2,23.9-91.1,11.5c-29.9-12.4-53-36.4-73.4-61c-20.3-24.7-39.1-51.1-64.1-71.3"/>
<path class="st0" d="M902.8,646.8c-37-48.1-129,115.8-129,115.8c-14.6,8.7-19.1,60.1-32.5,66.6c-15.7,8.7,61.7,195.4,43.4,193.5
	c-3.6-0.9-8.2-1.8-11.7-3.2c-32-11.9-59-38.8-81.4-65.5c-49.4-58.9-93.5-130.5-84.8-206.1c3.1-27.2,13-53.2,24.5-78.1
	c2.8-6.1,5.8-12.6,4.9-19.3c-0.8-5.6-4.3-10.6-7.9-15.1c-44.5-55.7-116.6-82.6-186.4-101.6c-22.3-6.1-44.9-11.7-65.3-22.2
	c-43.3-22.5-73-68-75.5-115.8c-2.5-47.8,22.3-96,63-122.6c18.3-12,41-19.8,62.3-14.6c15.2,3.7,28,13.7,38.7,24.9
	c33.6,35.4,49.4,86.3,41.3,133.8s-39.6,90.9-83.2,113.9c-14.3,7.5-30.3,13.4-40.6,25.6c-8.4,9.9-12,22.9-14.6,35.5
	c-10.2,50.4-7.2,102.6,0.1,153.5c6.6,45.9,17.1,92.8,43.9,131.1c49.8,70.9,144.3,98.4,204.6,161.1c-35.5-0.7-70.2-9.8-101.3-26.6
	c20.5,11,47.1,6.2,66.2-7c19.1-13.2,31.8-33.4,41.7-54.1c24-50,34.1-105.4,56.3-156.2c4.8-10.9,10.3-21.7,16.6-32.1
	c2.1-3.5,4.3-6.9,6.6-10.2c2.3-3.3,4.6-6.6,7.1-9.8c22-28.9,50.9-51.9,86.5-59.6c48.5-10.5,98.5,9.5,140.4,35.6
	c41.8,26,41.6-83.9,87.2-64.6c7.7,3.3,75.8,13,84.1,12c14.2-1.7,24.2-68.3,27.3-81.9c3-13.7,2.9-30.1-0.3-43.7
	c-28.5-118.6-102.3-39.8-171.1-141.6c-25.3,11.8-35.8,40.7-52.9,62.4c-27.2,34.3-73.2,50.4-117.7,51.5
	c-45.1,1.1-91.5-12.5-124.8-42.2c-33.3-29.7-51.6-76.3-41.6-119.1c13.5-57.9,70.9-94.7,125.5-121.2c9.2-4.5,19.2-9.5,23.3-18.7
	c4.9-10.9-0.4-23.5-6.1-34c-10.3-18.8-22.8-37.1-40.8-49.1s-42.6-16.4-62-6.6c-16.7,8.5-26.5,25.7-34.1,42.5
	c-28.9,64.6-36.8,136.5-64.4,201.6c-8.3,19.7-19.2,39.4-37.1,51.6c-37.8,25.5-89.6,8-130.4-12.6s-87.1-44.7-130.4-29.4
	c-29.7,10.4-50.3,38-59.3,67.5c-9,29.5-8,60.8-5.8,91.4c4,55.1,14.2,114.8,56.1,152c26.7,23.7,66.6,39.7,73.5,74.2
	c5,25-10.2,48.9-21.3,72c-34.8,72.6-28.2,166.4,28.4,224.6c13.6,14,30.5,26.1,50.1,29c19.5,3,41.8-5.3,50.1-22.9
	c7.3-15.4,2.6-33.5-3.4-49.4c-15.4-40.8-38.4-78.7-52.1-120.1c-14.9-45.2-18-93.3-30.9-139.1c-26.8-94.9-93-173.5-152.3-253.1
	c-4.3-5.8-8.8-12.2-8.6-19.4c0.1-6.3,3.9-11.9,7.5-17.2l34.1-49.6c5.5-8,11.2-16.2,19.5-21.3c19.4-11.9,44.7-3.3,67.5-5.6
	c41.1-4.2,69.3-45,74.9-84.8s-5.6-79.8-11.8-119.6c-6.2-39.7-6.8-83.5,16.7-116.5c24.5-34.4,71-49.4,113.7-45.5
	C559.4,25.4,599,45.4,634.5,69C752.2,147.6,834,267,939.4,360.8c-4.4-13-22.8-19.2-34.5-11.6c21.7,126.7,131.7,223.9,164.4,348.4
	c4.2,15.9,5.6,35.9-8.1,45.4c-8.7,6-20.4,5.3-31,4.2c-49-5.1-97.7-12.9-145.8-23.4c-36.4-8-72.9-17.6-105.2-35.8
	c-58.4-32.8-97.7-90-129.6-147.9c-31.9-57.8-59.1-119.1-102.5-169.3s-107.9-88.9-175-82.4c-23.5,2.3-46.2,9.9-69.7,11.4
	c-32.4,2.1-64.7-7.7-93-23.1c-22.2-12.1-48.7-28-70.7-15.7c-10.1,5.6-16.2,16.1-21.4,26.2C77.3,364.6,61.9,461,105.2,536.8
	c27.7,48.6,75.8,83,108.2,128.7c41.3,58.1,54.8,130.6,88.5,193.2c9.9,18.4,24.3,37.7,45.4,40.2c7.1-67.5,14.1-135,21.2-202.5
	c3.2-30.3,6.4-61,17.3-89.6c10.9-28.6,30.4-55.3,58.4-68.7c37.7-18,83.1-9.3,121.9,6.3c58,23.3,109,60.7,166,86.2
	c31.3,14,72.5,22.9,97-0.8c8.8-8.5,13.8-20,17.3-31.5c12.1-40.7,6.7-84.3-0.9-126.1c-14.1-77.4-35.4-153.4-63.5-227
	c-4.5-11.6-12.4-25.4-25.1-24.3l-41.9,284.5c-8,54-15.9,108.3-30.4,161.1c-12.1,44.3-34.1,92.8-78.8,107.2
	c-29.7,9.6-62.7,1.3-90.5-12.6c-6.3-3.2-12.9-6.7-20-6.8c-17.1-0.3-27.3,17.6-39.5,29.3c-23.1,22.2-61.2,23.9-91.1,11.5
	c-29.9-12.4-53-36.4-73.4-61c-20.3-24.7-39.1-51.1-64.1-71.3"/>
<path class="st0" d="M963.8,668.8c-37-48.1-129,115.8-129,115.8c-14.6,8.7-19.1,60.1-32.5,66.6c-15.7,8.7,61.7,195.4,43.4,193.5
	c-3.6-0.9-8.2-1.8-11.7-3.2c-32-11.9-59-38.8-81.4-65.5c-49.4-58.9-93.5-130.5-84.8-206.1c3.1-27.2,13-53.2,24.5-78.1
	c2.8-6.1,5.8-12.6,4.9-19.3c-0.8-5.6-4.3-10.6-7.9-15.1c-44.5-55.7-116.6-82.6-186.4-101.6c-22.3-6.1-44.9-11.7-65.3-22.2
	c-43.3-22.5-73-68-75.5-115.8c-2.5-47.8,22.3-96,63-122.7c18.3-12,41-19.8,62.3-14.6c15.2,3.7,28,13.7,38.7,24.9
	c33.6,35.4,49.4,86.3,41.3,133.8s-39.6,90.9-83.2,113.9c-14.3,7.5-30.3,13.4-40.6,25.6c-8.4,9.9-12,22.9-14.6,35.5
	c-10.2,50.4-7.2,102.6,0.1,153.5c6.6,45.9,17.1,92.8,43.9,131.1c49.8,70.9,144.3,98.4,204.6,161.1c-35.5-0.7-70.2-9.8-101.3-26.6
	c20.5,11,47.1,6.2,66.2-7c19.1-13.2,31.8-33.4,41.7-54.1c24-50,34.1-105.4,56.3-156.2c4.8-10.9,10.3-21.7,16.6-32.1
	c2.1-3.5,4.3-6.9,6.6-10.2s4.6-6.6,7.1-9.8c22-28.9,50.9-51.9,86.5-59.6c48.5-10.5,98.5,9.5,140.4,35.6c41.8,26,41.6-83.9,87.2-64.6
	c7.7,3.3,75.8,13,84.1,12c14.2-1.7,24.2-68.3,27.3-81.9c3-13.7,2.9-30.1-0.3-43.7c-28.5-118.6-102.3-39.8-171.1-141.6
	c-25.3,11.8-35.8,40.7-52.9,62.4c-27.2,34.3-73.2,50.4-117.7,51.5c-45.1,1.1-91.5-12.5-124.8-42.2c-33.3-29.7-51.6-76.3-41.6-119.1
	c13.5-57.9,70.9-94.7,125.5-121.2c9.2-4.5,19.2-9.5,23.3-18.7c4.9-10.9-0.4-23.5-6.1-34c-10.3-18.8-22.8-37.1-40.8-49.1
	c-18.1-11.9-42.6-16.4-62-6.6c-16.7,8.5-26.5,25.7-34.1,42.5c-28.9,64.6-36.8,136.5-64.4,201.6c-8.3,19.7-19.2,39.4-37.1,51.6
	c-37.8,25.5-89.6,8-130.4-12.6c-40.8-20.7-87.1-44.7-130.4-29.4c-29.7,10.4-50.3,38-59.3,67.5c-9,29.5-8,60.8-5.8,91.4
	c4,55.1,14.2,114.8,56.1,152c26.7,23.7,66.6,39.7,73.5,74.2c5,25-10.2,48.9-21.3,72c-34.8,72.6-28.2,166.4,28.4,224.6
	c13.6,14,30.5,26.1,50.1,29c19.5,3,41.8-5.3,50.1-22.9c7.3-15.4,2.6-33.5-3.4-49.4c-15.4-40.8-38.4-78.7-52.1-120.1
	c-14.9-45.2-18-93.3-30.9-139.1c-26.8-94.9-93-173.5-152.3-253.1c-4.3-5.8-8.8-12.2-8.6-19.4c0.1-6.3,3.9-11.9,7.5-17.2l34.1-49.6
	c5.5-8,11.2-16.2,19.5-21.3c19.4-11.9,44.7-3.3,67.5-5.6c41.1-4.2,69.3-45,74.9-84.8s-5.6-79.8-11.8-119.6
	c-6.2-39.7-6.8-83.5,16.7-116.5c24.5-34.4,71-49.4,113.7-45.5C620.4,47.4,660,67.4,695.5,91c117.8,78.6,199.5,198,304.9,291.7
	c-4.4-13-22.8-19.2-34.5-11.6c21.7,126.7,131.7,223.9,164.4,348.4c4.2,15.9,5.6,35.9-8.1,45.4c-8.7,6-20.4,5.3-31,4.2
	c-49-5.1-97.7-12.9-145.8-23.4c-36.4-8-72.9-17.6-105.2-35.8c-58.4-32.8-97.7-90-129.6-147.9c-31.9-57.8-59.1-119.1-102.5-169.3
	s-107.9-88.9-175-82.4c-23.5,2.3-46.2,9.9-69.7,11.4c-32.4,2.1-64.7-7.7-93-23.1c-22.2-12.1-48.7-28-70.7-15.7
	c-10.1,5.6-16.2,16.1-21.4,26.2c-40.1,77.5-55.5,173.8-12.2,249.7c27.7,48.6,75.8,83,108.2,128.7c41.3,58.1,54.8,130.6,88.5,193.2
	c9.9,18.4,24.3,37.7,45.4,40.2c7.1-67.5,14.1-135,21.2-202.5c3.2-30.3,6.4-61,17.3-89.6c10.9-28.6,30.4-55.3,58.4-68.7
	c37.7-18,83.1-9.3,121.9,6.3c58,23.3,109,60.7,166,86.2c31.3,14,72.5,22.9,97-0.8c8.8-8.5,13.8-20,17.3-31.5
	c12.1-40.7,6.7-84.3-0.9-126.1c-14.1-77.4-35.4-153.4-63.5-227c-4.5-11.6-12.4-25.4-25.1-24.3l-41.9,284.5
	c-8,54-15.9,108.3-30.4,161.1c-12.1,44.3-34.1,92.8-78.8,107.2c-29.7,9.6-62.7,1.3-90.5-12.6c-6.3-3.2-12.9-6.7-20-6.8
	c-17.1-0.3-27.3,17.6-39.5,29.3c-23.1,22.2-61.2,23.9-91.1,11.5c-29.9-12.4-53-36.4-73.4-61c-20.3-24.7-39.1-51.1-64.1-71.3"/>
<path class="st0" d="M978.8,686.8c-37-48.1-129,115.8-129,115.8c-14.6,8.7-19.1,60.1-32.5,66.6c-15.7,8.7,61.7,195.4,43.4,193.5
	c-3.6-0.9-8.2-1.8-11.7-3.2c-32-11.9-59-38.8-81.4-65.5c-49.4-58.9-93.5-130.5-84.8-206.1c3.1-27.2,13-53.2,24.5-78.1
	c2.8-6.1,5.8-12.6,4.9-19.3c-0.8-5.6-4.3-10.6-7.9-15.1c-44.5-55.7-116.6-82.6-186.4-101.6c-22.3-6.1-44.9-11.7-65.3-22.2
	c-43.3-22.5-73-68-75.5-115.8c-2.5-47.8,22.3-96,63-122.7c18.3-12,41-19.8,62.3-14.6c15.2,3.7,28,13.7,38.7,24.9
	c33.6,35.4,49.4,86.3,41.3,133.8s-39.6,90.9-83.2,113.9c-14.3,7.5-30.3,13.4-40.6,25.6c-8.4,9.9-12,22.9-14.6,35.5
	c-10.2,50.4-7.2,102.6,0.1,153.5c6.6,45.9,17.1,92.8,43.9,131.1c49.8,70.9,144.3,98.4,204.6,161.1c-35.5-0.7-70.2-9.8-101.3-26.6
	c20.5,11,47.1,6.2,66.2-7c19.1-13.2,31.8-33.4,41.7-54.1c24-50,34.1-105.4,56.3-156.2c4.8-10.9,10.3-21.7,16.6-32.1
	c2.1-3.5,4.3-6.9,6.6-10.2s4.6-6.6,7.1-9.8c22-28.9,50.9-51.9,86.5-59.6c48.5-10.5,98.5,9.5,140.4,35.6c41.8,26,41.6-83.9,87.2-64.6
	c7.7,3.3,75.8,13,84.1,12c14.2-1.7,24.2-68.3,27.3-81.9c3-13.7,2.9-30.1-0.3-43.7c-28.5-118.6-102.3-39.8-171.1-141.6
	c-25.3,11.8-35.8,40.7-52.9,62.4c-27.2,34.3-73.2,50.4-117.7,51.5c-45.1,1.1-91.5-12.5-124.8-42.2c-33.3-29.7-51.6-76.3-41.6-119.1
	c13.5-57.9,70.9-94.7,125.5-121.2c9.2-4.5,19.2-9.5,23.3-18.7c4.9-10.9-0.4-23.5-6.1-34c-10.3-18.8-22.8-37.1-40.8-49.1
	c-18.1-11.9-42.6-16.4-62-6.6c-16.7,8.5-26.5,25.7-34.1,42.5c-28.9,64.6-36.8,136.5-64.4,201.6c-8.3,19.7-19.2,39.4-37.1,51.6
	c-37.8,25.5-89.6,8-130.4-12.6c-40.8-20.7-87.1-44.7-130.4-29.4c-29.7,10.4-50.3,38-59.3,67.5c-9,29.5-8,60.8-5.8,91.4
	c4,55.1,14.2,114.8,56.1,152c26.7,23.7,66.6,39.7,73.5,74.2c5,25-10.2,48.9-21.3,72c-34.8,72.6-28.2,166.4,28.4,224.6
	c13.6,14,30.5,26.1,50.1,29c19.5,3,41.8-5.3,50.1-22.9c7.3-15.4,2.6-33.5-3.4-49.4c-15.4-40.8-38.4-78.7-52.1-120.1
	c-14.9-45.2-18-93.3-30.9-139.1c-26.8-94.9-93-173.5-152.3-253.1c-4.3-5.8-8.8-12.2-8.6-19.4c0.1-6.3,3.9-11.9,7.5-17.2l34.1-49.6
	c5.5-8,11.2-16.2,19.5-21.3c19.4-11.9,44.7-3.3,67.5-5.6c41.1-4.2,69.3-45,74.9-84.8s-5.6-79.8-11.8-119.6
	c-6.2-39.7-6.8-83.5,16.7-116.5c24.5-34.4,71-49.4,113.7-45.5c42.8,3.9,82.4,23.8,117.8,47.5c117.8,78.6,199.5,198,304.9,291.7
	c-4.4-13-22.8-19.2-34.5-11.6c21.7,126.7,131.7,223.9,164.4,348.4c4.2,15.9,5.6,35.9-8.1,45.4c-8.7,6-20.4,5.3-31,4.2
	c-49-5.1-97.7-12.9-145.8-23.4c-36.4-8-72.9-17.6-105.2-35.8c-58.4-32.8-97.7-90-129.6-147.9c-31.9-57.8-59.1-119.1-102.5-169.3
	s-107.9-88.9-175-82.4c-23.5,2.3-46.2,9.9-69.7,11.4c-32.4,2.1-64.7-7.7-93-23.1c-22.2-12.1-48.7-28-70.7-15.7
	c-10.1,5.6-16.2,16.1-21.4,26.2c-40.1,77.5-55.5,173.8-12.2,249.7c27.7,48.6,75.8,83,108.2,128.7c41.3,58.1,54.8,130.6,88.5,193.2
	c9.9,18.4,24.3,37.7,45.4,40.2c7.1-67.5,14.1-135,21.2-202.5c3.2-30.3,6.4-61,17.3-89.6c10.9-28.6,30.4-55.3,58.4-68.7
	c37.7-18,83.1-9.3,121.9,6.3c58,23.3,109,60.7,166,86.2c31.3,14,72.5,22.9,97-0.8c8.8-8.5,13.8-20,17.3-31.5
	c12.1-40.7,6.7-84.3-0.9-126.1c-14.1-77.4-35.4-153.4-63.5-227c-4.5-11.6-12.4-25.4-25.1-24.3l-41.9,284.5
	c-8,54-15.9,108.3-30.4,161.1c-12.1,44.3-34.1,92.8-78.8,107.2c-29.7,9.6-62.7,1.3-90.5-12.6c-6.3-3.2-12.9-6.7-20-6.8
	c-17.1-0.3-27.3,17.6-39.5,29.3c-23.1,22.2-61.2,23.9-91.1,11.5c-29.9-12.4-53-36.4-73.4-61c-20.3-24.7-39.1-51.1-64.1-71.3"/>
<path class="st0" d="M997.8,699.8c-37-48.1-129,115.8-129,115.8c-14.6,8.7-19.1,60.1-32.5,66.6c-15.7,8.7,61.7,195.4,43.4,193.5
	c-3.6-0.9-8.2-1.8-11.7-3.2c-32-11.9-59-38.8-81.4-65.5c-49.4-58.9-93.5-130.5-84.8-206.1c3.1-27.2,13-53.2,24.5-78.1
	c2.8-6.1,5.8-12.6,4.9-19.3c-0.8-5.6-4.3-10.6-7.9-15.1c-44.5-55.7-116.6-82.6-186.4-101.6c-22.3-6.1-44.9-11.7-65.3-22.2
	c-43.3-22.5-73-68-75.5-115.8c-2.5-47.8,22.3-96,63-122.7c18.3-12,41-19.8,62.3-14.6c15.2,3.7,28,13.7,38.7,24.9
	c33.6,35.4,49.4,86.3,41.3,133.8s-39.6,90.9-83.2,113.9c-14.3,7.5-30.3,13.4-40.6,25.6c-8.4,9.9-12,22.9-14.6,35.5
	c-10.2,50.4-7.2,102.6,0.1,153.5c6.6,45.9,17.1,92.8,43.9,131.1c49.8,70.9,144.3,98.4,204.6,161.1c-35.5-0.7-70.2-9.8-101.3-26.6
	c20.5,11,47.1,6.2,66.2-7c19.1-13.2,31.8-33.4,41.7-54.1c24-50,34.1-105.4,56.3-156.2c4.8-10.9,10.3-21.7,16.6-32.1
	c2.1-3.5,4.3-6.9,6.6-10.2s4.6-6.6,7.1-9.8c22-28.9,50.9-51.9,86.5-59.6c48.5-10.5,98.5,9.5,140.4,35.6c41.8,26,41.6-83.9,87.2-64.6
	c7.7,3.3,75.8,13,84.1,12c14.2-1.7,24.2-68.3,27.3-81.9c3-13.7,2.9-30.1-0.3-43.7c-28.5-118.6-102.3-39.8-171.1-141.6
	c-25.3,11.8-35.8,40.7-52.9,62.4c-27.2,34.3-73.2,50.4-117.7,51.5c-45.1,1.1-91.5-12.5-124.8-42.2c-33.3-29.7-51.6-76.3-41.6-119.1
	c13.5-57.9,70.9-94.7,125.5-121.2c9.2-4.5,19.2-9.5,23.3-18.7c4.9-10.9-0.4-23.5-6.1-34c-10.3-18.8-22.8-37.1-40.8-49.1
	c-18.1-11.9-42.6-16.4-62-6.6c-16.7,8.5-26.5,25.7-34.1,42.5c-28.9,64.6-36.8,136.5-64.4,201.6c-8.3,19.7-19.2,39.4-37.1,51.6
	c-37.8,25.5-89.6,8-130.4-12.6c-40.8-20.7-87.1-44.7-130.4-29.4c-29.7,10.4-50.3,38-59.3,67.5c-9,29.5-8,60.8-5.8,91.4
	c4,55.1,14.2,114.8,56.1,152c26.7,23.7,66.6,39.7,73.5,74.2c5,25-10.2,48.9-21.3,72c-34.8,72.6-28.2,166.4,28.4,224.6
	c13.6,14,30.5,26.1,50.1,29c19.5,3,41.8-5.3,50.1-22.9c7.3-15.4,2.6-33.5-3.4-49.4c-15.4-40.8-38.4-78.7-52.1-120.1
	c-14.9-45.2-18-93.3-30.9-139.1c-26.8-94.9-93-173.5-152.3-253.1c-4.3-5.8-8.8-12.2-8.6-19.4c0.1-6.3,3.9-11.9,7.5-17.2l34.1-49.6
	c5.5-8,11.2-16.2,19.5-21.3c19.4-11.9,44.7-3.3,67.5-5.6c41.1-4.2,69.3-45,74.9-84.8s-5.6-79.8-11.8-119.6
	c-6.2-39.7-6.8-83.5,16.7-116.5c24.5-34.4,71-49.4,113.7-45.5c42.8,3.9,82.4,23.8,117.8,47.5c117.8,78.6,199.5,198,304.9,291.7
	c-4.4-13-22.8-19.2-34.5-11.6c21.7,126.7,131.7,223.9,164.4,348.4c4.2,15.9,5.6,35.9-8.1,45.4c-8.7,6-20.4,5.3-31,4.2
	c-49-5.1-97.7-12.9-145.8-23.4c-36.4-8-72.9-17.6-105.2-35.8c-58.4-32.8-97.7-90-129.6-147.9c-31.9-57.8-59.1-119.1-102.5-169.3
	s-107.9-88.9-175-82.4c-23.5,2.3-46.2,9.9-69.7,11.4c-32.4,2.1-64.7-7.7-93-23.1c-22.2-12.1-48.7-28-70.7-15.7
	c-10.1,5.6-16.2,16.1-21.4,26.2c-40.1,77.5-55.5,173.8-12.2,249.7c27.7,48.6,75.8,83,108.2,128.7c41.3,58.1,54.8,130.6,88.5,193.2
	c9.9,18.4,24.3,37.7,45.4,40.2c7.1-67.5,14.1-135,21.2-202.5c3.2-30.3,6.4-61,17.3-89.6c10.9-28.6,30.4-55.3,58.4-68.7
	c37.7-18,83.1-9.3,121.9,6.3c58,23.3,109,60.7,166,86.2c31.3,14,72.5,22.9,97-0.8c8.8-8.5,13.8-20,17.3-31.5
	c12.1-40.7,6.7-84.3-0.9-126.1c-14.1-77.4-35.4-153.4-63.5-227c-4.5-11.6-12.4-25.4-25.1-24.3l-41.9,284.5
	c-8,54-15.9,108.3-30.4,161.1c-12.1,44.3-34.1,92.8-78.8,107.2c-29.7,9.6-62.7,1.3-90.5-12.6c-6.3-3.2-12.9-6.7-20-6.8
	c-17.1-0.3-27.3,17.6-39.5,29.3c-23.1,22.2-61.2,23.9-91.1,11.5c-29.9-12.4-53-36.4-73.4-61c-20.3-24.7-39.1-51.1-64.1-71.3"/>
<path class="st0" d="M1008.8,704.8c-37-48.1-129,115.8-129,115.8c-14.6,8.7-19.1,60.1-32.5,66.6c-15.7,8.7,61.7,195.4,43.4,193.5
	c-3.6-0.9-8.2-1.8-11.7-3.2c-32-11.9-59-38.8-81.4-65.5c-49.4-58.9-93.5-130.5-84.8-206.1c3.1-27.2,13-53.2,24.5-78.1
	c2.8-6.1,5.8-12.6,4.9-19.3c-0.8-5.6-4.3-10.6-7.9-15.1c-44.5-55.7-116.6-82.6-186.4-101.6c-22.3-6.1-44.9-11.7-65.3-22.2
	c-43.3-22.5-73-68-75.5-115.8c-2.5-47.8,22.3-96,63-122.7c18.3-12,41-19.8,62.3-14.6c15.2,3.7,28,13.7,38.7,24.9
	c33.6,35.4,49.4,86.3,41.3,133.8s-39.6,90.9-83.2,113.9c-14.3,7.5-30.3,13.4-40.6,25.6c-8.4,9.9-12,22.9-14.6,35.5
	c-10.2,50.4-7.2,102.6,0.1,153.5c6.6,45.9,17.1,92.8,43.9,131.1c49.8,70.9,144.3,98.4,204.6,161.1c-35.5-0.7-70.2-9.8-101.3-26.6
	c20.5,11,47.1,6.2,66.2-7c19.1-13.2,31.8-33.4,41.7-54.1c24-50,34.1-105.4,56.3-156.2c4.8-10.9,10.3-21.7,16.6-32.1
	c2.1-3.5,4.3-6.9,6.6-10.2s4.6-6.6,7.1-9.8c22-28.9,50.9-51.9,86.5-59.6c48.5-10.5,98.5,9.5,140.4,35.6c41.8,26,41.6-83.9,87.2-64.6
	c7.7,3.3,75.8,13,84.1,12c14.2-1.7,24.2-68.3,27.3-81.9c3-13.7,2.9-30.1-0.3-43.7c-28.5-118.6-102.3-39.8-171.1-141.6
	c-25.3,11.8-35.8,40.7-52.9,62.4c-27.2,34.3-73.2,50.4-117.7,51.5c-45.1,1.1-91.5-12.5-124.8-42.2c-33.3-29.7-51.6-76.3-41.6-119.1
	c13.5-57.9,70.9-94.7,125.5-121.2c9.2-4.5,19.2-9.5,23.3-18.7c4.9-10.9-0.4-23.5-6.1-34c-10.3-18.8-22.8-37.1-40.8-49.1
	c-18.1-11.9-42.6-16.4-62-6.6c-16.7,8.5-26.5,25.7-34.1,42.5c-28.9,64.6-36.8,136.5-64.4,201.6c-8.3,19.7-19.2,39.4-37.1,51.6
	c-37.8,25.5-89.6,8-130.4-12.6c-40.8-20.7-87.1-44.7-130.4-29.4c-29.7,10.4-50.3,38-59.3,67.5c-9,29.5-8,60.8-5.8,91.4
	c4,55.1,14.2,114.8,56.1,152c26.7,23.7,66.6,39.7,73.5,74.2c5,25-10.2,48.9-21.3,72c-34.8,72.6-28.2,166.4,28.4,224.6
	c13.6,14,30.5,26.1,50.1,29s41.8-5.3,50.1-22.9c7.3-15.4,2.6-33.5-3.4-49.4c-15.4-40.8-38.4-78.7-52.1-120.1
	c-14.9-45.2-18-93.3-30.9-139.1c-26.8-94.9-93-173.5-152.3-253.1c-4.3-5.8-8.8-12.2-8.6-19.4c0.1-6.3,3.9-11.9,7.5-17.2l34.1-49.6
	c5.5-8,11.2-16.2,19.5-21.3c19.4-11.9,44.7-3.3,67.5-5.6c41.1-4.2,69.3-45,74.9-84.8s-5.6-79.8-11.8-119.6
	c-6.2-39.7-6.8-83.5,16.7-116.5c24.5-34.4,71-49.4,113.7-45.5c42.8,3.9,82.4,23.8,117.8,47.5c117.8,78.6,199.5,198,304.9,291.7
	c-4.4-13-22.8-19.2-34.5-11.6c21.7,126.7,131.7,223.9,164.4,348.4c4.2,15.9,5.6,35.9-8.1,45.4c-8.7,6-20.4,5.3-31,4.2
	c-49-5.1-97.7-12.9-145.8-23.4c-36.4-8-72.9-17.6-105.2-35.8c-58.4-32.8-97.7-90-129.6-147.9c-31.9-57.8-59.1-119.1-102.5-169.3
	s-107.9-88.9-175-82.4c-23.5,2.3-46.2,9.9-69.7,11.4c-32.4,2.1-64.7-7.7-93-23.1c-22.2-12.1-48.7-28-70.7-15.7
	c-10.1,5.6-16.2,16.1-21.4,26.2c-40.1,77.5-55.5,173.8-12.2,249.7c27.7,48.6,75.8,83,108.2,128.7c41.3,58.1,54.8,130.6,88.5,193.2
	c9.9,18.4,24.3,37.7,45.4,40.2c7.1-67.5,14.1-135,21.2-202.5c3.2-30.3,6.4-61,17.3-89.6c10.9-28.6,30.4-55.3,58.4-68.7
	c37.7-18,83.1-9.3,121.9,6.3c58,23.3,109,60.7,166,86.2c31.3,14,72.5,22.9,97-0.8c8.8-8.5,13.8-20,17.3-31.5
	c12.1-40.7,6.7-84.3-0.9-126.1c-14.1-77.4-35.4-153.4-63.5-227c-4.5-11.6-12.4-25.4-25.1-24.3l-41.9,284.5
	c-8,54-15.9,108.3-30.4,161.1c-12.1,44.3-34.1,92.8-78.8,107.2c-29.7,9.6-62.7,1.3-90.5-12.6c-6.3-3.2-12.9-6.7-20-6.8
	c-17.1-0.3-27.3,17.6-39.5,29.3c-23.1,22.2-61.2,23.9-91.1,11.5c-29.9-12.4-53-36.4-73.4-61c-20.3-24.7-39.1-51.1-64.1-71.3"/>
</svg>
