<svg xmlns="http://www.w3.org/2000/svg" viewBox="0 0 396 253"><defs><style>.cls-1{isolation:isolate;}.cls-2{mix-blend-mode:color;}.cls-3,.cls-5{fill:none;stroke-miterlimit:10;}.cls-3{stroke:#ffe851;stroke-width:0.25px;}.cls-4{opacity:0.09;}.cls-5{stroke:#0003ff;stroke-width:0.5px;}</style></defs><title>map</title><g class="cls-1"><g id="Layer_1" data-name="Layer 1"><g class="cls-2"><path class="cls-3" d="M527.34-128.17c0,.16,0,.31,0,.46a10.17,10.17,0,0,1-7.39,3.38c-2.46.09-5,.36-7,3.11-6.68,9-13.94,17.51-21,26.21-7.23,8.94-14.51,17.84-21.72,26.8q-12,14.83-23.84,29.74c-5.66,7.08-11.25,14.2-16.94,21.25-3.78,4.69-7.72,9.27-11.52,14-3,3.64-5.82,7.37-8.75,11.05-3.55,4.47-7,9-10.74,13.35-4.07,4.79-7.74,9.89-12,14.55-3.81,4.18-7.08,8.85-10.72,13.2S368,57.48,364.39,62c-4.81,6-10.08,11.59-15.06,17.43-2.15,2.52-4.78,4.66-6.47,7.46-1.16,1.92-2.41,2.51-4.38,2.31Q323.69,77,308.93,64.72a9.26,9.26,0,0,1-1.53-1.86c-.78-1.09-1.9-2.09.76-2.4s4-3.17,4.34-4.89c.33-2,.89-2.23,2.42-2.34.15,0,.26-.69.4-1.06a2.86,2.86,0,0,0,.69-2.61l.65,0h.47c2.09-.88,4.09-2.32,4.16-4.5A5.77,5.77,0,0,1,323,40.94c2.51-2.77,4.87-5.67,7.27-8.53,7.13-8.5,14.23-17,21.38-25.53C357.54-.07,363.44-7,369.31-13.91q11.24-13.29,22.46-26.61Q400.37-50.7,409-60.9c7.07-8.42,14.11-16.88,21.2-25.29q8.58-10.2,17.26-20.31c1.1-1.29.63-2.19-.45-3.07-.86-.7-1.74-1.37-2.6-2.07-1.11-.89-1-1.62-.09-2.76,10.82-13.57,21.55-27.22,32.37-40.79,1.62-2,1.49-3.44-.56-5.06-10-7.88-19.89-15.84-29.81-23.79-1-.81-2.07-2.35-3.27-1s.34,2.42,1.34,3.23c9.42,7.61,18.81,15.27,28.36,22.72,1.79,1.39,1.52,2.27.44,3.63-10.24,12.88-20.51,25.73-30.66,38.67-1.54,2-2.24,1.4-3.88.1-2.73-2.14-4.34-5.63-8-6.68l-1.39-1.28c.29-1.7-.6-2.82-1.75-3.91s-2.95,0-4.21-.91l-.76-1.37a52.35,52.35,0,0,0-7.28-6.6l-.68-.17c-.54-1.62-1.77-2.87-2.68-4.2s-2.4-3.42-4.89-2.91l-.93-.7c-3.47-3.13-6.93-6.29-10.45-9.37a2,2,0,0,0-3.14.18c-5.88,6.4-11.86,12.72-17.74,19.12-5.74,6.24-11.42,12.54-17.12,18.83-1.38,1.52-2.59,1.35-4.15,0-7.08-6-14.27-11.85-21.4-17.78-13.72-11.4-28-22.07-40.9-34.49a6,6,0,0,0-1.93-.8l-1.37-.8c.23-1.31-.44-1.73-1.63-1.64l-1.41-.78c0-.81.33-1.69-.56-2.28s-1.71-1.62-3-1.25c-1.45-1.26-4.14-2.47-4.48-3.28-1.3-3.17-4.59-3.6-6.39-5.81l-.74-.22c-.45-1.88-2-3.13-3.05-4.61-.62-.91-2-3.19-4.17-1.86,0-.56,0-1.13-.77-1.23-3.22-1.55-5.58-4.24-8.31-6.41-6.07-4.82-12-9.86-17.91-14.84-.78-.64-1.41-1.46-2.19-2.1-1.3-1.06-1.19-1.86-.13-3.22,6.8-8.74,13-17.94,20.25-26.35a5.3,5.3,0,0,0,1.72-3.12h19.49c.35,1.5-2.71,2.42-.77,4.16a36.62,36.62,0,0,0,4.93,4c1.64,1,1.83,4,4,3.7,2-.28,2.18-2.93,3.35-4.4,1.74-2.2,4.92-3.81,4.32-7.43h17.05c-.75,2.41-2.84,3.85-4.29,5.74-3.19,4.17-6.59,8.17-9.9,12.24-.73.91-1.34,1.64.06,2.72,3.35,2.59,6.42,5.56,9.82,8.07,13.07,9.67,25.24,20.46,38.06,30.44,2.38,1.85,3.13,1.22,4.64-.67q8.55-10.8,17.37-21.38c3.13-3.76,3.37-3.86-.3-6.84-1.9-1.54-1.56-2.62-.32-4.07l4.35-5.06a5.89,5.89,0,0,0-.72-8.54c-1.63-1.26-2.74-3.68-5.59-2.63-.46.17-1.31-.82-2-1.18-3.65-1.88-3.66-6.51-6.7-8.84h9.14c1.14,3.08,4.21,4.16,6.45,6.06,4.76,4,9.43,8.29,15.61,10.16a40.48,40.48,0,0,0,13.14,1.41c.46,1.17,2.51.1,2.57,1.83-.41.35-.7.83,0,1.08.87.33,1.18-.29,1.24-1.07v0l.72,0h1.1a68.22,68.22,0,0,1,12.72,9.31,2.85,2.85,0,0,0,2.31.41c.16,1.26.68,2.11,2.15,1.87h.5c0,.53,0,1,.65,1.25l.59,1.28c-.4,2.59.7,3.25,3,2.33,2.78,3.24,6.61,5.13,9.89,7.72,8.69,6.87,17.21,13.95,25.79,21q16.5,13.49,33,27,12.84,10.56,25.6,21.22c2.54,2.12,5.4,3.89,7.47,6.55a1.22,1.22,0,0,0,1.23.59h0A1.36,1.36,0,0,0,527.34-128.17ZM351.91,67.25c2.19.16,2.71-1.91,3.85-3,2.49-2.47,2.31-3.25-.52-5.35-1.85-1.37-4.14-2.59-5-4.66A10.42,10.42,0,0,0,347,50c-2.76-2.37-5.65-4.57-8.51-6.81-.77-.6-1.66-2.33-2.62-.8-1.51,2.44-4.94,3.88-4.24,7.55,0,.09.11.17.16.26h0c-1.71-.3-2.89.55-3.92,1.78-2.19,2.63-4.44,5.21-6.58,7.87-4.12,5.14-4.1,5.16.88,9.67.53.48,1,1,1.54,1.47,1.09.91,1.88,1.1,2.87-.41a57.51,57.51,0,0,1,4.45-5.32c.95-1.14,1.68-1.67,3.13-.35,3.34,3,6.91,5.84,10.41,8.71.66.54,1.06,1.59,2.21,1.28s5-6.24,5.11-7.65Zm1.83-229.61h0c-2.27-3.84-6.26-5.79-9.45-8.62-.59-.52-1.16,0-1.55.48-5.14,6.48-10.24,13-15.4,19.45-.89,1.1-.92,1.72.33,2.61a109.58,109.58,0,0,1,9.41,7.14c5.23,4.71,10.9,8.85,16.17,13.47,1.21,1.06,2,.84,2.95-.42,4.81-6.23,9.64-12.45,14.65-18.52,1.33-1.61.87-2.41-.4-3.41-4.75-3.75-9.52-7.48-14.24-11.27A3.33,3.33,0,0,0,353.74-162.36Zm77.77,133a3.54,3.54,0,0,1,.48-.89c2.38-3,5.09-5.81,7.1-9,2.54-4.07,7.4-6.59,7.93-11.94.06-.63.45-.21.49-.19,1.43.64,1.66-.61,2.26-1.35,4.65-5.72,9.28-11.45,14-17.09,1.27-1.51,1.24-2.54-.28-3.76q-10-8-20-16.18c-1.71-1.4-2.87-1.12-4.19.58-4.52,5.82-9.08,11.61-13.76,17.3-1.09,1.32-.95,1.83.34,2.77,2.86,2.07,5.58,4.33,8.35,6.52,1.14.9,1.44,1.85.38,3.09-1.83,2.14-3.52,4.42-5.4,6.52-1.61,1.81-2.75,3.26.14,5.05,1.52.94,3.28,2.24.91,4.48a40,40,0,0,0-4.92,6.12c-.55.77-1.52,1.45-1.31,2.62C424.12-34.19,430.29-29.29,431.51-29.36Zm39.67-127.38c-1.21-1.11-2.29-2.17-3.45-3.12-7.26-5.95-14.47-11.95-21.85-17.75-1.94-1.53-3.42-4.54-6.87-3.09-.8.34-1.44-.54-2.06-1.06q-5.56-4.67-11.16-9.3c-1.09-.91-1.78-1-2.89.39-5,6.33-10.27,12.46-15.37,18.71-2.62,3.21-5.11,6.51-7.59,9.82-.41.56-1.58,1.32-.63,2,2.79,2,4.47,5.19,7.11,7.21,7.6,5.8,14.71,12.18,22.15,18.18,4.41,3.54,8.85,7,13.21,10.63,1.61,1.33,2.62,1,3.78-.62,2.22-3,4.59-5.88,6.93-8.8q8.72-10.84,17.46-21.68Zm-172.5-50.15a19.24,19.24,0,0,1-1.12,1.77q-6,7.56-12.1,15.09c-2.85,3.51-2.84,3.71.46,6.41,5.45,4.46,11.65,7.81,16,13.83,3.1,4.25,8.25,7,12.43,10.48.91.76,1.51,1.19,2.44,0q7.23-9.12,14.54-18.19c1.22-1.51.95-2.64-.51-3.81q-14.49-11.67-28.94-23.37C301.06-205.34,300.11-205.91,298.68-206.89ZM506.4-126.68c.13-1-.59-1.21-1.13-1.65-5.15-4.22-10.29-8.43-15.38-12.71-3.07-2.58-3.59-2.53-6.11.65-3.24,4.11-6.54,8.17-9.85,12.23-3.75,4.61-7.55,9.19-11.31,13.79-1.28,1.57-2.09,2.69.34,4.49,5.34,3.94,10.31,8.4,15.35,12.73,1.81,1.56,3.07,1.54,4.64-.41,6.37-7.94,12.94-15.71,19.27-23.68C503.64-123,505.59-124.48,506.4-126.68Zm-115-48.7c-2.44.46-3.29-2-5-2.85-2.23-1.17-2.39-2.89-.64-4.85,2.28-2.56,4.24-5.44,6.69-7.82,2.23-2.18,1.21-3.33-.63-4.8-4.25-3.4-8.63-6.68-12.56-10.43-2.14-2-3.06-1.17-4.42.48-5.7,6.93-11.38,13.88-17.18,20.74-1.38,1.63-1.25,2.7.32,4,5.49,4.44,11.08,8.78,16.32,13.49,2.07,1.86,5.63,2.62,5.57,6.59,0,1,2,1.14,3.16,1.38s1.34-.95,1.7-1.76a24.36,24.36,0,0,1,8-9.74c.79-.59,2.11-1.06,1.35-2.25C393.53-174.16,393.33-176,391.39-175.38ZM279.33-217.7a2.18,2.18,0,0,0-1-2.06c-5.39-4.4-10.8-8.77-16.19-13.18-.81-.66-1.38-.62-2,.2-3.3,4.21-6.66,8.37-9.92,12.6-.42.55-1.63,1.43-.81,2,1.85,1.29.62,2.35-.1,3.2-1.39,1.62-.8,2.74.57,3.81,4.38,3.41,8.87,6.68,13.1,10.26,1.66,1.4,2.36.71,3.33-.5q6-7.56,12.12-15.1C278.79-216.93,279.13-217.42,279.33-217.7Zm132,181.08a3.19,3.19,0,0,0-.78.51c-2.66,3.42-5.28,6.88-8,10.28-.77,1-.14,1.46.51,2,4.08,3.28,8.19,6.53,12.27,9.82,1.49,1.21,2.63,1.36,3.92-.45,2-2.87,4.25-5.63,6.56-8.29,1.18-1.35.7-2-.41-2.92-4-3.13-7.87-6.31-11.82-9.44C412.91-35.69,412.1-36.12,411.33-36.62ZM367.48,37.75a5.82,5.82,0,0,0-2.42-2.3c-1-.56-1.36,0-1.94.66s-1.25,2.19-2.3,1.36c-2.05-1.62-2.73.14-3.71,1.16-.7.74-2,1.31-1.23,2.72.39.75,6.24,5,6.62,4.89a1.43,1.43,0,0,0,.24-.19C365.66,44,365.09,40.05,367.48,37.75Z"/><path class="cls-3" d="M-143.21-51.54c-.85-2.39.15-3.69,2.49-4.2,1.9-.41,3.5-1.93,5.65-1.61-.05.3,0,.61-.12.64-2.22.91-4.33,1.78-1,4.11.33.23.19,1.12.27,1.7l-1.19.18a3.35,3.35,0,0,0,.18.31c.34-.15.67-.33,1-.5,6.85-.77,13.69-1.23,20.48.56,10.8,2.85,20.18,7.75,25.73,18.05a43.34,43.34,0,0,1,4.11,9.57c.59-4.79-.29-8.64-.64-12.49-.94-10.25-1-20.15,5.81-28.9,2.51-3.22,4.9-6.57,7.25-9.93l1.17-.13-.16-.35-1,.48A71.39,71.39,0,0,0-89-69.21,14.62,14.62,0,0,1-92.68-68c-2.71.43-3.49-.55-2.67-3.4-1.75.86-3.33,1.83-5.48,1.78,3.6.16,1.31,2.09,1.3,3.29a2.09,2.09,0,0,1,.27.39A9.47,9.47,0,0,0-104.35-64c-.35.29-.68.43-1.06.13a1.23,1.23,0,0,1-.43-1.82c.36-.56.38-1.42-.38-1.4a6.72,6.72,0,0,0-3.13.9c-1.3.81.36.58.49,1,.26.8-.29,1.84-.59,1.66-2.09-1.24-1.54,1.87-3,1.73-.77-.07.74,2.47-1.58,1.83-1.8-.5-1.87-1.64-1.77-3.05.54-.1,1.23.25,1.53-.5a.5.5,0,0,0-.23-.44c-.75-.15-1,.44-1.29,1-2.55.28-5.29.27-5.71,3.79,0,.2-.64.33-1,.49l-.06,0c-.24-.12-.59-.41-.7-.33-.44.31-.31.66.11.93l0,.05c0,.56.29,1.2-.65,1.82-1.14-4.92-4-2.9-6.74-1.51,2.07,1.25,1.82,2.31-.37,3.08a1.2,1.2,0,0,1-.41.33c-2.69-3.32-2.48-4,1.47-5.52,15.42-6,30.94-11.72,46.18-18.12,5.78-2.43,11.66-4.43,17.52-6.56.9-.33,2.29-.27,1.61-2.14-.63-1.69-1.56-.88-2.39-.6-20.27,6.68-40.49,13.49-60.39,21.23-14.52,5.65-29.3,10.57-44,15.78-.91.33-2.37,1.34-2.78-.37-.34-1.42-1.9-3.09.47-4.51a130.51,130.51,0,0,1,20-9.53c18-7,36.43-12.89,54.35-20.16,1.64-.66,3.4-.43,5.07-.74a42.67,42.67,0,0,0,19.77-10,34.36,34.36,0,0,0,9.6-13.82c1.26-3.18,3.72-5.8,4.48-9.25.29-1.3,1.42-1,2.24-.91,3.17.43,6.32,1,9.61,1.5-.51,1.36-1.59.87-2.33.84-1.7-.06-1.77,1.13-1.81,2.22,0,1.43,1.18.87,1.8.82,9.54-.79,19.1-1.59,28.36-4.21,6.31-1.79,12.6-3.72,18.81-5.75,4.22-1.38,8.37-3.36,12.62-4.9C19.66-133,30-137.71,40.68-141.7c3.29-1.23,4.06,1.44,5.39,3.06,1.6,1.95,0,3-1.58,4-4.32,2.8-9.32,3.89-14,5.68-10.21,3.88-20.39,7.86-31,10.64-3.5.92-7.16,1.27-10.55,2.6-4.83,1.89-6.24,3.85-6,8.94.11,2.58-.77,3.69-3.2,4.53-11.19,3.83-22.32,7.88-33.45,11.89-.88.31-2,.51-2.29,2.18A153.46,153.46,0,0,0-40.5-93.52c10.33-3.87,20.54-8.14,31-11.49,6-1.92,12-4,17.84-6.32,8.46-3.42,16.79-7.25,25.52-9.81,8.24-2.41,16.38-5.09,24.39-8.1,14.4-5.4,28.56-11.41,43-16.75,21.41-7.95,41-19.32,60-31.69a199.67,199.67,0,0,0,16.88-12.85c4.31-3.5,7.44-8.15,11.73-11.64.3,1.52-1.24,3.33.74,4.57h-1.34c-1.75-1.47-2.26.1-3,1.21,0,.72-1.36,1.42.17,2.26.51.28,2,1.32.87,2.62s-2,.48-2.93-.08c-.34-.65.33-1.72-.78-2.2-.69,1.2,0,1.72.77,2.21-.87,7.74-7.87,10-12.79,13.91-10.88,8.65-23.21,15-35.16,22a217.05,217.05,0,0,1-24.79,12,5,5,0,0,0-1,.7,3.92,3.92,0,0,0-3,1.21,21.94,21.94,0,0,0-7.92,3,1.29,1.29,0,0,0-1.22.61c-.66,0-1.38-.09-1.82.61-.22.15-.83-.25-.65.47l.65-.47c.67,0,1.4.13,1.84-.6.5,0,1-.09,1.21-.61a14.56,14.56,0,0,0,7.92-3c1.18,0,2.42.16,3-1.23,3.44-1.18,4.84.85,5.77,3.65a22.9,22.9,0,0,0,.87,2.26c1.63,3.66,1.5,3.78-2.29,5.34-7.79,3.21-15.52,6.58-23.3,9.81-14.44,6-28.87,12-43.37,17.83-3.92,1.57-8.11,2.44-12.16,3.71-1.94.6-3.1.38-3.67-1.92-.63-2.53-1.82-4.92-2.61-7.42-.45-1.41-1.09-1.77-2.42-1.11-2,1-4.48,1.14-6.3,2.75-.3.27-1.88,1.56-1.07-.77.33-.94-1.34-.24-2-.61l-.05,0c-.24-3.45-.35-3.49-3.34-2.11-1.24.57-2.58,1-3.88,1.44l-.09.1c-.64,0-1.35-.14-1.78.58l0,0c-1.39,0-2.74,0-3.65,1.31l-.25.11.26.34v.64c.22,1.08-1.09,2-.13,3.39.33.48-2.15,2-3.52,2.13a2.06,2.06,0,0,1-1.83-2.48c.24-.22.75-.37.24-.81l-.3.76c-2.72-2.16-5.53.78-8.31-.13-.52-.17-1.82.3-.57,1.37a3.64,3.64,0,0,0,.48.32c-2,.81-.94,1.94-.7,3.38.49,3-2.74,2.49-4.24,3.66,0-.89-.83-1.88.57-2.57.77-.37,1.59-1.23.73-2.13a2.13,2.13,0,0,0-2.76-.47c-.95.65-2.41,1.09-1.74,3-1.39-2.56-2.88-2.9-4.68-.82a1.15,1.15,0,0,0-1.27.65l-1.13.59c-2.61.08-4.56,1.72-7.16,2.6,1.18.57,2.58-.11,2.67,1.17s-.88.37-1.41.41c-.11,0-.22.69-.23,1.06s.22,1.35.63,1.14c1.13-.59,3.6.28,3.32-1.55-.46-2.91,1.49-1.06,2.21-1.51l.6.2a.82.82,0,0,0,1.1.49c.06,0,.1-.11.15-.16l-.68-.31c.26-.08,3.44-2.74,3.65-3s.37,0,.56-.08c.2.35.41.52.61,0,1.65-.39,2.54,1.88,4.27,1.21,1.57,5.58,2.75,11.28,5.44,16.48.9,4.27-1.7,6.51-4.85,8.51-7.83,5-15.36,10.44-23,15.66-9.59,6.52-18.85,13.5-28.7,19.63-4.51,2.57-8.27,6.11-12.07,9.55-2.35,2.13-2.47,5.37-2.4,8.18.11,4.54-.74,9-.65,13.55.06,3.11-1,6.59-1.84,9.87a59.35,59.35,0,0,0-1.92,16.75c-1.11.19-1.88-.5-2.75-1-6.07-3.54-12.9-2.73-18.15,2.11-.67.61-1.25,1.49-2.28,1.28-4.67-1-9.56-1-14-3,4.62-1.16,9.49-.12,14.08-1.81s8.91-3.83,11-8.75C-91,.54-89.15-10.89-92.2-22.63A25.76,25.76,0,0,0-102-37.55c-11.48-8.26-24-9.75-37.48-6-3.87,1.08-7.68,2.49-11.81,2.46-4.77,0-9.39-.34-14,2.34s-10,4.21-15.11,6.24c-1.7.63-3.54,1-4.93,2.29-.67,0-1.38,0-1.86.61-2,.2-3.7,1.25-5.51,2-1.52.53-3,1.11-4.56,1.59A255.32,255.32,0,0,0-226-15.29c-1,.45-2.74-.21-2.6,1.83-1.13-.79-2.89.25-3.79-1.52s-2.17-2.05-4-.95a38.81,38.81,0,0,1-5.48,2.5c-1.75.72-.69,1.4,0,2.11h0c-1.71,1.12-3.72-.95-5.4.51l-.17.17c-.77.52-2.65.29-1.34,2.2.3.44-.49.72-1,.76h0l-.63-.62h0c-1.23-1.25-2.16.09-3.24.29.33,1,1.29.59,1.81,1,.81.61,1.21,1.44.49,2.36s-2.35,1.15-2.58.31c-.63-2.36-2.56-2-4.34-3.06l19-8.9-.14-.84a69,69,0,0,1-38.35,2.23c2.67,1.37,5.53,1.44,8.35,1.75.89.1,2.09-.14,2.28,1s-1.11,1.28-1.87,1.6c-14.78,6.34-29.58,12.62-44.36,19-3,1.27-5.86,2.69-9.48,4.35,2.16-10,5.32-19.46.88-29.64-4,11.29-8.67,21.62-15.78,31.18-1-3.88.45-7.56-.93-11V-17.41c.91,0,1.07-.68,1.34-1.37,3.86-9.8,6.74-19.93,9.9-29.95.83-2.62,2.42-5.71.46-8.44a30.53,30.53,0,0,0-11.7-10.18V-79.53c2.48-.16,3.4-2.56,4.43-4,5.57-7.72,12-14.77,17.73-22.31,3.45-4.52,7.24-8.79,10.56-13.39,1.42-2,2.23-1.77,3.71-.33,4,3.87,7.65,8.12,12,11.62,1.37,1.1.93,2-.35,2.84a77.05,77.05,0,0,0-6.87,5c-3.12,2.68-6.27,5.41-8.4,9.56,1.74-.38,2.31-1.43,3.1-2.16a87.36,87.36,0,0,1,15.91-12.1c13.67-7.81,28.45-13.16,43.17-18.6a26.36,26.36,0,0,0,.61,6.2c-5.17,2-10.32,4.11-15.53,6-14.79,5.5-28.77,12.41-40.52,23.2-1,.91-2.53,1.79-1,3.42,1.39,1.47,2.31.22,3.28-.67a57.43,57.43,0,0,1,6.07-5.47c6.05-4.18,12.73-6.95,19.55-9.53,10-3.77,20-7.75,29.93-11.64,2,1.25,3.4,3.15,4.9,4.91-10.2,3.89-20.41,7.75-30.59,11.67-7.55,2.9-15.2,5.63-21.6,10.82a41.61,41.61,0,0,0-8.72,8.81c-6,8.87-6.69,18.76-4.5,28.83C-299.5-36-292.5-28.78-283-23.6a33.67,33.67,0,0,0,12.15,3.47c5.8.75,11.64,1.67,17.46.22,10.31-2.56,20.6-5.16,31.37-4.25,1.56.13,2.93-.67,4.37-1.13,5.87-1.9,11.13-5.15,16.79-7.52,1.75-.74,3.75-.91,5.24-2.27a20.93,20.93,0,0,0,5.52-2.32c.66-.09,1.36-.08,1.83-.69A11.71,11.71,0,0,0-183.44-40c3-.38,5.56-1.81,8.25-2.92,8.31-3.43,17.18-5.35,25.26-9.31,1.53-.76,3.86,2,4.51-1.24a4.1,4.1,0,0,0,2.16,1.94l.29.24ZM-310.12-84.41a1.23,1.23,0,0,0,.65-1.17c.47-.09,1-.15.89-.81,0-.07-.12-.19-.19-.19-.68,0-.68.49-.77.94a1.26,1.26,0,0,0-.58,1.24l-.26.26c.06,0,.13,0,.16,0A.74.74,0,0,0-310.12-84.41Zm1.23,11a1.35,1.35,0,0,0-.61,1.22c-2.61,2.76-2.31,6.36-2.49,9.81q1.23-4.91,2.47-9.83c.54-.23.59-.71.61-1.21.26-.2.76-.31.25-.76Zm1.22,5.48a.93.93,0,0,0-.49,1.18c0,.07.15.1.22.15.09-.44.17-.89.25-1.34a.93.93,0,0,0,.45-1.17c0-.07-.15-.1-.23-.15ZM91.84-135.57c.67,0,1.4.15,1.83-.61.22-.14.82.3.67-.43l-.66.45c-.66,0-1.38-.09-1.82.61-.21.16-.83-.26-.65.46ZM-289.42-19.22a15,15,0,0,0,9.69,3.89c-3.33-1-6-3.76-9.66-3.92-.6-2.16-2.65-3-4.16-4.18-10.72-8.19-15.11-19.3-15.37-32.39a62.18,62.18,0,0,1,.17-9.15A40.27,40.27,0,0,0-310-54.62c.41,6.72,1,13.53,4.14,19.67A32.75,32.75,0,0,0-289.42-19.22Zm228-52.33a34.49,34.49,0,0,0-10.33,7.38c-.64.71-2.33.49-2.12,1.8s1.78,1,2.72,1.48A13.52,13.52,0,0,0-68.6-60c.53.14,1.15.58,1.57-.22C-65.19-63.81-62.8-67.07-61.46-71.55ZM-318.39-32c2.51-8.34,3.77-16.92,5-25.52C-315.51-49.12-317.67-40.7-318.39-32ZM-142.77-48.5c1.37-.51,3.32-.3,4.26-2,.22-.4,1.18-1,.52-1.64s-1.08-.4-1.73.26a7,7,0,0,1-3.4,1.79c-.62.14-1.79-1.67-1.84.4C-145-48.27-143.81-48.59-142.77-48.5ZM1.54-106.56,2.11-103A5.67,5.67,0,0,0,1.54-106.56ZM-306.14-88.94c.1-.55-.11-.82-.42-.72a1.56,1.56,0,0,0-.85.68c-.19.41.06.82.55.68C-306.54-88.4-306.3-88.79-306.14-88.94ZM-312.5-60l-.38-.73a4.72,4.72,0,0,0-.21.8,1.36,1.36,0,0,0,.18.51Zm171.78,6.39c0-.06,0-.17-.05-.17a1.27,1.27,0,0,0-.57-.06c-.28.07-.26.24.05.3A1.62,1.62,0,0,0-140.72-53.6Zm28.19-10.86.49-.19a5.6,5.6,0,0,0-.54-.17c-.08,0-.18.06-.27.09Z"/><path class="cls-3" d="M-81.12,67.91c.81-4.65,1.65-9.29,2.42-13.94.48-2.87.87-5.76,1.25-8.65.27-2.1,1.85-2,3.22-1.78,8.36,1.19,16.71,2.23,24.57,5.86,6.95,3.21,14,6.77,21.42,8.25,5.49,1.09,8,4.36,11.48,7.66,9.29,8.8,19.33,16.77,29.31,24.79C17.34,94,22,98,26.67,102l-.15,1.26c-.19,0-.47,0-.57.15q-7.15,9.15-14.28,18.34c-.51.65-.81,1.44.06,2.13s1.56.16,2.07-.49c2.11-2.69,4.08-5.5,6.29-8.12,2.89-3.43,5-7.55,8.78-10.24l1,.36c.18,2.33,2.69,3.4,3,5.87.12,1.08,2,2.09,3-.12h0c.91.14,2.35-.4,2.34,1.11,0,1.75,1.29,2.26,2.23,3.25,1.9,2,5.51,1.72,6.45,5,.08.26,1.09.24,1.66.36l1.44,1.43a.52.52,0,0,0,.39.4l.15.15a6,6,0,0,0,4.66,3.47,2.7,2.7,0,0,0,3.23,1.3c14.92,12,29.87,23.93,44.74,36,6.89,5.58,13.63,11.35,20.43,17,.37.31,1,.85,1,1-1.17,2.77,1.83,3.86,2.79,4.35a5.35,5.35,0,0,1,3.15,4.31c.16.84.94.55,1.5.61a1.44,1.44,0,0,0,1.23,1c.63,0,.74-.47.66-1l0-.06,1.26,0c1.77,1.35,1.69,4,3.85,5.21,2.5,1.44,5.32,2.39,7,5.32.61,1.09,3.1,1.51,4.35,2.86l.6.58.05,0c.59,1.06,1.57.6,2.43.65,4,3.26,8,6.5,11.9,9.81,1.19,1,2.75,2,1.24,4-4,5.21-7.94,10.45-11.91,15.67Q143.81,249.21,133,263.43c-.66.86-1,1.92,0,2.66s1.55-.23,2.12-1q15.24-20.18,30.51-40.31c2.16-2.85,3.84-6.82,8.69-4.1.38.22,1,.06,1.5,0a5.07,5.07,0,0,1,3.58,1.41q14.4,12.29,28.83,24.53c.79.68,1.71,1.86,2.8.62s-.24-1.88-1.05-2.57c-8.67-7.41-17.31-14.87-26-22.23-4.42-3.73-4.44-3.61-.71-8.22q17.78-22,35.48-44.1C232.93,152.45,247,134.64,261.23,117c1-1.24,1.58-3.07,3.61-3.44,2.82-.51,3.9-2.61,4.18-5.25.73-.18,1.38-.44,1.24-1.4l.06-.06h.76c1.48.17,1.88-.72,2-2.17-1,.49-2,1.12-2.54-.45-.23-.62-1-.31-1.48.24a2.16,2.16,0,0,0-2,1.26c-1.32-.11-2.31-.06-3.26,1.38a31,31,0,0,0-2.9,5.5c-1.15,2.76-3.77,4.91-5.78,7.31a1.41,1.41,0,0,1-2.3.26q-13.56-10.9-27.19-21.72c-5.69-4.51-11.41-9-17.12-13.47-.77-.6-1.74-1.06-2.43-.19s-.17,1.81.75,2.54q15.21,12,30.37,24c4.34,3.45,8.65,7,13,10.41,1.58,1.26,2,2.19.36,4.09-4.56,5.26-8.76,10.82-13.09,16.26q-12.54,15.75-25.07,31.49c-7.11,8.9-14.19,17.84-21.4,26.66-4.41,5.39-8.29,11.21-13.34,16.07a4,4,0,0,1-4.38,1c-2.9-.8-4.69-3.07-7-4.71-4-2.87-7.09-6.89-11.69-8.95a2.62,2.62,0,0,0-1.31-1.43c-2.85-2-3-7.19-7.85-7-.28,0-.63-.49-.87-.8-2.27-2.83-5.28-4.73-8.28-6.65-.8-.4-1.35-1.3-2.4-1.19a11,11,0,0,0-7.94-8.24c-3-1-5-3.92-7.63-5.83a5,5,0,0,1-1.48-1.52c-.94-1.83-4.29-1.75-3.95-4.1.26-1.83,2.43-3,3.66-4.6,6.22-7.94,12.7-15.68,19.09-23.5q12.06-14.76,24.14-29.53c8.91-10.83,18-21.54,26.8-32.45C192,70.23,197.71,63.82,202,56.28c1.07-1.9,1.16-3.24.08-4.94-2.76-4.34-5.29-8.86-9.72-11.85-1.07-.72-2.65-1.28-1.94-3.22.17-.45-.4-1.09-.88-1.07-4.25.16-7.13-3.24-8.9-5.67-2.05-2.82-5.26-3.1-7.25-5.61s-5.3-3.94-7.74-6.16c-2.13-1.94-3.52-4.63-6-6.34-.4-.28-.67-1.08-1-1.08-5,.05-7.36-4.18-10.62-6.73-11.77-9.19-23.3-18.68-34.88-28.11C100.71-34.63,88.33-44.84,75.88-55c-8.06-6.56-16.39-12.81-24.23-19.62-4-3.48-7.22-7.88-10.75-11.91-1.66-1.9-3.08-4-4.84-5.81s-1.4-2.5.9-3.09c3.91-1,7.77-2.22,11.65-3.32,12.8-3.64,24.51-10,36.84-14.81,2.26-.88,4.79-.74,6.94-2,1-.59,2.42-.7,2.46-2.31l1.92-.09a1.77,1.77,0,0,0,1.76-1.2l2.38-.68c2.3-.5,4.68-.87,6.18-3h0c.2.44.4.44.62,0l1.87-.6c.82,0,1.67.06,1.74-1.11l.11-.12a1.08,1.08,0,0,0,1.11-.57l.77,0c2.53.13,4.44-1.45,6.57-2.42a1.1,1.1,0,0,0,1.17-1.17c1.78-.14,3.76.3,4.87-1.73l.19-.18c.59,0,1-.2,1-.88l.9-.34a.9.9,0,0,0,1-.44l.74.09.32.59.19-.75.06-.06a1.08,1.08,0,0,0,1.12-.56c.64-.2.73-.79.91-1.32l.44,0h1.11c.62.79,1.23.82,1.85,0h2.39a2.53,2.53,0,0,0,2.51-2.46c2.85-3,6.81-4.24,10.27-6.24,7.66-4.43,15.88-8,23.21-12.87,4.88-3.25,9-7.91,12.77-12.49,2.78-3.37,6.2-6,9.05-9.27,8.94-10.28,18.24-20.25,27.2-30.51,1.92-2.19,4.18-4.12,5.77-6.6.8-1.26,1.31-.68,2.09,0,8.71,7.34,17.38,14.73,26.24,21.89,1.58,1.27,1.16,3.34,2.71,4.37l1.21,0c.31.43-.67,1.92,1,1.23l1,.36c1.14,2.24,1.78,4.78,4,6.34.54,0,1.12.19,1.3-.57l.06-.06,1.26,0c.48.07,1.23-.18,1.33.38.7,3.92,2.95,5.9,6.95,6,1.06,0,.7,1,.82,1.62l.82.54.18.05.8.56.07,0c.38.92,1.17.6,1.85.6a1.28,1.28,0,0,0,.34-.07c.17.94-.08,2,.89,2.68,0,1.11.64,1.56,1.65,1.64a3.82,3.82,0,0,0,2.56.67c2.29,1.78,4.63,3.5,6.86,5.35,8.93,7.42,17.78,14.92,26.73,22.32,9.8,8.09,19.6,16.19,29.56,24.08,2.45,1.94,2.81,3.13.3,5.12a10.72,10.72,0,0,0-3.28,3.92c-.81,2-3.67,2.25-3.5,4.78l-1.47,1.47c-.75,0-1,.4-1,1.07a2.65,2.65,0,0,0-3.12,2.52c-1,2.22-4,3.07-4.17,5.88a2.43,2.43,0,0,0-1.32,2c-4,1-5.08,5.76-8.88,7.09-.23.08-.12,1.13-.17,1.72l-.65.06c-.28,0-.65-.23-.82-.12-1.37.91-1.72,2.18-2.09,3.84-.53,2.3-3,3.69-4.51,5.56-1.05,1.28-3.47,3-1.81,4.46,1.83,1.61,2.78-1.16,4-2.32,2.23-2.08,3.59-5.28,6.66-6.2,1.8-.54,2.34-1.25,2.16-2.89l.92-.93a4.62,4.62,0,0,0,3.19-2c.73-1.12,1.05-.4,1.42.24-1.73,2.83-4.08,5.16-6.14,7.72-3.12,3.87-3.11,3.86.53,7.1a12.88,12.88,0,0,1,1.35,1.59c-1.85,2.51-3.63,5.08-5.6,7.49-1.18,1.46-1,2.47.42,3.48,1.63,1.17,2.06-.34,2.76-1.24,3.15-4,6.16-8.23,9.51-12.11,1.74-2,2.46-3.58.21-5.52a2.82,2.82,0,0,1,.52-2c6.3-7.72,12.55-15.48,18.9-23.15,2.25-2.72,2.14-3.54-.66-5.66-1.87-1.43-3.17-.07-4.69.42a2.56,2.56,0,0,1,.44-2.74q15-16.41,29.94-32.93c2.65-2.92,5.47-5.69,7.86-8.81,4.84-6.34,6-6.53,11.59-1,1.65,1.63,3.76,2.85,4.64,5.18a1.39,1.39,0,0,0,1.46.61,3.62,3.62,0,0,0,1.51,3.34c1.09.85,2.57,1.65,2.8,3.34.61,2.27,1.65,3.28,3.72,1.26.95,0,1.54,0,1.56,1.43a2.69,2.69,0,0,0,3.09,2.81l.78.24c-.22,1.66,1.07,1.69,2.12,1.91.5.1,1.47-.39,1.25.62-.75,3.56,1.8,3.12,3.85,3.32a3,3,0,0,0,1.93,2.54c.25,1.58,1.42,3.09,2.67,2.77,2.28-.58,3.07.94,4.28,2,2.41,2.15,4.67,4.51,7.27,6.4,1.7,1.25,1.44,1.85.25,3.23-7.19,8.31-14.3,16.7-21.41,25.09q-9.69,11.42-19.31,22.89C396.63-51,390.8-44.19,385.05-37.3c-5.56,6.65-11,13.41-16.57,20C361.33-8.77,354.06-.39,346.89,8.07c-8.59,10.16-17.21,20.3-25.67,30.57-2.52,3-5.91,5.38-7.65,9.09l-2,.66c-.79,0-1.09.48-1.11,1.21v.59c-.11.58,0,1.38-.38,1.72-3.61,3.52-6.52,7.64-9.94,11.32-1.65,1.79-4.2,2.59-5.26,5.1a31.83,31.83,0,0,1-6.33,9.88c-1.25,1.3-2.39,2.72-3.66,4a4.74,4.74,0,0,0-1.78,3.68l-1.43,1.53c-2.1-.5-4,1-4.1,2.3-.22,3.74-3.62,5.07-5,7.83-.66,1.36-2.22,2.14-2.35,3.81a1.1,1.1,0,0,0-1.22,1.22l-.14.25.14-.26a1.14,1.14,0,0,0,1.22-1.22c1.73-.1,2.37,1.67,3.5,2.23,1.51-.61-1.05-1.81.54-2.17,3.73-.84,5.12-3.55,5.76-6.92.08-.45.23-.61.76-.64,2.61-.14,2.83-2,2.81-4a2.14,2.14,0,0,0,2.07-1.92c1.72-.63,3.06-1.41,2.55-3.69-.4-1.73,1.35-2.56,2.12-3.76,1.37-2.09,3.29-3.84,4.59-6s4.11-1.22,5.28-3.51a17.89,17.89,0,0,1,3-3.66,2.79,2.79,0,0,1,4.11-.37c6.56,5.33,13,10.83,19.43,16.27l9.91,8.35c0,.52.05,1,.61,1.23l0,0c-.55,1.91-2,3.2-3.19,4.68-6.57,8.27-13.79,16-20,24.57a10.12,10.12,0,0,1-4.24-3.06,1.81,1.81,0,0,0,1.27-.71c4.72-5.66,9.5-11.27,14.18-17,2.38-2.89,2.11-3.36-1.21-6Q316,88.85,308,82.06c-2.67-2.28-2.85-2.34-5.1.44-3.75,4.62-7.68,9.1-11.35,13.78-3.8,4.84-3.9,3.58.57,7.22,1.33,1.09,2.59,2.26,3.87,3.4,4.59,4.09,9.86,7.39,13.89,12.12-2.06,1.19-3.62.85-5.51-.81-5.44-4.79-11.14-9.27-16.76-13.85-.61-.49-1.21-1.74-2.14-.4-1.82,2.61-4.38,4.44-6.84,6.31-2.05,1.56-1.83,4.18-3.37,5.94-3.16,3.62-3.12,3.65.36,6.63l2.75,2.36,19.32,16.36a23.33,23.33,0,0,1-5.47,5.48,2.55,2.55,0,0,0-1.17-2c-5.89-4.72-11.77-9.46-17.68-14.15-1.91-1.52-3.6-4.51-5.91-4s-3.32,3.87-5.2,5.65c-2.3,2.18-1.22,3.5.68,5,4.33,3.45,8.46,7.16,12.92,10.41,3.23,2.35,5.68,5.78,9.68,7a3.44,3.44,0,0,1-1.16,2.66q-8.29,9.33-15.87,19.27a21.89,21.89,0,0,0-2.23-2.46c-6.46-5.32-13.06-10.48-19.39-15.95-1.91-1.65-2.63-1.2-3.92.46-3.22,4.14-6.72,8.06-9.87,12.24-2.47,3.28-5.77,6-7.27,9.94h0a2.5,2.5,0,0,1-1.84-.92c-.78-.78-1.73-1.39-2.56-.29s.4,1.85,1.09,2.39c1.43,1.12,3,2.07,3.92,3.7-.92,0-1.37.59-1.9,1.28-2.5,3.29-5,6.55-7.64,9.74-2.23,2.72-2.22,3,.58,5.19,4.47,3.44,9,6.78,13.28,10.47,2,1.72,3.07,1.25,4.41-.45,2.3-2.93,4.49-6,7-8.69,1.65-1.78,1.84-3.14.08-4.76,1.81.61,2.32-2.17,3.1-1.78,1.86.91,2.45-.36,3.2-1.27,3-3.66,5.88-7.38,8.81-11.09,1.53-1.94,3-2.37,4.38.14-3.62,4.33-7.26,8.65-10.86,13q-9.54,11.53-19.07,23.1c-4.44,5.36-8.92,10.68-13.36,16-1.11,1.35-1.95,1.46-3.44.22-7.21-6-14.58-11.81-21.84-17.75-1.57-1.29-3.19-1.81-4.45-.09-1.09,1.48-1.38,3.33.49,4.8,7.36,5.81,14.29,12.17,22.41,17,1.74,1,4,1.74,5,3.27,2.66,4.13,7.06,4.65,11,6.2-.15,1.23,1.23,1.63,1.71,2.63-1.65.84-3.41,0-4.74,1-1.6-2.68-4.76-2.7-7-4.2-2.47-1.62-4-.67-5.56,1.24-5.11,6.11-10.32,12.13-15.47,18.2-2.78,3.28-2.76,3.29,0,6.06-5.71,7-11.4,14.1-17.15,21.11-6.2,7.55-12.53,15-18.67,22.61-3,3.76-6.44,7.23-9.18,11.24-1.2,1.75-2.59,1.08-3.75-.26-1-1.14-2-2.07-3.61-1.07l0-.05c-.25-3.56-1.67-4.52-5-3.31a.91.91,0,0,1-1.1-.15c-.38-.43-.09-.68.29-.91,2.1-1.27.92-2.39-.35-3.11a9.71,9.71,0,0,1-4-3.38c-1.18-1.95-3.05-1.5-5.08-.15,3.17-3.27-.05-4.08-1.57-5.39-8.48-7.32-17-14.63-25.56-21.84-1.22-1-2.59-3.1-4.56-.59-.48-1.42,1.38-2.62-.27-3.56-1.32-.76-2.5-2.7-4.21-.5-.25.32-.81.17-1-.21a.81.81,0,0,1,.14-.72c.57-.66,2.27-1.14.79-2.17-1.15-.81-2.26-3.13-4.27-1.07-.16.16-.56.08-1.16.15.29-1.25,2.07-2.13.14-3.71s-2.81-1.25-4.36.25c.77-3.71-3.55-8.41-7.06-8.16-1,.07-5.77-3.05-5.77-3.86,0-1.31,1.1-.78,1.79-.91.85-.17,2,.43,2.48-.6.57-1.2-.59-1.86-1.3-2.46-5.1-4.28-10.26-8.5-15.39-12.74-7.63-6.29-15.29-12.54-22.87-18.89-2.39-2-5.18-3.54-7.11-6.08,1.33-1.24,2.65-2.49,4-3.71s1-2.39-.28-3.27c-3.3-2.3-6.09-5.3-9.77-7.08,3.07-4.51,6.88-8.42,10.41-12.56.74-.88,2.28-1.61.5-3.11-5.54-4.68-11-9.49-16.49-14.21-6-5.12-12-10.18-17.94-15.31a2,2,0,0,1-1-1.95c.1-1.64,1.46-4.51-2.36-4.17-.31,0-.68-.39-1-.63-3.17-2.37-3.17-2.37-5.88.71-.26.3-.57.58-.85.87-3,3.07-3,3.4.4,6a7.68,7.68,0,0,0,1.52,1c2.63,1.25,2.24,4.32,3.64,6.34.29.42-1.5,2.37-2.46,3.51-1.23,1.47-2.58,2.83-3.87,4.24a3.52,3.52,0,0,1-2.67-1.18c-5.17-4.19-10.35-8.38-15.63-12.43-.71-.55-2-2.61-3-.23-.63,1.54-3.87,2.44-.79,5.07,5,4.25,10.08,8.37,15.18,12.49,6,4.88,12,9.81,17.85,14.92,3.08,2.7,6.74,4.74,9.21,8.11,0,1.82,0,4.49-1.19,5C4,214,2.5,211.83,1.12,210.71q-10.5-8.62-21-17.22c-.31-.25-.92-.4-1-.68-.93-5.33-6.2-6.18-9.5-9A34,34,0,0,0-39.14,178c-.91-.37-.88-1-.87-1.93,0-1.78-2.67-3.26-4.37-2.59-.22.08-.41.61-.64.27-2.55-3.84-7.23-5.36-9.91-9.05,1.55-.35,6.27-6,5.85-7.31-.52-1.59-2.23-2.27-3.46-3.2-1.69-1.27-2.43-2.33-.91-4.16.65-.78.82-1.5-.31-2.2a139.11,139.11,0,0,1-15.71-11.26c-1.5-1.25-2.45.14-3.07,1.29-1.06,2-2.25,1.95-3.81.61-1.22-1.05-2.67-1.86-3.78-3-1.55-1.58-2.83-1.52-3.85.35-.62,1.13-2,1.79-2,3.29h0c-2.45-.55-3.66-3.13-6.11-3.67,2.1-6.47,5.1-12.68,5.17-19.73,0-1.49-.15-3.52,1.58-4.64,1.3,0,2.6,0,3.9,0,1.08,0,2.22-.29,2-1.62-.21-1.14-1.24-1.33-2.38-1.09a22.3,22.3,0,0,1-3,.24c-1.83-1.79-1.94-3.9-1.16-6.19a19.1,19.1,0,0,0,1.23-7.68c-.1-1.22.71-1.8,1.86-1.93,5.38.3,10.41,2.23,15.63,3.31a13.9,13.9,0,0,1,2,.48c1,.36,1.87.53,2.2-.68s-.45-1.66-1.45-1.9L-73,92l-9.39-2.22-.59-.58,0,0a4.1,4.1,0,0,1-.54-2.62C-82,80.43-81.66,74.16-81.12,67.91ZM62.62,144h0c-1.51-3.11-4.91-4.25-7-6.74-1.2-1.42-2.14-1.07-3.17.16-2.17,2.62-4.34,5.26-6.6,7.81-1.63,1.85-2.55,3.53.26,5.09,2.55,1.41,3.87,4.77,7.39,4.64h0a2.5,2.5,0,0,0,.73,2.22l7,5.78c1.08.88,1.72,0,2.27-.67,2.64-3.18,5.22-6.41,7.84-9.61.45-.55,1.13-1.1.31-1.76C68.67,148.54,66.44,145.23,62.62,144Zm23.14,38.37h0c1.33,3.32,4.75,4.47,7,6.8,1.34,1.38,2.23.91,3.2-.28,2.34-2.91,4.55-5.94,7.08-8.67,1.6-1.72,1-2.68-.44-3.83-2.54-2-5.17-3.89-7.56-6-5.54-5-11.41-9.6-17.11-14.42-1.37-1.15-2-.68-2.93.43-2.38,3-4.67,6.11-7.29,8.89-1.42,1.52-1,2.28.26,3.35,4.36,3.59,8.64,7.28,13.08,10.77C82.52,180.48,83.4,182.62,85.76,182.36ZM322.68-4c-.91,0-1.44-.62-2.07-1.13-6.33-5.15-12.72-10.24-19-15.45-1.24-1-2-1.08-3,.16-3.41,4.25-6.82,8.49-10.32,12.66-.86,1-.86,1.47.23,2.34,9.57,7.74,19.06,15.55,28.6,23.32,1,.83,2.39,1.35,1.12,3.05-.46.62.28,1.08.74,1.44a1,1,0,0,0,1.36-.09,17.45,17.45,0,0,0,1.72-1.72C328.28,13,334.4,5.41,340.62-2.1c1-1.19.8-1.91-.21-2.76-2.48-2.06-5-4.12-7.43-6.2-3.26-2.77-3.24-2.77-6,.6-1.28,1.56-2.58,3.1-4,4.58A1.39,1.39,0,0,0,322.68-4ZM160.06,164.09h0c.14-1-.42-1.61-1.21-2.23-2.46-1.92-4.86-3.93-7.25-5.94-3.24-2.73-3.22-2.74-5.82.21-.54.61-1.17,1.13-1.68,1.76-2.79,3.47-2.77,3.47.62,6.42.69.6,1.29,1.31,2,1.88,9.48,7.69,19,15.33,28.43,23.07,3.73,3.05,3.65,3.15,6.78-.42,4-4.6,4-4.6-.41-8.49-.15-.13-.28-.29-.44-.42-1-.79-1.18-1.28-.13-2.51,5.29-6.23,10.37-12.62,15.5-19,.64-.79,1.79-1.61.37-2.77-5.4-4.39-10.77-8.82-16.17-13.21-1.23-1-2.24-.86-3.31.49q-7.22,9.15-14.62,18.14a2.3,2.3,0,0,0-.21,3h0C161.69,164.07,160.87,163.49,160.06,164.09ZM310.77-90.35c4.5-1.46,2.26-5.09,2.75-7.83.28-1.61-.67-2-2.15-2.11-1.65-.12-3.73,1.27-4.52.63-3.16-2.58-7-4.46-9.28-8-.65-1-1.34-2.22-2.71-2.15s-1.64,1.4-2,2.43c-.5,1.61-1.2,2-2.55.77-2-1.83-4.51-2.93-5.89-5.48-.39-.7-1.39-2.07-2.62-1.59A3,3,0,0,0,280-111.1a4,4,0,0,1-1.5,2.9c-2.13,1.61-1,2.72.32,4.09.61.62,2.46.71,1.73,1.9-.61,1-1.22,2.45-3.34,2.09-2.85-.47-5.83-.08-8.76-.13-3.71,0-7.55,1.13-11.06-1.09a1.31,1.31,0,0,0-1.17.07c-2.63,1.77-5.14,2.33-7.49-.49a1.28,1.28,0,0,0-1.13-.25c-1.91.61-3-.7-4.23-1.7-7.3-6.06-14.61-12.11-21.86-18.23a1.51,1.51,0,0,0-2.53.24c-4.28,5.23-8.54,10.48-12.84,15.69-1.24,1.5-1.15,2.39.54,3.64,2,1.47,4,3.3,3,6.34s-.28,3.77,3,3.6c2.09-.11,4.36-1,6.32.44,2.25,1.71,4.44,3.5,6.62,5.31,7.69,6.38,15.35,12.8,23,19.18,7.84,6.51,15.71,13,23.55,19.49,4.12,3.42,8.17,6.91,12.33,10.28.8.65,1.77,1.84,3,.27,4.17-5.2,8.36-10.37,12.65-15.47,1.39-1.66,1.08-2.83-.44-4.06-3-2.43-5.91-4.88-8.87-7.33L272.15-79.9a16.49,16.49,0,0,1,3.66-.68c5.46.33,5.45.38,5.45-4.89,0-.71,0-1.42,0-2.13s.28-1.74-.73-2.11a2.19,2.19,0,0,0-2.53.48c-1.35,1.5-2.65,2.27-4.91,1.33-1.75-.74-4.12.36-5.79-1.17-1.09-1-2.65-1.75-2.9-4.09,3.46,1.63,4.33-.07,4.27-3,.73,2.39,1,5.23,4.48,2.82.66-.46,1.36.09,2,.4a3.65,3.65,0,0,0,2.62.5c2.92-.76,5.89-.23,8.81-.13,1.44,0,2.52-.06,3-1.27.54-1.47.93-1,1.8-.35,5,4.07,10.07,8.09,15.12,12.11,1.42,1.13,2.75,2.53,4.37,3.21,2.48,1.05,2.92-1.77,4.32-2.82.47-.35,1.14-.45,1.6-.81,1.89-1.48,1.81-3.23-.42-4A16.24,16.24,0,0,1,310.77-90.35Zm-156-9a7.43,7.43,0,0,0-1,.82c-3.58,4.38-7.13,8.77-10.72,13.13-.66.81-.24,1.28.35,1.76q8.91,7.26,17.83,14.52c8.43,6.89,16.84,13.82,25.28,20.71,6.33,5.16,12.71,10.26,19,15.43.89.73,1.5,1.21,2.46,0q8.61-10.74,17.35-21.38c.89-1.09,1.09-1.83-.08-2.74-2.53-2-5.07-4-7.57-6-7.33-6-14.63-12.07-22-18.07-7.5-6.13-15.07-12.17-22.5-18.37-1.35-1.12-2-.82-2.91.29-1.51,1.89-3.05,3.75-4.54,5.66-1.08,1.4-2.1,1.7-3.49.33s-2.87-2.55-4.36-3.76C157-97.89,155.91-98.6,154.8-99.39ZM397.41-95a23.57,23.57,0,0,1,7,5c5.66,5.2,5.73,5.32,10.52-.56,1.89-2.31,4.71-4.22,5.29-7.19a4.93,4.93,0,0,1,3.42-4.19c1-.44,3.61-1.65,1.53-3.26-5.54-4.27-9.8-10.32-17-12.4a3,3,0,0,1-2.27-2.89,1.6,1.6,0,0,0-.75-1.51c-3.78-3-7.54-6.08-11.32-9.1-.59-.46-1.11-1.6-2-1s-1.7,1.31-1.36,2.49a2.63,2.63,0,0,1-2,3.25c-2.84.62-3.85,2.89-5.25,4.82-.78,1.09-2.35,1.56-2.35,3.32,0,2-.62,3.64-3.13,3.79a2.4,2.4,0,0,0-1.87,1.83c-.3,1,.8,1.22,1.39,1.71,4,3.36,8,6.75,12.07,10.1,1.28,1.07,1.69,1.93.31,3.44-2.5,2.76-4.5,6-7.08,8.66-1.81,1.88-1.09,2.81.45,4,4.25,3.41,8.5,6.82,12.66,10.33,3.12,2.62,3.21,2.66,5.77-.7.92-1.2,2-2.3,2.91-3.48,1.48-1.88,4.24-4,4-5.65s-3.45-3-5.18-4.68S398.8-91.66,397.41-95Zm-117.9,98c-.55.79-1,1.56-1.59,2.27-7.1,8.91-14.15,17.87-21.39,26.67-1.32,1.6-1,2.26.32,3.31,8.34,6.7,16.68,13.38,24.94,20.17,1.55,1.27,2.46.9,3.48-.46,7-9.27,14.38-18.16,21.78-27.07,1.05-1.26.65-1.69-.39-2.55-7.79-6.42-15.51-12.91-23.27-19.36C282.32,5,281.18,4.21,279.51,2.93ZM268.2-168.8a5.17,5.17,0,0,0-.72-.9c-5.16-4.2-10.35-8.38-15.52-12.57-.75-.61-1.69-1.26-2.38-.3-.94,1.29-1.23.47-1.88-.19-.84-.86-1.89-1.52-2.75-2.36-2.52-2.47-6-3.93-7.92-7a3.64,3.64,0,0,0-3.78-1.68c-1.2.08-1.14,1.63-1.35,2.73-.47,2.45-1.38,4.71-4.35,4.89-1.62.1-1.62,1-1.74,2.23-.28,2.8-1.5,5.11-4.49,5.66-1.65.3-1.49,1.25-1.59,2.37-.26,3-2.15,5.25-4.92,5.45-1.07.08-1.21.44-1.14,1.22a6.21,6.21,0,0,1-1.94,4.91c-1,1.16-1.4,2.18.38,3.41a104.89,104.89,0,0,1,8.2,6.72c3.7,3.16,3.69,3.18,6.77-.63,4.18-5.15,4.18-5.15,9.41-.88,2.77,2.26,3.13,2.21,5.2-.6.89-1.22,1.84-2.39,2.76-3.6.78-1,1.53-1.43,2.74-.42,2.49,2.06,5.15,3.91,7.62,6,1.09.9,1.44.74,2.28-.36,3-3.85,6.1-7.53,9.15-11.3C266.93-166.84,267.5-167.8,268.2-168.8ZM243.42,120c0-.74-.77-.88-1.14-1.32-2.11-2.58-5.62-2.36-8.19-4.65-8.74-7.75-18.14-14.76-27.17-22.21-1.52-1.26-2.07-1.14-3.22.29q-5.87,7.35-12,14.49c-1.87,2.17-1.66,3.61.57,5.38,9.49,7.53,18.87,15.17,28.27,22.81.7.57,1.53.91,1.61,2.28.11,1.59,1.75,2.57,3.18,3.19,1.22.54,2.1-.44,2.83-1.3q4.83-5.76,9.62-11.56c1.54-1.86,3-3.77,4.57-5.64C242.78,121.17,243.4,120.74,243.42,120Zm23.47-28.51c4.95-6.1,9.66-12.16,14.67-18,1.5-1.74,1-2.42-.4-3.53q-16-12.93-31.93-26c-1.1-.9-1.58-1.07-2.57.18-4.26,5.37-8.5,10.77-13.07,15.88-2.15,2.41-1,3.57.79,5,3,2.37,6,4.78,9,7.2C251.17,78.63,259,85,266.89,91.44ZM236.17,11.19a6.05,6.05,0,0,0-.8-1.07c-4.17-3.49-8.34-7-12.55-10.43-.93-.76-1.66-.5-2.5.53q-12.93,16-26,31.81c-1.05,1.27-.75,1.64.29,2.48,3.54,2.84,7.29,5.5,10.39,8.77,2.67,2.83,4,1.3,5.64-.7L235.3,12.4C235.61,12,235.87,11.62,236.17,11.19ZM341.41-113.74c-1-2.66-4.26-2.23-6-4-.49-.48-1.11-1.06-1.76-.14-.12.17-.23.34-.35.5-1.1,1.48-2,1.19-3.54.25-3.36-2.08-5-5.8-8.3-7.92-2.5-1.61-5.35-2.66-7.49-4.88-1-1-2-1.64-.43-3,1.2-1,1-2-.4-2.86a7,7,0,0,1-1.7-1.73c-3-3.9-3.25-3.87-5.36.83a5.47,5.47,0,0,1-.89,1.21c-3.93,4.58-6.93,9.95-11.84,13.68-1.28,1-1.25,1.9.29,2.76s3.26,1.1,4.43,2.4c1,1.07,1.75.86,2.43-.17,1.29-2,2.6-1.22,4-.13q7.89,6.38,15.79,12.75c1,.83,1.54,1.73.26,2.69-1.8,1.33-1,2.38.33,3.27a11.38,11.38,0,0,1,2.61,3.22c1.25,1.73,2.47,1.57,3.4-.33,3.13-6.45,7.78-11.68,13.05-16.43A3.83,3.83,0,0,0,341.41-113.74Zm-371.19,208c1.65-4,2-4.15,5-1.45.66.61,1.53,1,2.14,1.67,1.19,1.28,2.11,1.61,3.24-.14.76-1.18,1.82-.94,2.83,0q2.13,1.94,4.4,3.71c1.36,1.07,2.5,1.75,3.78-.46,1.19-2.06,3.05-3.74,4.63-5.58,1.26-1.47,1.45-2.6-.4-4-3.16-2.33-6-5-9.14-7.44-4.91-3.84-9.19-8.47-14.76-11.47-3.22-1.73-4.14-1.58-6.4,1.27-2.51,3.16-5,6.36-7.65,9.37C-46,84.07-46.1,84-41.81,88a6.5,6.5,0,0,0,.66.63c2.63,1.65,4.39,4.48,7.54,5.44,1.59.49,3.67.9,1.83,3.35-.48.64.07.85.46,1.16,1.26,1,2.58,2,3.74,3.07s1.52-.19,2-.73c.85-1,2.88-2.12,1.57-3.33C-25.6,96.13-27,93.84-29.78,94.21Zm136-155.64c.09-1.09-.78-1.25-1.28-1.66Q91.62-74,78.27-84.88c-.93-.77-1.88-1.08-2.57.06C73-80.39,69.17-76.9,66.15-72.74,64.9-71,65.38-70.1,66.76-69c2,1.55,3.93,3.14,5.89,4.72,6.27,5.06,12.58,10.07,18.77,15.22,1.35,1.12,1.91.82,2.81-.4,1.42-1.95,3-3.77,4.53-5.65,1.33-1.66,2.09-3.88,5-3.6C104.54-58.67,105.47-60.55,106.22-61.43ZM188.66,270c.38-.52.71-1,1.09-1.49,1.65-2,3.4-4,5-6.1.9-1.21,1.56-1.7,2.78-.38s2,0,2.83-.81c1.18-1.14.72-1.79-.34-2.62-2.22-1.76-4.35-3.62-6.52-5.42Q181,242.88,168.53,232.53c-.86-.72-1.45-.9-2.24.1-2.58,3.24-5.22,6.42-7.83,9.63-.9,1.11-1.19,1.92.26,3.1,9.62,7.84,19.14,15.8,28.69,23.72C187.72,269.34,188,269.56,188.66,270ZM373.16-50.85A2.53,2.53,0,0,0,371.92-53c-4.44-3.66-8.9-7.29-13.3-11-1-.84-1.56-.87-2.43.22-5.61,7-11.21,14-17,20.9-1.41,1.67-1,2.52.35,3.65,4.32,3.49,8.64,7,12.9,10.53,1,.8,1.61,1,2.55,0,3.32-3.37,6.44-7,9.37-10.62,2.67-3.3,5.37-6.73,7.83-10.26C372.52-50,372.9-50.5,373.16-50.85Zm-174-63a8.18,8.18,0,0,0-2.77-3.23c-2.09-1.75-4.2-3.47-6.29-5.22-6.13-5.1-12.27-10.19-18.35-15.35-1.13-1-1.84-.93-2.74.17-2,2.43-4,4.79-6,7.22-3.51,4.32-3.49,4.33,1.06,8.15.31.27.57.59.88.85,7.35,6.16,14.73,12.27,22,18.49,1.38,1.17,2.08,1.46,3.24-.32a58.36,58.36,0,0,1,4.7-5.54C196.34-110.3,197.7-112,199.16-113.83Zm-51.43,415a1.88,1.88,0,0,0-.89-1.38q-8.9-7.27-17.82-14.54c-2.57-2.1-5.68-3.84-7.52-6.46-2.3-3.27-3.39-3.69-5.88-.29a98.3,98.3,0,0,1-6.13,8.17c-1.71,1.9-1,3,.51,4.2q13.35,10.92,26.66,21.89c1.08.89,1.62.81,2.41-.2,1.75-2.22,3.73-4.27,5.3-6.6C145.45,304.42,147.19,303.31,147.73,301.21Zm26.73-185.16a1.56,1.56,0,0,0-1.3.65c-1.79,2.18-3.61,4.34-5.37,6.54-.78,1-1,1.73.4,2.67,2.5,1.69,4.77,3.71,7.11,5.62,9.69,7.89,19.34,15.84,29.08,23.66,4.34,3.48,4.43,3.37,8.05-.54,4.19-4.51,4.11-4.68-.58-8.47q-17.86-14.43-35.65-29C175.66,116.74,175.24,116.11,174.46,116.05Zm6.38-92.58a24.27,24.27,0,0,0,2.24-2.12c8.33-10.12,16.61-20.28,25-30.37,1.3-1.57,1.07-2.58-.43-3.73a76.33,76.33,0,0,1-6.29-5.19c-1.3-1.25-1.89-1.13-3,.24Q187.1-3.84,175.68,9.88c-4.9,5.9-4.94,5.85,1.29,10.42C178.26,21.24,179.45,22.32,180.84,23.47Zm76.75,75.39a14.06,14.06,0,0,1-1.53-1c-11.74-9.54-23.51-19-35.17-28.69-1.5-1.25-2.15-.87-3.09.32-1.63,2.06-3.2,4.18-5,6.1-1.09,1.18-.41,1.77.39,2.44,3,2.52,6.05,5,9.09,7.52,7.1,5.81,14.18,11.66,21.34,17.41,7.48,6,5.58,6.12,11.46-1.11ZM123.67,215.13a8,8,0,0,0,1.29-1c2.61-3.2,5.19-6.42,7.78-9.63.87-1.08-.09-1.63-.67-2.27-2.61-2.93-6-4.86-9-7.42-4-3.5-8.42-6.56-12.3-10.23-1.1-1-1.82-1.17-2.9.2-2.42,3.09-5,6-7.64,9-1.06,1.18-1.06,1.71.28,2.81,7,5.66,13.76,11.48,20.61,17.26A5.7,5.7,0,0,0,123.67,215.13Zm-162-118.19c-.67-.44-1.29-.81-1.86-1.23C-44,93-47.74,90.29-51.41,87.47c-1.18-.9-1.85-.45-2.5.45-3.48,4.82-6.88,9.7-10.45,14.46-1.15,1.54-.56,2.25.68,3.14C-58,109.65-52.23,113.75-46.6,118c1.24.94,1.78.86,2.55-.37a56.65,56.65,0,0,1,4.85-7.23c2.07-2.38,1.66-3.94-.89-5.25s-2.3-2.93-.7-4.84C-40,99.4-39.39,98.38-38.35,96.94ZM279.09-160.32c-.92,0-1,.77-1.4,1.21-3.08,3.85-6,7.85-9.24,11.55-1.56,1.76-.76,2.59.53,3.62,4.87,3.89,9.79,7.73,14.62,11.68,1,.85,1.5.84,2.34-.25,3.2-4.15,6.45-8.25,9.82-12.25,1-1.15.91-1.59-.25-2.5-5.23-4.09-10.38-8.28-15.56-12.44C279.65-159.94,279.32-160.16,279.09-160.32ZM143.19-9.76a3.9,3.9,0,0,0,.78-.51c2.68-3.29,5.36-6.56,8-9.89.67-.83.47-1.45-.49-2.21Q142.13-29.84,133-37.55c-1.24-1.06-1.86-.76-2.66.25-2.25,2.85-4.39,5.8-6.81,8.5-1.33,1.48-1,2.26.25,3.46,2.69,2.63,7,3.76,7.74,8.24a.8.8,0,0,0,1.24.43c1.36-1,2.1.34,2.85.86,1.73,1.21,3.24,2.73,4.88,4.08C141.33-11,142.27-10.43,143.19-9.76ZM124.07,163.4a32.15,32.15,0,0,0-2.62,3.25c-.66,1.08.47,1.67,1.1,2.2q12.13,10,24.32,20c8.51,7,17.12,13.79,25.5,20.9,2,1.69,2.82.65,3.83-.62s2.57-2.54.27-4.25c-3.49-2.58-6.82-5.35-10.21-8.06q-19.95-16-39.91-31.95A25.56,25.56,0,0,0,124.07,163.4ZM30.55,116.87c-.36-.07-.7.51-1.07,1-2.7,3.26-5.34,6.58-8.09,9.8-.95,1.1-.58,1.77.33,2.51C27.14,134.57,32.61,139,38,143.49c1.34,1.13,1.84.82,2.78-.39,2.18-2.78,4.44-5.51,6.85-8.09,1.84-2,1.63-3.24-.46-4.89-4.74-3.76-9.33-7.72-14-11.63A5.81,5.81,0,0,0,30.55,116.87ZM137.89,207a6.93,6.93,0,0,0-.76.61c-3.85,4.65-7.72,9.29-11.53,14-.61.75-.75,1.46.3,2.27,3,2.32,5.94,4.82,8.89,7.26,1.21,1,2.33,1.59,3.38-.26.39-.68,1.23-1.1,1.65-1.77,1-1.64,2-2,3.52-.43s2.75,1.31,4-.35c1.65-2.16,3.33-4.3,5.15-6.32,1.23-1.36.84-2.35-.34-3.31q-6.54-5.37-13.09-10.7C138.68,207.62,138.3,207.3,137.89,207ZM375.36-79.28c-.82-.14-1,.59-1.32,1-1.93,2.33-3.92,4.61-5.73,7-3.56,4.74-4.13,3.64.6,7.14.48.35.89.8,1.35,1.18,3.83,3.11,7.68,6.18,11.47,9.33,1.23,1,1.94.86,2.92-.41,2.28-2.94,4.78-5.72,7.15-8.6,1-1.23,1.59-2.37-.14-3.73-4.9-3.87-9.67-7.89-14.52-11.83A16.25,16.25,0,0,0,375.36-79.28Zm-14.55,8a6.8,6.8,0,0,0,.74-.71c2.16-2.65,4.22-5.4,6.51-7.94,1.5-1.66,1.73-2.76-.45-3.93-1.77-.94-2.18-2.14-.57-3.83s2.88-3.63,4.33-5.43c2.95-3.68,2.95-3.68-.48-6.67-3.23-2.82-2.9-2.38-5.88.39-2.7,2.5-3,8.57-9,6.8-.19,0-.63.71-1,1.09-2.2,2.63-4.28,5.37-6.66,7.83-1.38,1.43-.86,2.14.32,3.09,2.28,1.83,4.43,3.83,6.82,5.5C357.26-73.91,358.61-72.18,360.81-71.32ZM228.08,222.88a12.05,12.05,0,0,0-1.41-1.57c-6.6-5.43-13.26-10.8-19.83-16.27-1.54-1.29-2.59-1.15-3.75.35a39.36,39.36,0,0,1-4.19,5.13c-2.09,1.93-.92,3,.62,4.25,5,4,10,8.08,15.08,12.08,2,1.58,3.78,4.7,6.08,4.3s3.6-3.8,5.34-5.88Zm-88.72,42.4a9.66,9.66,0,0,0,1,1.25c3.16,2.65,6.37,5.24,9.5,7.93,1.13,1,1.88.72,2.73-.33,3.89-4.74,7.82-9.46,11.72-14.19.85-1,1.23-1.79-.29-2.9a89.92,89.92,0,0,1-8.57-7.15c-1.51-1.39-2.56-1.28-3.76.18l-11.53,14C139.91,264.41,139.67,264.83,139.36,265.28Zm116.06-124.1a7.14,7.14,0,0,0-.84.79c-1.7,2.13-3.32,4.32-5.07,6.39-1.18,1.38-1.08,2.39.34,3.51,4.9,3.88,9.74,7.83,14.61,11.75,1.89,1.51,3.75,4.2,5.66,4.23,2.27.05,3.26-3.39,4.95-5.19,2.93-3.14,2.85-3.41-.43-6.07-5.56-4.5-11.08-9.07-16.63-13.59C257.24,142.36,256.37,141.84,255.42,141.18ZM2.46,93.57A3.41,3.41,0,0,0,.51,95.19c-.93,1.2-2,3.36-2.88,3.32-3.43-.15-4,2.73-5.77,4.4-1.26,1.21-.54,1.9.38,2.66L5.82,116.7c1.44,1.18,2.51,1.13,3.76-.5,2.11-2.76,3.87-5.85,7.08-7.69,1.14-.65,1.79-1.93.22-3.2C12.4,101.7,8,98,3.54,94.36,3.16,94.06,2.76,93.79,2.46,93.57ZM181.17-15.19c.68,0,.83-.56,1.14-.93,2.48-2.92,4.92-5.86,7.45-8.74a1.37,1.37,0,0,0-.19-2.29c-4.94-4.13-9.88-8.27-14.85-12.36-.77-.64-1.56-1.15-2.51.13a68.69,68.69,0,0,1-6.32,7.67c-2,2.05-1.08,3.21.58,4.56,3.51,2.86,7,5.76,10.49,8.63C178.36-17.38,179.79-16.28,181.17-15.19Zm-21.82-7.92a3.61,3.61,0,0,0-.6.45q-3.06,3.75-6.09,7.51c-.72.91-.13,1.39.57,2C158.39-9,163.54-4.82,168.65-.57c1.07.89,1.63.7,2.4-.37a41.6,41.6,0,0,1,4.22-5.12c1.93-1.91,1.32-3.33-.45-4.77-3.21-2.6-6.39-5.22-9.62-7.8C163.32-20.13,161.37-21.56,159.35-23.11ZM-48,68.39c0-.93-.7-1.3-1.2-1.74A37.84,37.84,0,0,0-52.45,64c-2.88-2-5.06-5.13-8.46-6.2a4.42,4.42,0,0,1-3.17-2.59c-1.17-2.45-3.61-3.19-5.11-1.64s-3,3.56-4.47,5.32c-.67.79-.3,1.14.36,1.67,4.94,4,9.81,8,14.76,12,4.13,3.31,4.19,3.28,7.79-.65C-49.73,70.76-48.87,69.52-48,68.39Zm164.23-102a2.39,2.39,0,0,0,1.77-1.2c1.67-2,3.18-4.17,5-6.07,1.18-1.27.73-1.69-.29-2.8-2.64-2.88-6.93-2.56-9.57-5.39a56.21,56.21,0,0,0-4.87-4.05c-.68-.58-1.19-.87-2.09-.26-4.56,3.08-4.7,6-.34,9.12.08.06.2.07.26.14,1.78,2.19,4.79,3.07,5.7,6.35C112.28-35.94,114.28-34.38,116.25-33.58Zm-183,147.42a2.64,2.64,0,0,0-.4.13c-2.73,2-4.4,4.88-6.15,7.67-1.09,1.75,1,1.85,1.48,2.76.36.66-.15,1.16-.11,1.64.14,1.88,1.94,2.44,3.19,3.41a1.87,1.87,0,0,0,2.89-.5c1.65-2.15,3.3-4.3,4.89-6.48.33-.45,1.12-1.31.67-1.49-2.67-1.07-1.77-4.88-4.62-5.77A7,7,0,0,1-66.73,113.84ZM121.11-114.95c-6-.32-7.33,1.67-5.48,5.63a7,7,0,0,1,.41.82c.69,2.25,1.95,2.43,3.87,1.27,1.7-1,3.72-2.72,5.32-2.45,3,.5,4.79-1.26,6.94-2.29s.18-2.4-.19-3.56-1.07-2.2-2.39-1.11A9.69,9.69,0,0,1,121.11-114.95ZM91.55-92.89c2-.9,3-2.74,4.55-4,2-1.58,2.13-2.86.2-4.86s-3.38-2.43-5.15,0A17.14,17.14,0,0,1,89-99.57c-.8.76-2.66,1.1-1.78,2.62A10,10,0,0,0,91.55-92.89Zm58.79,408.05-1.24-1a41.55,41.55,0,0,1-3.91-3.3c-1.23-1.29-2-1.08-3.21.08-3.24,3.17-3.25,4,.37,6.62.48.35,1,.71,1.43,1.1.81.7,1.65,2,2.78,1A44,44,0,0,0,150.34,315.16ZM-68.31,79.57a26.49,26.49,0,0,0-2.62-4.44c-.7-1.11-3-1.26-4,.7-.59,1.16-1,2.43-1.47,3.63-.69,1.58.27,2.67,2,3,1,.19,2,.3,3,.51C-69.1,83.48-68.39,82.17-68.31,79.57ZM-71.8,69.25c-1.94-.42-2.76.28-3.13,1.65-.44,1.64.32,2.5,1.86,2.79,2.17.41,4.36.75,6.53,1.18.71.14,1.42.48,1.74-.5a1.67,1.67,0,0,0-.58-1.91C-67.4,70.79-69.42,69.12-71.8,69.25Zm346,36.2-.09.26.31-.18Z"/><path class="cls-3" d="M44.26,13.67c-3.1-1.55-5.48-4.06-8.15-6.17-3.81-3-7.46-6.2-11.22-9.25-1.07-.87-2-1.35-3.23.31-2.25,3.09-4.86,5.93-7.34,8.86-1.17,1.39-2,2-4.14.71C6.1,5.78,1.52,4.27-2.92,2.57-4.67,1.9-5.09,1.08-4.82-.81-4.09-5.89-3.72-11-3.16-16.13c.84-7.5,1.74-15,2.15-22.55.55-9.88,4.46-18.82,6.52-28.25.93-4.28,4.28-7,6.58-10.43,4.42-6.56,11.52-10,17.45-14.85,1.24-1,2.19-.37,3.09.65,4.86,5.56,9.88,11,14.55,16.68,2.36,2.89,5.43,4.82,8.2,7.13,9.22,7.68,18.65,15.13,28,22.69Q99.14-32.31,114.9-19.53,131.7-5.88,148.46,7.84c1.72,1.4,3.48,2.76,5.2,4.16.46.38,1.22.85,1.22,1.28,0,3.24,2.72,4.17,4.71,5.75.7.56,1.66,1.23,1.81,2,.59,2.91,1.42,4.73,4.59,2.24.79-.62,1.14-.08,1.4.81A8.34,8.34,0,0,0,174,29.41c.23,0,.59.19.64.36,1.76,5.48,7.77,6.65,10.88,10.76a1.18,1.18,0,0,0,.78.41c7.53.55,9.93,6.73,13.15,12,.51.84,0,1.69-.44,2.54a84.07,84.07,0,0,1-8.75,12.35q-8.79,10.62-17.54,21.26-9.72,11.81-19.42,23.63-13.22,16.19-26.4,32.39c-4.86,5.94-9.76,11.84-14.63,17.77-1.65,2-3,2.21-5.26.35-10-8.31-20.27-16.35-30.41-24.52-4.79-3.87-9.37-8-14.35-11.62-1.37-1-.19-2.81-1.88-3.16l-.84-.09c-.39-.61-.77-.54-1.13,0l-1.33-.17c-.35-2.35-1.76-3.43-4.08-3.42l-1.38-1.46a21.3,21.3,0,0,0-4.74-4.63c-4.81-3.18-9-7.28-13.47-11-.71-2.83-2.81-3.87-5.44-4.22C19.49,92.73,11.7,85.7,3.56,79.1c-6.65-5.41-13.12-11-19.64-16.61-2.41-2.05-2.24-4.25.54-5.74a5.17,5.17,0,0,0,2.7-3.43c2.52-9,5.23-18,5.5-27.49C-7.16,19.6-6.19,13.4-5.59,7.19c.19-2,1.17-2.3,2.9-1.53C.73,7.17,4.2,8.58,7.64,10c3.06,1.3,5.08,4,7.59,6,6.16,4.9,12.12,10,18.15,15.1.84.7,1.81,1.36,1.83,2.66-2.46,1.33-3.5,5-1.55,5.62,2.29.77,2.32,2,1.54,4,3-1.13,3.86-3.8,5.65-5.47,4.4,2.53,7.92,6.2,11.83,9.35C58.88,52.32,65,57.45,71,62.63c1.83,1.56,3.09.94,4.35-.56C78.5,58.36,81.56,54.6,84.74,51c1.24-1.42,1.1-2.14-.4-3.36C73.1,38.38,62,29.06,50.79,19.77a2.5,2.5,0,0,1-1-1.82c1.29,0,1.27-1.05,1.42-1.93A16.9,16.9,0,0,1,53,17.14c3.94,3.15,7.85,6.33,11.79,9.47.76.61,1.48,1.45,2.52.19,4.46-5.35,9-10.64,13.47-16C82.1,9.25,82,8.27,80.15,6.78,72.61.87,65.33-5.37,57.91-11.43c-6.17-5.05-12.39-10-18.61-15-.54-.43-1.25-1.71-1.9-.57-1.39,2.44-2.35,1.13-3.64,0-1.51-1.33-3.22-2.44-4.79-3.69-4.2-3.34-5.13-3.21-6.91,2-3.86,11.22-1,20,8.84,27.79C36.35,3.37,42,7.47,46.79,12.53c0,.15,0,.3,0,.45l-.09.1A3.2,3.2,0,0,0,44.26,13.67ZM75.4,116h0c-.1.28-.36.73-.26.83,2,2.06,1.06,3.69-.66,5.28-1,1-.95,1.94-.43,3.26a12.85,12.85,0,0,0,4.26,5.22c1.81,1.49,2.94.9,4.15-.73,2-2.66,4-5.34,6.14-7.83,1.73-2,1.26-3.22-.66-4.65-2.64-2-5.12-4.16-7.67-6.26h0c1.22.12,1.86-.55,2.65-1.45,1.34-1.55,2.22-3.52,4-4.64h0c.15.36.21.84.48,1.07q16.79,13.9,33.6,27.78c1.57,1.3,2.7.74,3.8-.67,1.67-2.15,3.54-4.15,5.12-6.37,3.07-4.33,3.83-3.28-.59-6.54a30,30,0,0,0-2.35-1.9c-1.57-.94-1.25-1.57-.32-3,2-3.11,3.85-3.07,6.14-.51.4.45,1,.75,1.37,1.2,1,1.12,1.85,1.38,2.8-.21a24.79,24.79,0,0,1,3-3.83c4.39-4.87,4.07-3.55-.78-7.62-1.52-1.28-2-2.14-.31-3.51s1.59-2.84-.21-4.16-3.42-2.51-5.06-3.85c-6.73-5.48-13.46-11-20.11-16.52-1.22-1-1.74-1.11-2.79.24-4.24,5.39-8.63,10.67-13,16-.8,1-1.28,2.56-3.21.9-7-6-14.27-11.58-21.08-17.73-2.52-2.28-3.51-1.12-5,.65C64,81.84,59.72,87.47,55,92.68c-2.21,2.44-2.17,3.72.58,5.2A1.73,1.73,0,0,1,56.4,99c.26,4.46,4.46,6.25,7.11,7,3.19.92,5.16,2.75,7.36,4.58.89.74,2.8.91,2.43,2.71S74,115.67,75.4,116ZM62-30a9.77,9.77,0,0,0,3.25-4.06c.56-1.22,1.4-1.6,2.6-.56a31,31,0,0,0,4.29,3.33c1.5.89,3.24.91,3.18-1.41,0-1.51-.2-3.29-1.64-4.41-5.71-4.45-5.17-6.25-9.38.68-1.33,2.18-2.36,2-3.76.21C59.44-37.6,58.18-38,57-36.42c-1,1.4-2,.89-3,.08-1.42-1.13-2.81-2.3-4.27-3.38-1.75-1.3-1.5-2.49-.15-4,1.76-1.93,3.31-4.06,5-6.09.58-.71,1-1.51,0-2-3-1.55-4-4.93-6.58-6.89-1.82-1.37-4-2-5.72-3.26-2.38-1.84-4.6-3.91-7-5.76-2.87-2.2-2.92-2.76-.53-5.51,1.94-2.23,1.93-2.22-.83-2.83a1.55,1.55,0,0,1-.77-.45c-1.61-1.83-2.52-.74-3.43.74-.8,1.29-1.74,2.39-3.4,1-.48-.39-1.12-.76-1.61-.2s.1,1.16.54,1.49c1.43,1.09,1.2,2,0,3.12s-2.34,2.58-.38,3.75c3.32,2,1.66,3.72.08,5.59-1.17,1.39-2.3,2.82-3.54,4.15-4.07,4.4-4.23,4.56.32,8.45C29.14-42,36.82-35.81,44.43-29.55c4.84,4,9.8,7.79,14.52,11.89,4.26,3.71,4.17,3.84,7.48-.65,2.27-3.07,2.95-3.15,5.91-.62.39.33.73.71,1.11,1,.74.64,1.3.2,1.84-.33s.4-1.06-.12-1.55A14.27,14.27,0,0,0,73.87-21C69.91-24,65.21-26,62-30ZM49.43,92.24A3.49,3.49,0,0,0,52,89.68a12.82,12.82,0,0,1,2.43-4.15c3.85-4.67,7.69-9.36,11.58-14,.83-1,.91-1.54-.19-2.44C58,62.79,50.29,56.47,42.72,50c-1.64-1.4-2.41-1.17-3.56.23Q33,57.66,26.74,65.06c-1,1.21-.15,1.82.62,2.48,1.91,1.63,5.07,3,5.44,4.91.45,2.25-2.57,4.18-4.29,6.1S25.59,82.25,29,84c1.83.94,3.3,2.65,4.82,4.12.87.84,1.38.74,2.24,0,4-3.66,4.06-3.63,8.24.1,1.28,1.14,2.61,2.23,3.94,3.31A9.23,9.23,0,0,0,49.43,92.24ZM18.91,68.18c.89-.26,1.21-.91,1.66-1.45C24,62.51,27.43,58.26,31,54.15c1.52-1.75,2.16-3-.25-4.5A27.55,27.55,0,0,1,27.46,47c-2.85-2.39-2.86-2.69-.27-5.53a8.73,8.73,0,0,1,.86-.86c1.38-1.1.89-2-.21-3Q20.29,31.36,12.74,25c-1-.82-1.91-1-2.82.26A97.82,97.82,0,0,1,1.43,35.55c-.57.59-.92,1.21-.1,1.75,2.49,1.62,1.65,3,0,4.7s-3,3.84-4.65,5.56-1.38,2.93.48,4.35q4.94,3.77,9.57,7.9c3.7,3.29,3.68,3.41.42,7.14-1,1.14-1.36,2,0,2.94,1.15.78,2.19,1.45,3.22-.36.68-1.2,2-2,2.71-3.24,1-1.76,1.83-1.39,3-.23A23.79,23.79,0,0,0,18.91,68.18ZM123.28,0a7.21,7.21,0,0,0-.9-1.13c-5.85-4.78-11.69-9.56-17.58-14.3-.72-.59-1.43-.76-2.26.29-5,6.32-10.07,12.57-15.16,18.82-.88,1.07-.92,1.66.3,2.61,5.4,4.22,10.85,8.38,15.93,13,2.24,2,3.29,1.35,4.74-.46,3.47-4.32,7-8.6,10.44-12.92C120.3,4,121.73,2,123.28,0Zm27.9,23.24c-.05-.81-.7-1.21-1.22-1.63-4-3.24-8-6.45-12-9.65-4.72-3.77-4.72-3.77-8.38.84a2.28,2.28,0,0,1-.22.22c-.77.69-.84,1.28.16,1.88,2.05,1.21,1.37,2.49.14,3.94-2.73,3.22-5.24,6.64-8.07,9.76-1.46,1.61-.73,2.44.48,3.41,3,2.4,6,4.71,8.92,7.2,1,.86,1.41.94,2.26-.15,2.67-3.41,5.45-6.73,8.25-10,.79-.93,1.74-2.71,3.09-1.57,1.65,1.39,2.55,1,3.62-.4S150.19,24.48,151.18,23.2Zm21.49,17.74a9.3,9.3,0,0,0-2.94-3.19c-4-3.27-8-6.47-12-9.67-1.14-.91-2.62-2.59-3.7-.59-.94,1.75-5.17,2.68-2,5.85,1.22,1.23.45,2.09-.4,3.1-2.79,3.31-5.48,6.71-8.27,10-.91,1.09-1.33,1.94,0,3,3.08,2.44,6.1,4.95,9.12,7.46,1,.85,1.66.87,2.7-.25,2.89-3.11,5.39-6.53,8.06-9.8.83-1,1.38-2.54,3.36-1.68S172.61,43.24,172.67,40.94Zm-56,100.29a13.16,13.16,0,0,0-1.43-1.59c-6.34-5.15-12.72-10.25-19-15.45-1.3-1.07-1.83-.14-2.42.59-2.17,2.65-4.08,5.54-6.46,8-1.87,1.93-1.21,3.05.44,4.36,5.91,4.71,11.89,9.34,17.7,14.18,1.52,1.27,2.37,1.08,3.43-.26,2.31-2.93,4.64-5.85,7-8.78ZM96.68-21.72a7,7,0,0,0-.93-1.18c-2.32-1.93-4.67-3.84-7-5.76-1.3-1.07-2.19-.38-3,.67-4.92,6.13-9.82,12.28-14.79,18.37-.81,1-1,1.5.19,2.35a40.5,40.5,0,0,1,6.33,5.14c1.76,1.93,2.74,1.26,4-.3,4.36-5.42,8.76-10.81,13.11-16.24C95.29-19.6,95.92-20.63,96.68-21.72Zm76.19,94.45a7.56,7.56,0,0,0,1.25-1q3-3.59,6-7.22c.82-1-.18-1.44-.75-1.91-3-2.42-6-4.77-8.91-7.26-1-.85-1.65-.85-2.55.06-1.91,2-3.4,4.27-5.21,6.28-1.39,1.54-.92,2.32.39,3.34,2.86,2.23,5.69,4.5,8.54,6.76C172,72.1,172.4,72.38,172.87,72.73ZM180.6,46.8l-.66.38c-3.45,2.24-3.45,4.93-.05,7.49,1.36,1,2.69,2.09,4,3.21.68.61,1.13.52,1.77-.06,2.81-2.54,2.93-3.9.53-6.85a11.69,11.69,0,0,0-.66-1C184.08,48.51,181.8,48.48,180.6,46.8ZM138.58,85A4,4,0,0,0,137,82.29c-1.12-.85-2.51-1.45-3.4-2.49-2.35-2.74-3.47-1.28-5.1.88-1.19,1.58-1,2.14.38,3.27a20.76,20.76,0,0,1,3.78,3.44,3.07,3.07,0,0,0,3.85.82C137.94,87.6,138.16,86.33,138.58,85Z"/><path class="cls-3" d="M491.54,356.27c-.93,1.39-1.41,2.28-2,3-12.17,14.84-24.41,29.63-36.5,44.53-1.84,2.27-3.07,2.53-5.37.62-5.36-4.45-11-8.61-16.45-12.89-1.69-1.31-2.35-3.32-3.1-5.16-3.77-9.23-11.44-14.27-19.73-18.7-10.33-5.53-21-10.5-29.9-18.37-3-2.64-2.52-6.19-2.65-9.28-.4-9.28-4.82-17-8.72-24.95-.6-1.23-1.79-1.52-3-1.81-2.94-.71-5.84-1.91-8.81-2.14-9.23-.7-13.62-8.09-19.25-13.66-1.8-1.78-1.7-4.91-2.25-7.45s-1.5-4.4-4.33-5.11a19.84,19.84,0,0,1-4.91-2.37c-3.54-2.05-7.33-2.69-10.92-.76-5.88,3.16-10.09.47-14.37-3.17-3.38-2.88-7.22-5.24-10.44-8.27-3.44-3.25-6.41-7-9.55-10.55s-6.55-7.18-9.49-11c-3.77-4.92-6.13-10.7-9-16.14-2.82-5.29-2.56-5.19,1.52-9.77,7.58-8.53,14.94-17.26,22.39-25.9,1.45-1.68,3.23-3.07,4.42-5,.76-1.25,1.62-1,2.72-.11,5.49,4.6,11.08,9.09,16.61,13.65q11.46,9.42,22.9,18.89L357.45,246q11.21,9.27,22.43,18.51l26.39,21.79,22.18,18.33q11.57,9.54,23.14,19.08,11.32,9.35,22.65,18.73,7.71,6.36,15.47,12.67A15.5,15.5,0,0,0,491.54,356.27Z"/><path class="cls-3" d="M-64.66-35.09C-54.81-41.22-45.55-48.2-36-54.72c7.68-5.22,15.21-10.67,23-15.66,3.15-2,5.75-4.24,4.85-8.51a19.26,19.26,0,0,0,2.62-.77c1.44-.64,2.09-.13,2.29,1.32.28,2.11,1.32,3.18,3.64,3.14,1.93,0,2.34.81,1.68,2.94C-.57-63.6-3.3-54.91-5.34-46.07c-1.17,5-1,10.42-1.49,15.63-.7,7.12-1.52,14.22-2.23,21.33C-9.58-4-10,1.13-10.48,6.24c-.76,7.82-1.87,15.61-2.25,23.45-.32,6.47-2.34,12.47-3.83,18.63-1.21,5-4.92,7-9.83,5.14-15.66-6.08-31.4-12-46.24-20-1.87-1-2.53-1.87-2.12-4.21,2.1-12,3.91-24,5.82-36.06,1.22-7.65,2.19-15.36,3.87-22.91A21.2,21.2,0,0,0-64.66-35.09Zm20.33,13c.88-1.58-.37-2.07-1.5-2.58s-2.27-.88-3.36-1.4c-1.44-.68-2.13-.23-2.76,1.22q-4.63,10.56-9.49,21c-.74,1.61-.64,2.19,1.13,3.17C-58.39.36-54.53-.19-55.24,4c-.09.52.75.53,1.18.73l10.73,5c.46.21,1.28.58,1.38.46,2-2.69,3.8-.42,5.55.28,2.44,1,4.81,2.14,7.18,3.28,1.29.62,2.2.71,2.91-.88Q-22.23,3.7-18-5.37c.46-1,.52-1.6-.65-2.11-4.83-2.08-9.58-4.35-14.45-6.33-3.83-1.56-7.1-4-10.53-6.18A1.6,1.6,0,0,1-44.33-22.14Zm16.38,42.81c.72-1.65-.77-1.71-1.58-1.86C-33.68,18-37.85,17.4-42,16.74c-1.2-.19-1.77.28-2,1.61C-45.08,25.2-46.26,32-47.44,38.88a1.23,1.23,0,0,0,.88,1.61c5.66,2.18,11,5.06,16.87,6.8,2.24.67,4.87-.91,5.05-3S-25.77,40.94-28,41c-.38,0-.76-.34-1.15-.36-1.67-.07-1.79-.78-1.52-2.35C-29.64,32.42-28.84,26.54-27.95,20.67ZM-53.06,35.14a8.14,8.14,0,0,0,0,2.42c.58,1.77,2.41,2,3.84,2.57.82.34.85-.54.94-1.14,1.36-8.54,2.71-17.08,4.11-25.62a1.79,1.79,0,0,0-1.15-2.18c-2.22-1-4.42-2-6.67-2.92-.56-.23-1.29-.7-1.89.16-1.1,1.56-2.34.64-3-.24-2-2.65-5.11-3.5-7.9-4.83-1.51-.72-2.56-.54-3.36,1.2-.68,1.5-.73,2.4,1,3,.83.3,1.11.94,1.22,1.88.2,1.71,4.76,3.88,6.1,3,3.17-2.2,5.77.14,8.24,1.31,1.88.89,1,3.24.55,5C-52.4,24.08-52.29,29.66-53.06,35.14Z"/><path class="cls-3" d="M338.48,89.18c2,.2,3.22-.39,4.38-2.31,1.69-2.8,4.32-4.94,6.47-7.46,5-5.84,10.25-11.43,15.06-17.43,3.6-4.5,7.62-8.67,11.32-13.1s6.91-9,10.72-13.2c4.26-4.66,7.93-9.76,12-14.55,3.7-4.35,7.19-8.88,10.74-13.35,2.93-3.68,5.79-7.41,8.75-11,3.8-4.68,7.74-9.26,11.52-13.95,5.69-7,11.28-14.17,16.94-21.25q11.89-14.88,23.84-29.74c7.21-9,14.49-17.86,21.72-26.8,7.05-8.7,14.31-17.24,21-26.21,2.05-2.75,4.57-3,7-3.11a10.17,10.17,0,0,0,7.39-3.38c4.71,1.61,4.94,2.56,1.89,6.38-12.53,15.7-24.95,31.5-37.58,47.12-6,7.47-12.54,14.54-18.65,21.94-5.92,7.16-11.62,14.51-17.4,21.79C445.76-18.06,436-5.6,426.05,6.78q-12.78,16-25.77,31.76Q387.67,53.87,374.81,69c-7.38,8.72-14.87,17.33-22.3,26-1.54,1.8-2.3,3.28.5,5,1.55.93,3.52,1.93,4.45,4.46-2.71-1-4.33-2.77-6.09-4.27C347.08,96.48,342.32,93.37,338.48,89.18Z"/><path class="cls-3" d="M268.52,176.91q7.58-9.93,15.87-19.27a3.44,3.44,0,0,0,1.16-2.66,3.89,3.89,0,0,1,1.8-1.85,1.11,1.11,0,0,0,1.21-1.23,2,2,0,0,1,1.23-1.82,1.09,1.09,0,0,0,1.2-1.23,1.94,1.94,0,0,1,1.24-1.81,23.33,23.33,0,0,0,5.47-5.48,2.46,2.46,0,0,0,2-1.14c2.8-3.4,5.75-6.7,8.34-10.25,2-2.72,4.84-4.8,6.06-8.09,6.22-8.56,13.44-16.3,20-24.57,1.17-1.48,2.64-2.77,3.19-4.68,1.87-.36,2.64,1.26,3.78,2.16q6,4.8,12,9.73c.71.58,1.75,1.09,1.64,2.59-2.18-.67-3.6-2.37-5-3.71-2.05-2-3.18-1.27-4.54.5q-5.43,7.09-10.91,14.15c-9.86,12.66-19.8,25.26-29.6,38-7.63,9.91-15.33,19.74-21.87,30.5-4.84,8-11.07,15.13-16.73,22.62-7.55,10-16.24,19-24.23,28.68-3.43,4.14-7.6,7.19-11.91,10.19a7.47,7.47,0,0,0-2.32,2.36c-3.93-1.55-8.33-2.07-11-6.2-1-1.53-3.27-2.25-5-3.27-8.12-4.8-15.05-11.16-22.41-17-1.87-1.47-1.58-3.32-.49-4.8,1.26-1.72,2.88-1.2,4.45.09,7.26,5.94,14.63,11.75,21.84,17.75,1.49,1.24,2.33,1.13,3.44-.22,4.44-5.36,8.92-10.68,13.36-16q9.56-11.53,19.07-23.1c3.6-4.35,7.24-8.67,10.86-13C264.68,182.73,266.38,179.63,268.52,176.91Z"/><path class="cls-3" d="M48,21.69a121.92,121.92,0,0,1,11.45,9q10.78,9,21.69,17.87c1,.8.84,1.39.1,2.24-2.38,2.73-4.73,5.5-7.07,8.28-.9,1.07-1.53,1.39-2.89.25C59.3,49.13,47.18,39.11,35.12,29q-9.63-8-19.21-16.15c-.63-.52-1.61-1-.6-2.18,2.33-2.65,4.58-5.36,6.86-8.06,1.17-1.4,2.16-1.27,3.54-.06,5.17,4.5,10.46,8.86,15.68,13.3a2.53,2.53,0,0,0,2.19.76C45.07,18.31,44.57,21.74,48,21.69Z"/><path class="cls-3" d="M21.81,211c3.68,1.78,6.47,4.78,9.77,7.08,1.26.88,1.63,2,.28,3.27s-2.66,2.47-4,3.71c-5.25-4.17-10.5-8.35-15.77-12.49-1.79-1.41-3.28-3.23-5.52-4-2.47-3.37-6.13-5.41-9.21-8.11-5.83-5.11-11.82-10-17.85-14.92-5.1-4.12-10.19-8.24-15.18-12.49-3.08-2.63.16-3.53.79-5.07,1-2.38,2.3-.32,3,.23,5.28,4,10.46,8.24,15.63,12.43a3.52,3.52,0,0,0,2.67,1.18,17.14,17.14,0,0,0,1.6,1.8c9.61,8.23,19.2,16.51,28.94,24.6C18.35,209.3,19.35,211.54,21.81,211Z"/><path class="cls-3" d="M196.6,275.53c-2.81-2.77-2.83-2.78,0-6.06,5.15-6.07,10.36-12.09,15.47-18.2,1.61-1.91,3.09-2.86,5.56-1.24,2.28,1.5,5.44,1.52,7,4.2-6.31,7-12.57,14.1-19,21-1.2,1.3-1.75,3.6-3.7,3.76s-2.68-2.21-4.2-3.13A4.89,4.89,0,0,0,196.6,275.53Z"/><path class="cls-3" d="M40.85,38c-1.79,1.67-2.62,4.34-5.65,5.47.78-2.09.75-3.28-1.54-4-1.95-.65-.91-4.29,1.55-5.62,1.19.71,1.09,2,1.42,3.18,1.58-.07.58-3.17,2.67-2.33C40.69,35.16,40.83,36.61,40.85,38Z"/><path class="cls-3" d="M48,21.69c-3.45,0-3-3.38-4.44-5.05a6.26,6.26,0,0,1,.68-3,3.25,3.25,0,0,1,2.45-.6c.28.52-.07,2.23,1.12,1.16,3.13-2.81,2.74.32,3.39,1.79-.15.88-.13,1.89-1.42,1.93-1.22-1-1.8-.67-1.56.83C48.41,19.8,49.24,20.79,48,21.69Z"/><path class="cls-3" d="M27.94,99c2.63.35,4.73,1.39,5.44,4.22-1.47.25-2.22,1.66-3.54,2.17l-1-.36.24-1.81c.22-.21.71-.34.19-.73l-.18.74-2.6,0,.15-1.26A4.81,4.81,0,0,0,27.94,99Zm1.58,1.59c-.17-.07-.39-.23-.49-.18s-.17.32-.25.49c.17.07.39.24.48.18S29.44,100.73,29.52,100.55Z"/><path class="cls-3" d="M310.49,50.19V49.6a1,1,0,0,0,1.11-1.21l2-.66a1.85,1.85,0,0,0,1.71,1.19l.17.12.56.52a2.86,2.86,0,0,1-.69,2.61Z"/><path class="cls-3" d="M59.51,123.83l.84.09c-.13,1.51-1.58,2.28-2,3.63a2.7,2.7,0,0,1-3.23-1.3,3.7,3.7,0,0,1,1.92-2.55l1.33.17C58.77,124.49,59.15,124.46,59.51,123.83Z"/><path class="cls-3" d="M133.9,186.65c1-.11,1.6.79,2.4,1.19.29,1.28-.82,2-1.18,3l-1.26,0C131.59,189.43,132.53,188,133.9,186.65Z"/><path class="cls-3" d="M285.74,87.9a2.14,2.14,0,0,1-2.07,1.92,3.3,3.3,0,0,1-2-2.4l1.43-1.53C284.49,85.94,285.56,86.35,285.74,87.9Z"/><path class="cls-3" d="M133.82,190.91c.08.53,0,1-.66,1a1.44,1.44,0,0,1-1.23-1Z"/><path class="cls-3" d="M337.29,92.8c-.56-.23-.61-.71-.61-1.23A1,1,0,0,1,337.29,92.8Z"/><path class="cls-3" d="M315.28,48.92c-.07-.6-1-1.52.28-1.65,1.6-.16,1.62,1.14,1.57,2.31h-.47a1.28,1.28,0,0,0-1.21-.54Z"/><path class="cls-3" d="M315.45,49a1.28,1.28,0,0,1,1.21.54l-.65,0Z"/><path class="cls-3" d="M124.07,163.4a25.56,25.56,0,0,1,2.28,1.43q20,16,39.91,31.95c3.39,2.71,6.72,5.48,10.21,8.06,2.3,1.71.75,3-.27,4.25s-1.84,2.31-3.83.62c-8.38-7.11-17-13.94-25.5-20.9q-12.18-9.94-24.32-20c-.63-.53-1.76-1.12-1.1-2.2A32.15,32.15,0,0,1,124.07,163.4Z"/><path class="cls-3" d="M57.05,123.7a3.7,3.7,0,0,0-1.92,2.55,6,6,0,0,1-4.66-3.47c1.43-.23,1.74-1.59,2.5-2.5C55.29,120.27,56.7,121.35,57.05,123.7Z"/><path class="cls-3" d="M269.06,104.42c.44-.55,1.25-.86,1.48-.24.58,1.57,1.5.94,2.54.45-.12,1.45-.52,2.34-2,2.17-.26-.37-.51-.79-.76,0l-.06.06-1.74.62-.09-.07C268.52,106.38,270.61,105.78,269.06,104.42Z"/><path class="cls-3" d="M53,120.28c-.76.91-1.07,2.27-2.5,2.5l-.15-.15a.48.48,0,0,0-.39-.4l-1.44-1.43c.34-1.75,2.8-.16,3.1-2Z"/><path class="cls-3" d="M151,204.89c1.72,0,.41-2.78,2.34-2.63a2.62,2.62,0,0,1,1.31,1.43h-1.26l-.23-.13.25.11c0,.62,0,1.24,0,1.87C152.53,205.49,151.55,206,151,204.89Z"/><path class="cls-3" d="M269.06,104.42c1.55,1.36-.54,2-.63,3-1.63.35-1.14-1-1.37-1.73A2.16,2.16,0,0,1,269.06,104.42Z"/><path class="cls-3" d="M268.52,107.48l1.74-.62c.14,1-.51,1.22-1.24,1.4C268.7,108.1,268.34,108,268.52,107.48Z"/><path class="cls-3" d="M311.6,48.39a1,1,0,0,1-1.11,1.21C310.51,48.87,310.81,48.41,311.6,48.39Z"/><path class="cls-3" d="M270.3,101.35a1.14,1.14,0,0,1-1.22,1.22h0a1.1,1.1,0,0,1,1.22-1.22Z"/><path class="cls-3" d="M274.2,105.45l.22.08-.31.18Z"/><path class="cls-3" d="M49.93,122.23a.48.48,0,0,1,.39.4A.52.52,0,0,1,49.93,122.23Z"/><path class="cls-3" d="M270.32,106.8c.25-.79.5-.37.76,0Z"/><path class="cls-3" d="M269.08,102.57l-.14.26.14-.25Z"/><path class="cls-3" d="M150.31,204.28l.6.58Z"/><path class="cls-3" d="M59.51,123.83c-.36.63-.74.66-1.13,0C58.74,123.29,59.12,123.22,59.51,123.83Z"/><path class="cls-3" d="M46.79,12.53l.23.33L46.8,13C46.8,12.83,46.8,12.68,46.79,12.53Z"/><path class="cls-3" d="M289.79,150.08a1.12,1.12,0,0,1,1.2-1.23A1.09,1.09,0,0,1,289.79,150.08Z"/><path class="cls-3" d="M287.35,153.13a1.12,1.12,0,0,1,1.21-1.23A1.11,1.11,0,0,1,287.35,153.13Z"/><path class="cls-3" d="M29.52,100.55c-.08.18-.12.42-.26.49s-.31-.11-.48-.18c.08-.17.12-.43.25-.49S29.35,100.48,29.52,100.55Z"/><path class="cls-3" d="M29.12,103.19l.18-.74c.52.39,0,.52-.19.73Z"/><path class="cls-3" d="M351.91,67.25l-.26-.14.26.14Z"/><path class="cls-3" d="M332.42,50.8l.26.15-.26-.14Z"/><path class="cls-3" d="M331.81,50.2l.61.6h0l-.61-.61Z"/><path class="cls-3" d="M160.06,164.09l-.14.26.14-.27Z"/><path class="cls-3" d="M163.1,164.7l-.6-.61h0l.61.61Z"/><path class="cls-3" d="M163.11,164.7l.25.14-.26-.14Z"/><path class="cls-3" d="M228.28,187.23c-.9,0-1.78,0-1.84-1.22A1.86,1.86,0,0,1,228.28,187.23Z"/><path class="cls-3" d="M227.05,182.36a1.11,1.11,0,0,1-1.21-1.22h0a1.11,1.11,0,0,1,1.22,1.22Z"/><path class="cls-3" d="M230.71,189.67a1.12,1.12,0,0,1-1.22-1.22A1.11,1.11,0,0,1,230.71,189.67Z"/><path class="cls-3" d="M232.54,190.89a1.84,1.84,0,0,1-1.83-1.22A1.83,1.83,0,0,1,232.54,190.89Z"/><path class="cls-3" d="M233.76,192.11a1.13,1.13,0,0,1-1.23-1.23A1.13,1.13,0,0,1,233.76,192.11Z"/><path class="cls-3" d="M235.59,193.32a1.83,1.83,0,0,1-1.84-1.22A1.85,1.85,0,0,1,235.59,193.32Z"/><path class="cls-3" d="M236.8,194.54a1.11,1.11,0,0,1-1.22-1.22A1.11,1.11,0,0,1,236.8,194.54Z"/><path class="cls-3" d="M238.63,195.76a1.84,1.84,0,0,1-1.83-1.22A1.83,1.83,0,0,1,238.63,195.76Z"/><path class="cls-3" d="M239.85,197a1.13,1.13,0,0,1-1.23-1.22A1.13,1.13,0,0,1,239.85,197Z"/><path class="cls-3" d="M229.5,188.45a1.11,1.11,0,0,1-1.23-1.22A2.11,2.11,0,0,1,229.5,188.45Z"/><path class="cls-3" d="M241.07,198.2a2.08,2.08,0,0,1-1.23-1.23A1.12,1.12,0,0,1,241.07,198.2Z"/><path class="cls-3" d="M242.29,198.81a1.25,1.25,0,0,1-1.23-.62A1.25,1.25,0,0,1,242.29,198.81Z"/><path class="cls-3" d="M235,188.45a1.22,1.22,0,0,1-1.22-.61h0a1.25,1.25,0,0,1,1.22.61Z"/><path class="cls-3" d="M230.71,185.4a1.25,1.25,0,0,1,1.22.61h0a1.25,1.25,0,0,1-1.22-.61Z"/><path class="cls-3" d="M227.67,183a1.23,1.23,0,0,1,1.22.61h0a1.26,1.26,0,0,1-1.22-.61Z"/><path class="cls-3" d="M227.66,183l-.61-.61h0l.61.61Z"/><path class="cls-3" d="M229.49,184.19l-.61-.61h0l.61.6Z"/><path class="cls-3" d="M229.5,184.18l.6.61h0l-.61-.61Z"/><path class="cls-3" d="M230.1,184.79l.61.61h0l-.61-.61Z"/><path class="cls-3" d="M231.93,186l.61.61h0l-.61-.61Z"/><path class="cls-3" d="M232.54,186.62l.61.61h0l-.6-.6Z"/><path class="cls-3" d="M233.15,187.23l.61.61h0l-.61-.61Z"/><path class="cls-3" d="M235.58,189.06c-.2-.2-.41-.4-.61-.61h0l.61.61Z"/><path class="cls-3" d="M235.59,189.06l.25.14-.26-.14Z"/><path class="cls-3" d="M242.89,195.15l-.26-.14.26.14Z"/><path class="cls-3" d="M242.89,195.15l.61.61h0l-.61-.61Z"/><path class="cls-3" d="M243.5,195.76l.26.14-.26-.14Z"/><path class="cls-3" d="M94.28,172l.14-.26-.13.27Z"/><path class="cls-3" d="M94.29,172l-.15.25.14-.26Z"/><path class="cls-3" d="M87,180.53l.15-.26-.14.26Z"/><path class="cls-3" d="M87,180.53l-.14.26.13-.26Z"/><path class="cls-3" d="M85.76,182.36l.14-.26-.14.26Z"/><path class="cls-3" d="M61.4,145.82l-.15.25.14-.26Z"/><path class="cls-3" d="M61.39,145.81l.15-.25-.14.26Z"/><path class="cls-3" d="M53.48,155l.14-.26-.14.26Z"/><path class="cls-3" d="M62.62,144l-.14.26.13-.26Z"/><path class="cls-3" d="M35.82,111.1c-.45-.08-1-.06-.93-.75a.26.26,0,0,1,.19-.2c.68,0,.67.49.73.95Z"/><path class="cls-3" d="M45,114.61l-.21-.08.25-.24.15.18Z"/><path class="cls-3" d="M148.81,199.33c-2,0-2.86-.24-3.25-1.3-.08-.2.13-.72.26-.74C147.19,197.09,147.45,198.33,148.81,199.33Z"/><path class="cls-3" d="M153.37,203.67l-.25-.11.23.13Z"/><path class="cls-3" d="M80.28,111.1l-.8-.22.15-.23.65.45Z"/><path class="cls-3" d="M75.4,116l.14-.26-.13.27Z"/><path class="cls-3" d="M77.23,113.54l-.14.26.14-.26Z"/><path class="cls-3" d="M77.23,113.54l.61-.62h0c-.2.2-.41.4-.61.61Z"/><path class="cls-3" d="M77.84,112.92l.14-.25-.14.26Z"/><path class="cls-3" d="M87,105l.15-.26L87,105Z"/><path class="cls-3" d="M61.4,102l-.14.26.13-.27Z"/><path class="cls-3" d="M61.39,102l.15-.25-.14.26Z"/><path class="cls-3" d="M18.82,59.35c.32-1,.67-1.9.93-2.88.22-.83,0-1.48-1.05-1.23-.81.19-1.62.65-1.81-.67a3.3,3.3,0,0,1,1.29-3.5c.92-.62,1.48-.19,1.85.73.26.64.7.69,1.11.16.57-.75,1.05-1.61,2.14-.66a3.35,3.35,0,0,1,1,3.33c-.22,1.34-1.09.72-1.85.59-1.07-.18-1.2.5-1,1.31s.61,1.91,1.08,3.35C21.18,59.21,20.07,58.79,18.82,59.35Z"/></g><g class="cls-4"><path class="cls-5" d="M196.5,88.18a4.25,4.25,0,0,1,8.5,0c0,2.31-4.25,10.32-4.25,10.32S196.5,90.49,196.5,88.18Z"/><ellipse class="cls-5" cx="200.75" cy="88.18" rx="1.42" ry="1.39"/></g></g></g></svg>