<?xml version="1.0" encoding="utf-8"?>
<!-- Generator: Adobe Illustrator 23.0.1, SVG Export Plug-In . SVG Version: 6.00 Build 0)  -->
<svg version="1.1" id="Layer_1" xmlns="http://www.w3.org/2000/svg" xmlns:xlink="http://www.w3.org/1999/xlink" x="0px" y="0px"
	 viewBox="0 0 376.1 215" style="enable-background:new 0 0 376.1 215;" xml:space="preserve">
	<g>
		<title>bno</title>
		<path fill="currentColor" d="M153.4,191.7h-23.7V83c16.8-4.5,22.1-3.1,24.9,6.8c19.1-15,39.8-16.3,60.9-5.7c18.3,9.2,29.6,24.6,31.1,44.9
			c1.5,20.3,0.3,41,0.3,62.4h-24c0-17.6-0.1-35,0-52.4c0.1-11.7-3.5-21.8-12.8-29.2c-10.7-8.6-22.8-10.5-35.4-4.9
			c-14,6.1-20.6,17.8-21.2,32.6c-0.6,14.1-0.1,28.2-0.1,42.3L153.4,191.7z"/>
		<path fill="currentColor" d="M103.1,96.5c-17.2-19.1-44.7-24.2-69-12.9c-2.6,1.2-5.3,2.2-9.6,4V16H0.6c0,42.1-0.7,82.9,0.3,123.6
			c0.6,26.5,19.8,48.2,44.8,54.1c25.7,6.1,51.4-4.8,64.8-27.3S120.9,116.1,103.1,96.5z M59,171C40.5,170.6,25,154.7,25,136.3
			c0-19,16-34.5,35.3-34.2c18.8,0.4,33.8,15.7,33.9,34.5C94.2,155.4,77.7,171.5,59,171z"/>
		<path fill="currentColor" d="M318,77.5c-33.1-0.4-60,26-60,58.9c0,32.5,26.3,58.8,58.7,59c32.7,0.1,58.8-25.5,59.3-58.4c0.5-32.4-25.4-59-57.8-59.5
			C318.2,77.5,318.1,77.5,318,77.5z M317.6,171c-18.7,0.3-35.2-16.1-35.1-34.8c0.1-18.6,15.6-34,34.2-34.2c19-0.3,34.7,14.9,35,34
			c0,0.2,0,0.3,0,0.5C351.6,155,336.1,170.7,317.6,171z"/>
		</g>
</svg>
