<?xml version="1.0" encoding="UTF-8"?>
<svg width="1261px" height="137px" viewBox="0 0 1261 137" version="1.1" xmlns="http://www.w3.org/2000/svg" xmlns:xlink="http://www.w3.org/1999/xlink">
    <!-- Generator: sketchtool 60 (101010) - https://sketch.com -->
    <title>E87FCD89-9CC1-4087-9E9E-EA172D52F138</title>
    <desc>Created with sketchtool.</desc>
    <g id="Symbols" stroke="none" stroke-width="1" fill="none" fill-rule="evenodd" stroke-dasharray="5,3">
        <g id="Decoration/linepattern-(loopdyloop)" stroke="#96E1F3">
            <path d="M-3.41060513e-13,134.952966 C274.633867,134.952966 14.9440946,140.452616 135.61524,129.468867 C187.531737,124.743316 199.458982,128.504156 244.344457,120.719872 C305.618955,110.093314 373.344468,91.5180977 434.812297,88.1057544 C501.042346,84.4290398 567.515406,90.3817085 633.808374,88.1057544 C669.00726,86.8973148 710.549654,79.2126527 743.815665,64.4962472 C760.762273,56.9993111 779.189819,49.3158297 772.560705,26.839548 C765.232866,1.99421437 723.094236,-3.56209114 707.553228,18.3229295 C702.491558,25.45083 714.775538,47.4489671 716.662408,50.9021904 C738.174698,90.272541 787.332825,90.6408696 825.972567,88.7099347 C874.515029,86.2841336 841.873762,84.3893904 873.516909,78.8222917 C908.293336,72.7039432 950.018816,69.9121576 984.012191,73.698378 C1078.34345,84.2050998 1087.33164,100.624625 1175.32821,95.3442992 C1216.47912,92.8749959 1253.37956,36.2947146 1260.0064,4.26325641e-14" id="Path-65"></path>
        </g>
    </g>
</svg>