<svg id="Layer_1" data-name="Layer 1" xmlns="http://www.w3.org/2000/svg" viewBox="0 0 364 295"><defs><style>.cls-1{fill:#23be87;}.cls-2{fill:#1a1a1a;}.cls-3{fill:#df5252;}</style></defs><title>Artboard 2 copy</title><path d="M50.68,60.42v52.06H41V89.73H16.52v22.75H6.8V60.42h9.72v22.4H41V60.42Z"/><path d="M66.59,95.13a17.65,17.65,0,0,0,1,4.91,10,10,0,0,0,2.09,3.42,8.22,8.22,0,0,0,3.08,2,11.23,11.23,0,0,0,3.94.66,12,12,0,0,0,3.72-.5,17.47,17.47,0,0,0,2.74-1.12c.78-.4,1.46-.78,2-1.11a3.42,3.42,0,0,1,1.71-.51,1.85,1.85,0,0,1,1.66.83L91.14,107a14.65,14.65,0,0,1-3.31,2.9A18.59,18.59,0,0,1,84,111.74a20.65,20.65,0,0,1-4.07,1,29.46,29.46,0,0,1-4,.29,19.81,19.81,0,0,1-7.17-1.28A16,16,0,0,1,63,108a17.83,17.83,0,0,1-3.85-6.19,23.88,23.88,0,0,1-1.4-8.55A20.35,20.35,0,0,1,59,86.11a17.3,17.3,0,0,1,3.51-5.8,16.49,16.49,0,0,1,5.58-3.9,19.61,19.61,0,0,1,13.88-.33A14,14,0,0,1,87,79.34a15,15,0,0,1,3.33,5.26,19.41,19.41,0,0,1,1.21,7.11,5.78,5.78,0,0,1-.43,2.72,1.81,1.81,0,0,1-1.66.7Zm17-5.37a10.48,10.48,0,0,0-.49-3.25,7.7,7.7,0,0,0-1.46-2.69A6.77,6.77,0,0,0,79.14,82a8.41,8.41,0,0,0-3.48-.67,8.2,8.2,0,0,0-6.06,2.2,10.75,10.75,0,0,0-2.83,6.22Z"/><path d="M97.34,80.69a21.89,21.89,0,0,1,15.33-5.83,15,15,0,0,1,5.8,1.06,12.34,12.34,0,0,1,4.32,3,12.71,12.71,0,0,1,2.68,4.52,17.4,17.4,0,0,1,.92,5.76v23.33h-4a4.14,4.14,0,0,1-2-.38,2.66,2.66,0,0,1-1.08-1.53l-.79-2.66a31.26,31.26,0,0,1-2.74,2.21,15.42,15.42,0,0,1-2.77,1.6,13.87,13.87,0,0,1-3.08,1,17.48,17.48,0,0,1-3.61.35,14.5,14.5,0,0,1-4.32-.63,9.49,9.49,0,0,1-3.42-1.89,8.54,8.54,0,0,1-2.24-3.14,11.22,11.22,0,0,1-.79-4.35,8.69,8.69,0,0,1,.47-2.79,8,8,0,0,1,1.53-2.65,12.82,12.82,0,0,1,2.75-2.37,17.71,17.71,0,0,1,4.16-1.95,36.6,36.6,0,0,1,5.74-1.35,56.76,56.76,0,0,1,7.49-.63V89.15q0-3.7-1.58-5.49a5.79,5.79,0,0,0-4.57-1.78,11.09,11.09,0,0,0-3.59.5,15.34,15.34,0,0,0-2.5,1.14c-.72.42-1.37.8-2,1.13a3.85,3.85,0,0,1-2,.51,2.61,2.61,0,0,1-1.59-.49,4,4,0,0,1-1-1.13Zm20.37,16a47.9,47.9,0,0,0-6.48.67A17.35,17.35,0,0,0,107,98.62a5.52,5.52,0,0,0-2.27,1.76,4.39,4.39,0,0,0,.7,5.55,6,6,0,0,0,3.62,1,10.58,10.58,0,0,0,4.74-1,14.13,14.13,0,0,0,3.9-3Z"/><path d="M166.82,59v53.5h-5.44a2.09,2.09,0,0,1-2.23-1.62l-.76-3.56a18.85,18.85,0,0,1-5.13,4.14,13.91,13.91,0,0,1-6.75,1.58,12.22,12.22,0,0,1-5.54-1.26,12.39,12.39,0,0,1-4.34-3.65,17.56,17.56,0,0,1-2.81-5.93,29.89,29.89,0,0,1-1-8.06A25,25,0,0,1,134,86.49a18.56,18.56,0,0,1,3.2-6.12,14.85,14.85,0,0,1,5-4.05,14.44,14.44,0,0,1,6.55-1.46,13,13,0,0,1,5.29,1,13.7,13.7,0,0,1,3.92,2.63V59Zm-8.9,26a8.69,8.69,0,0,0-3.29-2.6,9.8,9.8,0,0,0-3.83-.75,8.55,8.55,0,0,0-3.64.75,7.4,7.4,0,0,0-2.77,2.29,11,11,0,0,0-1.77,3.89,22.66,22.66,0,0,0-.61,5.56,25.19,25.19,0,0,0,.52,5.49,10.82,10.82,0,0,0,1.5,3.67,5.71,5.71,0,0,0,2.37,2,7.59,7.59,0,0,0,3.14.63,9.06,9.06,0,0,0,4.71-1.15,14,14,0,0,0,3.67-3.27Z"/><path d="M186,64.78a5.08,5.08,0,0,1-.47,2.16,6,6,0,0,1-1.24,1.76,5.85,5.85,0,0,1-1.82,1.21,5.59,5.59,0,0,1-2.23.45,5.39,5.39,0,0,1-2.18-.45,5.8,5.8,0,0,1-3-3,5.22,5.22,0,0,1-.45-2.16,5.69,5.69,0,0,1,1.66-4,5.67,5.67,0,0,1,1.78-1.21,5.39,5.39,0,0,1,2.18-.45,5.59,5.59,0,0,1,2.23.45,5.85,5.85,0,0,1,1.82,1.21,5.78,5.78,0,0,1,1.24,1.8A5.4,5.4,0,0,1,186,64.78Zm-1.23,10.76v36.94h-8.92V75.54Z"/><path d="M202.2,80.08A25.7,25.7,0,0,1,204.56,78a14.51,14.51,0,0,1,5.6-2.66,14.44,14.44,0,0,1,3.46-.38A13.31,13.31,0,0,1,219,76a10.8,10.8,0,0,1,3.91,2.88,12.81,12.81,0,0,1,2.37,4.43,18.86,18.86,0,0,1,.81,5.67v23.51h-8.89V89a8,8,0,0,0-1.55-5.24,5.8,5.8,0,0,0-4.71-1.85,9.31,9.31,0,0,0-4.32,1,15.52,15.52,0,0,0-3.82,2.85v26.71h-8.89V75.54h5.43a2.18,2.18,0,0,1,2.27,1.62Z"/><path d="M266.89,76.8v3.32c0,1-.63,1.7-1.9,1.94l-3.32.61a11.77,11.77,0,0,1-.34,9.13,11,11,0,0,1-3,3.76A14.29,14.29,0,0,1,253.7,98a18.46,18.46,0,0,1-5.71.85,19.94,19.94,0,0,1-2.08-.11c-.68-.07-1.34-.17-2-.29-1.16.7-1.73,1.48-1.73,2.34a1.72,1.72,0,0,0,1,1.64,8.31,8.31,0,0,0,2.72.74c1.13.14,2.41.23,3.85.27s2.92.11,4.43.23a35.52,35.52,0,0,1,4.43.63,13,13,0,0,1,3.85,1.43,7.48,7.48,0,0,1,2.72,2.64,8.17,8.17,0,0,1,1,4.3,10.23,10.23,0,0,1-1.21,4.76,12.81,12.81,0,0,1-3.49,4.1,18.26,18.26,0,0,1-5.62,2.9,24.19,24.19,0,0,1-7.58,1.1,29,29,0,0,1-7.27-.81,17.4,17.4,0,0,1-5.15-2.16,9.45,9.45,0,0,1-3.06-3.12,7.32,7.32,0,0,1-1-3.67,6.27,6.27,0,0,1,1.56-4.34,11,11,0,0,1,4.3-2.79,6.21,6.21,0,0,1-2.34-2,5.82,5.82,0,0,1-.86-3.32,5.08,5.08,0,0,1,.31-1.71,7,7,0,0,1,.9-1.74,8.39,8.39,0,0,1,1.49-1.64,10.37,10.37,0,0,1,2.12-1.39,11.61,11.61,0,0,1-4.41-4,10.83,10.83,0,0,1-1.6-5.9,10.85,10.85,0,0,1,4.16-8.73,14.08,14.08,0,0,1,4.64-2.4,21.18,21.18,0,0,1,10.32-.34,15.56,15.56,0,0,1,3.81,1.42ZM258,114.14a2.49,2.49,0,0,0-.65-1.77,4.3,4.3,0,0,0-1.76-1.06,13.37,13.37,0,0,0-2.61-.56c-1-.12-2.06-.21-3.17-.27l-3.46-.16c-1.19,0-2.34-.14-3.47-.29a8.26,8.26,0,0,0-2.4,2,3.94,3.94,0,0,0-.91,2.59,3.64,3.64,0,0,0,.48,1.82,4,4,0,0,0,1.55,1.45,9.26,9.26,0,0,0,2.75,1,24.87,24.87,0,0,0,8.43,0,10.37,10.37,0,0,0,3-1,4.49,4.49,0,0,0,1.71-1.59A3.84,3.84,0,0,0,258,114.14ZM248,93.11a8.29,8.29,0,0,0,2.88-.45,5.61,5.61,0,0,0,2-1.24,5,5,0,0,0,1.22-1.91,6.89,6.89,0,0,0,.42-2.45,5.77,5.77,0,0,0-1.64-4.33,8.31,8.31,0,0,0-9.83,0,5.77,5.77,0,0,0-1.64,4.33,6.84,6.84,0,0,0,.42,2.42,5.21,5.21,0,0,0,1.22,1.92,5.48,5.48,0,0,0,2,1.26A8.38,8.38,0,0,0,248,93.11Z"/><path class="cls-1" d="M19.18,29a1.62,1.62,0,0,1-.37.43.93.93,0,0,1-.51.14,1.31,1.31,0,0,1-.6-.17L17,29a4.89,4.89,0,0,0-.92-.39,3.51,3.51,0,0,0-1.17-.18,2.55,2.55,0,0,0-1.7.49,1.67,1.67,0,0,0-.56,1.32,1.18,1.18,0,0,0,.34.87,3,3,0,0,0,.88.6,8.93,8.93,0,0,0,1.25.46c.47.14.94.3,1.43.47a11.3,11.3,0,0,1,1.44.61,5,5,0,0,1,1.24.88,4.26,4.26,0,0,1,.89,1.32,4.74,4.74,0,0,1,.33,1.87A6.05,6.05,0,0,1,20,39.62a5.11,5.11,0,0,1-1.22,1.84,5.52,5.52,0,0,1-2,1.24,7.38,7.38,0,0,1-2.66.45A8.58,8.58,0,0,1,12.51,43a10,10,0,0,1-1.64-.47,9.81,9.81,0,0,1-1.49-.73,6.45,6.45,0,0,1-1.21-.93L9.37,39a1,1,0,0,1,.89-.48,1.36,1.36,0,0,1,.72.23l.83.5a7,7,0,0,0,1.06.51,4,4,0,0,0,1.42.22A2.7,2.7,0,0,0,16,39.45a1.86,1.86,0,0,0,.62-1.54,1.49,1.49,0,0,0-.34-1,2.55,2.55,0,0,0-.88-.63,8.49,8.49,0,0,0-1.24-.45l-1.43-.42a10.44,10.44,0,0,1-1.43-.58,4.58,4.58,0,0,1-1.24-.9,4.08,4.08,0,0,1-.88-1.39,5.45,5.45,0,0,1-.34-2.06,4.76,4.76,0,0,1,.4-1.92,4.89,4.89,0,0,1,1.16-1.67,5.66,5.66,0,0,1,1.88-1.17,7,7,0,0,1,2.56-.44,10.08,10.08,0,0,1,1.57.13,8.21,8.21,0,0,1,1.44.37,8.33,8.33,0,0,1,1.28.59,6.14,6.14,0,0,1,1.06.77Z"/><path class="cls-1" d="M34.52,39.75A3.76,3.76,0,0,0,36,39.49a2.94,2.94,0,0,0,1.08-.78,3.27,3.27,0,0,0,.68-1.23A5.21,5.21,0,0,0,38,35.83V25.47H42V35.83a8,8,0,0,1-.52,3,6.49,6.49,0,0,1-3.86,3.83,9.37,9.37,0,0,1-6.27,0A6.73,6.73,0,0,1,29,41.1a6.61,6.61,0,0,1-1.49-2.32,8.23,8.23,0,0,1-.51-3V25.47h4V35.82a5.21,5.21,0,0,0,.24,1.65A3.39,3.39,0,0,0,32,38.71a3.06,3.06,0,0,0,1.08.78A3.76,3.76,0,0,0,34.52,39.75Z"/><path class="cls-1" d="M49.47,43V25.47H55.9a12.45,12.45,0,0,1,3.09.34,5.85,5.85,0,0,1,2.07,1,3.51,3.51,0,0,1,1.17,1.49,4.88,4.88,0,0,1,.37,1.95,4,4,0,0,1-.17,1.14,3.32,3.32,0,0,1-.53,1,3.84,3.84,0,0,1-.92.87,6,6,0,0,1-1.36.68,4.84,4.84,0,0,1,2.56,1.36A3.55,3.55,0,0,1,63,37.69a5.16,5.16,0,0,1-.43,2.08,4.76,4.76,0,0,1-1.27,1.67,6,6,0,0,1-2.06,1.12,8.86,8.86,0,0,1-2.79.4Zm4.06-10.13h2.11a7.37,7.37,0,0,0,1.21-.09,2.63,2.63,0,0,0,.92-.34,1.62,1.62,0,0,0,.58-.66,2.51,2.51,0,0,0,.19-1.06,3.13,3.13,0,0,0-.15-1,1.61,1.61,0,0,0-.48-.66,2,2,0,0,0-.82-.36,5.88,5.88,0,0,0-1.19-.11H53.53Zm0,2.71V39.9h2.85a3.74,3.74,0,0,0,1.32-.2,2.28,2.28,0,0,0,.8-.53,1.76,1.76,0,0,0,.39-.74,3.24,3.24,0,0,0,.11-.82,2.65,2.65,0,0,0-.13-.87,1.4,1.4,0,0,0-.43-.65,2,2,0,0,0-.81-.4,4.51,4.51,0,0,0-1.27-.15Z"/><path class="cls-1" d="M82.71,25.47v3.22H77.79V43H73.74V28.69H68.82V25.47Z"/><path class="cls-1" d="M93.63,43H89.55V25.47h4.08Z"/><path class="cls-1" d="M114.37,25.47v3.22h-4.92V43h-4.06V28.69h-4.92V25.47Z"/><path class="cls-1" d="M124.9,39.72h6.48V43H120.85V25.47h4.05Z"/><path class="cls-1" d="M149.36,25.47v3.12h-7.18v4.08h5.5v3h-5.5v4.17h7.18V43H138.1V25.47Z"/><path class="cls-2" d="M10.46,158.12H16v1.46H8.72V146.69h1.74Z"/><path class="cls-2" d="M21.08,150.32a4.56,4.56,0,0,1,1.81.34,3.77,3.77,0,0,1,1.37.94,4.24,4.24,0,0,1,.86,1.48,5.94,5.94,0,0,1,.3,1.94,5.85,5.85,0,0,1-.3,1.94,4.24,4.24,0,0,1-.86,1.48,3.77,3.77,0,0,1-1.37.94,5.1,5.1,0,0,1-3.61,0,3.77,3.77,0,0,1-1.37-.94A4.11,4.11,0,0,1,17,157a5.6,5.6,0,0,1-.31-1.94,5.68,5.68,0,0,1,.31-1.94,4.11,4.11,0,0,1,.87-1.48,3.77,3.77,0,0,1,1.37-.94A4.55,4.55,0,0,1,21.08,150.32Zm0,8.14a2.33,2.33,0,0,0,2-.91,4.19,4.19,0,0,0,.67-2.52,4.26,4.26,0,0,0-.67-2.54,2.35,2.35,0,0,0-2-.91,2.7,2.7,0,0,0-1.18.24,2.12,2.12,0,0,0-.84.67,3,3,0,0,0-.51,1.09,6.65,6.65,0,0,0,0,2.9,2.8,2.8,0,0,0,.51,1.07,2,2,0,0,0,.84.67A2.7,2.7,0,0,0,21.08,158.46Z"/><path class="cls-2" d="M27.4,159.58v-9.11h.92a.5.5,0,0,1,.36.1.6.6,0,0,1,.14.34l.1,1.42a4.25,4.25,0,0,1,1.16-1.49,2.55,2.55,0,0,1,1.62-.54,2.38,2.38,0,0,1,.68.09,2.87,2.87,0,0,1,.57.24l-.21,1.2a.27.27,0,0,1-.28.22,1.76,1.76,0,0,1-.39-.08,2.28,2.28,0,0,0-.73-.09,2,2,0,0,0-1.39.49,3.63,3.63,0,0,0-.95,1.41v5.8Z"/><path class="cls-2" d="M38.27,150.32a3.94,3.94,0,0,1,1.51.28,3.22,3.22,0,0,1,1.19.79,3.51,3.51,0,0,1,.79,1.28,4.86,4.86,0,0,1,.29,1.73.93.93,0,0,1-.09.5.31.31,0,0,1-.3.13H35.59a4.71,4.71,0,0,0,.24,1.5,3.06,3.06,0,0,0,.59,1.07,2.4,2.4,0,0,0,.9.64,3.13,3.13,0,0,0,1.17.21,3.54,3.54,0,0,0,1-.14,4.5,4.5,0,0,0,.75-.3c.21-.11.39-.21.53-.3a.63.63,0,0,1,.36-.14.36.36,0,0,1,.31.15l.45.59a3.26,3.26,0,0,1-.71.62,4.61,4.61,0,0,1-.89.44,5.21,5.21,0,0,1-1,.25,5.52,5.52,0,0,1-1,.09,4.78,4.78,0,0,1-1.75-.32,3.61,3.61,0,0,1-1.37-.94,4.25,4.25,0,0,1-.91-1.52,6.37,6.37,0,0,1-.32-2.09,5.45,5.45,0,0,1,.29-1.78,4.48,4.48,0,0,1,.84-1.44,4,4,0,0,1,1.34-1A4.47,4.47,0,0,1,38.27,150.32Zm0,1.18a2.51,2.51,0,0,0-1.83.67,3.14,3.14,0,0,0-.82,1.86h5a3.3,3.3,0,0,0-.16-1,2.16,2.16,0,0,0-.45-.8,2,2,0,0,0-.72-.52A2.35,2.35,0,0,0,38.3,151.5Z"/><path class="cls-2" d="M44.09,159.58v-9.11H45a.4.4,0,0,1,.43.33l.12.94a4.51,4.51,0,0,1,1.13-1,2.7,2.7,0,0,1,1.45-.4,2.12,2.12,0,0,1,1.5.52,2.9,2.9,0,0,1,.83,1.38,2.65,2.65,0,0,1,.5-.85,3,3,0,0,1,.69-.6,3.16,3.16,0,0,1,.83-.34,3.72,3.72,0,0,1,.88-.11,3.49,3.49,0,0,1,1.29.23,2.69,2.69,0,0,1,1,.67,3.1,3.1,0,0,1,.6,1.09,4.74,4.74,0,0,1,.21,1.47v5.8H54.84v-5.8a2.49,2.49,0,0,0-.46-1.63A1.73,1.73,0,0,0,53,151.6a2,2,0,0,0-.75.14,1.76,1.76,0,0,0-.63.41,2,2,0,0,0-.43.68,2.74,2.74,0,0,0-.16.95v5.8h-1.6v-5.8a2.53,2.53,0,0,0-.44-1.64,1.56,1.56,0,0,0-1.29-.54,2.07,2.07,0,0,0-1.1.32,3.45,3.45,0,0,0-.93.87v6.79Z"/><path class="cls-2" d="M64.48,147.61a1,1,0,0,1-.09.43,1.36,1.36,0,0,1-.25.36,1.15,1.15,0,0,1-.37.25,1.12,1.12,0,0,1-.88,0,1.23,1.23,0,0,1-.36-.25,1.13,1.13,0,0,1-.24-.36,1,1,0,0,1-.09-.43,1.13,1.13,0,0,1,.09-.45,1.31,1.31,0,0,1,.24-.37,1.45,1.45,0,0,1,.36-.25,1.12,1.12,0,0,1,.88,0,1.34,1.34,0,0,1,.37.25,1.6,1.6,0,0,1,.25.37A1.13,1.13,0,0,1,64.48,147.61Zm-.36,2.86v9.11h-1.6v-9.11Z"/><path class="cls-2" d="M67,162.67v-12.2h1a.4.4,0,0,1,.43.33l.14,1.08a4.84,4.84,0,0,1,1.34-1.14,3.37,3.37,0,0,1,1.73-.44,3.32,3.32,0,0,1,1.42.31,2.83,2.83,0,0,1,1.09.89,4.21,4.21,0,0,1,.69,1.46,7.59,7.59,0,0,1,.24,2,6,6,0,0,1-.27,1.87,4.58,4.58,0,0,1-.77,1.51,3.78,3.78,0,0,1-1.24,1,3.7,3.7,0,0,1-1.65.36,3.33,3.33,0,0,1-1.44-.28,3.23,3.23,0,0,1-1.06-.79v4ZM71,151.6a2.6,2.6,0,0,0-1.38.36,4,4,0,0,0-1.08,1v4.41a2.57,2.57,0,0,0,1,.83,2.64,2.64,0,0,0,1.17.25,2.3,2.3,0,0,0,2-.91,4.29,4.29,0,0,0,.68-2.59,6.14,6.14,0,0,0-.16-1.53,3,3,0,0,0-.45-1.05,1.83,1.83,0,0,0-.73-.6A2.38,2.38,0,0,0,71,151.6Z"/><path class="cls-2" d="M82.1,152a.35.35,0,0,1-.33.2.74.74,0,0,1-.31-.1c-.11-.07-.25-.14-.41-.22a4.86,4.86,0,0,0-.59-.23,2.8,2.8,0,0,0-.81-.1,2.34,2.34,0,0,0-.73.1,1.85,1.85,0,0,0-.56.29,1.27,1.27,0,0,0-.35.42,1.1,1.1,0,0,0-.12.51.9.9,0,0,0,.2.59,1.9,1.9,0,0,0,.54.4,3.54,3.54,0,0,0,.76.3l.86.28q.45.15.87.33a3.18,3.18,0,0,1,.76.45,2,2,0,0,1,.53.66,2,2,0,0,1,.21.94,3,3,0,0,1-.23,1.17,2.64,2.64,0,0,1-.66.93,3.34,3.34,0,0,1-1.08.61,4.47,4.47,0,0,1-1.48.23,4.76,4.76,0,0,1-1.73-.31,4.38,4.38,0,0,1-1.31-.8l.38-.61a.42.42,0,0,1,.17-.18.48.48,0,0,1,.26-.06.61.61,0,0,1,.34.12,3.79,3.79,0,0,0,.44.28,3,3,0,0,0,.62.28,2.88,2.88,0,0,0,.91.13,2.28,2.28,0,0,0,.82-.13,1.79,1.79,0,0,0,.58-.32,1.24,1.24,0,0,0,.35-.48,1.4,1.4,0,0,0,.11-.58.91.91,0,0,0-.2-.62,1.64,1.64,0,0,0-.53-.43,5.63,5.63,0,0,0-.77-.3l-.87-.28a8.18,8.18,0,0,1-.87-.32,3,3,0,0,1-.76-.47,2.08,2.08,0,0,1-.54-.69,2.27,2.27,0,0,1-.2-1,2.31,2.31,0,0,1,.22-1,2.28,2.28,0,0,1,.63-.85,3,3,0,0,1,1-.58,4,4,0,0,1,1.38-.22,4.37,4.37,0,0,1,1.62.29,3.77,3.77,0,0,1,1.23.77Z"/><path class="cls-2" d="M86.08,150.47v5.81a2.41,2.41,0,0,0,.48,1.6,1.78,1.78,0,0,0,1.44.57,2.75,2.75,0,0,0,1.32-.33,3.83,3.83,0,0,0,1.14-.93v-6.72h1.61v9.11h-1a.4.4,0,0,1-.43-.33l-.13-1a5,5,0,0,1-1.33,1.06,3.55,3.55,0,0,1-1.69.4,3.21,3.21,0,0,1-1.32-.25,2.59,2.59,0,0,1-1-.7,3.07,3.07,0,0,1-.58-1.09,4.76,4.76,0,0,1-.19-1.41v-5.81Z"/><path class="cls-2" d="M94.7,159.58v-9.11h1a.4.4,0,0,1,.43.33l.12.94a4.35,4.35,0,0,1,1.13-1,2.67,2.67,0,0,1,1.45-.4,2.12,2.12,0,0,1,1.5.52,2.88,2.88,0,0,1,.82,1.38,2.85,2.85,0,0,1,.5-.85,3.05,3.05,0,0,1,.7-.6,3.09,3.09,0,0,1,.82-.34,3.8,3.8,0,0,1,.89-.11,3.4,3.4,0,0,1,1.28.23,2.6,2.6,0,0,1,1,.67,3,3,0,0,1,.6,1.09,4.74,4.74,0,0,1,.21,1.47v5.8h-1.6v-5.8a2.49,2.49,0,0,0-.47-1.63,1.7,1.7,0,0,0-1.36-.55,2.12,2.12,0,0,0-.75.14,1.76,1.76,0,0,0-.63.41,1.87,1.87,0,0,0-.42.68,2.52,2.52,0,0,0-.16.95v5.8h-1.6v-5.8a2.59,2.59,0,0,0-.44-1.64,1.58,1.58,0,0,0-1.29-.54,2,2,0,0,0-1.1.32,3.45,3.45,0,0,0-.93.87v6.79Z"/><path class="cls-2" d="M119.37,159.58a.4.4,0,0,1-.43-.33l-.14-1.11a4.65,4.65,0,0,1-1.34,1.14,3.38,3.38,0,0,1-1.72.43,3.33,3.33,0,0,1-1.43-.3,2.89,2.89,0,0,1-1.08-.89,4,4,0,0,1-.7-1.46,7.56,7.56,0,0,1-.24-2,6.28,6.28,0,0,1,.27-1.88,4.6,4.6,0,0,1,.78-1.51,3.62,3.62,0,0,1,2.89-1.37,3.25,3.25,0,0,1,1.43.29,3.38,3.38,0,0,1,1.06.79v-5h1.61v13.25Zm-3.1-1.17a2.57,2.57,0,0,0,1.37-.36,4.08,4.08,0,0,0,1.08-1v-4.41a2.49,2.49,0,0,0-1-.84,2.94,2.94,0,0,0-1.17-.23,2.31,2.31,0,0,0-2,.9,4.26,4.26,0,0,0-.68,2.6,6.67,6.67,0,0,0,.15,1.52,2.9,2.9,0,0,0,.45,1,1.73,1.73,0,0,0,.73.59A2.36,2.36,0,0,0,116.27,158.41Z"/><path class="cls-2" d="M126.71,150.32a4.55,4.55,0,0,1,1.8.34,3.77,3.77,0,0,1,1.37.94,4.24,4.24,0,0,1,.86,1.48A5.94,5.94,0,0,1,131,155a5.85,5.85,0,0,1-.3,1.94,4.24,4.24,0,0,1-.86,1.48,3.77,3.77,0,0,1-1.37.94,5.1,5.1,0,0,1-3.61,0,3.85,3.85,0,0,1-1.37-.94,4.11,4.11,0,0,1-.87-1.48,5.6,5.6,0,0,1-.31-1.94,5.68,5.68,0,0,1,.31-1.94,4.11,4.11,0,0,1,.87-1.48,3.85,3.85,0,0,1,1.37-.94A4.56,4.56,0,0,1,126.71,150.32Zm0,8.14a2.31,2.31,0,0,0,2-.91,4.13,4.13,0,0,0,.67-2.52,4.19,4.19,0,0,0-.67-2.54,2.34,2.34,0,0,0-2-.91,2.72,2.72,0,0,0-1.19.24,2.12,2.12,0,0,0-.84.67,3,3,0,0,0-.51,1.09,6.65,6.65,0,0,0,0,2.9,2.8,2.8,0,0,0,.51,1.07,2,2,0,0,0,.84.67A2.72,2.72,0,0,0,126.71,158.46Z"/><path class="cls-2" d="M134.81,146.33v13.25h-1.6V146.33Z"/><path class="cls-2" d="M141.32,150.32a4.56,4.56,0,0,1,1.81.34,3.85,3.85,0,0,1,1.37.94,4.24,4.24,0,0,1,.86,1.48,5.94,5.94,0,0,1,.3,1.94,5.85,5.85,0,0,1-.3,1.94,4.24,4.24,0,0,1-.86,1.48,3.85,3.85,0,0,1-1.37.94,5.1,5.1,0,0,1-3.61,0,3.69,3.69,0,0,1-1.37-.94,4.28,4.28,0,0,1-.88-1.48A5.85,5.85,0,0,1,137,155a5.94,5.94,0,0,1,.3-1.94,4.28,4.28,0,0,1,.88-1.48,3.69,3.69,0,0,1,1.37-.94A4.55,4.55,0,0,1,141.32,150.32Zm0,8.14a2.34,2.34,0,0,0,2-.91A4.2,4.2,0,0,0,144,155a4.26,4.26,0,0,0-.66-2.54,2.37,2.37,0,0,0-2-.91,2.78,2.78,0,0,0-1.19.24,2.27,2.27,0,0,0-.84.67,3.13,3.13,0,0,0-.5,1.09,6.27,6.27,0,0,0,0,2.9,3,3,0,0,0,.5,1.07,2.18,2.18,0,0,0,.84.67A2.78,2.78,0,0,0,141.32,158.46Z"/><path class="cls-2" d="M147.64,159.58v-9.11h.92a.5.5,0,0,1,.36.1.6.6,0,0,1,.13.34l.11,1.42a4.14,4.14,0,0,1,1.16-1.49,2.54,2.54,0,0,1,1.61-.54,2.45,2.45,0,0,1,.69.09,2.56,2.56,0,0,1,.56.24l-.2,1.2a.27.27,0,0,1-.28.22,1.66,1.66,0,0,1-.39-.08,2.32,2.32,0,0,0-.73-.09,2,2,0,0,0-1.4.49,3.62,3.62,0,0,0-.94,1.41v5.8Z"/><path class="cls-2" d="M163.59,152a.35.35,0,0,1-.33.2.7.7,0,0,1-.31-.1l-.42-.22a3.83,3.83,0,0,0-.59-.23,2.8,2.8,0,0,0-.81-.1,2.39,2.39,0,0,0-.73.1,1.8,1.8,0,0,0-.55.29,1.27,1.27,0,0,0-.35.42,1.1,1.1,0,0,0-.12.51.85.85,0,0,0,.2.59,1.72,1.72,0,0,0,.53.4,4,4,0,0,0,.76.3l.87.28q.45.15.87.33a3.11,3.11,0,0,1,.75.45,2.17,2.17,0,0,1,.54.66,2.1,2.1,0,0,1,.2.94,3,3,0,0,1-.22,1.17,2.67,2.67,0,0,1-.67.93,3.14,3.14,0,0,1-1.08.61,4.47,4.47,0,0,1-1.48.23,4.7,4.7,0,0,1-1.72-.31,4.31,4.31,0,0,1-1.32-.8L158,158a.59.59,0,0,1,.17-.18.5.5,0,0,1,.26-.06.61.61,0,0,1,.34.12,4.91,4.91,0,0,0,.44.28,3.28,3.28,0,0,0,.62.28,3,3,0,0,0,.92.13,2.22,2.22,0,0,0,.81-.13,1.84,1.84,0,0,0,.59-.32,1.48,1.48,0,0,0,.35-.48,1.58,1.58,0,0,0,.11-.58,1,1,0,0,0-.2-.62,1.8,1.8,0,0,0-.54-.43,5.47,5.47,0,0,0-.76-.3l-.87-.28a9.25,9.25,0,0,1-.88-.32,3.24,3.24,0,0,1-.76-.47,1.93,1.93,0,0,1-.53-.69,2.13,2.13,0,0,1-.21-1,2.47,2.47,0,0,1,.22-1,2.52,2.52,0,0,1,.63-.85,3.16,3.16,0,0,1,1-.58,3.92,3.92,0,0,1,1.38-.22,4.32,4.32,0,0,1,1.61.29,3.82,3.82,0,0,1,1.24.77Z"/><path class="cls-2" d="M168.32,147.61a1,1,0,0,1-.09.43,1.36,1.36,0,0,1-.25.36,1.15,1.15,0,0,1-.37.25,1.12,1.12,0,0,1-.88,0,1.23,1.23,0,0,1-.36-.25,1.13,1.13,0,0,1-.24-.36,1,1,0,0,1-.09-.43,1.13,1.13,0,0,1,.09-.45,1.31,1.31,0,0,1,.24-.37,1.45,1.45,0,0,1,.36-.25,1.12,1.12,0,0,1,.88,0,1.34,1.34,0,0,1,.37.25,1.6,1.6,0,0,1,.25.37A1.13,1.13,0,0,1,168.32,147.61Zm-.36,2.86v9.11h-1.6v-9.11Z"/><path class="cls-2" d="M173.55,159.73a2.17,2.17,0,0,1-1.66-.61,2.38,2.38,0,0,1-.58-1.73v-5.58h-1.1a.36.36,0,0,1-.24-.09.3.3,0,0,1-.1-.26v-.64l1.49-.19.37-2.82a.37.37,0,0,1,.12-.22.36.36,0,0,1,.25-.08h.81v3.14h2.61v1.16h-2.61v5.47a1.13,1.13,0,0,0,.28.85,1,1,0,0,0,.72.28,1.46,1.46,0,0,0,.44-.06l.32-.15.23-.15a.27.27,0,0,1,.16-.07.28.28,0,0,1,.23.15l.47.77a3.05,3.05,0,0,1-1,.61A3.55,3.55,0,0,1,173.55,159.73Z"/><path class="cls-2" d="M187.67,159.58H187a.83.83,0,0,1-.38-.07.42.42,0,0,1-.19-.3l-.18-.85a8.57,8.57,0,0,1-.7.58,3.81,3.81,0,0,1-.72.43,3.59,3.59,0,0,1-.8.27,4.72,4.72,0,0,1-1,.09,3.22,3.22,0,0,1-1-.15,2.16,2.16,0,0,1-.8-.45,2.21,2.21,0,0,1-.55-.75,2.77,2.77,0,0,1-.2-1.08,2,2,0,0,1,.3-1,2.39,2.39,0,0,1,1-.89,5.93,5.93,0,0,1,1.73-.64,11.46,11.46,0,0,1,2.62-.25v-.71a2.48,2.48,0,0,0-.46-1.62,1.62,1.62,0,0,0-1.34-.55,2.87,2.87,0,0,0-1,.15,3.71,3.71,0,0,0-.69.33l-.51.34a.78.78,0,0,1-.41.14.47.47,0,0,1-.29-.08.76.76,0,0,1-.19-.21l-.29-.52a5.26,5.26,0,0,1,1.63-1.08,4.85,4.85,0,0,1,1.93-.37,3.4,3.4,0,0,1,1.36.26,2.66,2.66,0,0,1,1,.7,2.83,2.83,0,0,1,.61,1.09,4.42,4.42,0,0,1,.21,1.4Zm-4.16-1a3.74,3.74,0,0,0,.78-.08,3.36,3.36,0,0,0,1.25-.63,5.27,5.27,0,0,0,.56-.51V155.5a10.09,10.09,0,0,0-1.88.14A5.05,5.05,0,0,0,183,156a1.8,1.8,0,0,0-.71.54,1.12,1.12,0,0,0-.22.69,1.46,1.46,0,0,0,.12.62,1.06,1.06,0,0,0,.31.43,1.41,1.41,0,0,0,.47.25A2.15,2.15,0,0,0,183.51,158.6Z"/><path class="cls-2" d="M190.1,159.58v-9.11h1a.41.41,0,0,1,.43.33l.11.94a4.69,4.69,0,0,1,1.13-1,2.73,2.73,0,0,1,1.46-.4,2.12,2.12,0,0,1,1.5.52,2.88,2.88,0,0,1,.82,1.38,2.85,2.85,0,0,1,.5-.85,3.05,3.05,0,0,1,.7-.6,3,3,0,0,1,.82-.34,3.8,3.8,0,0,1,.89-.11,3.44,3.44,0,0,1,1.28.23,2.69,2.69,0,0,1,1,.67,3.1,3.1,0,0,1,.6,1.09,4.74,4.74,0,0,1,.21,1.47v5.8h-1.6v-5.8a2.49,2.49,0,0,0-.47-1.63,1.71,1.71,0,0,0-1.36-.55,2.12,2.12,0,0,0-.75.14,1.76,1.76,0,0,0-.63.41,1.87,1.87,0,0,0-.42.68,2.52,2.52,0,0,0-.16.95v5.8h-1.6v-5.8a2.53,2.53,0,0,0-.45-1.64,1.55,1.55,0,0,0-1.28-.54,2,2,0,0,0-1.1.32,3.63,3.63,0,0,0-.94.87v6.79Z"/><path class="cls-2" d="M208.49,150.32a3.94,3.94,0,0,1,1.51.28,3.35,3.35,0,0,1,1.2.79,3.5,3.5,0,0,1,.78,1.28,4.86,4.86,0,0,1,.29,1.73,1.07,1.07,0,0,1-.08.5.34.34,0,0,1-.31.13h-6.06a5,5,0,0,0,.23,1.5,3.06,3.06,0,0,0,.59,1.07,2.56,2.56,0,0,0,.9.64,3.13,3.13,0,0,0,1.17.21,3.49,3.49,0,0,0,1-.14,4.5,4.5,0,0,0,.75-.3c.21-.11.39-.21.53-.3a.64.64,0,0,1,.37-.14.34.34,0,0,1,.3.15l.45.59a3,3,0,0,1-.71.62,4.61,4.61,0,0,1-.89.44,5.31,5.31,0,0,1-1,.25,5.72,5.72,0,0,1-1,.09,4.68,4.68,0,0,1-1.74-.32,3.73,3.73,0,0,1-1.38-.94,4.09,4.09,0,0,1-.9-1.52,6.11,6.11,0,0,1-.33-2.09,5.45,5.45,0,0,1,.29-1.78,4.32,4.32,0,0,1,.85-1.44,3.84,3.84,0,0,1,1.34-1A4.38,4.38,0,0,1,208.49,150.32Zm0,1.18a2.47,2.47,0,0,0-1.82.67,3.15,3.15,0,0,0-.83,1.86h5a3.31,3.31,0,0,0-.15-1,2.49,2.49,0,0,0-.45-.8,1.91,1.91,0,0,0-.73-.52A2.32,2.32,0,0,0,208.52,151.5Z"/><path class="cls-2" d="M217.07,159.73a2.17,2.17,0,0,1-1.66-.61,2.43,2.43,0,0,1-.58-1.73v-5.58h-1.1a.36.36,0,0,1-.24-.09.33.33,0,0,1-.1-.26v-.64l1.5-.19.37-2.82a.33.33,0,0,1,.36-.3h.82v3.14H219v1.16h-2.6v5.47a1.17,1.17,0,0,0,.27.85,1,1,0,0,0,.72.28,1.42,1.42,0,0,0,.44-.06l.32-.15.23-.15a.27.27,0,0,1,.17-.07.27.27,0,0,1,.22.15l.47.77a3.05,3.05,0,0,1-1,.61A3.55,3.55,0,0,1,217.07,159.73Z"/><path class="cls-2" d="M220.56,158.48a1,1,0,0,1,.07-.39,1,1,0,0,1,.22-.33.91.91,0,0,1,.34-.22,1.18,1.18,0,0,1,.43-.08,1.06,1.06,0,0,1,.48.1.94.94,0,0,1,.35.27,1.44,1.44,0,0,1,.21.41,1.59,1.59,0,0,1,.07.5,3.13,3.13,0,0,1-.11.84,4.76,4.76,0,0,1-.33.86,5.43,5.43,0,0,1-.54.84,5.1,5.1,0,0,1-.73.74l-.27-.26a.34.34,0,0,1-.11-.25.35.35,0,0,1,.12-.24L221,161a4.18,4.18,0,0,0,.29-.38,4.3,4.3,0,0,0,.26-.48,2.45,2.45,0,0,0,.18-.56h-.12a.93.93,0,0,1-.42-.08.86.86,0,0,1-.33-.23,1,1,0,0,1-.22-.35A1.23,1.23,0,0,1,220.56,158.48Z"/><path class="cls-2" d="M234.53,152.09a.67.67,0,0,1-.14.15.33.33,0,0,1-.21,0,.48.48,0,0,1-.29-.11l-.4-.25a3,3,0,0,0-.59-.24,2.6,2.6,0,0,0-.85-.12,2.76,2.76,0,0,0-1.18.24,2.31,2.31,0,0,0-.86.69,3.15,3.15,0,0,0-.52,1.09,5.28,5.28,0,0,0-.18,1.43,5.46,5.46,0,0,0,.19,1.47,3.4,3.4,0,0,0,.53,1.08,2.27,2.27,0,0,0,.84.67,2.57,2.57,0,0,0,1.1.23,2.87,2.87,0,0,0,1-.14,3.08,3.08,0,0,0,.63-.31l.42-.31a.44.44,0,0,1,.32-.14.35.35,0,0,1,.31.15l.45.59a3.52,3.52,0,0,1-1.49,1.06,5.14,5.14,0,0,1-1.88.34,4,4,0,0,1-1.59-.32,3.58,3.58,0,0,1-1.27-.91A4.24,4.24,0,0,1,228,157a5.86,5.86,0,0,1-.31-2,6,6,0,0,1,.28-1.88,4.32,4.32,0,0,1,.83-1.49,3.79,3.79,0,0,1,1.34-1,4.64,4.64,0,0,1,1.84-.35,4.43,4.43,0,0,1,1.69.31,4.14,4.14,0,0,1,1.31.88Z"/><path class="cls-2" d="M240.41,150.32a4.48,4.48,0,0,1,1.8.34,3.69,3.69,0,0,1,1.37.94,4.11,4.11,0,0,1,.87,1.48,5.94,5.94,0,0,1,.3,1.94,5.85,5.85,0,0,1-.3,1.94,4.11,4.11,0,0,1-.87,1.48,3.69,3.69,0,0,1-1.37.94,5.07,5.07,0,0,1-3.6,0,3.81,3.81,0,0,1-1.38-.94,4.26,4.26,0,0,1-.87-1.48,5.85,5.85,0,0,1-.31-1.94,5.93,5.93,0,0,1,.31-1.94,4.26,4.26,0,0,1,.87-1.48,3.81,3.81,0,0,1,1.38-.94A4.48,4.48,0,0,1,240.41,150.32Zm0,8.14a2.34,2.34,0,0,0,2-.91,4.2,4.2,0,0,0,.66-2.52,4.26,4.26,0,0,0-.66-2.54,2.37,2.37,0,0,0-2-.91,2.75,2.75,0,0,0-1.19.24,2.27,2.27,0,0,0-.84.67,3.13,3.13,0,0,0-.5,1.09,6.27,6.27,0,0,0,0,2.9,3,3,0,0,0,.5,1.07,2.18,2.18,0,0,0,.84.67A2.75,2.75,0,0,0,240.41,158.46Z"/><path class="cls-2" d="M246.73,159.58v-9.11h1a.4.4,0,0,1,.43.33l.13,1a5.13,5.13,0,0,1,1.33-1.06,3.44,3.44,0,0,1,1.69-.41,3.38,3.38,0,0,1,1.32.25,2.71,2.71,0,0,1,1,.7,3.39,3.39,0,0,1,.58,1.1,4.76,4.76,0,0,1,.19,1.41v5.8h-1.6v-5.8a2.43,2.43,0,0,0-.47-1.61,1.76,1.76,0,0,0-1.44-.57,2.66,2.66,0,0,0-1.33.34,4.48,4.48,0,0,0-1.14.93v6.71Z"/><path class="cls-2" d="M262,152a.38.38,0,0,1-.34.2.66.66,0,0,1-.3-.1l-.42-.22a4.29,4.29,0,0,0-.59-.23,2.8,2.8,0,0,0-.81-.1,2.39,2.39,0,0,0-.73.1,1.69,1.69,0,0,0-.55.29,1.16,1.16,0,0,0-.35.42,1,1,0,0,0-.13.51.85.85,0,0,0,.21.59,1.72,1.72,0,0,0,.53.4,3.76,3.76,0,0,0,.76.3l.87.28.87.33a3.11,3.11,0,0,1,.75.45,2.17,2.17,0,0,1,.54.66,2.1,2.1,0,0,1,.2.94,3,3,0,0,1-.23,1.17,2.64,2.64,0,0,1-.66.93,3.34,3.34,0,0,1-1.08.61,4.47,4.47,0,0,1-1.48.23,4.8,4.8,0,0,1-1.73-.31,4.38,4.38,0,0,1-1.31-.8l.38-.61a.49.49,0,0,1,.17-.18.48.48,0,0,1,.26-.06.61.61,0,0,1,.34.12,4.91,4.91,0,0,0,.44.28,3.28,3.28,0,0,0,.62.28,2.92,2.92,0,0,0,.91.13,2.28,2.28,0,0,0,.82-.13,1.84,1.84,0,0,0,.59-.32,1.32,1.32,0,0,0,.34-.48,1.4,1.4,0,0,0,.12-.58.91.91,0,0,0-.21-.62,1.64,1.64,0,0,0-.53-.43,5.47,5.47,0,0,0-.76-.3l-.88-.28c-.29-.09-.58-.2-.87-.32a3.24,3.24,0,0,1-.76-.47,1.93,1.93,0,0,1-.53-.69,2.13,2.13,0,0,1-.21-1,2.31,2.31,0,0,1,.22-1,2.28,2.28,0,0,1,.63-.85,3,3,0,0,1,1-.58,3.9,3.9,0,0,1,1.37-.22,4.37,4.37,0,0,1,1.62.29,3.82,3.82,0,0,1,1.24.77Z"/><path class="cls-2" d="M268.16,150.32a3.94,3.94,0,0,1,1.51.28,3.35,3.35,0,0,1,1.2.79,3.63,3.63,0,0,1,.78,1.28,4.86,4.86,0,0,1,.29,1.73,1.07,1.07,0,0,1-.08.5.34.34,0,0,1-.31.13h-6.07a5,5,0,0,0,.24,1.5,3.06,3.06,0,0,0,.59,1.07,2.4,2.4,0,0,0,.9.64,3.13,3.13,0,0,0,1.17.21,3.54,3.54,0,0,0,1-.14,4.5,4.5,0,0,0,.75-.3c.21-.11.39-.21.53-.3a.63.63,0,0,1,.36-.14.35.35,0,0,1,.31.15l.45.59a3.26,3.26,0,0,1-.71.62,4.61,4.61,0,0,1-.89.44,5.31,5.31,0,0,1-1,.25,5.72,5.72,0,0,1-1,.09,4.68,4.68,0,0,1-1.74-.32,3.65,3.65,0,0,1-1.38-.94,4.25,4.25,0,0,1-.91-1.52,6.37,6.37,0,0,1-.32-2.09,5.45,5.45,0,0,1,.29-1.78,4.48,4.48,0,0,1,.84-1.44,4,4,0,0,1,1.35-1A4.38,4.38,0,0,1,268.16,150.32Zm0,1.18a2.47,2.47,0,0,0-1.82.67,3.15,3.15,0,0,0-.83,1.86h5a3,3,0,0,0-.16-1,2.16,2.16,0,0,0-.45-.8,1.88,1.88,0,0,0-.72-.52A2.35,2.35,0,0,0,268.19,151.5Z"/><path class="cls-2" d="M280.2,152.09l-.15.15a.28.28,0,0,1-.2,0,.46.46,0,0,1-.29-.11c-.11-.07-.24-.16-.41-.25a2.77,2.77,0,0,0-.59-.24,2.6,2.6,0,0,0-.85-.12,2.72,2.72,0,0,0-1.17.24,2.23,2.23,0,0,0-.86.69,3,3,0,0,0-.53,1.09A5.72,5.72,0,0,0,275,155a5.09,5.09,0,0,0,.19,1.47,3,3,0,0,0,.53,1.08,2.24,2.24,0,0,0,.83.67,2.64,2.64,0,0,0,1.1.23,3,3,0,0,0,1-.14,3.08,3.08,0,0,0,.63-.31l.41-.31a.48.48,0,0,1,.32-.14.35.35,0,0,1,.31.15l.45.59a3.49,3.49,0,0,1-1.48,1.06,5.23,5.23,0,0,1-1.89.34,3.91,3.91,0,0,1-1.58-.32,3.61,3.61,0,0,1-1.28-.91,4.41,4.41,0,0,1-.85-1.47,6.11,6.11,0,0,1-.31-2,6,6,0,0,1,.29-1.88,4.15,4.15,0,0,1,.82-1.49,3.82,3.82,0,0,1,1.35-1,4.89,4.89,0,0,1,3.53,0,4.1,4.1,0,0,1,1.3.88Z"/><path class="cls-2" d="M285.15,159.73a2.17,2.17,0,0,1-1.66-.61,2.38,2.38,0,0,1-.58-1.73v-5.58h-1.1a.32.32,0,0,1-.24-.09.3.3,0,0,1-.1-.26v-.64l1.49-.19.37-2.82a.32.32,0,0,1,.12-.22.34.34,0,0,1,.25-.08h.81v3.14h2.61v1.16h-2.61v5.47a1.13,1.13,0,0,0,.28.85.94.94,0,0,0,.72.28,1.35,1.35,0,0,0,.43-.06,2.44,2.44,0,0,0,.32-.15l.23-.15a.25.25,0,0,1,.4.08l.46.77a3,3,0,0,1-1,.61A3.54,3.54,0,0,1,285.15,159.73Z"/><path class="cls-2" d="M292.71,150.32a3.94,3.94,0,0,1,1.51.28,3.35,3.35,0,0,1,1.2.79,3.5,3.5,0,0,1,.78,1.28,4.86,4.86,0,0,1,.29,1.73,1.07,1.07,0,0,1-.08.5.34.34,0,0,1-.31.13H290a4.73,4.73,0,0,0,.23,1.5,3.06,3.06,0,0,0,.59,1.07,2.56,2.56,0,0,0,.9.64,3.13,3.13,0,0,0,1.17.21,3.54,3.54,0,0,0,1-.14,4.5,4.5,0,0,0,.75-.3c.21-.11.39-.21.53-.3a.64.64,0,0,1,.37-.14.34.34,0,0,1,.3.15l.45.59a3,3,0,0,1-.71.62,4.61,4.61,0,0,1-.89.44,5.31,5.31,0,0,1-1,.25,5.72,5.72,0,0,1-1,.09,4.68,4.68,0,0,1-1.74-.32,3.73,3.73,0,0,1-1.38-.94,4.09,4.09,0,0,1-.9-1.52,6.11,6.11,0,0,1-.33-2.09,5.45,5.45,0,0,1,.29-1.78,4.48,4.48,0,0,1,.84-1.44,4,4,0,0,1,1.35-1A4.38,4.38,0,0,1,292.71,150.32Zm0,1.18a2.47,2.47,0,0,0-1.82.67,3.15,3.15,0,0,0-.83,1.86h5a3.31,3.31,0,0,0-.15-1,2.49,2.49,0,0,0-.45-.8,1.91,1.91,0,0,0-.73-.52A2.32,2.32,0,0,0,292.74,151.5Z"/><path class="cls-2" d="M301.29,159.73a2.17,2.17,0,0,1-1.66-.61,2.43,2.43,0,0,1-.58-1.73v-5.58H298a.36.36,0,0,1-.24-.09.33.33,0,0,1-.1-.26v-.64l1.5-.19.37-2.82a.33.33,0,0,1,.36-.3h.81v3.14h2.61v1.16h-2.61v5.47a1.17,1.17,0,0,0,.28.85,1,1,0,0,0,.72.28,1.42,1.42,0,0,0,.44-.06l.32-.15.23-.15a.27.27,0,0,1,.17-.07.28.28,0,0,1,.22.15l.47.77a3.05,3.05,0,0,1-1,.61A3.55,3.55,0,0,1,301.29,159.73Z"/><path class="cls-2" d="M306.63,150.47v5.81a2.41,2.41,0,0,0,.48,1.6,1.78,1.78,0,0,0,1.44.57,2.75,2.75,0,0,0,1.32-.33,4,4,0,0,0,1.14-.93v-6.72h1.61v9.11h-1a.4.4,0,0,1-.43-.33l-.13-1a5,5,0,0,1-1.33,1.06,3.55,3.55,0,0,1-1.69.4,3.21,3.21,0,0,1-1.32-.25,2.59,2.59,0,0,1-1-.7,2.92,2.92,0,0,1-.58-1.09,4.76,4.76,0,0,1-.19-1.41v-5.81Z"/><path class="cls-2" d="M318.86,150.32a3.9,3.9,0,0,1,1.51.28,3.26,3.26,0,0,1,1.2.79,3.51,3.51,0,0,1,.79,1.28,4.87,4.87,0,0,1,.28,1.73,1.07,1.07,0,0,1-.08.5.33.33,0,0,1-.31.13h-6.06a5,5,0,0,0,.23,1.5,3.08,3.08,0,0,0,.6,1.07,2.4,2.4,0,0,0,.9.64,3.05,3.05,0,0,0,1.17.21,3.59,3.59,0,0,0,1-.14,4.5,4.5,0,0,0,.75-.3c.21-.11.38-.21.52-.3a.66.66,0,0,1,.37-.14.34.34,0,0,1,.3.15l.45.59a2.86,2.86,0,0,1-.71.62,4.52,4.52,0,0,1-.88.44,5.42,5.42,0,0,1-1,.25,5.72,5.72,0,0,1-1,.09,4.68,4.68,0,0,1-1.74-.32,3.73,3.73,0,0,1-1.38-.94,4.23,4.23,0,0,1-.9-1.52,6.11,6.11,0,0,1-.33-2.09,5.2,5.2,0,0,1,.3-1.78,4.14,4.14,0,0,1,.84-1.44,3.84,3.84,0,0,1,1.34-1A4.42,4.42,0,0,1,318.86,150.32Zm0,1.18a2.48,2.48,0,0,0-1.83.67,3.21,3.21,0,0,0-.83,1.86h5a3.31,3.31,0,0,0-.15-1,2.16,2.16,0,0,0-.45-.8,1.91,1.91,0,0,0-.73-.52A2.3,2.3,0,0,0,318.9,151.5Z"/><path class="cls-2" d="M324.68,159.58v-9.11h.92a.47.47,0,0,1,.36.1.6.6,0,0,1,.14.34l.11,1.42a4.12,4.12,0,0,1,1.15-1.49,2.55,2.55,0,0,1,1.62-.54,2.38,2.38,0,0,1,.68.09,2.64,2.64,0,0,1,.57.24l-.21,1.2a.26.26,0,0,1-.28.22,1.76,1.76,0,0,1-.39-.08,2.25,2.25,0,0,0-.72-.09,2,2,0,0,0-1.4.49,3.52,3.52,0,0,0-.94,1.41v5.8Z"/><path class="cls-2" d="M15.16,180.58h-.71a.86.86,0,0,1-.38-.07.42.42,0,0,1-.19-.3l-.18-.85a8.57,8.57,0,0,1-.7.58,3.81,3.81,0,0,1-.72.43,3.59,3.59,0,0,1-.8.27,4.65,4.65,0,0,1-1,.09,3.22,3.22,0,0,1-1-.15,2.25,2.25,0,0,1-.8-.45,2.21,2.21,0,0,1-.55-.75A2.77,2.77,0,0,1,8,178.3a2,2,0,0,1,.3-1,2.53,2.53,0,0,1,1-.89,5.93,5.93,0,0,1,1.73-.64,11.52,11.52,0,0,1,2.62-.25v-.71a2.43,2.43,0,0,0-.46-1.62,1.62,1.62,0,0,0-1.34-.55,2.87,2.87,0,0,0-1,.15,4,4,0,0,0-.69.33l-.5.34a.84.84,0,0,1-.42.14.47.47,0,0,1-.29-.08.76.76,0,0,1-.19-.21l-.29-.52a5.38,5.38,0,0,1,1.63-1.08A4.86,4.86,0,0,1,12,171.3a3.35,3.35,0,0,1,1.35.26,2.66,2.66,0,0,1,1,.7,3,3,0,0,1,.62,1.09,4.73,4.73,0,0,1,.2,1.4Zm-4.16-1a3.74,3.74,0,0,0,.78-.08,3.09,3.09,0,0,0,.66-.25,2.83,2.83,0,0,0,.59-.38,5.27,5.27,0,0,0,.56-.51V176.5a10.09,10.09,0,0,0-1.88.14,5.05,5.05,0,0,0-1.26.36,1.8,1.8,0,0,0-.71.54,1.12,1.12,0,0,0-.22.69,1.46,1.46,0,0,0,.12.62,1.06,1.06,0,0,0,.31.43,1.41,1.41,0,0,0,.47.25A2.15,2.15,0,0,0,11,179.6Z"/><path class="cls-2" d="M24,180.58a.4.4,0,0,1-.43-.33l-.15-1.11a4.62,4.62,0,0,1-1.33,1.14,3.39,3.39,0,0,1-1.73.43,3.31,3.31,0,0,1-1.42-.3,3,3,0,0,1-1.09-.89,4.13,4.13,0,0,1-.69-1.46,7.56,7.56,0,0,1-.24-2,6.28,6.28,0,0,1,.27-1.88,4.6,4.6,0,0,1,.78-1.51,3.62,3.62,0,0,1,1.23-1,3.72,3.72,0,0,1,1.66-.37,3.28,3.28,0,0,1,1.43.29,3.38,3.38,0,0,1,1.06.79v-5H25v13.25Zm-3.11-1.17a2.6,2.6,0,0,0,1.38-.36,4.08,4.08,0,0,0,1.08-1v-4.41a2.45,2.45,0,0,0-1-.84,2.93,2.93,0,0,0-1.16-.23,2.31,2.31,0,0,0-2,.9,4.26,4.26,0,0,0-.69,2.6,6.11,6.11,0,0,0,.16,1.52,2.9,2.9,0,0,0,.45,1,1.67,1.67,0,0,0,.73.59A2.32,2.32,0,0,0,20.9,179.41Z"/><path class="cls-2" d="M29.8,168.61a.91.91,0,0,1-.1.43,1,1,0,0,1-.25.36,1.1,1.1,0,0,1-.8.34,1,1,0,0,1-.44-.09,1.23,1.23,0,0,1-.61-.61,1,1,0,0,1-.09-.43,1.13,1.13,0,0,1,.09-.45,1.2,1.2,0,0,1,.61-.62,1,1,0,0,1,.44-.09,1.12,1.12,0,0,1,.44.09,1.29,1.29,0,0,1,.36.25,1.15,1.15,0,0,1,.25.37A1,1,0,0,1,29.8,168.61Zm-.36,2.86v9.11H27.83v-9.11Z"/><path class="cls-2" d="M32.26,183.67v-12.2h1a.41.41,0,0,1,.43.33l.13,1.08a5,5,0,0,1,1.34-1.14,3.4,3.4,0,0,1,1.73-.44,3.29,3.29,0,0,1,1.42.31,2.83,2.83,0,0,1,1.09.89,4.41,4.41,0,0,1,.7,1.46,7.59,7.59,0,0,1,.24,2,6.26,6.26,0,0,1-.27,1.87,4.78,4.78,0,0,1-.77,1.51,3.78,3.78,0,0,1-1.24,1,3.7,3.7,0,0,1-1.65.36,3.35,3.35,0,0,1-1.45-.28,3.23,3.23,0,0,1-1.06-.79v4Zm4.06-11.07A2.57,2.57,0,0,0,35,173a4,4,0,0,0-1.09,1v4.41A2.51,2.51,0,0,0,36,179.47a2.3,2.3,0,0,0,2-.91,4.22,4.22,0,0,0,.68-2.59,6.7,6.7,0,0,0-.15-1.53,3,3,0,0,0-.46-1.05,1.83,1.83,0,0,0-.73-.6A2.35,2.35,0,0,0,36.32,172.6Z"/><path class="cls-2" d="M44.34,168.61a1,1,0,0,1-.09.43,1.19,1.19,0,0,1-.26.36,1,1,0,0,1-.36.25,1.12,1.12,0,0,1-.44.09,1.08,1.08,0,0,1-.44-.09,1.23,1.23,0,0,1-.36-.25,1.16,1.16,0,0,1-.25-.36,1,1,0,0,1-.09-.43,1.13,1.13,0,0,1,.09-.45,1.34,1.34,0,0,1,.25-.37,1.45,1.45,0,0,1,.36-.25,1.08,1.08,0,0,1,.44-.09,1.12,1.12,0,0,1,.44.09,1.16,1.16,0,0,1,.36.25,1.37,1.37,0,0,1,.26.37A1.13,1.13,0,0,1,44.34,168.61ZM44,171.47v9.11h-1.6v-9.11Z"/><path class="cls-2" d="M52,173a.38.38,0,0,1-.34.2.66.66,0,0,1-.3-.1l-.42-.22a4.29,4.29,0,0,0-.59-.23,2.8,2.8,0,0,0-.81-.1,2.39,2.39,0,0,0-.73.1,1.69,1.69,0,0,0-.55.29,1.16,1.16,0,0,0-.35.42,1,1,0,0,0-.13.51.85.85,0,0,0,.21.59,1.72,1.72,0,0,0,.53.4,3.76,3.76,0,0,0,.76.3l.87.28q.43.15.87.33a3.11,3.11,0,0,1,.75.45,2.17,2.17,0,0,1,.54.66,2.1,2.1,0,0,1,.2.94,3,3,0,0,1-.23,1.17,2.64,2.64,0,0,1-.66.93,3.34,3.34,0,0,1-1.08.61,4.47,4.47,0,0,1-1.48.23,4.8,4.8,0,0,1-1.73-.31,4.38,4.38,0,0,1-1.31-.8l.38-.61a.49.49,0,0,1,.17-.18.5.5,0,0,1,.26-.06.61.61,0,0,1,.34.12,4.91,4.91,0,0,0,.44.28,3.28,3.28,0,0,0,.62.28,2.92,2.92,0,0,0,.91.13,2.28,2.28,0,0,0,.82-.13,1.84,1.84,0,0,0,.59-.32,1.32,1.32,0,0,0,.34-.48,1.4,1.4,0,0,0,.12-.58.91.91,0,0,0-.21-.62,1.64,1.64,0,0,0-.53-.43,5.47,5.47,0,0,0-.76-.3l-.88-.28c-.29-.09-.58-.2-.87-.32a3.24,3.24,0,0,1-.76-.47,1.93,1.93,0,0,1-.53-.69,2.13,2.13,0,0,1-.21-1,2.47,2.47,0,0,1,.22-1,2.28,2.28,0,0,1,.63-.85,3.06,3.06,0,0,1,1-.58,3.9,3.9,0,0,1,1.37-.22,4.37,4.37,0,0,1,1.62.29,3.82,3.82,0,0,1,1.24.77Z"/><path class="cls-2" d="M60.84,173.09l-.15.15a.28.28,0,0,1-.2,0,.51.51,0,0,1-.3-.11,3.64,3.64,0,0,0-.4-.25,3,3,0,0,0-.59-.24,2.6,2.6,0,0,0-.85-.12,2.8,2.8,0,0,0-1.18.24,2.39,2.39,0,0,0-.86.69,3.15,3.15,0,0,0-.52,1.09,5.72,5.72,0,0,0-.17,1.43,5.09,5.09,0,0,0,.19,1.47,3,3,0,0,0,.53,1.08,2.16,2.16,0,0,0,.83.67,2.61,2.61,0,0,0,1.1.23,3,3,0,0,0,1-.14,3.08,3.08,0,0,0,.63-.31l.41-.31a.48.48,0,0,1,.32-.14.35.35,0,0,1,.31.15l.45.59a3.46,3.46,0,0,1-1.49,1.06,5.14,5.14,0,0,1-1.88.34,4,4,0,0,1-1.59-.32,3.67,3.67,0,0,1-1.27-.91,4.41,4.41,0,0,1-.85-1.47,5.86,5.86,0,0,1-.31-2,6,6,0,0,1,.28-1.88,4.32,4.32,0,0,1,.83-1.49,3.74,3.74,0,0,1,1.35-1,4.89,4.89,0,0,1,3.53,0,4.1,4.1,0,0,1,1.3.88Z"/><path class="cls-2" d="M65.17,168.61a1,1,0,0,1-.1.43,1.16,1.16,0,0,1-.25.36,1.23,1.23,0,0,1-.36.25,1.13,1.13,0,0,1-.45.09,1,1,0,0,1-.43-.09A1.23,1.23,0,0,1,63,169a1,1,0,0,1-.09-.43,1.13,1.13,0,0,1,.09-.45,1.2,1.2,0,0,1,.61-.62,1,1,0,0,1,.43-.09,1.13,1.13,0,0,1,.45.09,1.45,1.45,0,0,1,.36.25,1.34,1.34,0,0,1,.25.37A1.14,1.14,0,0,1,65.17,168.61Zm-.36,2.86v9.11H63.2v-9.11Z"/><path class="cls-2" d="M67.63,180.58v-9.11h1a.41.41,0,0,1,.43.33l.12,1a5.13,5.13,0,0,1,1.33-1.06,3.48,3.48,0,0,1,1.7-.41,3.38,3.38,0,0,1,1.32.25,2.59,2.59,0,0,1,1,.7,3,3,0,0,1,.58,1.1,4.75,4.75,0,0,1,.2,1.41v5.8h-1.6v-5.8a2.44,2.44,0,0,0-.48-1.61,1.75,1.75,0,0,0-1.44-.57,2.69,2.69,0,0,0-1.33.34,4.48,4.48,0,0,0-1.14.93v6.71Z"/><path class="cls-2" d="M80.71,171.31a4.89,4.89,0,0,1,1.11.13,3.44,3.44,0,0,1,.94.39h2.48v.59c0,.2-.13.33-.38.38l-1,.14a2.72,2.72,0,0,1,.31,1.31,2.76,2.76,0,0,1-1,2.14,3,3,0,0,1-1.08.59,4.28,4.28,0,0,1-1.37.21A4.72,4.72,0,0,1,79.5,177a1.52,1.52,0,0,0-.43.4.72.72,0,0,0-.15.42.54.54,0,0,0,.26.5,1.69,1.69,0,0,0,.69.25,5.86,5.86,0,0,0,1,.07H82a5.91,5.91,0,0,1,1.12.11,3.14,3.14,0,0,1,1,.32,1.85,1.85,0,0,1,.7.63,1.93,1.93,0,0,1,.26,1,2.51,2.51,0,0,1-.29,1.15,3.17,3.17,0,0,1-.85,1,4.13,4.13,0,0,1-1.34.69,5.77,5.77,0,0,1-1.79.26,7,7,0,0,1-1.75-.2,4.06,4.06,0,0,1-1.24-.53,2.38,2.38,0,0,1-.75-.77,1.89,1.89,0,0,1-.24-.92,1.64,1.64,0,0,1,.42-1.14,3,3,0,0,1,1.18-.76,1.59,1.59,0,0,1-.62-.48,1.31,1.31,0,0,1-.23-.8,1.53,1.53,0,0,1,.07-.41,2.12,2.12,0,0,1,.22-.42,1.93,1.93,0,0,1,.37-.39,2.31,2.31,0,0,1,.5-.34,2.73,2.73,0,0,1-1-1,2.7,2.7,0,0,1-.39-1.46,2.79,2.79,0,0,1,.26-1.21,2.71,2.71,0,0,1,.71-.93,3.51,3.51,0,0,1,1.1-.59A4.36,4.36,0,0,1,80.71,171.31Zm2.84,9.74a.78.78,0,0,0-.19-.56,1.19,1.19,0,0,0-.51-.33,3.62,3.62,0,0,0-.75-.17,6.37,6.37,0,0,0-.89-.05h-.95a3.17,3.17,0,0,1-.93-.13,2.65,2.65,0,0,0-.83.6,1.2,1.2,0,0,0-.32.84,1.07,1.07,0,0,0,.16.57,1.25,1.25,0,0,0,.48.46,2.92,2.92,0,0,0,.81.31,5.64,5.64,0,0,0,1.16.11,5.11,5.11,0,0,0,1.16-.12,2.87,2.87,0,0,0,.87-.34,1.59,1.59,0,0,0,.54-.52A1.24,1.24,0,0,0,83.55,181.05Zm-2.84-4.92a2.54,2.54,0,0,0,.86-.14,1.65,1.65,0,0,0,.62-.37,1.58,1.58,0,0,0,.38-.58,2,2,0,0,0,.13-.75,1.78,1.78,0,0,0-.51-1.33,2.47,2.47,0,0,0-3,0,1.78,1.78,0,0,0-.51,1.33,2,2,0,0,0,.13.75,1.72,1.72,0,0,0,.38.58,1.83,1.83,0,0,0,.62.37A2.48,2.48,0,0,0,80.71,176.13Z"/><path class="cls-2" d="M93.92,171.32a3.9,3.9,0,0,1,1.51.28,3.35,3.35,0,0,1,1.2.79,3.65,3.65,0,0,1,.79,1.28,4.87,4.87,0,0,1,.28,1.73,1.07,1.07,0,0,1-.08.5.34.34,0,0,1-.31.13H91.25a5,5,0,0,0,.23,1.5,2.93,2.93,0,0,0,.6,1.07,2.4,2.4,0,0,0,.9.64,3.05,3.05,0,0,0,1.17.21,3.47,3.47,0,0,0,1-.14,4.3,4.3,0,0,0,.76-.3c.21-.11.38-.21.52-.3a.66.66,0,0,1,.37-.14.34.34,0,0,1,.3.15l.45.59a2.86,2.86,0,0,1-.71.62,4.52,4.52,0,0,1-.88.44,5.42,5.42,0,0,1-1,.25,5.72,5.72,0,0,1-1,.09,4.68,4.68,0,0,1-1.74-.32,3.73,3.73,0,0,1-1.38-.94,4.09,4.09,0,0,1-.9-1.52,6.11,6.11,0,0,1-.33-2.09,5.2,5.2,0,0,1,.3-1.78,4.14,4.14,0,0,1,.84-1.44,3.84,3.84,0,0,1,1.34-1A4.42,4.42,0,0,1,93.92,171.32Zm0,1.18a2.48,2.48,0,0,0-1.83.67A3.21,3.21,0,0,0,91.3,175h5a3.31,3.31,0,0,0-.15-1,2.49,2.49,0,0,0-.45-.8,1.91,1.91,0,0,0-.73-.52A2.3,2.3,0,0,0,94,172.5Z"/><path class="cls-2" d="M101.52,167.33v13.25h-1.6V167.33Z"/><path class="cls-2" d="M106.49,168.61a1,1,0,0,1-.09.43,1.36,1.36,0,0,1-.25.36,1.15,1.15,0,0,1-.37.25,1.12,1.12,0,0,1-.88,0,1.23,1.23,0,0,1-.36-.25,1.13,1.13,0,0,1-.24-.36,1,1,0,0,1-.09-.43,1.13,1.13,0,0,1,.09-.45,1.31,1.31,0,0,1,.24-.37,1.45,1.45,0,0,1,.36-.25,1.12,1.12,0,0,1,.88,0,1.34,1.34,0,0,1,.37.25,1.6,1.6,0,0,1,.25.37A1.13,1.13,0,0,1,106.49,168.61Zm-.36,2.86v9.11h-1.6v-9.11Z"/><path class="cls-2" d="M111.72,180.73a2.17,2.17,0,0,1-1.66-.61,2.38,2.38,0,0,1-.58-1.73v-5.58h-1.1a.36.36,0,0,1-.24-.09.3.3,0,0,1-.1-.26v-.64l1.49-.19.37-2.82a.37.37,0,0,1,.12-.22.36.36,0,0,1,.25-.08h.81v3.14h2.61v1.16h-2.61v5.47a1.17,1.17,0,0,0,.28.85,1,1,0,0,0,.72.28,1.42,1.42,0,0,0,.44-.06l.32-.15.23-.15a.27.27,0,0,1,.16-.07.28.28,0,0,1,.23.15l.47.77a3.05,3.05,0,0,1-1,.61A3.55,3.55,0,0,1,111.72,180.73Z"/><path class="cls-2" d="M115.2,179.48a1,1,0,0,1,.08-.39.83.83,0,0,1,.22-.33,1,1,0,0,1,.33-.22,1.27,1.27,0,0,1,.44-.08,1.06,1.06,0,0,1,.48.1.94.94,0,0,1,.35.27,1.44,1.44,0,0,1,.21.41,1.59,1.59,0,0,1,.07.5,3.59,3.59,0,0,1-.11.84,4.16,4.16,0,0,1-.34.86,4.72,4.72,0,0,1-.53.84,5.67,5.67,0,0,1-.73.74l-.27-.26a.31.31,0,0,1-.11-.25.35.35,0,0,1,.12-.24l.23-.27a4.17,4.17,0,0,0,.28-.38,3.15,3.15,0,0,0,.27-.48,2.45,2.45,0,0,0,.18-.56h-.12a.93.93,0,0,1-.42-.08.86.86,0,0,1-.33-.23.91.91,0,0,1-.22-.35A1.23,1.23,0,0,1,115.2,179.48Z"/><path class="cls-2" d="M128.18,173a.35.35,0,0,1-.33.2.74.74,0,0,1-.31-.1,3.92,3.92,0,0,0-.42-.22,4.12,4.12,0,0,0-.58-.23,2.8,2.8,0,0,0-.81-.1,2.34,2.34,0,0,0-.73.1,1.85,1.85,0,0,0-.56.29,1.27,1.27,0,0,0-.35.42,1.1,1.1,0,0,0-.12.51.9.9,0,0,0,.2.59,1.9,1.9,0,0,0,.54.4,3.67,3.67,0,0,0,.75.3l.87.28q.45.15.87.33a3.18,3.18,0,0,1,.76.45,2,2,0,0,1,.53.66,2,2,0,0,1,.21.94,3,3,0,0,1-.23,1.17,2.54,2.54,0,0,1-.67.93,3.14,3.14,0,0,1-1.08.61,4.36,4.36,0,0,1-1.47.23,4.76,4.76,0,0,1-1.73-.31,4.26,4.26,0,0,1-1.31-.8l.37-.61a.52.52,0,0,1,.18-.18.48.48,0,0,1,.26-.06.64.64,0,0,1,.34.12,4.62,4.62,0,0,0,.43.28,3.39,3.39,0,0,0,.63.28,2.88,2.88,0,0,0,.91.13,2.31,2.31,0,0,0,.82-.13,1.79,1.79,0,0,0,.58-.32,1.35,1.35,0,0,0,.35-.48,1.58,1.58,0,0,0,.11-.58,1,1,0,0,0-.2-.62,1.68,1.68,0,0,0-.54-.43,5,5,0,0,0-.76-.3l-.87-.28a8.18,8.18,0,0,1-.87-.32,3,3,0,0,1-.76-.47,2.08,2.08,0,0,1-.54-.69,2.27,2.27,0,0,1-.2-1,2.31,2.31,0,0,1,.22-1,2.28,2.28,0,0,1,.63-.85,3,3,0,0,1,1-.58,3.92,3.92,0,0,1,1.38-.22,4.37,4.37,0,0,1,1.62.29,3.88,3.88,0,0,1,1.23.77Z"/><path class="cls-2" d="M134.38,171.32a4,4,0,0,1,1.52.28,3.22,3.22,0,0,1,1.19.79,3.51,3.51,0,0,1,.79,1.28,4.87,4.87,0,0,1,.28,1.73,1,1,0,0,1-.08.5.31.31,0,0,1-.3.13h-6.07a5,5,0,0,0,.23,1.5,3.24,3.24,0,0,0,.6,1.07,2.4,2.4,0,0,0,.9.64,3.13,3.13,0,0,0,1.17.21,3.54,3.54,0,0,0,1-.14,4.5,4.5,0,0,0,.75-.3l.53-.3a.63.63,0,0,1,.36-.14.37.37,0,0,1,.31.15l.45.59a3.26,3.26,0,0,1-.71.62,4.91,4.91,0,0,1-.89.44,5.42,5.42,0,0,1-1,.25,5.63,5.63,0,0,1-1,.09,4.68,4.68,0,0,1-1.74-.32,3.73,3.73,0,0,1-1.38-.94,4.38,4.38,0,0,1-.9-1.52,6.12,6.12,0,0,1-.32-2.09,5.19,5.19,0,0,1,.29-1.78,4.14,4.14,0,0,1,.84-1.44,3.93,3.93,0,0,1,1.34-1A4.42,4.42,0,0,1,134.38,171.32Zm0,1.18a2.51,2.51,0,0,0-1.83.67,3.21,3.21,0,0,0-.83,1.86h5a3.31,3.31,0,0,0-.15-1,2.16,2.16,0,0,0-.45-.8,2,2,0,0,0-.72-.52A2.35,2.35,0,0,0,134.42,172.5Z"/><path class="cls-2" d="M146.62,180.58a.41.41,0,0,1-.43-.33l-.14-1.11a4.65,4.65,0,0,1-1.34,1.14,3.61,3.61,0,0,1-3.15.13,3,3,0,0,1-1.08-.89,4.31,4.31,0,0,1-.7-1.46,7.56,7.56,0,0,1-.24-2,6.28,6.28,0,0,1,.27-1.88,4.6,4.6,0,0,1,.78-1.51,3.62,3.62,0,0,1,2.89-1.37,3.25,3.25,0,0,1,1.43.29,3.54,3.54,0,0,1,1.07.79v-5h1.6v13.25Zm-3.1-1.17a2.57,2.57,0,0,0,1.37-.36,4.11,4.11,0,0,0,1.09-1v-4.41a2.59,2.59,0,0,0-1-.84,2.94,2.94,0,0,0-1.17-.23,2.32,2.32,0,0,0-2,.9,4.26,4.26,0,0,0-.68,2.6,6.67,6.67,0,0,0,.15,1.52,2.9,2.9,0,0,0,.45,1,1.73,1.73,0,0,0,.73.59A2.4,2.4,0,0,0,143.52,179.41Z"/><path class="cls-2" d="M160.16,180.58a.4.4,0,0,1-.43-.33l-.15-1.11a4.62,4.62,0,0,1-1.33,1.14,3.39,3.39,0,0,1-1.73.43,3.31,3.31,0,0,1-1.42-.3,2.92,2.92,0,0,1-1.09-.89,4.13,4.13,0,0,1-.69-1.46,7.56,7.56,0,0,1-.24-2,6.28,6.28,0,0,1,.27-1.88,4.78,4.78,0,0,1,.77-1.51,3.62,3.62,0,0,1,2.9-1.37,3.28,3.28,0,0,1,1.43.29,3.5,3.5,0,0,1,1.06.79v-5h1.6v13.25Zm-3.11-1.17a2.6,2.6,0,0,0,1.38-.36,4.08,4.08,0,0,0,1.08-1v-4.41a2.52,2.52,0,0,0-1-.84,2.93,2.93,0,0,0-1.16-.23,2.31,2.31,0,0,0-2,.9,4.26,4.26,0,0,0-.69,2.6,6.67,6.67,0,0,0,.15,1.52,3.29,3.29,0,0,0,.45,1,1.79,1.79,0,0,0,.73.59A2.4,2.4,0,0,0,157.05,179.41Z"/><path class="cls-2" d="M166,168.61a1,1,0,0,1-.1.43,1.2,1.2,0,0,1-.62.61,1,1,0,0,1-.44.09,1,1,0,0,1-.43-.09,1.23,1.23,0,0,1-.61-.61,1,1,0,0,1-.09-.43,1.13,1.13,0,0,1,.09-.45,1.2,1.2,0,0,1,.61-.62,1,1,0,0,1,.43-.09,1,1,0,0,1,.44.09,1.17,1.17,0,0,1,.62.62A1.14,1.14,0,0,1,166,168.61Zm-.36,2.86v9.11H164v-9.11Z"/><path class="cls-2" d="M175.11,180.58h-.71a.81.81,0,0,1-.38-.07.39.39,0,0,1-.19-.3l-.18-.85a8.57,8.57,0,0,1-.7.58,3.81,3.81,0,0,1-.72.43,3.5,3.5,0,0,1-.81.27,4.58,4.58,0,0,1-.95.09,3.21,3.21,0,0,1-1-.15,2.29,2.29,0,0,1-.81-.45,2.07,2.07,0,0,1-.54-.75,2.6,2.6,0,0,1-.2-1.08,2,2,0,0,1,.29-1,2.53,2.53,0,0,1,1-.89,6,6,0,0,1,1.73-.64,11.58,11.58,0,0,1,2.62-.25v-.71a2.48,2.48,0,0,0-.45-1.62,1.65,1.65,0,0,0-1.35-.55,2.77,2.77,0,0,0-1,.15,4.16,4.16,0,0,0-.7.33l-.5.34a.78.78,0,0,1-.42.14.44.44,0,0,1-.28-.08.8.8,0,0,1-.2-.21l-.28-.52a5.15,5.15,0,0,1,1.63-1.08,4.81,4.81,0,0,1,1.93-.37,3.44,3.44,0,0,1,1.36.26,2.66,2.66,0,0,1,1,.7,3,3,0,0,1,.61,1.09,4.42,4.42,0,0,1,.21,1.4Zm-4.16-1a3.64,3.64,0,0,0,.77-.08,3,3,0,0,0,.67-.25,3.47,3.47,0,0,0,.59-.38,5.2,5.2,0,0,0,.55-.51V176.5a10.16,10.16,0,0,0-1.88.14,5.32,5.32,0,0,0-1.26.36,1.76,1.76,0,0,0-.7.54,1.12,1.12,0,0,0-.23.69,1.46,1.46,0,0,0,.12.62,1.08,1.08,0,0,0,.32.43,1.36,1.36,0,0,0,.46.25A2.22,2.22,0,0,0,171,179.6Z"/><path class="cls-2" d="M177.54,180.58v-9.11h1a.4.4,0,0,1,.43.33l.12.94a4.51,4.51,0,0,1,1.13-1,2.7,2.7,0,0,1,1.45-.4,2.12,2.12,0,0,1,1.5.52,2.9,2.9,0,0,1,.83,1.38,2.65,2.65,0,0,1,.5-.85,2.81,2.81,0,0,1,.69-.6,3,3,0,0,1,.83-.34,3.72,3.72,0,0,1,.88-.11,3.49,3.49,0,0,1,1.29.23,2.69,2.69,0,0,1,1,.67,3.1,3.1,0,0,1,.6,1.09,4.75,4.75,0,0,1,.2,1.47v5.8h-1.6v-5.8a2.44,2.44,0,0,0-.47-1.63,1.69,1.69,0,0,0-1.35-.55,2.14,2.14,0,0,0-.76.14,1.81,1.81,0,0,0-.62.41,2,2,0,0,0-.43.68,2.74,2.74,0,0,0-.16.95v5.8h-1.6v-5.8a2.59,2.59,0,0,0-.44-1.64,1.56,1.56,0,0,0-1.29-.54,2.07,2.07,0,0,0-1.1.32,3.45,3.45,0,0,0-.93.87v6.79Z"/><path class="cls-2" d="M195.79,180.58v-9.11h1a.41.41,0,0,1,.44.33l.12,1a5.13,5.13,0,0,1,1.33-1.06,3.45,3.45,0,0,1,1.7-.41,3.36,3.36,0,0,1,1.31.25,2.71,2.71,0,0,1,1,.7,3.21,3.21,0,0,1,.58,1.1,4.75,4.75,0,0,1,.2,1.41v5.8h-1.61v-5.8a2.43,2.43,0,0,0-.47-1.61,1.75,1.75,0,0,0-1.44-.57,2.66,2.66,0,0,0-1.33.34,4.48,4.48,0,0,0-1.14.93v6.71Z"/><path class="cls-2" d="M209.49,171.32a4.55,4.55,0,0,1,1.8.34,3.77,3.77,0,0,1,1.37.94,4.24,4.24,0,0,1,.86,1.48,5.93,5.93,0,0,1,.31,1.94,5.85,5.85,0,0,1-.31,1.94,4.24,4.24,0,0,1-.86,1.48,3.77,3.77,0,0,1-1.37.94,5.1,5.1,0,0,1-3.61,0,3.85,3.85,0,0,1-1.37-.94,4.11,4.11,0,0,1-.87-1.48,5.6,5.6,0,0,1-.31-1.94,5.68,5.68,0,0,1,.31-1.94,4.11,4.11,0,0,1,.87-1.48,3.85,3.85,0,0,1,1.37-.94A4.56,4.56,0,0,1,209.49,171.32Zm0,8.14a2.31,2.31,0,0,0,2-.91,4.13,4.13,0,0,0,.67-2.52,4.19,4.19,0,0,0-.67-2.54,2.34,2.34,0,0,0-2-.91,2.75,2.75,0,0,0-1.19.24,2.12,2.12,0,0,0-.84.67,3,3,0,0,0-.51,1.09,6.65,6.65,0,0,0,0,2.9,2.8,2.8,0,0,0,.51,1.07,2,2,0,0,0,.84.67A2.75,2.75,0,0,0,209.49,179.46Z"/><path class="cls-2" d="M215.81,180.58v-9.11h.95a.4.4,0,0,1,.43.33l.13,1a5.09,5.09,0,0,1,1.32-1.06,3.48,3.48,0,0,1,1.7-.41,3.38,3.38,0,0,1,1.32.25,2.59,2.59,0,0,1,1,.7,3,3,0,0,1,.58,1.1,4.45,4.45,0,0,1,.2,1.41v5.8h-1.6v-5.8a2.49,2.49,0,0,0-.47-1.61,1.78,1.78,0,0,0-1.45-.57,2.65,2.65,0,0,0-1.32.34,4.16,4.16,0,0,0-1.14.93v6.71Z"/><path class="cls-2" d="M227.2,171.47v5.81a2.41,2.41,0,0,0,.48,1.6,1.75,1.75,0,0,0,1.44.57,2.81,2.81,0,0,0,1.32-.33,4.1,4.1,0,0,0,1.14-.93v-6.72h1.6v9.11h-1a.4.4,0,0,1-.43-.33l-.13-1a5,5,0,0,1-1.33,1.06,3.57,3.57,0,0,1-1.69.4,3.21,3.21,0,0,1-1.32-.25,2.59,2.59,0,0,1-1-.7,2.92,2.92,0,0,1-.58-1.09,4.76,4.76,0,0,1-.19-1.41v-5.81Z"/><path class="cls-2" d="M235.82,180.58v-9.11h1a.41.41,0,0,1,.44.33l.11.94a4.69,4.69,0,0,1,1.13-1,2.71,2.71,0,0,1,1.46-.4,2.16,2.16,0,0,1,1.5.52,2.88,2.88,0,0,1,.82,1.38,2.65,2.65,0,0,1,.5-.85,3.05,3.05,0,0,1,.7-.6,3,3,0,0,1,.82-.34,3.8,3.8,0,0,1,.89-.11,3.44,3.44,0,0,1,1.28.23,2.69,2.69,0,0,1,1,.67,3.1,3.1,0,0,1,.6,1.09,4.74,4.74,0,0,1,.21,1.47v5.8h-1.6v-5.8a2.49,2.49,0,0,0-.47-1.63,1.71,1.71,0,0,0-1.36-.55,2,2,0,0,0-.75.14,1.76,1.76,0,0,0-.63.41,2,2,0,0,0-.43.68,2.75,2.75,0,0,0-.15.95v5.8h-1.6v-5.8a2.53,2.53,0,0,0-.45-1.64,1.55,1.55,0,0,0-1.28-.54,2.08,2.08,0,0,0-1.11.32,3.6,3.6,0,0,0-.93.87v6.79Z"/><path class="cls-2" d="M250.6,180.58v-9.11h1a.4.4,0,0,1,.43.33l.12.94a4.51,4.51,0,0,1,1.13-1,2.7,2.7,0,0,1,1.45-.4,2.12,2.12,0,0,1,1.5.52,2.9,2.9,0,0,1,.83,1.38,2.65,2.65,0,0,1,.5-.85,3,3,0,0,1,.69-.6,3.16,3.16,0,0,1,.83-.34,3.72,3.72,0,0,1,.88-.11,3.49,3.49,0,0,1,1.29.23,2.69,2.69,0,0,1,.95.67,3.1,3.1,0,0,1,.6,1.09,4.74,4.74,0,0,1,.21,1.47v5.8h-1.61v-5.8a2.49,2.49,0,0,0-.46-1.63,1.73,1.73,0,0,0-1.36-.55,2,2,0,0,0-.75.14,1.76,1.76,0,0,0-.63.41,2,2,0,0,0-.43.68,2.74,2.74,0,0,0-.16.95v5.8H256v-5.8a2.53,2.53,0,0,0-.44-1.64,1.56,1.56,0,0,0-1.29-.54,2.07,2.07,0,0,0-1.1.32,3.45,3.45,0,0,0-.93.87v6.79Z"/><path class="cls-2" d="M267.76,183.28a.84.84,0,0,1-.2.28.56.56,0,0,1-.37.11H266l1.66-3.62-3.76-8.58h1.39a.47.47,0,0,1,.32.1.6.6,0,0,1,.17.23l2.44,5.74c0,.13.1.27.14.4s.07.27.1.4c.05-.13.09-.27.13-.4s.09-.27.14-.41l2.37-5.73a.5.5,0,0,1,.19-.24.47.47,0,0,1,.28-.09h1.28Z"/><path class="cls-2" d="M277.78,180.58v-9.11h1a.4.4,0,0,1,.43.33l.13,1a5.13,5.13,0,0,1,1.33-1.06,3.44,3.44,0,0,1,1.69-.41,3.38,3.38,0,0,1,1.32.25,2.71,2.71,0,0,1,1,.7,3.39,3.39,0,0,1,.58,1.1,4.76,4.76,0,0,1,.19,1.41v5.8h-1.6v-5.8a2.43,2.43,0,0,0-.47-1.61,1.76,1.76,0,0,0-1.44-.57,2.66,2.66,0,0,0-1.33.34,4.48,4.48,0,0,0-1.14.93v6.71Z"/><path class="cls-2" d="M289.93,168.61a.91.91,0,0,1-.1.43,1,1,0,0,1-.25.36,1.1,1.1,0,0,1-.8.34,1,1,0,0,1-.44-.09,1.23,1.23,0,0,1-.61-.61,1,1,0,0,1-.09-.43,1.13,1.13,0,0,1,.09-.45,1.2,1.2,0,0,1,.61-.62,1,1,0,0,1,.44-.09,1.12,1.12,0,0,1,.44.09,1.29,1.29,0,0,1,.36.25,1.15,1.15,0,0,1,.25.37A1,1,0,0,1,289.93,168.61Zm-.36,2.86v9.11H288v-9.11Z"/><path class="cls-2" d="M292.45,180.58V167.33h1.61v5.45a4.7,4.7,0,0,1,1.3-1.06,3.53,3.53,0,0,1,1.68-.4,3.33,3.33,0,0,1,1.43.3,2.83,2.83,0,0,1,1.09.89,4.25,4.25,0,0,1,.69,1.45,7.59,7.59,0,0,1,.24,2,6.26,6.26,0,0,1-.27,1.87,4.78,4.78,0,0,1-.77,1.51,3.81,3.81,0,0,1-1.25,1,3.7,3.7,0,0,1-1.65.36,3,3,0,0,1-1.5-.34,3.36,3.36,0,0,1-1.07-1l-.08.83a.39.39,0,0,1-.42.34Zm4.07-8a2.6,2.6,0,0,0-1.38.36,4,4,0,0,0-1.08,1v4.41a2.55,2.55,0,0,0,1,.83,2.64,2.64,0,0,0,1.17.25,2.29,2.29,0,0,0,2-.91,4.22,4.22,0,0,0,.69-2.59,6.14,6.14,0,0,0-.16-1.53,3,3,0,0,0-.45-1.05,1.83,1.83,0,0,0-.73-.6A2.38,2.38,0,0,0,296.52,172.6Z"/><path class="cls-2" d="M302.46,180.58V167.33h1.6v5.36a5.05,5.05,0,0,1,1.29-1,3.48,3.48,0,0,1,1.64-.38,3.38,3.38,0,0,1,1.32.25,2.59,2.59,0,0,1,.95.7,3,3,0,0,1,.58,1.1,4.45,4.45,0,0,1,.2,1.41v5.8h-1.6v-5.8a2.49,2.49,0,0,0-.47-1.61,1.78,1.78,0,0,0-1.45-.57,2.65,2.65,0,0,0-1.32.34,4.48,4.48,0,0,0-1.14.93v6.71Z"/><path class="cls-2" d="M319.55,171.32a3.94,3.94,0,0,1,1.51.28,3.22,3.22,0,0,1,1.19.79,3.51,3.51,0,0,1,.79,1.28,4.86,4.86,0,0,1,.29,1.73,1.07,1.07,0,0,1-.08.5.34.34,0,0,1-.31.13h-6.07a4.71,4.71,0,0,0,.24,1.5,3.06,3.06,0,0,0,.59,1.07,2.4,2.4,0,0,0,.9.64,3.13,3.13,0,0,0,1.17.21,3.54,3.54,0,0,0,1-.14,4.5,4.5,0,0,0,.75-.3c.21-.11.39-.21.53-.3a.63.63,0,0,1,.36-.14.36.36,0,0,1,.31.15l.45.59a3.26,3.26,0,0,1-.71.62,4.61,4.61,0,0,1-.89.44,5.31,5.31,0,0,1-1,.25,5.72,5.72,0,0,1-1,.09,4.78,4.78,0,0,1-1.75-.32,3.61,3.61,0,0,1-1.37-.94,4.25,4.25,0,0,1-.91-1.52,6.37,6.37,0,0,1-.32-2.09,5.45,5.45,0,0,1,.29-1.78,4.48,4.48,0,0,1,.84-1.44,4,4,0,0,1,1.34-1A4.47,4.47,0,0,1,319.55,171.32Zm0,1.18a2.51,2.51,0,0,0-1.83.67,3.21,3.21,0,0,0-.82,1.86h5a3.3,3.3,0,0,0-.16-1,2.16,2.16,0,0,0-.45-.8,2,2,0,0,0-.72-.52A2.35,2.35,0,0,0,319.58,172.5Z"/><path class="cls-2" d="M326.75,171.47v5.81a2.41,2.41,0,0,0,.48,1.6,1.78,1.78,0,0,0,1.44.57,2.75,2.75,0,0,0,1.32-.33,4,4,0,0,0,1.15-.93v-6.72h1.6v9.11h-.95a.41.41,0,0,1-.44-.33l-.12-1a5.13,5.13,0,0,1-1.33,1.06,3.62,3.62,0,0,1-1.7.4,3.19,3.19,0,0,1-1.31-.25,2.44,2.44,0,0,1-1-.7,2.92,2.92,0,0,1-.58-1.09,4.75,4.75,0,0,1-.2-1.41v-5.81Z"/><path class="cls-2" d="M337.52,168.61a.91.91,0,0,1-.1.43,1.23,1.23,0,0,1-.61.61,1.12,1.12,0,0,1-.44.09,1,1,0,0,1-.44-.09,1.23,1.23,0,0,1-.61-.61,1,1,0,0,1-.09-.43,1.13,1.13,0,0,1,.09-.45,1.2,1.2,0,0,1,.61-.62,1,1,0,0,1,.44-.09,1.12,1.12,0,0,1,.44.09,1.2,1.2,0,0,1,.61.62A1,1,0,0,1,337.52,168.61Zm-.36,2.86v9.11h-1.6v-9.11Z"/><path class="cls-2" d="M345.21,173a.38.38,0,0,1-.34.2.66.66,0,0,1-.3-.1l-.42-.22a4.29,4.29,0,0,0-.59-.23,2.8,2.8,0,0,0-.81-.1,2.34,2.34,0,0,0-.73.1,1.69,1.69,0,0,0-.55.29,1.3,1.3,0,0,0-.36.42,1.1,1.1,0,0,0-.12.51.85.85,0,0,0,.21.59,1.72,1.72,0,0,0,.53.4,3.54,3.54,0,0,0,.76.3l.87.28c.29.1.58.21.86.33a3,3,0,0,1,.76.45,2.17,2.17,0,0,1,.54.66,2.1,2.1,0,0,1,.2.94,3,3,0,0,1-.23,1.17,2.64,2.64,0,0,1-.66.93,3.34,3.34,0,0,1-1.08.61,4.47,4.47,0,0,1-1.48.23,4.76,4.76,0,0,1-1.73-.31,4.38,4.38,0,0,1-1.31-.8l.38-.61a.42.42,0,0,1,.17-.18.48.48,0,0,1,.26-.06.61.61,0,0,1,.34.12,4.91,4.91,0,0,0,.44.28,3.28,3.28,0,0,0,.62.28,2.92,2.92,0,0,0,.91.13,2.28,2.28,0,0,0,.82-.13,2,2,0,0,0,.59-.32,1.32,1.32,0,0,0,.34-.48,1.4,1.4,0,0,0,.11-.58.91.91,0,0,0-.2-.62,1.64,1.64,0,0,0-.53-.43,6,6,0,0,0-.76-.3l-.88-.28c-.29-.09-.58-.2-.87-.32a3.24,3.24,0,0,1-.76-.47,2.08,2.08,0,0,1-.54-.69,2.27,2.27,0,0,1-.2-1,2.31,2.31,0,0,1,.22-1,2.28,2.28,0,0,1,.63-.85,3,3,0,0,1,1-.58,4,4,0,0,1,1.38-.22,4.37,4.37,0,0,1,1.62.29,3.77,3.77,0,0,1,1.23.77Z"/><path class="cls-2" d="M347.38,174.51h4.45v1.36h-4.45Z"/><path class="cls-2" d="M8.47,201.58v-9.11h.95a.4.4,0,0,1,.43.33l.12.94a4.51,4.51,0,0,1,1.13-1,2.7,2.7,0,0,1,1.45-.4,2.12,2.12,0,0,1,1.5.52,2.9,2.9,0,0,1,.83,1.38,2.83,2.83,0,0,1,.49-.85,3.05,3.05,0,0,1,.7-.6,3,3,0,0,1,.83-.34,3.72,3.72,0,0,1,.88-.11,3.4,3.4,0,0,1,1.28.23,2.64,2.64,0,0,1,1,.67,3.1,3.1,0,0,1,.6,1.09,5.07,5.07,0,0,1,.2,1.47v5.8h-1.6v-5.8a2.44,2.44,0,0,0-.47-1.63,1.69,1.69,0,0,0-1.35-.55,2.14,2.14,0,0,0-.76.14,1.81,1.81,0,0,0-.62.41,2,2,0,0,0-.43.68,2.74,2.74,0,0,0-.16.95v5.8h-1.6v-5.8a2.59,2.59,0,0,0-.44-1.64,1.56,1.56,0,0,0-1.29-.54,2.07,2.07,0,0,0-1.1.32,3.45,3.45,0,0,0-.93.87v6.79Z"/><path class="cls-2" d="M26.93,192.32a4.56,4.56,0,0,1,1.81.34,3.77,3.77,0,0,1,1.37.94,4.24,4.24,0,0,1,.86,1.48,5.94,5.94,0,0,1,.3,1.94A5.85,5.85,0,0,1,31,199a4.24,4.24,0,0,1-.86,1.48,3.77,3.77,0,0,1-1.37.94,5.1,5.1,0,0,1-3.61,0,3.77,3.77,0,0,1-1.37-.94,4.28,4.28,0,0,1-.88-1.48,5.85,5.85,0,0,1-.3-1.94,5.94,5.94,0,0,1,.3-1.94,4.28,4.28,0,0,1,.88-1.48,3.77,3.77,0,0,1,1.37-.94A4.55,4.55,0,0,1,26.93,192.32Zm0,8.14a2.33,2.33,0,0,0,2-.91,4.19,4.19,0,0,0,.67-2.52,4.26,4.26,0,0,0-.67-2.54,2.35,2.35,0,0,0-2-.91,2.7,2.7,0,0,0-1.18.24,2.12,2.12,0,0,0-.84.67,3,3,0,0,0-.51,1.09,6.27,6.27,0,0,0,0,2.9,2.8,2.8,0,0,0,.51,1.07,2,2,0,0,0,.84.67A2.7,2.7,0,0,0,26.93,200.46Z"/><path class="cls-2" d="M39.67,201.58a.4.4,0,0,1-.43-.33l-.15-1.11a4.62,4.62,0,0,1-1.33,1.14,3.39,3.39,0,0,1-1.73.43,3.31,3.31,0,0,1-1.42-.3,3,3,0,0,1-1.09-.89,4.13,4.13,0,0,1-.69-1.46,7.56,7.56,0,0,1-.24-2,6.28,6.28,0,0,1,.27-1.88,4.78,4.78,0,0,1,.77-1.51,3.62,3.62,0,0,1,2.9-1.37,3.28,3.28,0,0,1,1.43.29,3.38,3.38,0,0,1,1.06.79v-5h1.6v13.25Zm-3.11-1.17a2.6,2.6,0,0,0,1.38-.36A4.08,4.08,0,0,0,39,199v-4.41a2.52,2.52,0,0,0-1-.84,2.93,2.93,0,0,0-1.16-.23,2.31,2.31,0,0,0-2,.9,4.26,4.26,0,0,0-.69,2.6,6.11,6.11,0,0,0,.16,1.52,2.9,2.9,0,0,0,.45,1,1.7,1.7,0,0,0,.72.59A2.4,2.4,0,0,0,36.56,200.41Z"/><path class="cls-2" d="M49.55,201.73a2.17,2.17,0,0,1-1.66-.61,2.38,2.38,0,0,1-.58-1.73v-5.58h-1.1a.36.36,0,0,1-.24-.09.3.3,0,0,1-.1-.26v-.64l1.49-.19.37-2.82a.37.37,0,0,1,.12-.22.36.36,0,0,1,.25-.08h.81v3.14h2.61v1.16H48.91v5.47a1.17,1.17,0,0,0,.28.85,1,1,0,0,0,.72.28,1.42,1.42,0,0,0,.44-.06l.32-.15.23-.15a.27.27,0,0,1,.16-.07.28.28,0,0,1,.23.15l.47.77a3.05,3.05,0,0,1-1,.61A3.55,3.55,0,0,1,49.55,201.73Z"/><path class="cls-2" d="M55.64,189.61a1,1,0,0,1-.09.43,1.2,1.2,0,0,1-.62.61,1,1,0,0,1-.44.09,1,1,0,0,1-.43-.09,1.23,1.23,0,0,1-.61-.61,1,1,0,0,1-.09-.43,1.13,1.13,0,0,1,.09-.45,1.2,1.2,0,0,1,.61-.62,1,1,0,0,1,.43-.09,1,1,0,0,1,.44.09,1.17,1.17,0,0,1,.62.62A1.13,1.13,0,0,1,55.64,189.61Zm-.36,2.86v9.11h-1.6v-9.11Z"/><path class="cls-2" d="M58.11,201.58v-9.11h1a.41.41,0,0,1,.44.33l.12,1A5.13,5.13,0,0,1,61,192.73a3.45,3.45,0,0,1,1.7-.41,3.36,3.36,0,0,1,1.31.25,2.62,2.62,0,0,1,1,.7,3.21,3.21,0,0,1,.58,1.1,4.75,4.75,0,0,1,.2,1.41v5.8H64.1v-5.8a2.44,2.44,0,0,0-.48-1.61,1.75,1.75,0,0,0-1.44-.57,2.66,2.66,0,0,0-1.33.34,4.48,4.48,0,0,0-1.14.93v6.71Z"/><path class="cls-2" d="M74.34,194.09a1.06,1.06,0,0,1-.15.15.28.28,0,0,1-.2,0,.51.51,0,0,1-.3-.11,3.64,3.64,0,0,0-.4-.25,3,3,0,0,0-.59-.24,2.6,2.6,0,0,0-.85-.12,2.8,2.8,0,0,0-1.18.24,2.39,2.39,0,0,0-.86.69,3.15,3.15,0,0,0-.52,1.09,5.72,5.72,0,0,0-.17,1.43,5.09,5.09,0,0,0,.19,1.47,3,3,0,0,0,.53,1.08,2.16,2.16,0,0,0,.83.67,2.61,2.61,0,0,0,1.1.23,3,3,0,0,0,1-.14,3.08,3.08,0,0,0,.63-.31l.41-.31a.48.48,0,0,1,.32-.14.35.35,0,0,1,.31.15l.45.59a3.46,3.46,0,0,1-1.49,1.06,5.14,5.14,0,0,1-1.88.34,4,4,0,0,1-1.59-.32,3.67,3.67,0,0,1-1.27-.91,4.41,4.41,0,0,1-.85-1.47,5.86,5.86,0,0,1-.31-2,6,6,0,0,1,.28-1.88,4.32,4.32,0,0,1,.83-1.49,3.74,3.74,0,0,1,1.35-1,4.89,4.89,0,0,1,3.53,0,4.1,4.1,0,0,1,1.3.88Z"/><path class="cls-2" d="M78.67,189.61a1,1,0,0,1-.1.43,1.16,1.16,0,0,1-.25.36,1.23,1.23,0,0,1-.36.25,1.13,1.13,0,0,1-.45.09,1,1,0,0,1-.43-.09,1.23,1.23,0,0,1-.61-.61,1,1,0,0,1-.09-.43,1.13,1.13,0,0,1,.09-.45,1.2,1.2,0,0,1,.61-.62,1,1,0,0,1,.43-.09,1.13,1.13,0,0,1,.45.09,1.45,1.45,0,0,1,.36.25,1.34,1.34,0,0,1,.25.37A1.14,1.14,0,0,1,78.67,189.61Zm-.36,2.86v9.11H76.7v-9.11Z"/><path class="cls-2" d="M87.55,201.58a.4.4,0,0,1-.43-.33L87,200.14a4.62,4.62,0,0,1-1.33,1.14,3.39,3.39,0,0,1-1.73.43,3.31,3.31,0,0,1-1.42-.3,2.92,2.92,0,0,1-1.09-.89,4.13,4.13,0,0,1-.69-1.46,7.56,7.56,0,0,1-.24-2,6.28,6.28,0,0,1,.27-1.88,4.78,4.78,0,0,1,.77-1.51,3.62,3.62,0,0,1,2.9-1.37,3.28,3.28,0,0,1,1.43.29,3.5,3.5,0,0,1,1.06.79v-5h1.6v13.25Zm-3.11-1.17a2.6,2.6,0,0,0,1.38-.36,4.08,4.08,0,0,0,1.08-1v-4.41a2.52,2.52,0,0,0-1-.84,2.93,2.93,0,0,0-1.16-.23,2.31,2.31,0,0,0-2,.9,4.26,4.26,0,0,0-.69,2.6,6.67,6.67,0,0,0,.15,1.52,3.08,3.08,0,0,0,.46,1,1.7,1.7,0,0,0,.72.59A2.4,2.4,0,0,0,84.44,200.41Z"/><path class="cls-2" d="M92.58,192.47v5.81a2.41,2.41,0,0,0,.48,1.6,1.76,1.76,0,0,0,1.44.57,2.78,2.78,0,0,0,1.32-.33,4.1,4.1,0,0,0,1.14-.93v-6.72h1.6v9.11h-1a.4.4,0,0,1-.43-.33l-.13-1a5,5,0,0,1-1.33,1.06,3.57,3.57,0,0,1-1.69.4,3.21,3.21,0,0,1-1.32-.25,2.59,2.59,0,0,1-1-.7,2.92,2.92,0,0,1-.58-1.09,4.76,4.76,0,0,1-.19-1.41v-5.81Z"/><path class="cls-2" d="M101.2,201.58v-9.11h1a.41.41,0,0,1,.43.33l.12,1a5.13,5.13,0,0,1,1.33-1.06,3.48,3.48,0,0,1,1.7-.41,3.38,3.38,0,0,1,1.32.25,2.67,2.67,0,0,1,1,.7,3,3,0,0,1,.58,1.1,4.75,4.75,0,0,1,.2,1.41v5.8h-1.6v-5.8a2.44,2.44,0,0,0-.48-1.61,1.75,1.75,0,0,0-1.44-.57,2.69,2.69,0,0,0-1.33.34,4.48,4.48,0,0,0-1.14.93v6.71Z"/><path class="cls-2" d="M114,201.73a2.17,2.17,0,0,1-1.66-.61,2.38,2.38,0,0,1-.58-1.73v-5.58h-1.1a.36.36,0,0,1-.24-.09.3.3,0,0,1-.1-.26v-.64l1.5-.19.36-2.82a.43.43,0,0,1,.12-.22.36.36,0,0,1,.25-.08h.81v3.14h2.61v1.16h-2.61v5.47a1.17,1.17,0,0,0,.28.85,1,1,0,0,0,.72.28,1.42,1.42,0,0,0,.44-.06l.32-.15.23-.15a.27.27,0,0,1,.16-.07.28.28,0,0,1,.23.15l.47.77a3.05,3.05,0,0,1-1,.61A3.55,3.55,0,0,1,114,201.73Z"/><path class="cls-2" d="M122.78,192.47v5.81a2.41,2.41,0,0,0,.48,1.6,1.78,1.78,0,0,0,1.44.57,2.75,2.75,0,0,0,1.32-.33,4,4,0,0,0,1.15-.93v-6.72h1.6v9.11h-1a.41.41,0,0,1-.43-.33l-.12-1a5,5,0,0,1-1.34,1.06,3.55,3.55,0,0,1-1.69.4,3.21,3.21,0,0,1-1.32-.25,2.48,2.48,0,0,1-1-.7,2.94,2.94,0,0,1-.59-1.09,5.12,5.12,0,0,1-.19-1.41v-5.81Z"/><path class="cls-2" d="M134.17,201.73a2.16,2.16,0,0,1-1.66-.61,2.38,2.38,0,0,1-.58-1.73v-5.58h-1.1a.32.32,0,0,1-.24-.09.3.3,0,0,1-.1-.26v-.64l1.49-.19.37-2.82a.32.32,0,0,1,.12-.22.34.34,0,0,1,.25-.08h.81v3.14h2.61v1.16h-2.61v5.47a1.13,1.13,0,0,0,.28.85.94.94,0,0,0,.72.28,1.35,1.35,0,0,0,.43-.06,2.44,2.44,0,0,0,.32-.15l.23-.15a.29.29,0,0,1,.17-.07.27.27,0,0,1,.22.15l.47.77a3,3,0,0,1-1,.61A3.54,3.54,0,0,1,134.17,201.73Z"/><path class="cls-2" d="M143.37,188.33v13.25h-1.6V188.33Z"/><path class="cls-2" d="M152.9,201.58h-.71a.81.81,0,0,1-.38-.07.39.39,0,0,1-.19-.3l-.18-.85c-.24.22-.48.41-.7.58a3.81,3.81,0,0,1-.72.43,3.67,3.67,0,0,1-.81.27,4.58,4.58,0,0,1-1,.09,3.21,3.21,0,0,1-1-.15,2.29,2.29,0,0,1-.81-.45,2.07,2.07,0,0,1-.54-.75,2.6,2.6,0,0,1-.21-1.08,2,2,0,0,1,.3-1,2.53,2.53,0,0,1,1-.89,6,6,0,0,1,1.73-.64,11.58,11.58,0,0,1,2.62-.25v-.71a2.48,2.48,0,0,0-.45-1.62,1.65,1.65,0,0,0-1.35-.55,2.77,2.77,0,0,0-1,.15,4.16,4.16,0,0,0-.7.33l-.5.34a.78.78,0,0,1-.42.14.44.44,0,0,1-.28-.08.8.8,0,0,1-.2-.21l-.28-.52a5.22,5.22,0,0,1,1.62-1.08,4.9,4.9,0,0,1,1.94-.37,3.44,3.44,0,0,1,1.36.26,2.74,2.74,0,0,1,1,.7,3,3,0,0,1,.61,1.09,4.42,4.42,0,0,1,.21,1.4Zm-4.16-1a3.64,3.64,0,0,0,.77-.08,2.74,2.74,0,0,0,.66-.25,3.19,3.19,0,0,0,.6-.38,5.2,5.2,0,0,0,.55-.51V197.5a10.16,10.16,0,0,0-1.88.14,5.05,5.05,0,0,0-1.26.36,1.87,1.87,0,0,0-.71.54,1.18,1.18,0,0,0-.22.69,1.46,1.46,0,0,0,.12.62,1.08,1.08,0,0,0,.32.43,1.36,1.36,0,0,0,.46.25A2.22,2.22,0,0,0,148.74,200.6Z"/><path class="cls-2" d="M159,192.32a4.55,4.55,0,0,1,1.8.34,3.77,3.77,0,0,1,1.37.94,4.24,4.24,0,0,1,.86,1.48,5.94,5.94,0,0,1,.3,1.94,5.85,5.85,0,0,1-.3,1.94,4.24,4.24,0,0,1-.86,1.48,3.77,3.77,0,0,1-1.37.94,5.1,5.1,0,0,1-3.61,0,3.77,3.77,0,0,1-1.37-.94A4.11,4.11,0,0,1,155,199a5.6,5.6,0,0,1-.31-1.94,5.68,5.68,0,0,1,.31-1.94,4.11,4.11,0,0,1,.87-1.48,3.77,3.77,0,0,1,1.37-.94A4.56,4.56,0,0,1,159,192.32Zm0,8.14a2.31,2.31,0,0,0,2-.91,4.13,4.13,0,0,0,.67-2.52,4.19,4.19,0,0,0-.67-2.54,2.34,2.34,0,0,0-2-.91,2.72,2.72,0,0,0-1.19.24,2.12,2.12,0,0,0-.84.67,3,3,0,0,0-.51,1.09,6.65,6.65,0,0,0,0,2.9,2.8,2.8,0,0,0,.51,1.07,2,2,0,0,0,.84.67A2.72,2.72,0,0,0,159,200.46Z"/><path class="cls-2" d="M165.33,201.58v-9.11h.92a.47.47,0,0,1,.36.1.6.6,0,0,1,.14.34l.1,1.42a4.25,4.25,0,0,1,1.16-1.49,2.55,2.55,0,0,1,1.62-.54,2.38,2.38,0,0,1,.68.09,2.64,2.64,0,0,1,.57.24l-.21,1.2a.26.26,0,0,1-.28.22A1.76,1.76,0,0,1,170,194a2.25,2.25,0,0,0-.72-.09,2,2,0,0,0-1.4.49,3.52,3.52,0,0,0-.94,1.41v5.8Z"/><path class="cls-2" d="M176.2,192.32a3.94,3.94,0,0,1,1.51.28,3.35,3.35,0,0,1,1.2.79,3.63,3.63,0,0,1,.78,1.28,4.86,4.86,0,0,1,.29,1.73,1.07,1.07,0,0,1-.08.5.34.34,0,0,1-.31.13h-6.07a5,5,0,0,0,.24,1.5,3.06,3.06,0,0,0,.59,1.07,2.4,2.4,0,0,0,.9.64,3.13,3.13,0,0,0,1.17.21,3.54,3.54,0,0,0,1-.14,4.5,4.5,0,0,0,.75-.3c.21-.11.39-.21.53-.3a.63.63,0,0,1,.36-.14.35.35,0,0,1,.31.15l.45.59a3.26,3.26,0,0,1-.71.62,4.61,4.61,0,0,1-.89.44,5.31,5.31,0,0,1-1,.25,5.72,5.72,0,0,1-1,.09,4.68,4.68,0,0,1-1.74-.32,3.65,3.65,0,0,1-1.38-.94,4.25,4.25,0,0,1-.91-1.52,6.37,6.37,0,0,1-.32-2.09,5.45,5.45,0,0,1,.29-1.78,4.48,4.48,0,0,1,.84-1.44,4,4,0,0,1,1.35-1A4.38,4.38,0,0,1,176.2,192.32Zm0,1.18a2.47,2.47,0,0,0-1.82.67,3.15,3.15,0,0,0-.83,1.86h5a3,3,0,0,0-.16-1,2.16,2.16,0,0,0-.45-.8,1.88,1.88,0,0,0-.72-.52A2.35,2.35,0,0,0,176.23,193.5Z"/><path class="cls-2" d="M185.63,192.32a3.94,3.94,0,0,1,1.51.28,3.35,3.35,0,0,1,1.2.79,3.5,3.5,0,0,1,.78,1.28,4.86,4.86,0,0,1,.29,1.73,1.07,1.07,0,0,1-.08.5.34.34,0,0,1-.31.13H183a5,5,0,0,0,.23,1.5,3.06,3.06,0,0,0,.59,1.07,2.56,2.56,0,0,0,.9.64,3.13,3.13,0,0,0,1.17.21,3.49,3.49,0,0,0,1-.14,4.5,4.5,0,0,0,.75-.3c.21-.11.39-.21.53-.3a.64.64,0,0,1,.37-.14.34.34,0,0,1,.3.15l.45.59a3,3,0,0,1-.71.62,4.61,4.61,0,0,1-.89.44,5.31,5.31,0,0,1-1,.25,5.72,5.72,0,0,1-1,.09,4.68,4.68,0,0,1-1.74-.32,3.73,3.73,0,0,1-1.38-.94,4.09,4.09,0,0,1-.9-1.52,6.11,6.11,0,0,1-.33-2.09,5.45,5.45,0,0,1,.29-1.78,4.32,4.32,0,0,1,.85-1.44,3.84,3.84,0,0,1,1.34-1A4.38,4.38,0,0,1,185.63,192.32Zm0,1.18a2.47,2.47,0,0,0-1.82.67A3.15,3.15,0,0,0,183,196h5a3.31,3.31,0,0,0-.15-1,2.49,2.49,0,0,0-.45-.8,1.91,1.91,0,0,0-.73-.52A2.32,2.32,0,0,0,185.66,193.5Z"/><path class="cls-2" d="M194.21,201.73a2.17,2.17,0,0,1-1.66-.61,2.43,2.43,0,0,1-.58-1.73v-5.58h-1.09a.37.37,0,0,1-.25-.09.33.33,0,0,1-.1-.26v-.64l1.5-.19.37-2.82a.36.36,0,0,1,.11-.22.37.37,0,0,1,.26-.08h.81v3.14h2.61v1.16h-2.61v5.47a1.17,1.17,0,0,0,.27.85,1,1,0,0,0,.72.28,1.42,1.42,0,0,0,.44-.06l.32-.15.23-.15a.27.27,0,0,1,.17-.07.27.27,0,0,1,.22.15l.47.77a3.05,3.05,0,0,1-1,.61A3.55,3.55,0,0,1,194.21,201.73Z"/><path class="cls-2" d="M208.06,201.58a.41.41,0,0,1-.44-.33l-.14-1.11a4.65,4.65,0,0,1-1.34,1.14,3.35,3.35,0,0,1-1.72.43,3.28,3.28,0,0,1-1.42-.3,2.92,2.92,0,0,1-1.09-.89,4.13,4.13,0,0,1-.69-1.46,7.15,7.15,0,0,1-.25-2,6.28,6.28,0,0,1,.27-1.88,4.6,4.6,0,0,1,.78-1.51,3.65,3.65,0,0,1,1.24-1,3.72,3.72,0,0,1,1.66-.37,3.32,3.32,0,0,1,1.43.29,3.5,3.5,0,0,1,1.06.79v-5H209v13.25ZM205,200.41a2.57,2.57,0,0,0,1.37-.36,4,4,0,0,0,1.09-1v-4.41a2.59,2.59,0,0,0-1-.84,2.93,2.93,0,0,0-1.16-.23,2.33,2.33,0,0,0-2,.9,4.33,4.33,0,0,0-.68,2.6,6.67,6.67,0,0,0,.15,1.52,2.9,2.9,0,0,0,.45,1,1.73,1.73,0,0,0,.73.59A2.4,2.4,0,0,0,205,200.41Z"/><path class="cls-2" d="M215.39,192.32a4.56,4.56,0,0,1,1.81.34,3.73,3.73,0,0,1,1.36.94,4.11,4.11,0,0,1,.87,1.48,5.94,5.94,0,0,1,.3,1.94,5.85,5.85,0,0,1-.3,1.94,4.11,4.11,0,0,1-.87,1.48,3.73,3.73,0,0,1-1.36.94,4.75,4.75,0,0,1-1.81.33,4.69,4.69,0,0,1-1.8-.33,3.81,3.81,0,0,1-1.38-.94,4.26,4.26,0,0,1-.87-1.48A5.85,5.85,0,0,1,211,197a5.94,5.94,0,0,1,.3-1.94,4.26,4.26,0,0,1,.87-1.48,3.81,3.81,0,0,1,1.38-.94A4.51,4.51,0,0,1,215.39,192.32Zm0,8.14a2.34,2.34,0,0,0,2-.91,4.2,4.2,0,0,0,.66-2.52,4.26,4.26,0,0,0-.66-2.54,2.37,2.37,0,0,0-2-.91,2.78,2.78,0,0,0-1.19.24,2.27,2.27,0,0,0-.84.67,3.13,3.13,0,0,0-.5,1.09,6.27,6.27,0,0,0,0,2.9,3,3,0,0,0,.5,1.07,2.18,2.18,0,0,0,.84.67A2.78,2.78,0,0,0,215.39,200.46Z"/><path class="cls-2" d="M223.49,188.33v13.25h-1.6V188.33Z"/><path class="cls-2" d="M230,192.32a4.55,4.55,0,0,1,1.8.34,3.77,3.77,0,0,1,1.37.94,4.24,4.24,0,0,1,.86,1.48,5.94,5.94,0,0,1,.3,1.94A5.85,5.85,0,0,1,234,199a4.24,4.24,0,0,1-.86,1.48,3.77,3.77,0,0,1-1.37.94,5.1,5.1,0,0,1-3.61,0,3.85,3.85,0,0,1-1.37-.94A4.11,4.11,0,0,1,226,199a5.6,5.6,0,0,1-.31-1.94,5.68,5.68,0,0,1,.31-1.94,4.11,4.11,0,0,1,.87-1.48,3.85,3.85,0,0,1,1.37-.94A4.56,4.56,0,0,1,230,192.32Zm0,8.14a2.31,2.31,0,0,0,2-.91,4.13,4.13,0,0,0,.67-2.52,4.19,4.19,0,0,0-.67-2.54,2.34,2.34,0,0,0-2-.91,2.72,2.72,0,0,0-1.19.24,2.12,2.12,0,0,0-.84.67,3,3,0,0,0-.51,1.09,6.65,6.65,0,0,0,0,2.9,2.8,2.8,0,0,0,.51,1.07,2,2,0,0,0,.84.67A2.72,2.72,0,0,0,230,200.46Z"/><path class="cls-2" d="M236.32,201.58v-9.11h.92a.47.47,0,0,1,.36.1.6.6,0,0,1,.14.34l.11,1.42a4.12,4.12,0,0,1,1.15-1.49,2.55,2.55,0,0,1,1.62-.54,2.38,2.38,0,0,1,.68.09,2.64,2.64,0,0,1,.57.24l-.21,1.2a.26.26,0,0,1-.28.22A1.6,1.6,0,0,1,241,194a2.37,2.37,0,0,0-.73-.09,2,2,0,0,0-1.4.49,3.52,3.52,0,0,0-.94,1.41v5.8Z"/><path class="cls-2" d="M247.19,192.32a3.94,3.94,0,0,1,1.51.28,3.35,3.35,0,0,1,1.2.79,3.5,3.5,0,0,1,.78,1.28,4.86,4.86,0,0,1,.29,1.73,1.07,1.07,0,0,1-.08.5.34.34,0,0,1-.31.13h-6.07a5,5,0,0,0,.24,1.5,3.06,3.06,0,0,0,.59,1.07,2.4,2.4,0,0,0,.9.64,3.13,3.13,0,0,0,1.17.21,3.54,3.54,0,0,0,1-.14,4.5,4.5,0,0,0,.75-.3c.21-.11.39-.21.53-.3a.63.63,0,0,1,.36-.14.35.35,0,0,1,.31.15l.45.59a3,3,0,0,1-.71.62,4.61,4.61,0,0,1-.89.44,5.31,5.31,0,0,1-1,.25,5.72,5.72,0,0,1-1,.09,4.68,4.68,0,0,1-1.74-.32,3.73,3.73,0,0,1-1.38-.94,4.25,4.25,0,0,1-.91-1.52,6.37,6.37,0,0,1-.32-2.09,5.45,5.45,0,0,1,.29-1.78,4.48,4.48,0,0,1,.84-1.44,4,4,0,0,1,1.35-1A4.38,4.38,0,0,1,247.19,192.32Zm0,1.18a2.47,2.47,0,0,0-1.82.67,3.15,3.15,0,0,0-.83,1.86h5a3,3,0,0,0-.16-1,2.16,2.16,0,0,0-.45-.8,1.88,1.88,0,0,0-.72-.52A2.32,2.32,0,0,0,247.22,193.5Z"/><path class="cls-2" d="M256.48,201.58v-9.11h1a.4.4,0,0,1,.43.33l.12.94a4.35,4.35,0,0,1,1.13-1,2.67,2.67,0,0,1,1.45-.4,2.12,2.12,0,0,1,1.5.52,2.88,2.88,0,0,1,.82,1.38,2.85,2.85,0,0,1,.5-.85,3.05,3.05,0,0,1,.7-.6,3.09,3.09,0,0,1,.82-.34,3.8,3.8,0,0,1,.89-.11,3.4,3.4,0,0,1,1.28.23,2.73,2.73,0,0,1,1,.67,2.94,2.94,0,0,1,.59,1.09,4.74,4.74,0,0,1,.21,1.47v5.8h-1.6v-5.8a2.49,2.49,0,0,0-.47-1.63,1.7,1.7,0,0,0-1.36-.55,2.12,2.12,0,0,0-.75.14,1.64,1.64,0,0,0-.62.41,1.76,1.76,0,0,0-.43.68,2.52,2.52,0,0,0-.16.95v5.8h-1.6v-5.8a2.59,2.59,0,0,0-.44-1.64,1.58,1.58,0,0,0-1.29-.54,2,2,0,0,0-1.1.32,3.45,3.45,0,0,0-.93.87v6.79Z"/><path class="cls-2" d="M278,201.58h-.71a.81.81,0,0,1-.38-.07.39.39,0,0,1-.19-.3l-.18-.85a8.57,8.57,0,0,1-.7.58,3.81,3.81,0,0,1-.72.43,3.5,3.5,0,0,1-.81.27,4.58,4.58,0,0,1-.95.09,3.21,3.21,0,0,1-1-.15,2.29,2.29,0,0,1-.81-.45,2.07,2.07,0,0,1-.54-.75,2.6,2.6,0,0,1-.2-1.08,2,2,0,0,1,.29-1,2.53,2.53,0,0,1,1-.89,6,6,0,0,1,1.73-.64,11.58,11.58,0,0,1,2.62-.25v-.71a2.48,2.48,0,0,0-.45-1.62,1.65,1.65,0,0,0-1.35-.55,2.77,2.77,0,0,0-1,.15,4.16,4.16,0,0,0-.7.33l-.5.34a.78.78,0,0,1-.42.14.44.44,0,0,1-.28-.08.8.8,0,0,1-.2-.21l-.28-.52a5.15,5.15,0,0,1,1.63-1.08,4.81,4.81,0,0,1,1.93-.37,3.44,3.44,0,0,1,1.36.26,2.66,2.66,0,0,1,1,.7,3,3,0,0,1,.61,1.09,4.42,4.42,0,0,1,.21,1.4Zm-4.16-1a3.64,3.64,0,0,0,.77-.08,3,3,0,0,0,.67-.25,3.47,3.47,0,0,0,.59-.38,5.2,5.2,0,0,0,.55-.51V197.5a10.16,10.16,0,0,0-1.88.14,5.32,5.32,0,0,0-1.26.36,1.76,1.76,0,0,0-.7.54,1.12,1.12,0,0,0-.23.69,1.46,1.46,0,0,0,.12.62,1.08,1.08,0,0,0,.32.43,1.36,1.36,0,0,0,.46.25A2.22,2.22,0,0,0,273.8,200.6Z"/><path class="cls-2" d="M283.46,192.31a5,5,0,0,1,1.11.13,3.58,3.58,0,0,1,.94.39H288v.59c0,.2-.12.33-.37.38l-1,.14a2.93,2.93,0,0,1,.05,2.52,2.81,2.81,0,0,1-.71.93,3,3,0,0,1-1.08.59,4.32,4.32,0,0,1-1.37.21,4.72,4.72,0,0,1-1.21-.15,1.57,1.57,0,0,0-.44.4.78.78,0,0,0-.14.42.54.54,0,0,0,.26.5,1.69,1.69,0,0,0,.69.25,5.78,5.78,0,0,0,1,.07h1.12a5.91,5.91,0,0,1,1.12.11,3.23,3.23,0,0,1,1,.32,1.85,1.85,0,0,1,.7.63,1.93,1.93,0,0,1,.26,1,2.41,2.41,0,0,1-.3,1.15,3,3,0,0,1-.84,1,4.13,4.13,0,0,1-1.34.69,5.81,5.81,0,0,1-1.79.26,7,7,0,0,1-1.75-.2,4.13,4.13,0,0,1-1.25-.53,2.35,2.35,0,0,1-.74-.77,1.9,1.9,0,0,1-.25-.92,1.65,1.65,0,0,1,.43-1.14,3,3,0,0,1,1.18-.76,1.59,1.59,0,0,1-.62-.48,1.31,1.31,0,0,1-.23-.8,1.22,1.22,0,0,1,.07-.41,1.7,1.7,0,0,1,.22-.42,1.93,1.93,0,0,1,.37-.39,2.31,2.31,0,0,1,.5-.34,2.83,2.83,0,0,1-1.06-1,3,3,0,0,1-.12-2.67,2.71,2.71,0,0,1,.71-.93,3.41,3.41,0,0,1,1.1-.59A4.36,4.36,0,0,1,283.46,192.31Zm2.84,9.74a.78.78,0,0,0-.19-.56,1.25,1.25,0,0,0-.51-.33,3.77,3.77,0,0,0-.75-.17,6.37,6.37,0,0,0-.89-.05H283a3.12,3.12,0,0,1-.93-.13,2.65,2.65,0,0,0-.83.6,1.16,1.16,0,0,0-.32.84,1.07,1.07,0,0,0,.16.57,1.25,1.25,0,0,0,.48.46,2.8,2.8,0,0,0,.81.31,5.57,5.57,0,0,0,1.16.11,5.11,5.11,0,0,0,1.16-.12,2.87,2.87,0,0,0,.87-.34,1.69,1.69,0,0,0,.54-.52A1.24,1.24,0,0,0,286.3,202.05Zm-2.84-4.92a2.54,2.54,0,0,0,.86-.14,1.83,1.83,0,0,0,.62-.37,1.58,1.58,0,0,0,.38-.58,2.27,2.27,0,0,0,.13-.75,1.78,1.78,0,0,0-.51-1.33,2.05,2.05,0,0,0-1.48-.49A2,2,0,0,0,282,194a1.78,1.78,0,0,0-.51,1.33,2,2,0,0,0,.13.75,1.58,1.58,0,0,0,.38.58,1.74,1.74,0,0,0,.62.37A2.48,2.48,0,0,0,283.46,197.13Z"/><path class="cls-2" d="M289.59,201.58v-9.11h1a.4.4,0,0,1,.43.33l.13,1a5.09,5.09,0,0,1,1.32-1.06,3.48,3.48,0,0,1,1.7-.41,3.38,3.38,0,0,1,1.32.25,2.59,2.59,0,0,1,.95.7,3,3,0,0,1,.58,1.1,4.45,4.45,0,0,1,.2,1.41v5.8h-1.6v-5.8a2.49,2.49,0,0,0-.47-1.61,1.78,1.78,0,0,0-1.45-.57,2.65,2.65,0,0,0-1.32.34,4.48,4.48,0,0,0-1.14.93v6.71Z"/><path class="cls-2" d="M306.29,201.58h-.71a.83.83,0,0,1-.38-.07.39.39,0,0,1-.19-.3l-.18-.85a8.57,8.57,0,0,1-.7.58,3.81,3.81,0,0,1-.72.43,3.5,3.5,0,0,1-.81.27,4.58,4.58,0,0,1-1,.09,3.21,3.21,0,0,1-1-.15,2.29,2.29,0,0,1-.81-.45,2.19,2.19,0,0,1-.54-.75,2.6,2.6,0,0,1-.2-1.08,2.07,2.07,0,0,1,.29-1,2.53,2.53,0,0,1,1-.89,6,6,0,0,1,1.74-.64,11.42,11.42,0,0,1,2.61-.25v-.71a2.48,2.48,0,0,0-.45-1.62,1.63,1.63,0,0,0-1.35-.55,2.81,2.81,0,0,0-1,.15,3.71,3.71,0,0,0-.69.33l-.51.34a.78.78,0,0,1-.42.14.46.46,0,0,1-.28-.08.63.63,0,0,1-.19-.21l-.29-.52a5.26,5.26,0,0,1,1.63-1.08,4.81,4.81,0,0,1,1.93-.37,3.4,3.4,0,0,1,1.36.26,2.66,2.66,0,0,1,1,.7,3,3,0,0,1,.61,1.09,4.42,4.42,0,0,1,.21,1.4Zm-4.16-1a3.81,3.81,0,0,0,.78-.08,3.09,3.09,0,0,0,.66-.25,3.47,3.47,0,0,0,.59-.38,5.2,5.2,0,0,0,.55-.51V197.5a10.23,10.23,0,0,0-1.88.14,5.32,5.32,0,0,0-1.26.36,1.76,1.76,0,0,0-.7.54,1.12,1.12,0,0,0-.22.69,1.64,1.64,0,0,0,.11.62,1.18,1.18,0,0,0,.32.43,1.41,1.41,0,0,0,.47.25A2.15,2.15,0,0,0,302.13,200.6Z"/><path class="cls-2" d="M318.89,201.58h-.71a.83.83,0,0,1-.38-.07.39.39,0,0,1-.19-.3l-.18-.85a8.57,8.57,0,0,1-.7.58,3.81,3.81,0,0,1-.72.43,3.5,3.5,0,0,1-.81.27,4.58,4.58,0,0,1-.95.09,3.21,3.21,0,0,1-1-.15,2.29,2.29,0,0,1-.81-.45,2.19,2.19,0,0,1-.54-.75,2.6,2.6,0,0,1-.2-1.08,2.07,2.07,0,0,1,.29-1,2.53,2.53,0,0,1,1-.89,6,6,0,0,1,1.73-.64,11.58,11.58,0,0,1,2.62-.25v-.71a2.48,2.48,0,0,0-.45-1.62,1.63,1.63,0,0,0-1.35-.55,2.81,2.81,0,0,0-1,.15,3.71,3.71,0,0,0-.69.33l-.51.34a.78.78,0,0,1-.42.14.44.44,0,0,1-.28-.08.63.63,0,0,1-.19-.21l-.29-.52a5.15,5.15,0,0,1,1.63-1.08,4.81,4.81,0,0,1,1.93-.37,3.44,3.44,0,0,1,1.36.26,2.66,2.66,0,0,1,1,.7,3,3,0,0,1,.61,1.09,4.42,4.42,0,0,1,.21,1.4Zm-4.16-1a3.64,3.64,0,0,0,.77-.08,3,3,0,0,0,.67-.25,3.47,3.47,0,0,0,.59-.38,5.2,5.2,0,0,0,.55-.51V197.5a10.23,10.23,0,0,0-1.88.14,5.32,5.32,0,0,0-1.26.36,1.76,1.76,0,0,0-.7.54,1.12,1.12,0,0,0-.22.69,1.46,1.46,0,0,0,.11.62,1.18,1.18,0,0,0,.32.43,1.41,1.41,0,0,0,.47.25A2.15,2.15,0,0,0,314.73,200.6Z"/><path class="cls-2" d="M323.1,188.33v13.25h-1.6V188.33Z"/><path class="cls-2" d="M328.07,189.61a.91.91,0,0,1-.1.43,1.23,1.23,0,0,1-.61.61,1.12,1.12,0,0,1-.44.09,1.08,1.08,0,0,1-.44-.09,1.23,1.23,0,0,1-.36-.25,1.16,1.16,0,0,1-.25-.36,1,1,0,0,1-.09-.43,1.13,1.13,0,0,1,.09-.45,1.34,1.34,0,0,1,.25-.37,1.45,1.45,0,0,1,.36-.25,1.08,1.08,0,0,1,.44-.09,1.12,1.12,0,0,1,.44.09,1.2,1.2,0,0,1,.61.62A1,1,0,0,1,328.07,189.61Zm-.36,2.86v9.11h-1.6v-9.11Z"/><path class="cls-2" d="M330.12,195.51h4.45v1.36h-4.45Z"/><path class="cls-2" d="M15.84,213.47v12.2h-1.6v-4.44a4.57,4.57,0,0,1-1.31,1.07,3.32,3.32,0,0,1-1.68.41,3.28,3.28,0,0,1-1.42-.3,2.92,2.92,0,0,1-1.09-.89,4.31,4.31,0,0,1-.7-1.46,7.56,7.56,0,0,1-.24-2,6.28,6.28,0,0,1,.27-1.88,4.6,4.6,0,0,1,.78-1.51,3.62,3.62,0,0,1,2.89-1.37,3.26,3.26,0,0,1,1.5.32,3.57,3.57,0,0,1,1.1.89l.11-.71a.41.41,0,0,1,.43-.33Zm-4.06,7.94a2.57,2.57,0,0,0,1.37-.36,4.11,4.11,0,0,0,1.09-1v-4.41a2.59,2.59,0,0,0-1-.83,2.78,2.78,0,0,0-1.17-.24,2.32,2.32,0,0,0-2,.9,4.26,4.26,0,0,0-.68,2.6,6.67,6.67,0,0,0,.15,1.52,2.9,2.9,0,0,0,.45,1,1.73,1.73,0,0,0,.73.59A2.4,2.4,0,0,0,11.78,221.41Z"/><path class="cls-2" d="M19.92,213.47v5.81a2.41,2.41,0,0,0,.47,1.6,1.78,1.78,0,0,0,1.44.57,2.75,2.75,0,0,0,1.32-.33,4,4,0,0,0,1.15-.93v-6.72h1.6v9.11H25a.41.41,0,0,1-.44-.33l-.12-1a5.13,5.13,0,0,1-1.33,1.06,3.62,3.62,0,0,1-1.7.4,3.19,3.19,0,0,1-1.31-.25,2.44,2.44,0,0,1-1-.7,2.92,2.92,0,0,1-.58-1.09,4.75,4.75,0,0,1-.2-1.41v-5.81Z"/><path class="cls-2" d="M35.23,222.58h-.71a.86.86,0,0,1-.38-.07.42.42,0,0,1-.19-.3l-.18-.85a8.57,8.57,0,0,1-.7.58,3.81,3.81,0,0,1-.72.43,3.59,3.59,0,0,1-.8.27,4.65,4.65,0,0,1-.95.09,3.22,3.22,0,0,1-1-.15,2.25,2.25,0,0,1-.8-.45,2.21,2.21,0,0,1-.55-.75,2.77,2.77,0,0,1-.2-1.08,2,2,0,0,1,.3-1,2.53,2.53,0,0,1,1-.89,5.93,5.93,0,0,1,1.73-.64,11.52,11.52,0,0,1,2.62-.25v-.71a2.43,2.43,0,0,0-.46-1.62,1.62,1.62,0,0,0-1.34-.55,2.87,2.87,0,0,0-1,.15,3.71,3.71,0,0,0-.69.33l-.5.34a.84.84,0,0,1-.42.14.47.47,0,0,1-.29-.08.76.76,0,0,1-.19-.21l-.29-.52a5.38,5.38,0,0,1,1.63-1.08,4.86,4.86,0,0,1,1.94-.37,3.35,3.35,0,0,1,1.35.26,2.66,2.66,0,0,1,1,.7,3,3,0,0,1,.62,1.09,4.73,4.73,0,0,1,.2,1.4Zm-4.16-1a3.74,3.74,0,0,0,.78-.08,3.09,3.09,0,0,0,.66-.25,2.83,2.83,0,0,0,.59-.38,5.27,5.27,0,0,0,.56-.51V218.5a10.09,10.09,0,0,0-1.88.14,5.05,5.05,0,0,0-1.26.36,1.8,1.8,0,0,0-.71.54,1.12,1.12,0,0,0-.22.69,1.46,1.46,0,0,0,.12.62,1.06,1.06,0,0,0,.31.43,1.41,1.41,0,0,0,.47.25A2.15,2.15,0,0,0,31.07,221.6Z"/><path class="cls-2" d="M37.66,222.58v-9.11h1a.41.41,0,0,1,.43.33l.12.94a4.47,4.47,0,0,1,1.12-1,2.73,2.73,0,0,1,1.46-.4,2.12,2.12,0,0,1,1.5.52,2.88,2.88,0,0,1,.82,1.38,2.85,2.85,0,0,1,.5-.85,3.05,3.05,0,0,1,.7-.6,3.09,3.09,0,0,1,.82-.34,3.8,3.8,0,0,1,.89-.11,3.4,3.4,0,0,1,1.28.23,2.6,2.6,0,0,1,1,.67,3,3,0,0,1,.6,1.09,4.74,4.74,0,0,1,.21,1.47v5.8h-1.6v-5.8a2.49,2.49,0,0,0-.47-1.63,1.71,1.71,0,0,0-1.36-.55,2.12,2.12,0,0,0-.75.14,1.76,1.76,0,0,0-.63.41,1.87,1.87,0,0,0-.42.68,2.52,2.52,0,0,0-.16.95v5.8H43v-5.8a2.59,2.59,0,0,0-.44-1.64,1.58,1.58,0,0,0-1.29-.54,2,2,0,0,0-1.1.32,3.63,3.63,0,0,0-.94.87v6.79Z"/><path class="cls-3" d="M84.87,245.5a11,11,0,0,1,0,22H19.5a11,11,0,0,1,0-22H84.87m0-.5H19.5a11.5,11.5,0,0,0,0,23H84.87a11.5,11.5,0,0,0,0-23Z"/><path class="cls-3" d="M25.75,258.64v.89H22.36v-5.79h1.08v4.9Z"/><path class="cls-3" d="M28.4,254.6v1.6h2V257h-2v1.64H31v.86H27.32v-5.79H31v.86Z"/><path class="cls-3" d="M37.68,259.53h-.84a.36.36,0,0,1-.22-.07.49.49,0,0,1-.14-.18l-.43-1.18H33.66l-.44,1.18a.38.38,0,0,1-.12.17.36.36,0,0,1-.23.08H32l2.28-5.79H35.4Zm-1.9-2.19-.71-1.92-.11-.3c0-.12-.07-.25-.11-.38,0,.13-.07.26-.11.38s-.07.22-.1.31l-.7,1.91Z"/><path class="cls-3" d="M43.59,259.53h-1a.42.42,0,0,1-.4-.22L41,257.46a.36.36,0,0,0-.15-.15.49.49,0,0,0-.24,0h-.46v2.26H39.08v-5.79h1.76a3.35,3.35,0,0,1,1,.13,1.86,1.86,0,0,1,.69.34,1.35,1.35,0,0,1,.4.52,1.87,1.87,0,0,1,.13.68A1.67,1.67,0,0,1,43,256a1.63,1.63,0,0,1-.25.47,1.42,1.42,0,0,1-.4.37,2.25,2.25,0,0,1-.54.26.85.85,0,0,1,.19.14.74.74,0,0,1,.16.19Zm-2.77-3a1.64,1.64,0,0,0,.53-.08,1.07,1.07,0,0,0,.38-.21.85.85,0,0,0,.21-.32,1.06,1.06,0,0,0,.08-.4.83.83,0,0,0-.29-.68,1.39,1.39,0,0,0-.89-.23h-.69v1.92Z"/><path class="cls-3" d="M49.9,253.74v5.79h-.56a.65.65,0,0,1-.21,0,.57.57,0,0,1-.17-.15l-3-3.85a4.29,4.29,0,0,1,0,.49v3.55H45v-5.79h.68l.09,0s.05,0,.07.06a.36.36,0,0,1,.08.09l3,3.87c0-.1,0-.19,0-.28a2.18,2.18,0,0,1,0-.25v-3.52Z"/><path class="cls-3" d="M61,253.74v5.79h-1v-3.74a4.12,4.12,0,0,1,0-.48l-1.75,3.28a.41.41,0,0,1-.38.24H57.8a.39.39,0,0,1-.38-.24l-1.77-3.3c0,.09,0,.18,0,.27s0,.16,0,.23v3.74h-1v-5.79h.93l.1,0a.12.12,0,0,1,.07,0,.26.26,0,0,1,.07.1l1.73,3.21a2.1,2.1,0,0,1,.13.26c0,.09.07.19.11.28l.12-.28a2.24,2.24,0,0,1,.13-.27l1.7-3.2a.43.43,0,0,1,.07-.1.18.18,0,0,1,.08,0l.09,0H61Z"/><path class="cls-3" d="M68.6,256.64a3.2,3.2,0,0,1-.21,1.17,2.68,2.68,0,0,1-1.51,1.56,3.38,3.38,0,0,1-2.4,0,2.71,2.71,0,0,1-.93-.62,2.83,2.83,0,0,1-.59-.94,3.25,3.25,0,0,1,0-2.35,2.83,2.83,0,0,1,.59-.94,2.71,2.71,0,0,1,.93-.62,3.09,3.09,0,0,1,1.2-.22,3.12,3.12,0,0,1,.82.1,3.29,3.29,0,0,1,.72.29,2.51,2.51,0,0,1,.58.45,2.9,2.9,0,0,1,.44.6,2.62,2.62,0,0,1,.27.71A3.47,3.47,0,0,1,68.6,256.64Zm-1.1,0a2.84,2.84,0,0,0-.12-.86,1.92,1.92,0,0,0-.37-.64,1.51,1.51,0,0,0-.57-.4,2.16,2.16,0,0,0-1.53,0,1.51,1.51,0,0,0-.57.4,1.92,1.92,0,0,0-.37.64,2.88,2.88,0,0,0,0,1.71,1.83,1.83,0,0,0,.37.64,1.64,1.64,0,0,0,.57.4,2.16,2.16,0,0,0,1.53,0,1.64,1.64,0,0,0,.57-.4,1.83,1.83,0,0,0,.37-.64A2.82,2.82,0,0,0,67.5,256.64Z"/><path class="cls-3" d="M74.87,259.53h-1a.41.41,0,0,1-.4-.22l-1.22-1.85a.53.53,0,0,0-.15-.15.55.55,0,0,0-.24,0h-.46v2.26H70.35v-5.79h1.77a3.28,3.28,0,0,1,1,.13,1.83,1.83,0,0,1,.7.34,1.24,1.24,0,0,1,.39.52,1.68,1.68,0,0,1,.13.68,2,2,0,0,1-.08.55,1.63,1.63,0,0,1-.25.47,1.57,1.57,0,0,1-.4.37,2.25,2.25,0,0,1-.54.26.85.85,0,0,1,.19.14,1,1,0,0,1,.16.19Zm-2.77-3a1.69,1.69,0,0,0,.53-.08,1,1,0,0,0,.37-.21.87.87,0,0,0,.22-.32,1.05,1.05,0,0,0,.07-.4.83.83,0,0,0-.29-.68,1.36,1.36,0,0,0-.88-.23h-.69v1.92Z"/><path class="cls-3" d="M77.38,254.6v1.6h2V257h-2v1.64h2.56v.86H76.3v-5.79h3.64v.86Z"/></svg>