<?xml version="1.0" encoding="UTF-8"?>
<svg width="1466px" height="90px" viewBox="0 0 1466 90" version="1.1" xmlns="http://www.w3.org/2000/svg" xmlns:xlink="http://www.w3.org/1999/xlink">
    <!-- Generator: sketchtool 60 (101010) - https://sketch.com -->
    <title>F1FE27ED-1031-42C7-A8BA-8E4BB6BFAED8</title>
    <desc>Created with sketchtool.</desc>
    <g id="Symbols" stroke="none" stroke-width="1" fill="none" fill-rule="evenodd">
        <g id="Decoration/linepattern-(disconnected)" transform="translate(-2.000000, 0.000000)">
            <g id="Group-2" transform="translate(-0.000000, 0.000000)">
                <path d="M703.0662,10.6601563 C689.478309,29.4254086 692.296668,60.8927162 656.822059,58.9490562 C606.955644,56.2168667 630.820582,55.8128778 619.954871,58.9490562 C593.859359,66.4810238 601.908189,55.9911559 571.1287,58.9490562 C505.986778,65.2091765 586.013709,65.0430742 491.35785,67.5008942 C487.657652,67.5969729 357.627132,84.6423997 351.033141,34.586804 C350.392007,29.7198948 349.072126,24.3601861 351.033141,19.8599331 C365.0296,-12.2599561 420.268013,15.7839364 407.505564,49.2787217 C400.517639,67.6183891 371.579698,76.2607192 356.69553,80.9578054 C297.471478,99.647494 238.398139,66.5886155 184.878153,47.2397958 C182.589958,46.4125555 179.970353,47.0357923 177.631228,46.3659704 C168.690003,43.805599 160.174302,39.8251621 151.148493,37.5811123 C138.931218,34.5435816 126.571478,31.7603365 114.040041,30.5555561 C98.2011061,29.0327908 82.0593202,27.1045311 66.3175226,29.4254086 C54.1418136,31.220523 43.5387926,38.8083536 31.8538487,42.6726017 C26.7604147,44.3570165 21.4485505,45.4660794 16.1133404,46.0280912 C10.7717816,46.5907719 5.37111348,46.0280912 -2.84217094e-13,46.0280912" id="Path-69" stroke="#979797" stroke-dasharray="4,4"></path>
                <path d="M772.659724,17.7161482 C780.056434,28.890625 777.460513,46.010164 788.74784,53.4148286 C793.521799,56.5466212 807.346886,56.3046775 813.05376,56.4790431 C862.997731,58.0050117 913.093526,53.2382154 962.955595,56.4790431 C979.074821,57.5267259 994.030732,65.3334849 1009.69943,69.260196 C1051.67929,79.7807121 1093.14747,82.3880349 1136.68374,80.3053491 C1154.22035,79.4664335 1180.14852,66.3349259 1193.38918,62.0016196 C1229.61577,50.1456452 1256.1177,47.9764372 1296.09279,51.3526007 C1311.20126,52.6286118 1339.17207,65.9476287 1352.54191,69.434961 C1386.81063,78.3734669 1393.67021,71.0591475 1434.064,76.6236314 C1451.23394,78.9888926 1454.1518,89.1135091 1469.90249,89.1135091" id="Path-83" stroke="#979797" stroke-dasharray="4,4"></path>
                <g id="Group-3" transform="translate(700.185340, 0.000000)" stroke="#FFFFFF" stroke-linecap="square">
                    <line x1="3" y1="7" x2="0" y2="4" id="Line-2-Copy"></line>
                    <line x1="7" y1="10" x2="10" y2="12" id="Line-2"></line>
                    <line x1="8" y1="8" x2="12" y2="7" id="Line-2-Copy"></line>
                    <line x1="7" y1="6" x2="9" y2="3" id="Line-2-Copy-2"></line>
                    <line x1="5" y1="5.44444444" x2="5" y2="1" id="Line-2"></line>
                </g>
                <g id="Group-3-Copy" transform="translate(770.185340, 13.000000) rotate(-58.000000) translate(-770.185340, -13.000000) translate(764.185340, 7.000000)" stroke="#FFFFFF" stroke-linecap="square">
                    <line x1="3" y1="7" x2="0" y2="4" id="Line-2-Copy"></line>
                    <line x1="7" y1="10" x2="10" y2="12" id="Line-2"></line>
                    <line x1="8" y1="8" x2="12" y2="7" id="Line-2-Copy"></line>
                    <line x1="7" y1="6" x2="9" y2="3" id="Line-2-Copy-2"></line>
                    <line x1="5" y1="5.44444444" x2="5" y2="1" id="Line-2"></line>
                </g>
            </g>
        </g>
    </g>
</svg>