<svg id="Layer_1" data-name="Layer 1" xmlns="http://www.w3.org/2000/svg" viewBox="0 0 100 100"><defs><style>.cls-1{fill:blue;}</style></defs><title>Artboard 2</title><path class="cls-1" d="M35.38,51.43,34.88,82l-14.81.47V.4h28A43.12,43.12,0,0,1,65.29,3.57a26.52,26.52,0,0,1,11.42,8.91A22.73,22.73,0,0,1,80.8,26,22.29,22.29,0,0,1,75.41,41.1Q70,47.33,60.55,49.9l25.7,32.61H67.69l-23-31.08Zm0-11.38H47.45q7.9,0,12.71-3.64A12.06,12.06,0,0,0,65,26.21,12.09,12.09,0,0,0,60.16,16q-4.8-3.63-12.71-3.63H35.38Z"/><path class="cls-1" d="M10,99.58V90.45h77.2v9.13Z"/></svg>