<svg xmlns="http://www.w3.org/2000/svg" viewBox="0 0 78.65 69.95"><defs><style>.cls-1{fill:none;stroke:#000;stroke-miterlimit:10;stroke-width:0.25px;}</style></defs><title>loader_logo</title><g id="Layer_2" data-name="Layer 2"><g id="Layer_1-2" data-name="Layer 1"><path class="cls-1" d="M13.33,3.12H7.73V18.23h-2V3.12H.12V1.32H13.33Z"/><path class="cls-1" d="M15.42.12h1.9v8.5h0c.1-.19.3-.39.5-.69a6.39,6.39,0,0,1,.8-.61,3.76,3.76,0,0,1,1-.39,4.57,4.57,0,0,1,1.2-.2,5.41,5.41,0,0,1,1.9.3,3,3,0,0,1,1.3.9,3.49,3.49,0,0,1,.8,1.5,5.78,5.78,0,0,1,.3,1.9v6.9h-1.9v-6.7a3.59,3.59,0,0,0-.6-2.2,2.41,2.41,0,0,0-1.9-.8,4.15,4.15,0,0,0-1.6.3,3.13,3.13,0,0,0-1.1.9,3,3,0,0,0-.6,1.4,9,9,0,0,0-.2,1.8v5.5h-1.9V.12Z"/><path class="cls-1" d="M38.72,16.23A5.14,5.14,0,0,1,36.52,18a7.78,7.78,0,0,1-2.8.5,6,6,0,0,1-2.4-.5,4.6,4.6,0,0,1-1.8-1.29,4.59,4.59,0,0,1-1.1-1.9,7.72,7.72,0,0,1-.3-2.21,5.83,5.83,0,0,1,.41-2.39,6.15,6.15,0,0,1,1.2-1.9,5.67,5.67,0,0,1,1.8-1.2,5.87,5.87,0,0,1,2.3-.4,5.41,5.41,0,0,1,2.2.4,4.07,4.07,0,0,1,1.7,1.2,5.44,5.44,0,0,1,1.1,1.8,6.75,6.75,0,0,1,.4,2.49v.61H30.12a3.48,3.48,0,0,0,.3,1.39,9,9,0,0,0,.8,1.21,4.41,4.41,0,0,0,1.1.79,3.19,3.19,0,0,0,1.4.3,4.64,4.64,0,0,0,2.1-.4,3.71,3.71,0,0,0,1.5-1.29Zm-1.6-4.61a3,3,0,0,0-.9-2.3,3.24,3.24,0,0,0-2.4-.89,3.52,3.52,0,0,0-2.5.89,4.28,4.28,0,0,0-1.2,2.3Z"/><path class="cls-1" d="M1.93,24.33h4.3a19,19,0,0,1,2.39.1,7.85,7.85,0,0,1,2.2.6,4.21,4.21,0,0,1,1.6,1.4,4.63,4.63,0,0,1,.6,2.5,4.25,4.25,0,0,1-1.1,3,5.35,5.35,0,0,1-3.1,1.5l4.8,7.8h-2.5l-4.6-7.61H3.93v7.6h-2Zm2,7.5h3.5a4.66,4.66,0,0,0,1.69-.3,3.6,3.6,0,0,0,1.2-.8,2.35,2.35,0,0,0,.5-1.6,2.47,2.47,0,0,0-.39-1.5,2.67,2.67,0,0,0-.9-.9,5,5,0,0,0-1.3-.4,7.57,7.57,0,0,0-1.5-.1H3.93Z"/><path class="cls-1" d="M16,25.62a1.42,1.42,0,0,1,2.4-1,1.3,1.3,0,0,1,.4,1,1.27,1.27,0,0,1-.4,1,1.29,1.29,0,0,1-1,.41,1.26,1.26,0,0,1-1-.41A1.16,1.16,0,0,1,16,25.62Zm.4,4.41h1.9v11.2h-1.9Z"/><path class="cls-1" d="M30,32.83a3.11,3.11,0,0,0-1.3-1,3.82,3.82,0,0,0-1.5-.3,4.47,4.47,0,0,0-1.7.3,2.73,2.73,0,0,0-1.2.9,5.78,5.78,0,0,0-.71,1.3,5.22,5.22,0,0,0,.1,3.19,3.53,3.53,0,0,0,.8,1.3,2.73,2.73,0,0,0,1.2.9,4.15,4.15,0,0,0,1.6.3,3.56,3.56,0,0,0,2.9-1.4l1.4,1.3a5.22,5.22,0,0,1-1.9,1.4,5.87,5.87,0,0,1-2.3.4A5.88,5.88,0,0,1,25,41a5.63,5.63,0,0,1-1.79-1.2A6.37,6.37,0,0,1,22,37.92a6.05,6.05,0,0,1-.4-2.4,7,7,0,0,1,.4-2.4,7.65,7.65,0,0,1,1.21-1.9A5.74,5.74,0,0,1,25,30a6.08,6.08,0,0,1,2.4-.4,6.81,6.81,0,0,1,2.41.4,6.25,6.25,0,0,1,2,1.3Z"/><path class="cls-1" d="M33.62,23.12h1.91v8.5h0a7.74,7.74,0,0,1,.5-.7,4.88,4.88,0,0,1,.8-.59,4.06,4.06,0,0,1,1-.41,5.47,5.47,0,0,1,1.2-.2,5.41,5.41,0,0,1,1.9.3,3,3,0,0,1,1.3.9,3.73,3.73,0,0,1,.8,1.5,5.84,5.84,0,0,1,.3,1.91v6.9H41.42v-6.7a3.64,3.64,0,0,0-.59-2.2,2.43,2.43,0,0,0-1.91-.8,4,4,0,0,0-1.59.3,3,3,0,0,0-1.1.9,3,3,0,0,0-.6,1.4,9,9,0,0,0-.2,1.8v5.5h-1.9V23.12Z"/><path class="cls-1" d="M46.83,31.53a5.59,5.59,0,0,1,2.09-1.3,6.74,6.74,0,0,1,2.41-.4A4.55,4.55,0,0,1,54.92,31,5.33,5.33,0,0,1,56,34.62v5.8c0,.3.1.7.1.91h-1.8a2.51,2.51,0,0,1-.1-.91v-.8h0A5.18,5.18,0,0,1,52.72,41a4,4,0,0,1-2.2.59,7.14,7.14,0,0,1-1.6-.2,5.15,5.15,0,0,1-1.3-.59,2.84,2.84,0,0,1-.9-1,3.27,3.27,0,0,1-.3-1.41,3.07,3.07,0,0,1,.7-2.2,5.67,5.67,0,0,1,1.8-1.2,8.56,8.56,0,0,1,2.3-.5,18.48,18.48,0,0,1,2.3-.1h.6v-.3a2.12,2.12,0,0,0-.7-1.79,3.21,3.21,0,0,0-2.09-.6,5.62,5.62,0,0,0-1.8.3,3.77,3.77,0,0,0-1.5.9Zm5.39,4.39a7.56,7.56,0,0,0-2.9.5,1.76,1.76,0,0,0-1.1,1.7,1.56,1.56,0,0,0,.7,1.5,3.43,3.43,0,0,0,1.8.41,3.19,3.19,0,0,0,1.4-.3,3.32,3.32,0,0,0,1-.7,2.38,2.38,0,0,0,.6-1.1,5.07,5.07,0,0,0,.2-1.3v-.7Z"/><path class="cls-1" d="M59.42,32.72v-2.6h1.7v1.8h0a3.9,3.9,0,0,1,.5-.8,2.75,2.75,0,0,1,.81-.7,3.58,3.58,0,0,1,1.1-.5,5.54,5.54,0,0,1,1.3-.2h.4a.6.6,0,0,1,.4.1l-.1,1.9a3.4,3.4,0,0,0-1-.1,2.87,2.87,0,0,0-2.5,1.1,5.45,5.45,0,0,0-.8,3.1v5.5h-1.9v-8.6Z"/><path class="cls-1" d="M76.72,39.33h0A5.27,5.27,0,0,1,75,40.92a5.6,5.6,0,0,1-2.7.7,5.22,5.22,0,0,1-2.2-.4,5.67,5.67,0,0,1-1.8-1.2,6.15,6.15,0,0,1-1.2-1.9,6.05,6.05,0,0,1-.4-2.4,6.72,6.72,0,0,1,.4-2.4,7.61,7.61,0,0,1,1.2-1.9,5.16,5.16,0,0,1,1.9-1.2,6.05,6.05,0,0,1,2.4-.4,5.09,5.09,0,0,1,2.2.5,4.89,4.89,0,0,1,1.8,1.4h0v-8.5h1.9v18.1h-1.9v-2Zm0-3.71a4.13,4.13,0,0,0-.3-1.59,5.46,5.46,0,0,0-.8-1.3,3.81,3.81,0,0,0-1.3-.9,4.42,4.42,0,0,0-3.2,0,3.81,3.81,0,0,0-1.3.9A3.53,3.53,0,0,0,69,34a4.48,4.48,0,0,0-.3,1.59,4.53,4.53,0,0,0,.3,1.6,5.67,5.67,0,0,0,.8,1.3,3.81,3.81,0,0,0,1.3.9,4.15,4.15,0,0,0,1.6.3,3.85,3.85,0,0,0,2.9-1.2,3.55,3.55,0,0,0,.81-1.3A4,4,0,0,0,76.72,35.62Z"/><path class="cls-1" d="M10,50.33a3.77,3.77,0,0,0-1.3-1.21,3.52,3.52,0,0,0-1.8-.4,5.85,5.85,0,0,0-1.3.2,6.12,6.12,0,0,0-1.2.5,2.32,2.32,0,0,0-.8.91,2.54,2.54,0,0,0-.3,1.29,2.86,2.86,0,0,0,.2,1,1.56,1.56,0,0,0,.6.8,4.54,4.54,0,0,0,1,.7,12.63,12.63,0,0,0,1.7.6,10.66,10.66,0,0,1,1.9.7,4.06,4.06,0,0,1,1.6.91,3.86,3.86,0,0,1,1.11,1.4,4.38,4.38,0,0,1,.39,2.1,5.09,5.09,0,0,1-.5,2.2,3.61,3.61,0,0,1-1.2,1.5,6.85,6.85,0,0,1-1.89.9,8.33,8.33,0,0,1-2.2.3,7.57,7.57,0,0,1-1.5-.1,5.73,5.73,0,0,1-1.4-.4,5.39,5.39,0,0,1-1.3-.7,5.24,5.24,0,0,1-1-1.1L2.53,61A4,4,0,0,0,4,62.43a4.94,4.94,0,0,0,2.09.5,6,6,0,0,0,1.31-.2,3.26,3.26,0,0,0,1.19-.6c.4-.2.61-.6.9-.9a2.77,2.77,0,0,0,.3-1.3,2.5,2.5,0,0,0-.3-1.3,3.24,3.24,0,0,0-.8-.9,4.54,4.54,0,0,0-1.4-.6c-.6-.2-1.2-.4-2-.7a8.65,8.65,0,0,1-1.7-.7,7.3,7.3,0,0,1-1.3-.9,4.28,4.28,0,0,1-.9-1.3,4.9,4.9,0,0,1-.3-1.81,4.65,4.65,0,0,1,.5-2.1,5.1,5.1,0,0,1,1.31-1.5,6,6,0,0,1,1.8-.9,7.27,7.27,0,0,1,2.2-.3,6.81,6.81,0,0,1,2.59.41,5,5,0,0,1,2.1,1.5Z"/><path class="cls-1" d="M14.83,53h1.9v1.59h0a5.16,5.16,0,0,1,1.79-1.4,5.5,5.5,0,0,1,2.21-.5,6,6,0,0,1,2.39.4A7.47,7.47,0,0,1,25,54.33a4.87,4.87,0,0,1,1.21,1.9,6.22,6.22,0,0,1,.39,2.39A7,7,0,0,1,26.23,61,7.83,7.83,0,0,1,25,62.93a5.55,5.55,0,0,1-1.79,1.19,5,5,0,0,1-2.11.5,5,5,0,0,1-2.7-.69,4.4,4.4,0,0,1-1.7-1.6h0v7.5h-1.9Zm1.9,5.59a4.34,4.34,0,0,0,.29,1.6,6.37,6.37,0,0,0,.8,1.31,4,4,0,0,0,1.3.9,4.34,4.34,0,0,0,1.6.3,3.85,3.85,0,0,0,2.9-1.2,3.65,3.65,0,0,0,.8-1.31,4.53,4.53,0,0,0,.3-1.6,4.13,4.13,0,0,0-.3-1.59,5.46,5.46,0,0,0-.8-1.3,3,3,0,0,0-1.3-.9,4,4,0,0,0-1.6-.3,3.66,3.66,0,0,0-1.6.3,3.81,3.81,0,0,0-1.3.9A3.53,3.53,0,0,0,17,57,4.69,4.69,0,0,0,16.73,58.62Z"/><path class="cls-1" d="M29.42,54.53a5.71,5.71,0,0,1,2.1-1.3,6.72,6.72,0,0,1,2.4-.4,4.57,4.57,0,0,1,3.6,1.2,5.33,5.33,0,0,1,1.1,3.59v5.81c0,.3.1.69.1.9h-1.8a2.48,2.48,0,0,1-.1-.9v-.81h0A5.18,5.18,0,0,1,35.32,64a3.78,3.78,0,0,1-2.2.59,7.78,7.78,0,0,1-1.59-.19,5,5,0,0,1-1.3-.6,2.84,2.84,0,0,1-.9-1,3.65,3.65,0,0,1,.4-3.6,5.67,5.67,0,0,1,1.8-1.2,8.56,8.56,0,0,1,2.3-.5,18.25,18.25,0,0,1,2.29-.1h.71v-.3a2.14,2.14,0,0,0-.71-1.8,3.27,3.27,0,0,0-2.09-.6,5.66,5.66,0,0,0-1.8.3,3.77,3.77,0,0,0-1.5.9Zm5.5,4.4a7.38,7.38,0,0,0-2.9.5,1.75,1.75,0,0,0-1.1,1.69,1.58,1.58,0,0,0,.7,1.5,3.33,3.33,0,0,0,1.8.41,3.14,3.14,0,0,0,1.41-.31,3.56,3.56,0,0,0,1-.69,2.37,2.37,0,0,0,.59-1.1,5.15,5.15,0,0,0,.2-1.31v-.69Z"/><path class="cls-1" d="M50,55.83a3.11,3.11,0,0,0-1.3-1,3.82,3.82,0,0,0-1.5-.3,4.47,4.47,0,0,0-1.7.3,2.67,2.67,0,0,0-1.2.9,5.78,5.78,0,0,0-.71,1.3,5.22,5.22,0,0,0,.1,3.19,3.65,3.65,0,0,0,.8,1.31,2.81,2.81,0,0,0,1.2.9,4.34,4.34,0,0,0,1.6.3,3.56,3.56,0,0,0,2.9-1.4l1.4,1.3a5.22,5.22,0,0,1-1.9,1.4,5.87,5.87,0,0,1-2.3.4A6.05,6.05,0,0,1,45,64a5.67,5.67,0,0,1-1.8-1.2,6.15,6.15,0,0,1-1.2-1.9,6.05,6.05,0,0,1-.4-2.4,6.72,6.72,0,0,1,.4-2.4,7.61,7.61,0,0,1,1.2-1.9A4.39,4.39,0,0,1,45,53a6.05,6.05,0,0,1,2.4-.4,6.81,6.81,0,0,1,2.41.4,5.33,5.33,0,0,1,2,1.3Z"/><path class="cls-1" d="M63.62,62.22A5.26,5.26,0,0,1,61.43,64a7.82,7.82,0,0,1-2.8.5,6,6,0,0,1-2.4-.5,4.65,4.65,0,0,1-1.8-1.31,4.47,4.47,0,0,1-1.1-1.9,5.87,5.87,0,0,1-.4-2.3,6.05,6.05,0,0,1,.4-2.4,6.15,6.15,0,0,1,1.2-1.9,5.67,5.67,0,0,1,1.8-1.2,5.87,5.87,0,0,1,2.3-.4,5.41,5.41,0,0,1,2.2.4,4.07,4.07,0,0,1,1.7,1.2A5.26,5.26,0,0,1,63.62,56a6.38,6.38,0,0,1,.41,2.5v.6h-9.1a3.53,3.53,0,0,0,.3,1.4,8.34,8.34,0,0,0,.8,1.2,4.58,4.58,0,0,0,1.09.8,3.27,3.27,0,0,0,1.41.3,4.57,4.57,0,0,0,2.09-.4,3.74,3.74,0,0,0,1.5-1.3ZM62,57.62a3,3,0,0,0-.91-2.29,3.23,3.23,0,0,0-2.4-.91,3.45,3.45,0,0,0-2.5.91A4.22,4.22,0,0,0,55,57.62Z"/></g></g></svg>