<?xml version="1.0" standalone="no"?>
<!DOCTYPE svg PUBLIC "-//W3C//DTD SVG 1.1//EN" "http://www.w3.org/Graphics/SVG/1.1/DTD/svg11.dtd" >
<svg>
<metadata>
Created by FontForge 20120731 at Thu Aug 15 07:58:19 2019
 By www
</metadata>
<defs>
<font id="HaverjW01-Bold" horiz-adv-x="550" >
  <font-face 
    font-family="HaverjW01-Bold"
    font-weight="700"
    font-stretch="normal"
    units-per-em="1000"
    panose-1="2 14 7 3 5 5 5 2 2 3"
    ascent="763"
    descent="-237"
    x-height="435"
    cap-height="697"
    bbox="-58 -263 1001 942"
    underline-thickness="50"
    underline-position="-100"
    unicode-range="U+0020-2122"
  />
<missing-glyph horiz-adv-x="0" 
 />
    <glyph glyph-name=".notdef" horiz-adv-x="0" 
 />
    <glyph glyph-name="glyph1" horiz-adv-x="0" 
 />
    <glyph glyph-name="glyph2" horiz-adv-x="0" 
 />
    <glyph glyph-name="space" unicode=" " horiz-adv-x="233" 
 />
    <glyph glyph-name="space" unicode="&#xa0;" horiz-adv-x="233" 
 />
    <glyph glyph-name="exclam" unicode="!" horiz-adv-x="267" 
d="M70 625q-1 17 1.5 33t10 29t20.5 20.5t31 7.5t30.5 -7.5t20.5 -20t11 -28.5t2 -34l-29 -412q-2 -24 -6.5 -37.5t-28.5 -13.5t-28.5 13.5t-6.5 37.5zM73 54q0 23 15.5 43t44.5 20q26 0 43 -19t17 -44q0 -26 -17 -45t-43 -19q-29 0 -44.5 20t-15.5 44z" />
    <glyph glyph-name="quotedbl" unicode="&#x22;" horiz-adv-x="465" 
d="M385 739l-41 -227h-44l-41 227h126zM206 739l-41 -227h-44l-41 227h126z" />
    <glyph glyph-name="numbersign" unicode="#" horiz-adv-x="712" 
d="M375 29l26 163h-146l-27 -163h-83l27 163h-130l14 83h129l29 175h-130l15 83h129l27 163h83l-26 -163h146l27 163h83l-27 -163h129l-14 -83h-128l-29 -175h129l-14 -83h-129l-27 -163h-83zM415 275l28 175h-145l-29 -175h146z" />
    <glyph glyph-name="dollar" unicode="$" 
d="M239 303q-27 13 -56.5 30.5t-55 41t-42 55.5t-16.5 75q0 59 22 100t54 64q23 17 56 27t62 13v83h46v-83q20 -2 44 -5t44 -8q17 -5 42.5 -13.5t41.5 -13.5v-158q0 -7 -5.5 -11t-10.5 -4q-8 0 -12.5 6t-6.5 11q-10 24 -20.5 45.5t-25.5 40.5q-23 28 -46 40t-45 17v-231
l69 -31q25 -11 50 -26.5t45.5 -37.5t33 -52.5t12.5 -72.5q0 -63 -26.5 -107t-60.5 -67q-28 -20 -62 -29t-61 -11v-74h-46v73q-12 1 -31.5 3.5t-44.5 10t-55 20.5t-63 35l-13 178q-1 14 5.5 19t11.5 5q11 0 16 -9t7 -13q4 -12 10.5 -28t15 -33.5t18 -35t20.5 -32.5
q21 -29 44.5 -45t58.5 -21v247zM309 48q38 12 55.5 42t17.5 67q0 48 -23 74t-50 37v-220zM263 652q-35 -11 -49 -41t-14 -63q0 -37 17 -60t46 -40v204z" />
    <glyph glyph-name="percent" unicode="%" horiz-adv-x="772" 
d="M565 330q18 0 35 -3.5t34 -14.5t27 -26t17 -35q10 -26 12 -48.5t2 -42.5t-2 -43.5t-12 -48.5q-6 -17 -17 -33.5t-27 -27.5t-34 -14t-35 -3t-35 3t-34 14t-27 27.5t-17 33.5q-10 25 -12 48.5t-2 43.5t2 42.5t12 48.5q7 20 17 35t27 26t34 14.5t35 3.5zM565 288
q-11 0 -18 -9q-3 -4 -6.5 -10.5t-5.5 -19.5t-3.5 -34.5t-1.5 -54.5t1.5 -54t4 -34.5t5.5 -20t6 -10.5q5 -6 9 -7.5t9 -1.5t9 1.5t9 7.5q3 4 6 10.5t5.5 20t4 34.5t1.5 54t-1.5 54.5t-3.5 34.5t-5.5 19.5t-6.5 10.5q-8 9 -18 9zM207 710q18 0 35 -3.5t34 -14.5t27 -26t17 -35
q10 -26 12 -48.5t2 -42.5t-2 -43.5t-12 -48.5q-6 -17 -17 -33.5t-27 -27.5t-34 -14t-35 -3t-35 3t-34 14t-27 27.5t-17 33.5q-10 25 -12 48.5t-2 43.5t2 42.5t12 48.5q7 20 17 35t27 26t34 14.5t35 3.5zM207 668q-11 0 -18 -9q-3 -4 -6.5 -10.5t-5.5 -19.5t-3.5 -34.5
t-1.5 -54.5t1.5 -54t4 -34.5t5.5 -20t6 -10.5q5 -6 9 -7.5t9 -1.5t9 1.5t9 7.5q3 4 6 10.5t5.5 20t4 34.5t1.5 54t-1.5 54.5t-3.5 34.5t-5.5 19.5t-6.5 10.5q-8 9 -18 9zM618 764l46 -34l-502 -792l-46 34z" />
    <glyph glyph-name="ampersand" unicode="&#x26;" horiz-adv-x="721" 
d="M476 223q7 11 17.5 29t20.5 41q9 20 13.5 37.5t4.5 25.5q0 10 -6 21t-17 18q-5 3 -11 7.5t-6 12.5q0 4 3 8.5t12 4.5q7 0 13.5 -1.5t15.5 -3.5q16 -4 36 -4q11 0 26 1.5t26 3.5q8 2 15.5 3t14.5 1q11 0 13.5 -5t2.5 -9q0 -7 -5.5 -11.5t-10.5 -7.5q-13 -8 -21.5 -14
t-15 -13.5t-12 -16t-11.5 -20.5q-11 -20 -20 -40q-7 -14 -13.5 -28.5t-14.5 -28.5q-9 -17 -17.5 -30.5t-17.5 -26.5q7 -10 18.5 -23t25 -24.5t29 -19.5t30.5 -8q13 0 23.5 6t18 15t12.5 19t7 18q2 6 6.5 16.5t18.5 10.5q7 0 14 -6.5t7 -20.5q0 -9 -4.5 -23.5t-6.5 -20.5
q-3 -9 -9.5 -21.5t-15 -25.5t-17.5 -24.5t-18 -20.5q-19 -18 -40.5 -26t-41.5 -8q-22 0 -43.5 9.5t-38.5 22.5q-17 12 -32 29t-22 25q-26 -29 -50 -46t-46.5 -26t-42.5 -11.5t-37 -2.5q-40 0 -72.5 10t-61.5 40q-23 25 -33.5 53t-10.5 60q0 45 20.5 91.5t76.5 94.5
q7 6 26.5 21t60.5 42q-13 44 -20 76.5t-7 64.5q0 22 5.5 50.5t25.5 56.5q13 19 28.5 31t30.5 18.5t29 8.5t26 2q27 0 52 -9t45 -33q17 -20 22.5 -40.5t5.5 -37.5q0 -39 -15 -70t-35.5 -54t-41 -38t-32.5 -22q26 -68 52 -112.5t43 -70.5zM390 128q-9 14 -25.5 40.5
t-33.5 61.5q-14 27 -26 55t-22 54q-43 -38 -57 -76.5t-14 -70.5q0 -31 8 -52t21 -34t28 -19t30 -6q22 0 47 12t44 35zM358 459q11 7 26 19t29 33q11 17 18 35.5t7 40.5q0 9 -1.5 25.5t-12.5 30.5q-13 17 -35 17q-23 0 -38 -19q-7 -9 -11 -19t-5.5 -19.5t-1.5 -17.5v-11
q0 -13 2.5 -28.5t6 -31.5t8 -30.5t8.5 -24.5z" />
    <glyph glyph-name="quotesingle" unicode="'" horiz-adv-x="286" 
d="M206 739l-41 -227h-44l-41 227h126z" />
    <glyph glyph-name="parenleft" unicode="(" horiz-adv-x="524" 
d="M454 657q-36 -29 -77.5 -73t-70.5 -100q-19 -37 -29.5 -72.5t-16 -66.5t-7 -57t-1.5 -43t1.5 -42.5t7 -57t16 -67.5t29.5 -72q11 -21 28 -46t37 -48.5t41.5 -43.5t41.5 -33v-68q-40 13 -85 40t-95 81q-32 35 -60 77.5t-49 89t-33 95t-12 95.5q0 46 12 95t33 95.5t49 89
t60 77.5q50 54 95 81t85 40v-66z" />
    <glyph glyph-name="parenright" unicode=")" horiz-adv-x="524" 
d="M70 723q40 -13 85 -40t95 -81q31 -35 59 -77.5t49 -89t33.5 -95.5t12.5 -95q0 -47 -12.5 -95.5t-33.5 -95t-49 -89t-59 -77.5q-50 -54 -95 -81t-85 -40v68q20 13 41.5 33t41.5 43.5t37 48.5t28 46q19 36 29.5 72t16 67.5t7 57t1.5 42.5t-1.5 43t-7 57t-16 66.5
t-29.5 72.5q-29 56 -70.5 100t-77.5 73v66z" />
    <glyph glyph-name="asterisk" unicode="*" horiz-adv-x="500" 
d="M355 606q5 2 13 6.5t11 7.5q5 5 7 11t8 6q8 0 10 -7t3 -15q2 -14 5 -26.5t10 -23.5q3 -4 5.5 -7.5t2.5 -7.5q0 -11 -11 -11q-4 0 -8.5 3t-9.5 4q-12 2 -25 -2l-88 -20l58 -66q11 -12 17.5 -15.5t12.5 -5.5q4 -1 8 -2.5t4 -7.5t-3 -8.5t-6 -3.5q-8 -3 -14 -5t-17 -10
q-5 -4 -10.5 -9.5l-8.5 -8.5l-8 -8t-9 -4q-11 0 -11 11q0 8 1 7t1 5q0 5 -3 14t-6 14l-45 80l-45 -80q-2 -5 -5.5 -15t-3.5 -13q0 -5 1 -5t1 -7q0 -11 -11 -11q-5 0 -9 4l-8 8q-3 3 -10.5 9.5t-10.5 8.5t-14 8t-16 8q-2 1 -5 3t-3 7q0 6 4.5 8t7.5 3q6 2 12.5 5.5t17.5 15.5
l58 66l-86 20q-13 4 -25 2q-5 -1 -9.5 -4t-8.5 -3q-11 0 -11 11q0 4 2.5 7.5t5.5 7.5q7 11 10 23.5t5 26.5q1 8 3 15t10 7q6 0 8 -6t7 -11q3 -3 11 -7.5t13 -6.5l82 -37l-10 91q-2 14 -3.5 19t-2.5 7q-2 4 -6.5 8.5t-4.5 9.5q0 10 11 10q2 0 4.5 -0.5t9.5 -1.5q4 -1 9 -1.5
t16 -0.5t16 0.5t9 1.5q7 1 9.5 1.5t4.5 0.5q11 0 11 -10q0 -5 -4.5 -9.5t-6.5 -8.5q-1 -2 -2.5 -7t-3.5 -19l-10 -91z" />
    <glyph glyph-name="plus" unicode="+" horiz-adv-x="745" 
d="M335 21v245h-245v78h245v245h75v-245h245v-78h-245v-245h-75z" />
    <glyph glyph-name="comma" unicode="," horiz-adv-x="246" 
d="M186 33q0 -24 -5 -50t-13 -46q-6 -15 -17.5 -35.5t-20.5 -32.5q-14 -19 -22.5 -25.5t-14.5 -6.5q-8 0 -14.5 6t-6.5 14t5.5 14.5t11.5 13.5q11 14 19.5 33.5t12.5 36.5q2 11 3.5 22t2.5 22q-2 0 -6.5 -1t-8.5 -1q-18 0 -35 14t-17 43q0 21 13.5 40t45.5 19q17 0 29 -5.5
t23 -19.5t13 -28t2 -27z" />
    <glyph glyph-name="hyphen" unicode="-" horiz-adv-x="568" 
d="M143 199v49l12 13h258l12 -13v-49l-12 -13h-258z" />
    <glyph glyph-name="hyphen" unicode="&#x2010;" horiz-adv-x="568" 
d="M143 199v49l12 13h258l12 -13v-49l-12 -13h-258z" />
    <glyph glyph-name="hyphen" unicode="&#xad;" horiz-adv-x="568" 
d="M143 199v49l12 13h258l12 -13v-49l-12 -13h-258z" />
    <glyph glyph-name="period" unicode="." horiz-adv-x="236" 
d="M60 52q0 23 16 42t42 19q25 0 41.5 -18t16.5 -43q0 -26 -17 -44t-41 -18q-25 0 -41.5 19t-16.5 43z" />
    <glyph glyph-name="slash" unicode="/" horiz-adv-x="639" 
d="M100 -188l373 956l66 -30l-374 -955z" />
    <glyph glyph-name="zero" unicode="0" 
d="M275 710q33 0 64.5 -7.5t60.5 -27.5q37 -26 58.5 -62.5t32.5 -66.5q20 -54 25.5 -103.5t5.5 -92.5t-5.5 -93t-25.5 -104q-14 -37 -36.5 -72t-54.5 -58q-29 -20 -60.5 -26.5t-64.5 -6.5t-64.5 6.5t-60.5 26.5q-32 23 -54.5 58t-36.5 72q-20 54 -25.5 104t-5.5 93t5.5 92.5
t25.5 103.5q6 15 13.5 32t18.5 34.5t25.5 33.5t33.5 29q29 20 60.5 27.5t64.5 7.5zM275 659q-13 0 -27 -5.5t-29 -25.5q-12 -17 -20 -40t-13.5 -56t-7.5 -78t-2 -104q0 -116 9.5 -182t33.5 -97q15 -20 29.5 -25t26.5 -5t26.5 5t29.5 25q24 31 33.5 97t9.5 182q0 59 -2 104
t-7.5 78t-13.5 56t-20 40q-15 20 -29 25.5t-27 5.5z" />
    <glyph glyph-name="one" unicode="1" 
d="M219 558q0 14 -6 20.5t-15 12.5q-7 5 -15.5 11t-8.5 15q0 12 11 17t21 9q14 5 30 13t30 16q9 6 20.5 14t24 17.5t24 19t20.5 17.5v-660q0 -13 3.5 -22.5t9.5 -19.5t10 -16t4 -12q0 -7 -3.5 -8.5t-8.5 -1.5h-166q-5 0 -8.5 1.5t-3.5 8.5q0 6 4 12t10 16t9.5 19.5t3.5 22.5
v478z" />
    <glyph glyph-name="two" unicode="2" 
d="M53 0q-19 0 -23.5 10.5t-4.5 16.5q0 13 7 20t15 12q30 19 55.5 35t63.5 45q15 12 32.5 26.5t35 29.5t32.5 30t26 27q36 41 61 92t25 102q0 44 -16 73t-36 44q-25 18 -55 23.5t-56 5.5q-8 0 -20.5 -0.5t-28 -3t-31.5 -7.5t-29 -14l-12 -8t-12 -4q-3 0 -8.5 2.5t-5.5 13.5
q0 8 3 15t6 16q2 7 5 16.5t5 14.5q8 25 12 50q30 12 65.5 19.5t71.5 7.5q47 0 92.5 -12.5t78.5 -35.5q41 -28 69 -77t28 -107q0 -38 -13 -72.5t-34 -65.5t-48 -59t-55 -53q-42 -37 -75 -61.5t-64 -44.5v-2h67q10 0 27.5 1t28.5 3q10 1 16 2.5t9.5 3t6 2.5t6.5 1
q11 0 16.5 -8t8.5 -16q15 -34 33 -60t42 -49h-423z" />
    <glyph glyph-name="three" unicode="3" 
d="M238 582q-11 0 -26.5 -0.5t-32 -1.5t-31 -2.5t-23.5 -2.5q-14 -2 -19.5 -3.5t-10.5 -1.5q-8 0 -10 4t-2 7q0 5 4 11t10 14q5 8 12 20t11 20q3 7 7 19.5t6 20.5q3 12 5.5 15t10.5 3t17.5 -2t29.5 -4q31 -4 55.5 -5.5t44.5 -1.5h206l-155 -216q10 -2 32.5 -9t45.5 -24
q37 -26 57.5 -68.5t20.5 -92.5q0 -58 -26.5 -118t-71.5 -103q-36 -35 -77.5 -52.5t-92.5 -17.5q-37 0 -66 8t-56 23q-47 26 -88 70q19 24 39 59q11 20 17.5 35t11.5 29q2 5 6.5 12t12.5 7q9 0 11 -7t3 -12q1 -13 6 -37t31 -50q23 -23 53.5 -33t61.5 -10q35 0 62.5 10.5
t44.5 26.5q18 17 29 42t11 54q0 33 -16 66.5t-54 58.5q-27 18 -62.5 27t-67.5 9l137 204h-124z" />
    <glyph glyph-name="four" unicode="4" 
d="M418 170v-90q0 -13 3.5 -22.5t9.5 -19.5t10 -16t4 -12q0 -7 -3.5 -8.5t-8.5 -1.5h-166q-5 0 -8.5 1.5t-3.5 8.5q0 6 4 12t10 16t9.5 19.5t3.5 22.5v90h-227q-11 0 -16.5 7t-5.5 15t3.5 12.5t6.5 11.5l239 471q4 10 17 10q3 0 7.5 -0.5t14.5 -2.5q9 -1 18.5 -2t22.5 -1
q8 0 22 0.5t22 1.5q10 1 16 2.5t11 1.5q7 0 9 -3t2 -5t-1 -5t-6 -9l-317 -434v-1l162 24v101q29 11 54 25t44 28t26 19t12 5q13 0 13 -14q0 -7 -2 -11t-4.5 -7.5t-4.5 -9t-2 -14.5v-103l44 8q17 -65 54 -121h-98z" />
    <glyph glyph-name="five" unicode="5" 
d="M155 691h90q27 0 41.5 0.5t23.5 1t15 1.5t17 2q26 3 35 4.5t15 1.5q7 0 9.5 -2.5t7.5 -11.5q2 -4 4.5 -7t4.5 -7q3 -5 6.5 -10.5t6.5 -10.5q6 -10 12.5 -19t13.5 -17q11 -14 17.5 -22t6.5 -17q0 -12 -8.5 -12.5t-15.5 0.5l-268 28l-14 -73q32 0 64.5 -2.5t63.5 -10.5
t59.5 -21.5t52.5 -34.5q36 -32 58 -80t22 -105q0 -53 -24 -107.5t-69 -99.5q-35 -35 -74.5 -52.5t-92.5 -17.5q-27 0 -50 5t-49 18q-23 11 -44 26t-38 31l24 148q1 5 3.5 10.5t10.5 5.5t10.5 -7t3.5 -12q5 -28 17 -50.5t28 -37.5q15 -15 43.5 -29t75.5 -14q30 0 56 8.5
t47 27.5q15 14 29.5 39t14.5 64q0 43 -22 80t-59 60q-20 12 -47.5 20.5t-58.5 12.5t-63 5t-62 -2z" />
    <glyph glyph-name="six" unicode="6" 
d="M200 409q20 15 46 26t63 11q43 0 73 -13t49 -29q28 -23 51.5 -67t23.5 -110q0 -51 -14.5 -89.5t-35.5 -65.5q-28 -36 -69 -59t-100 -23q-52 0 -93 20t-74 66q-19 27 -31 56t-18.5 59t-8.5 59t-2 55q0 60 11 117.5t34 104.5q3 5 11 19.5t21.5 33t33.5 39.5t47 40
q45 32 85.5 41.5t70.5 9.5q39 0 74 -16q4 -27 6.5 -44.5l4 -28t3 -16t2.5 -9.5q2 -8 4 -13t2 -9q0 -6 -4 -8t-7 -2q-8 0 -13 5.5t-11 12.5q-8 8 -19 17.5t-21 14.5q-14 8 -31 13t-40 5q-37 0 -61 -14.5t-40 -43.5q-9 -17 -14 -40t-7.5 -46.5t-2.5 -44.5t1 -34zM198 188
q0 -9 0.5 -23.5t3.5 -31.5t9 -34t17 -30q8 -10 22.5 -18.5t35.5 -8.5q29 0 47 14t26 30t12 45.5t4 89.5q0 57 -4.5 88t-16.5 50q-6 9 -20.5 21t-40.5 12q-19 0 -35 -7t-28 -17t-20 -21t-12 -18v-141z" />
    <glyph glyph-name="seven" unicode="7" 
d="M130 0q-15 0 -16.5 10.5t5.5 23.5l284 557l-293 -17q-14 -1 -19 -2.5t-11 -1.5q-8 0 -10 4t-2 7q0 5 4 11t10 14q5 8 12 20t11 20q3 7 7 19.5t6 20.5q3 12 5.5 15t10.5 3t17.5 -2t29.5 -4q31 -4 55.5 -5.5t44.5 -1.5h214l-224 -691h-141z" />
    <glyph glyph-name="eight" unicode="8" 
d="M384 379q21 -9 43 -22.5t40.5 -34t30 -48.5t11.5 -65q0 -29 -6.5 -53t-16.5 -43.5t-21 -34t-21 -23.5q-37 -36 -80.5 -50.5t-91.5 -14.5q-40 0 -84.5 11.5t-83.5 48.5q-31 29 -46.5 65t-15.5 75q0 29 9.5 54.5t25.5 46.5t37 37.5t44 27.5v3q-37 20 -57.5 44.5t-30 47
t-11.5 39.5t-2 23q0 51 19.5 90t67.5 70q28 18 59 27.5t67 9.5q48 0 87 -13.5t65 -35.5q34 -28 48.5 -64t14.5 -69q0 -51 -30 -88.5t-71 -57.5v-3zM323 409q11 9 21 20.5t18 28.5t13 34.5t5 39.5q0 37 -12 60.5t-26 37.5q-16 16 -34 22.5t-41 6.5q-15 0 -32 -5t-32 -20
q-13 -13 -21.5 -33t-8.5 -46t10 -47t34 -40q8 -6 21.5 -14t28.5 -16.5t30 -16t26 -12.5zM215 324q-28 -25 -42 -54q-11 -21 -14 -41t-3 -38q0 -28 5 -49t13 -36t17.5 -25t17.5 -16q16 -12 35.5 -18t36.5 -6q26 0 50 10t39 27q9 11 18 29.5t9 47.5q0 40 -16.5 63.5
t-49.5 43.5q-7 4 -15 8.5t-21 11t-32 17t-48 25.5z" />
    <glyph glyph-name="nine" unicode="9" 
d="M367 512q0 9 -0.5 23.5t-3.5 31.5t-9 34t-17 30q-8 10 -22.5 18.5t-35.5 8.5q-29 0 -47 -14t-26 -30q-4 -8 -7 -19t-5 -27t-3 -38t-1 -52q0 -57 4.5 -87.5t16.5 -49.5q6 -9 20.5 -21t40.5 -12q19 0 34.5 7t27.5 17t20.5 21t12.5 18v141zM95 123q-1 8 4.5 10.5t9.5 2.5
q8 0 12.5 -6.5t6.5 -11.5q5 -11 12.5 -21.5t22.5 -19.5q16 -9 32 -11.5t30 -2.5q38 0 68 14t49 49q3 6 7.5 17.5t8.5 31t6 48t1 69.5q-20 -16 -46 -27t-64 -11q-42 0 -72 13t-49 29q-28 23 -51.5 67t-23.5 110q0 51 14.5 89.5t35.5 65.5q28 36 69 59t100 23q52 0 93 -20
t74 -66q19 -27 31 -56t18.5 -59t8.5 -59t2 -55q0 -60 -11 -117.5t-34 -104.5q-3 -5 -11 -19.5t-21.5 -33t-33.5 -39.5t-47 -40q-38 -27 -78 -39t-77 -12q-20 0 -43 4.5t-46 15.5z" />
    <glyph glyph-name="colon" unicode=":" horiz-adv-x="238" 
d="M60 367q0 23 16.5 42.5t42.5 19.5q25 0 42 -18.5t17 -43.5q0 -26 -17.5 -44.5t-41.5 -18.5q-15 0 -26.5 6.5t-18.5 16.5t-10.5 21t-3.5 19zM60 53q0 23 16.5 42.5t42.5 19.5q25 0 42 -18.5t17 -43.5q0 -26 -17.5 -44.5t-41.5 -18.5q-15 0 -26.5 6.5t-18.5 16.5t-10.5 21
t-3.5 19z" />
    <glyph glyph-name="semicolon" unicode=";" horiz-adv-x="246" 
d="M186 33q0 -24 -5 -50t-13 -46q-6 -15 -17.5 -35.5t-20.5 -32.5q-14 -19 -22.5 -25.5t-14.5 -6.5q-8 0 -14.5 6t-6.5 14t5.5 14.5t11.5 13.5q11 14 19.5 33.5t12.5 36.5q2 11 3.5 22t2.5 22q-2 0 -6.5 -1t-8.5 -1q-18 0 -35 14t-17 43q0 21 13.5 40t45.5 19q17 0 29 -5.5
t23 -19.5t13 -28t2 -27zM61 367q0 29 17.5 45.5t40.5 16.5q25 0 42 -18.5t17 -43.5q0 -26 -17 -44.5t-42 -18.5q-23 0 -40.5 16.5t-17.5 46.5z" />
    <glyph glyph-name="semicolon" unicode="&#x37e;" horiz-adv-x="246" 
d="M186 33q0 -24 -5 -50t-13 -46q-6 -15 -17.5 -35.5t-20.5 -32.5q-14 -19 -22.5 -25.5t-14.5 -6.5q-8 0 -14.5 6t-6.5 14t5.5 14.5t11.5 13.5q11 14 19.5 33.5t12.5 36.5q2 11 3.5 22t2.5 22q-2 0 -6.5 -1t-8.5 -1q-18 0 -35 14t-17 43q0 21 13.5 40t45.5 19q17 0 29 -5.5
t23 -19.5t13 -28t2 -27zM61 367q0 29 17.5 45.5t40.5 16.5q25 0 42 -18.5t17 -43.5q0 -26 -17 -44.5t-42 -18.5q-23 0 -40.5 16.5t-17.5 46.5z" />
    <glyph glyph-name="less" unicode="&#x3c;" horiz-adv-x="732" 
d="M583 640l36 -64l-398 -272l398 -272l-36 -63l-494 335z" />
    <glyph glyph-name="equal" unicode="=" horiz-adv-x="745" 
d="M90 433h565v-78h-565v78zM90 255h565v-79h-565v79z" />
    <glyph glyph-name="greater" unicode="&#x3e;" horiz-adv-x="732" 
d="M149 -31l-36 63l398 272l-398 272l36 64l494 -336z" />
    <glyph glyph-name="question" unicode="?" horiz-adv-x="476" 
d="M56 668q15 7 31.5 13.5t36.5 12.5q23 8 47 12t56 4q14 0 31 -1t35 -5t36 -11.5t35 -19.5q26 -20 41 -50.5t15 -75.5q0 -34 -11.5 -61t-30.5 -50q-20 -23 -45 -43t-57 -52q-18 -17 -27 -29.5t-19 -31.5q-10 -18 -12 -27.5t-2 -26.5q-1 -22 -1.5 -32t-2.5 -16
q-7 -17 -24 -17q-13 0 -20 5t-10 10q-1 2 -3 11t-2 33q0 36 12.5 64.5t30.5 56.5q18 27 33.5 50t26.5 55q8 23 14 55t6 56q0 23 -6 44.5t-19 35.5q-8 8 -20 14t-28 6q-29 0 -47.5 -16.5t-29.5 -34.5q-14 -23 -21 -42t-14 -42q-2 -5 -5.5 -11t-13.5 -6q-5 0 -10.5 3.5
t-5.5 14.5v145zM129 54q0 23 15.5 43t44.5 20q26 0 43 -19t17 -44q0 -26 -17 -45t-43 -19q-29 0 -44.5 20t-15.5 44z" />
    <glyph glyph-name="at" unicode="@" horiz-adv-x="780" 
d="M496 408q-17 -4 -34.5 -9.5t-31.5 -12.5q-29 -14 -54.5 -38t-44.5 -53t-30 -62.5t-11 -68.5q0 -9 1 -17.5t6 -15.5q5 -8 11.5 -10t11.5 -2q11 0 21.5 5t19.5 12.5t16.5 16t12.5 15.5q16 21 34 49.5t29 52.5q5 12 11.5 31t12.5 39t11 38.5t8 29.5zM529 148q-1 -2 -3 -12
t-2 -14q0 -10 5.5 -12.5t10.5 -2.5q20 0 35.5 7t28.5 18t22.5 24.5t17.5 27.5q19 33 30 67t11 74q0 36 -10.5 77t-37.5 75.5t-74 57t-120 22.5q-87 0 -148 -29t-100 -77t-57 -109.5t-18 -126.5q0 -71 18.5 -120t49.5 -80t71 -46t83.5 -18t86.5 4.5t80 21.5l45 -60
q-43 -23 -83.5 -31.5t-86.5 -8.5q-77 0 -137 22.5t-101.5 66t-63.5 106.5t-22 143q0 103 31.5 180t84.5 128.5t123 77.5t147 26q62 0 116.5 -19t95 -55.5t64 -91t23.5 -125.5q0 -56 -16 -109t-57 -101q-25 -29 -48.5 -45.5t-45.5 -24.5t-43 -9.5t-40 -1.5t-34.5 2t-29.5 16
q-11 11 -13.5 22.5t-2.5 22.5q0 13 5 28l9 31h-5q-8 -13 -20.5 -30t-28.5 -34q-6 -7 -16.5 -17t-24 -19t-30 -15.5t-34.5 -6.5q-15 0 -30.5 6t-27.5 18.5t-19.5 32.5t-7.5 47q0 41 15 77t39 69q27 38 58 63t69 44q35 17 83.5 30t92.5 13h68z" />
    <glyph glyph-name="A" unicode="A" horiz-adv-x="657" 
d="M394 717l200 -644q4 -12 15.5 -24.5t25.5 -20.5q6 -3 11.5 -7t5.5 -11t-3.5 -8.5t-7.5 -1.5h-213q-4 0 -8 1t-4 8q0 5 4 8.5t7 6.5q11 9 13.5 19.5t2.5 21.5q0 17 -7 41l-43 140h-185l-53 -140q-3 -8 -6 -18t-3 -20q0 -15 6 -26t15 -16q5 -3 10.5 -6.5t5.5 -10.5t-4 -8
t-8 -1h-159q-4 0 -8 1t-4 9t5 10.5t10 4.5q19 8 41.5 27t30.5 38l241 627h66zM227 302h151l-64 231z" />
    <glyph glyph-name="B" unicode="B" horiz-adv-x="575" 
d="M383 383q40 -1 69.5 -16t49 -38.5t29 -53.5t9.5 -62q0 -60 -22.5 -99.5t-53.5 -64.5q-42 -34 -83.5 -41.5t-79.5 -7.5h-219q-5 0 -8.5 1.5t-3.5 8.5q0 6 4 12t10 16t9.5 19.5t3.5 22.5v537q0 20 -13 42q-6 11 -10 16.5t-4 11.5q0 10 12 10q7 0 22 -3q17 -2 31.5 -2.5
t31.5 -0.5h102q39 0 77 -5.5t70 -25.5q12 -8 24.5 -19t23 -27.5t17 -38t6.5 -48.5q0 -52 -28 -90t-76 -49v-5zM236 54q11 -2 23 -3t24 -1q18 0 41 7.5t42 32.5q18 23 23 53.5t5 58.5q0 14 -1 31t-5.5 34t-12.5 33t-23 28q-10 8 -26 14.5t-31 6.5h-14q-3 0 -7 0.5t-8.5 3
t-7.5 8t-3 15.5q0 14 6.5 19.5t17.5 9.5q14 5 24.5 8.5t21.5 17.5q13 17 17 41t4 52q0 31 -3 49t-9 30t-20 25t-40 13q-11 0 -22 -1t-16 -3v-583z" />
    <glyph glyph-name="C" unicode="C" horiz-adv-x="653" 
d="M613 77q-34 -29 -67 -46.5t-63.5 -26.5t-57 -11.5t-46.5 -2.5q-50 0 -89.5 10t-70 26t-54 37t-39.5 43q-27 35 -46.5 91.5t-19.5 138.5q0 49 7.5 89.5t19 72t26 55.5t28.5 41q19 23 44 44t56.5 37t69 25.5t81.5 9.5q23 0 55.5 -4t56.5 -10q17 -5 42.5 -13.5t41.5 -13.5
v-158q0 -7 -5.5 -11t-10.5 -4q-8 0 -12.5 6t-6.5 11q-10 25 -20.5 46t-25.5 40q-21 26 -47.5 42t-61.5 16q-19 0 -39.5 -4.5t-40 -16.5t-38 -32.5t-34.5 -52.5q-23 -48 -30.5 -97t-7.5 -98q0 -59 8.5 -117t35.5 -107q50 -89 142 -89q24 0 56.5 8t64.5 35q26 23 43.5 51
t30.5 55q2 5 6.5 10.5t13.5 5.5q4 0 9.5 -3t4.5 -14z" />
    <glyph glyph-name="D" unicode="D" horiz-adv-x="698" 
d="M314 691q33 0 69 -4t72.5 -16.5t71.5 -37t64 -66.5q33 -48 47.5 -109t14.5 -121q0 -75 -23.5 -145.5t-86.5 -125.5q-26 -23 -51 -36t-49 -20t-47 -8.5t-45 -1.5h-269q-5 0 -8.5 1.5t-3.5 8.5q0 6 4 12t10 16t9.5 19.5t3.5 22.5v537q0 20 -13 42q-6 11 -10 16.5t-4 11.5
q0 10 12 10q7 0 22 -3q17 -2 31.5 -2.5t31.5 -0.5h147zM237 59q15 -3 31.5 -4.5t37.5 -1.5q22 0 45 2.5t45.5 12t43 27.5t36.5 49q18 35 23.5 82t5.5 118q0 31 -1.5 62t-6 61t-14.5 56.5t-26 48.5q-27 36 -65.5 51t-89.5 15q-7 0 -12.5 -0.5t-12 -1t-16 -1t-24.5 -1.5v-575z
" />
    <glyph glyph-name="E" unicode="E" horiz-adv-x="523" 
d="M97 617q0 20 -13 42q-6 11 -10 16.5t-4 11.5q0 10 12 10q7 0 22 -3q17 -2 31.5 -2.5t31.5 -0.5h118q20 0 44.5 1.5t55.5 5.5q20 2 29.5 4t17.5 2q7 0 10 -3t6 -15q3 -13 5 -19t5 -14t5 -14t8 -15q9 -14 9 -19q0 -3 -2 -7t-10 -4q-2 0 -5.5 0.5t-11.5 2.5l-158 45h-56
v-236l126 23q13 2 18.5 4t11.5 2q11 0 14.5 -5.5t5.5 -12.5q4 -15 15 -33q3 -5 6.5 -10t8.5 -12q5 -6 7.5 -9.5t2.5 -7.5q0 -3 -3 -7.5t-14 -4.5q-4 0 -15 1.5t-16 2.5l-168 32v-320h76l168 63q15 6 22 6q8 0 11 -4.5t3 -8.5t-2.5 -8t-4.5 -9q-6 -13 -9 -18t-5 -10l-25 -60
h-389q-5 0 -8.5 1.5t-3.5 8.5q0 6 4 12t10 16t9.5 19.5t3.5 22.5v537z" />
    <glyph glyph-name="F" unicode="F" horiz-adv-x="473" 
d="M357 429q14 3 20 4.5t11 1.5q11 0 14.5 -5.5t5.5 -12.5q4 -15 15 -33q3 -5 6.5 -10t8.5 -12q5 -6 7.5 -9.5t2.5 -7.5q0 -3 -3 -7.5t-14 -4.5q-4 0 -14.5 1t-16.5 3l-163 30v-287q0 -13 3.5 -22.5t9.5 -19.5t10 -16t4 -12q0 -7 -3.5 -8.5t-8.5 -1.5h-170q-5 0 -8.5 1.5
t-3.5 8.5q0 6 4 12t10 16t9.5 19.5t3.5 22.5v537q0 20 -13 42q-6 11 -10 16.5t-4 11.5q0 10 12 10q7 0 22 -3q17 -2 31.5 -2.5t31.5 -0.5h118q20 0 44.5 1.5t55.5 5.5q20 2 29.5 4t17.5 2q7 0 10 -3t6 -15q3 -13 5 -19t5 -14t5 -14t8 -15q9 -14 9 -19q0 -3 -2 -7t-10 -4
q-2 0 -5.5 0.5t-11.5 2.5l-158 45h-56v-238z" />
    <glyph glyph-name="G" unicode="G" horiz-adv-x="738" 
d="M661 16q0 -14 -8.5 -20t-17.5 -6q-11 0 -19.5 7t-16.5 15l-24 25q-49 -29 -92 -38t-90 -9q-30 0 -63.5 4.5t-67.5 17t-66.5 35t-59.5 59.5q-27 36 -46.5 92t-19.5 138q0 49 7.5 89.5t19 72t26 55.5t28.5 41q15 18 37 38.5t53 37.5t71 28.5t90 11.5q28 0 61 -4t65 -11
q29 -6 53 -14.5t51 -22.5v-158q0 -7 -5.5 -11t-10.5 -4q-8 0 -12.5 6t-6.5 11q-10 24 -21 46.5t-34 47.5q-27 29 -59.5 45t-74.5 16q-57 0 -93 -29t-59 -77t-30.5 -96.5t-7.5 -98.5q0 -59 8.5 -117t35.5 -107q49 -89 142 -89q36 0 65 13t52 35v155q0 20 -8 31t-24 23
q-4 3 -8.5 7.5t-4.5 10.5q0 9 6.5 10.5t11.5 1.5q11 0 17.5 -0.5t16.5 -2.5t19 -2.5t24 -0.5h34q14 0 25.5 0.5t23.5 2.5q15 3 22 3q12 0 12 -9q0 -6 -4 -12.5t-10 -16.5q-13 -22 -13 -42v-234z" />
    <glyph glyph-name="H" unicode="H" horiz-adv-x="715" 
d="M493 400v217q0 20 -13 42q-6 11 -10 16.5t-4 11.5q0 10 12 10q7 0 22 -3q17 -2 31.5 -2.5t31.5 -0.5t31.5 0.5t31.5 2.5q15 3 22 3q12 0 12 -10q0 -6 -4 -11.5t-10 -16.5q-13 -22 -13 -42v-537q0 -13 3.5 -22.5t9.5 -19.5t10 -16t4 -12q0 -7 -3.5 -8.5t-8.5 -1.5h-170
q-5 0 -8.5 1.5t-3.5 8.5q0 6 4 12t10 16t9.5 19.5t3.5 22.5v263h-256v-263q0 -13 3.5 -22.5t9.5 -19.5t10 -16t4 -12q0 -7 -3.5 -8.5t-8.5 -1.5h-170q-5 0 -8.5 1.5t-3.5 8.5q0 6 4 12t10 16t9.5 19.5t3.5 22.5v537q0 20 -13 42q-6 11 -10 16.5t-4 11.5q0 10 12 10
q7 0 22 -3q17 -2 31.5 -2.5t31.5 -0.5t31.5 0.5t31.5 2.5q15 3 22 3q12 0 12 -10q0 -6 -4 -11.5t-10 -16.5q-13 -22 -13 -42v-217h256z" />
    <glyph glyph-name="I" unicode="I" horiz-adv-x="319" 
d="M97 617q0 20 -13 42q-6 11 -10 16.5t-4 11.5q0 10 12 10q7 0 22 -3q17 -2 31.5 -2.5t31.5 -0.5t31.5 0.5t31.5 2.5q15 3 22 3q12 0 12 -10q0 -6 -4 -11.5t-10 -16.5q-13 -22 -13 -42v-537q0 -13 3.5 -22.5t9.5 -19.5t10 -16t4 -12q0 -7 -3.5 -8.5t-8.5 -1.5h-170
q-5 0 -8.5 1.5t-3.5 8.5q0 6 4 12t10 16t9.5 19.5t3.5 22.5v537z" />
    <glyph glyph-name="J" unicode="J" horiz-adv-x="362" 
d="M280 92q0 -16 -2.5 -35t-6.5 -38t-9 -36t-10 -30q-6 -16 -16 -33.5t-21.5 -34t-24 -31t-22.5 -24.5q-20 -19 -43.5 -29t-54.5 -10q-20 0 -36 4.5t-32 12.5t-30.5 17.5t-26.5 20.5l37 95q2 3 5 8t10 5q8 0 11 -7.5t5 -15.5q2 -6 5.5 -20.5t9.5 -31.5q2 -7 6.5 -15
t12.5 -15q7 -6 14 -7.5t15 -1.5q19 0 33 14q5 6 10.5 16t10.5 30q4 15 7 34t3 42v641q0 20 -13 42q-6 11 -10 16.5t-4 11.5q0 10 12 10q7 0 22 -3q17 -2 31.5 -2.5t31.5 -0.5t31.5 0.5t31.5 2.5q15 3 22 3q12 0 12 -10q0 -6 -4 -11.5t-10 -16.5q-13 -22 -13 -42v-525z" />
    <glyph glyph-name="K" unicode="K" horiz-adv-x="656" 
d="M351 404q25 -16 46.5 -35.5t42.5 -48.5q24 -32 41 -65.5t32 -75.5q12 -34 21 -58t22 -39q10 -11 19.5 -15.5t17.5 -4.5q9 0 16.5 3.5t13.5 8.5q3 2 6.5 4t8.5 2q6 0 12 -4t6 -14q0 -7 -3.5 -13.5t-8 -12.5t-8.5 -9.5t-5 -4.5q-20 -18 -41 -25t-47 -7q-40 0 -64 14t-43 43
q-9 14 -15.5 28t-12.5 29.5t-13 33t-17 38.5q-7 16 -17 33.5t-21 35t-22 32.5t-20 25q-14 16 -28.5 30.5t-14.5 26.5q0 11 8 19.5t13 14.5l159 206q7 9 12 21.5t5 21.5q0 14 -6 19t-11 8q-2 2 -7 5.5t-5 9.5q0 4 3.5 8.5t13.5 4.5q4 0 7 -0.5t16 -2.5q17 -2 30.5 -2.5
t38.5 -0.5q16 0 32.5 0.5t32.5 2.5q10 2 14.5 2.5t8.5 0.5q10 0 14 -4.5t4 -9.5q0 -6 -5 -10t-9 -6l-13 -6.5t-6.5 -3t-9.5 -4.5l-22 -11q-21 -11 -41.5 -24t-37.5 -35zM97 617q0 20 -13 42q-6 11 -10 16.5t-4 11.5q0 10 12 10q7 0 22 -3q17 -2 31.5 -2.5t31.5 -0.5
t31.5 0.5t31.5 2.5q15 3 22 3q12 0 12 -10q0 -6 -4 -11.5t-10 -16.5q-13 -22 -13 -42v-537q0 -13 3.5 -22.5t9.5 -19.5t10 -16t4 -12q0 -7 -3.5 -8.5t-8.5 -1.5h-170q-5 0 -8.5 1.5t-3.5 8.5q0 6 4 12t10 16t9.5 19.5t3.5 22.5v537z" />
    <glyph glyph-name="L" unicode="L" horiz-adv-x="523" 
d="M487 112q6 2 11.5 4t10.5 2q8 0 11 -4.5t3 -8.5t-2.5 -8t-4.5 -9q-6 -13 -9 -18t-5 -10l-25 -60h-395q-5 0 -8.5 1.5t-3.5 8.5q0 6 4 12t10 16t9.5 19.5t3.5 22.5v537q0 20 -13 42q-6 11 -10 16.5t-4 11.5q0 10 12 10q7 0 22 -3q17 -2 31.5 -2.5t31.5 -0.5t31.5 0.5
t31.5 2.5q15 3 22 3q12 0 12 -10q0 -6 -4 -11.5t-10 -16.5q-13 -22 -13 -42v-564h82z" />
    <glyph glyph-name="M" unicode="M" horiz-adv-x="846" 
d="M434 265l161 450h78l92 -642q2 -16 13.5 -26.5t23.5 -17.5q5 -3 11 -7t6 -11q0 -2 -1.5 -6.5t-9.5 -4.5h-214q-4 0 -8 1t-4 8q0 5 4 9t7 6q21 17 25.5 34t4.5 31q0 13 -1 20t-3 17l-43 287l-2 68h-3l-150 -424q-2 -5 -6.5 -10.5t-15.5 -5.5t-15 5t-6 10l-141 364l-13 61
h-4l-39 -368q-1 -5 -1.5 -17.5t-0.5 -17.5q0 -14 4 -28.5t18 -23.5q5 -3 10.5 -6.5t5.5 -10.5t-4 -8t-8 -1h-144q-9 0 -11.5 4.5t-2.5 6.5q0 7 5.5 10t9.5 5q18 8 29.5 20.5t16.5 23.5q5 10 9 24t5 23l66 598h76z" />
    <glyph glyph-name="N" unicode="N" horiz-adv-x="725" 
d="M565 226h4v391q0 10 -3.5 23t-19.5 27q-3 3 -8.5 7.5t-5.5 10.5q0 9 6.5 10.5t9.5 1.5q7 0 12.5 -1t10.5 -2q6 -1 15 -2t15 -1t15 1t15 2q5 1 10.5 2t12.5 1q3 0 9.5 -1.5t6.5 -10.5q0 -6 -5.5 -10.5t-8.5 -7.5q-16 -14 -19.5 -27t-3.5 -23v-603q0 -22 -11.5 -29
t-19.5 -7t-18.5 4.5t-22.5 21.5l-386 550h-4v-474q0 -10 3.5 -23t19.5 -27q5 -4 9.5 -8.5t4.5 -9.5q0 -8 -5.5 -10t-10.5 -2h-106q-5 0 -10.5 2t-5.5 10q0 5 4.5 9.5t9.5 8.5q16 14 19.5 27t3.5 23v537q0 20 -13 42q-6 11 -10 16.5t-4 11.5q0 10 12 10q7 0 22 -3
q14 -2 27 -2.5t28 -0.5q16 0 30.5 0.5t34.5 5.5z" />
    <glyph glyph-name="O" unicode="O" horiz-adv-x="743" 
d="M60 351q0 66 19 130t57 114q17 22 40 43t53 37t67.5 25.5t82.5 9.5t82.5 -9.5t67.5 -25.5t53 -37t40 -43q38 -50 57 -114t19 -130q0 -67 -19 -132t-57 -115q-29 -37 -60.5 -59.5t-64 -34.5t-63 -16t-55.5 -4q-26 0 -56 4t-62.5 16t-64.5 34.5t-60 59.5q-38 50 -57 115
t-19 132zM208 351v-51t2 -54.5t8.5 -55t19.5 -53.5q14 -29 31.5 -47t36.5 -28.5t37.5 -14.5t35.5 -4q15 0 33.5 4t37 14.5t36.5 28.5t32 47q23 45 27.5 99.5t4.5 114.5t-4.5 113t-27.5 99q-25 52 -61.5 73t-77.5 21q-43 0 -79 -21.5t-62 -72.5q-13 -27 -19.5 -54.5
t-8.5 -54.5t-2 -53v-50z" />
    <glyph glyph-name="P" unicode="P" horiz-adv-x="535" 
d="M237 80q0 -13 3.5 -22.5t9.5 -19.5t10 -16t4 -12q0 -7 -3.5 -8.5t-8.5 -1.5h-170q-5 0 -8.5 1.5t-3.5 8.5q0 6 4 12t10 16t9.5 19.5t3.5 22.5v537q0 20 -13 42q-6 11 -10 16.5t-4 11.5q0 10 12 10q7 0 22 -3q17 -2 31.5 -2.5t31.5 -0.5h115q35 0 77 -6.5t81 -33.5
q38 -26 58 -65.5t20 -93.5q0 -50 -18.5 -92t-50.5 -67q-24 -19 -58 -29t-67 -10q-36 0 -52.5 13t-16.5 24q0 5 3.5 14.5t21.5 9.5q6 0 11.5 -0.5t10.5 -0.5q14 0 23.5 6t19.5 18q21 27 25.5 57t4.5 59q0 15 -1 33t-6 35.5t-14.5 33t-25.5 27.5q-18 13 -40.5 16t-50.5 1v-560
z" />
    <glyph glyph-name="Q" unicode="Q" horiz-adv-x="769" 
d="M583 -26q8 -2 24 -4.5t28 -2.5q20 0 31 7t20 19q7 8 14.5 16.5t17.5 8.5q6 0 13.5 -5.5t7.5 -19.5q0 -7 -4 -21.5t-20 -45.5q-14 -27 -33 -46.5t-54 -19.5q-8 0 -18 1.5t-26 7t-39.5 14.5t-57.5 24q-48 21 -88.5 42t-85.5 47q-12 2 -31.5 7t-43.5 17t-50.5 32t-51.5 52
q-38 50 -57 115t-19 132q0 66 19 130t57 114q17 22 40 43t53 37t67.5 25.5t82.5 9.5t82.5 -9.5t67.5 -25.5t53 -37t40 -43q38 -50 57 -114t19 -130q0 -68 -19 -132t-57 -115q-37 -50 -76.5 -72t-77.5 -30v-3zM208 351v-51t2 -54.5t8.5 -55t19.5 -53.5q14 -29 31.5 -47
t36.5 -28.5t37.5 -14.5t35.5 -4q15 0 33.5 4t37 14.5t36.5 28.5t32 47q23 45 27.5 99.5t4.5 114.5t-4.5 113t-27.5 99q-25 52 -61.5 73t-77.5 21q-43 0 -79 -21.5t-62 -72.5q-13 -27 -19.5 -54.5t-8.5 -54.5t-2 -53v-50z" />
    <glyph glyph-name="R" unicode="R" horiz-adv-x="648" 
d="M237 80q0 -13 3.5 -22.5t9.5 -19.5t10 -16t4 -12q0 -7 -3.5 -8.5t-8.5 -1.5h-170q-5 0 -8.5 1.5t-3.5 8.5q0 6 4 12t10 16t9.5 19.5t3.5 22.5v537q0 20 -13 42q-6 11 -10 16.5t-4 11.5q0 10 12 10q7 0 22 -3q17 -2 31.5 -2.5t31.5 -0.5h109q35 0 77 -6.5t81 -33.5
q14 -10 28 -24t25 -33t18 -43t7 -54q0 -63 -34 -108.5t-88 -59.5v-4q14 -6 29.5 -15.5t30.5 -24.5q26 -26 39 -54t24 -52q11 -26 19 -42.5t13.5 -27.5t9.5 -17t7 -10q10 -11 19.5 -15.5t17.5 -4.5q9 0 16.5 3.5t13.5 8.5q3 2 6.5 4t8.5 2q6 0 12 -4t6 -14q0 -7 -3.5 -13.5
t-8 -12.5t-8.5 -9.5t-5 -4.5q-20 -18 -41 -25t-47 -7q-38 0 -64 14t-47 43q-6 9 -12.5 19.5t-14.5 26t-17.5 37t-21.5 50.5t-23.5 52t-33.5 45q-11 11 -21.5 18t-20.5 12q-6 3 -11.5 6.5t-5.5 15.5q0 14 6 18t13 6q13 2 17.5 2t13.5 3q10 3 20.5 11t20.5 25q15 25 18.5 50
t3.5 51q0 15 -1 32.5t-6 35t-14.5 33t-25.5 27.5q-13 9 -33.5 14.5t-51.5 2.5v-560z" />
    <glyph glyph-name="S" unicode="S" horiz-adv-x="588" 
d="M258 303q-27 13 -56.5 30.5t-55 41t-42 55.5t-16.5 75q0 59 22 100t54 64q29 20 68.5 30.5t71.5 10.5q21 0 54.5 -4t57.5 -10q17 -5 43 -13.5t41 -13.5v-158q0 -7 -5.5 -11t-10.5 -4q-8 0 -12.5 6t-6.5 11q-10 24 -20.5 45.5t-25.5 40.5q-24 30 -52.5 44t-56.5 14
q-35 0 -59 -22q-15 -14 -23.5 -36t-8.5 -51q0 -27 9.5 -46t24.5 -33t34.5 -24.5t40.5 -19.5l69 -31q25 -11 50 -26.5t45.5 -37.5t33 -52.5t12.5 -72.5q0 -63 -26.5 -107t-60.5 -67q-22 -15 -46 -23.5t-46 -12t-39.5 -4.5t-25.5 -1q-35 0 -88 13t-118 56l-13 178
q-1 14 5.5 19t11.5 5q11 0 16 -9t7 -13q4 -12 10.5 -28t15 -33.5t18 -35t20.5 -32.5q7 -9 17 -20.5t24.5 -22t32.5 -17.5t41 -7q24 0 44 8.5t33 22.5q11 12 20.5 32.5t9.5 50.5q0 29 -8.5 48.5t-21 32.5t-27 21t-26.5 14z" />
    <glyph glyph-name="T" unicode="T" horiz-adv-x="561" 
d="M358 80q0 -13 3.5 -22.5t9.5 -19.5t10 -16t4 -12q0 -7 -3.5 -8.5t-8.5 -1.5h-170q-5 0 -8.5 1.5t-3.5 8.5q0 6 4 12t10 16t9.5 19.5t3.5 22.5v562h-44l-140 -45q-3 -1 -8 -2t-9 -1q-8 0 -10 4t-2 7q0 5 9 19q6 9 8 15t5 14t5 14t5 19q3 12 6 15t10 3q8 0 17.5 -2t29.5 -4
q31 -4 55.5 -5.5t44.5 -1.5h176q20 0 44.5 1.5t55.5 5.5q20 2 29.5 4t17.5 2q7 0 10 -3t6 -15q3 -13 5 -19t5 -14t5 -14t8 -15q9 -14 9 -19q0 -3 -2 -7t-10 -4q-4 0 -9 1t-8 2l-140 45h-44v-562z" />
    <glyph glyph-name="U" unicode="U" horiz-adv-x="681" 
d="M237 191q0 -14 2.5 -30t9 -32t19 -30t32.5 -25t41 -14t42 -3q26 0 55.5 7.5t55.5 31.5q23 22 38.5 56.5t15.5 72.5v392q0 10 -3.5 23t-19.5 27q-3 3 -8.5 7.5t-5.5 10.5q0 9 6.5 10.5t9.5 1.5q7 0 12.5 -1t10.5 -2q6 -1 15 -2t16 -1t16 1t15 2q5 1 10.5 2t12.5 1
q3 0 9.5 -1.5t6.5 -10.5q0 -6 -5.5 -10.5t-8.5 -7.5q-16 -14 -19.5 -27t-3.5 -23v-375q0 -22 -3 -48t-12.5 -52.5t-26.5 -52.5t-45 -48q-36 -29 -79 -40t-88 -11q-38 0 -85 10.5t-85 36.5q-17 12 -34 29t-30 39.5t-21 50t-8 60.5v401q0 20 -13 42q-6 11 -10 16.5t-4 11.5
q0 10 12 10q7 0 22 -3q17 -2 31.5 -2.5t31.5 -0.5t31.5 0.5t31.5 2.5q15 3 22 3q12 0 12 -10q0 -6 -4 -11.5t-10 -16.5q-13 -22 -13 -42v-426z" />
    <glyph glyph-name="V" unicode="V" horiz-adv-x="658" 
d="M68 623q-5 12 -15.5 23.5t-24.5 20.5q-5 3 -11.5 8t-6.5 13q0 4 2.5 8t12.5 4q8 0 16 -1.5t17 -3.5q17 -3 35 -3.5t34 -0.5h13.5t20.5 0.5t22.5 1t20.5 2.5l17.5 3.5t15.5 1.5q11 0 13 -4.5t2 -6.5q0 -5 -3.5 -8.5l-8.5 -8.5q-6 -6 -10.5 -16t-4.5 -24q0 -8 2 -19.5
t5 -20.5l149 -410h4l141 408l4.5 18t2.5 18t-4 20.5t-20 23.5q-4 3 -11 7.5t-7 11.5q0 3 2.5 7t12.5 4q8 0 14.5 -1.5t15.5 -3.5q11 -2 19 -3t19 -1q17 0 32 1.5t30 3.5q8 2 15.5 3t15.5 1q3 0 9.5 -1.5t6.5 -9.5q0 -7 -7 -12t-12 -8q-20 -12 -38 -25.5t-27 -37.5l-230 -622
h-58z" />
    <glyph glyph-name="W" unicode="W" horiz-adv-x="956" 
d="M352 -16h-62l-222 639q-5 12 -16 24t-24 20q-5 3 -11.5 8t-6.5 13q0 4 2.5 8t12.5 4q8 0 16 -1.5t17 -3.5q17 -3 35 -3.5t34 -0.5h13.5t20.5 0.5t22.5 1t20.5 2.5l17.5 3.5t15.5 1.5q11 0 13 -4.5t2 -6.5q0 -5 -3.5 -8.5l-8.5 -8.5q-6 -6 -10.5 -16t-4.5 -24q0 -8 2 -19
t5 -21l136 -416h4l92 225l-65 222q-4 14 -18 26t-22 18q-5 3 -11.5 8t-6.5 13q0 4 2.5 8t12.5 4q8 0 16 -1.5t17 -3.5q12 -2 29 -3t40 -1q13 0 33 1t34 3l17.5 3.5t15.5 1.5q11 0 13 -4.5t2 -6.5q0 -5 -3.5 -8.5l-8.5 -8.5q-6 -6 -10.5 -16t-4.5 -24q0 -10 2 -20t5 -20
l114 -401h4l153 399q2 7 4.5 17.5t2.5 18.5t-4 20.5t-20 23.5q-4 3 -11 7.5t-7 11.5q0 4 3 7.5t12 3.5q8 0 14.5 -1.5t15.5 -3.5q11 -2 19 -3t19 -1q17 0 32 1.5t30 3.5q8 2 15.5 3t15.5 1q3 0 9.5 -1.5t6.5 -9.5q0 -7 -7 -12t-12 -8q-16 -9 -35 -23t-30 -40l-244 -622h-64
l-99 336z" />
    <glyph glyph-name="X" unicode="X" horiz-adv-x="572" 
d="M322 448h4l64 139q5 10 7 20.5t2 18.5q0 11 -5 23t-19 21q-4 3 -11 7.5t-7 11.5q0 3 2.5 7t12.5 4q8 0 14.5 -1.5t15.5 -3.5q11 -2 18.5 -3t18.5 -1q19 0 34.5 1.5t27.5 3.5q8 2 15.5 3t15.5 1q3 0 9.5 -1.5t6.5 -9.5q0 -7 -7 -12t-12 -8q-19 -11 -35 -23t-30 -40
l-103 -217l141 -305q7 -14 20 -27.5t27 -23.5q5 -3 11.5 -8t6.5 -13t-5.5 -10t-9.5 -2h-216q-9 0 -12 4t-3 7q0 5 3.5 8.5l8.5 8.5q10 11 12.5 21.5t2.5 18.5q0 7 -1.5 19t-5.5 21l-73 168h-3l-84 -166q-4 -8 -6 -18t-2 -18t4 -20.5t20 -23.5q4 -2 11 -7t7 -12q0 -3 -3 -7
t-12 -4h-164q-3 0 -9.5 1.5t-6.5 9.5q0 7 7 12t12 8q16 10 36.5 26.5t30.5 36.5l122 246l-135 283q-13 25 -40 44q-5 3 -11.5 8t-6.5 13q0 4 2.5 8t12.5 4q8 0 16 -1.5t17 -3.5q17 -3 35 -3.5t34 -0.5h13.5t20.5 0.5t22.5 1t20.5 2.5l17.5 3.5t15.5 1.5q11 0 13 -4.5t2 -6.5
q0 -5 -3.5 -8.5l-8.5 -8.5q-6 -6 -10.5 -16t-4.5 -24q0 -5 1.5 -18t5.5 -22z" />
    <glyph glyph-name="Y" unicode="Y" horiz-adv-x="565" 
d="M428 590q4 8 7 16.5t3 19.5t-5 23t-19 21q-4 3 -11 7.5t-7 11.5q0 4 3 7.5t12 3.5q8 0 14.5 -1.5t15.5 -3.5q11 -2 19 -3t19 -1q17 0 32 1.5t30 3.5q8 2 15.5 3t15.5 1q3 0 9.5 -1.5t6.5 -9.5q0 -7 -7 -12t-12 -8q-21 -12 -38.5 -25.5t-29.5 -37.5l-137 -280v-246
q0 -13 3.5 -22.5t9.5 -19.5t10 -16t4 -12q0 -7 -3.5 -8.5t-8.5 -1.5h-170q-5 0 -8.5 1.5t-3.5 8.5q0 6 4 12t10 16t9.5 19.5t3.5 22.5v227l-152 316q-5 11 -18.5 23.5t-24.5 20.5q-5 3 -11.5 8t-6.5 13q0 4 2.5 8t12.5 4q8 0 16 -1.5t17 -3.5q17 -3 35 -3.5t34 -0.5
q11 0 36.5 0.5t44.5 3.5l17.5 3.5t15.5 1.5q9 0 12 -3.5t3 -7.5q0 -5 -4.5 -9.5l-7.5 -7.5q-7 -7 -11.5 -18t-4.5 -22q0 -8 2 -20t6 -20l95 -195h5z" />
    <glyph glyph-name="Z" unicode="Z" horiz-adv-x="627" 
d="M272 642l-149 -45q-3 -1 -8 -2t-9 -1q-8 0 -10 4t-2 7q0 5 9 19q6 9 8 15t5 14t5 14t5 19q3 12 6 15t10 3q8 0 17.5 -2t29.5 -4q31 -4 55.5 -5.5t44.5 -1.5h174q7 0 20.5 0.5t22.5 1.5q19 2 28.5 4t18.5 2q20 0 25 -10.5t5 -15.5q0 -10 -5.5 -21t-7.5 -14l-354 -589h219
l146 74q5 2 9.5 4t9.5 2q8 0 11 -4.5t3 -7.5q0 -4 -2 -8t-7 -12l-9.5 -19t-7.5 -17l-24 -61h-485q-12 0 -17.5 9t-5.5 18q0 3 2 10t10 21l350 584h-146z" />
    <glyph glyph-name="bracketleft" unicode="[" horiz-adv-x="381" 
d="M331 715v-52h-102v-829h102v-52h-211v933h211z" />
    <glyph glyph-name="backslash" unicode="\" horiz-adv-x="639" 
d="M100 738l66 30l373 -956l-65 -29z" />
    <glyph glyph-name="bracketright" unicode="]" horiz-adv-x="381" 
d="M261 -218h-211v52h102v829h-102v52h211v-933z" />
    <glyph glyph-name="asciicircum" unicode="^" horiz-adv-x="546" 
d="M162 536h-70l181 213l181 -213h-70l-111 90z" />
    <glyph glyph-name="underscore" unicode="_" horiz-adv-x="572" 
d="M20 -192h532v-71h-532v71z" />
    <glyph glyph-name="grave" unicode="`" horiz-adv-x="241" 
d="M200 497l-131 81q-7 4 -15.5 10.5t-16 14.5t-12.5 18t-5 22q0 18 12 32.5t34 14.5t43 -21q7 -7 17 -19t15 -20l80 -111z" />
    <glyph glyph-name="a" unicode="a" horiz-adv-x="463" 
d="M286 33q-32 -20 -62.5 -31.5t-62.5 -11.5q-20 0 -40.5 5.5t-37.5 17.5q-22 15 -35 40t-13 57q0 56 51 95q17 13 42.5 24.5t67.5 22.5q23 6 45 11t39 8q0 38 -2.5 56t-5.5 27q-9 26 -26.5 34.5t-34.5 8.5q-14 0 -25.5 -4.5t-21.5 -11.5q-26 -17 -42 -44q-4 -6 -10 -18.5
t-9 -20.5q-2 -6 -6 -12.5t-12 -6.5t-9.5 7t-1.5 12q0 8 1.5 18.5t1.5 29.5l-1 59q18 8 38.5 15.5t44.5 12.5q37 9 76 9q28 0 61.5 -7.5t62.5 -36.5q16 -16 30.5 -45t13.5 -72l-2 -202q0 -22 13 -43q6 -11 10 -16.5t4 -10.5q0 -6 -3.5 -7.5t-7.5 -1.5h-124zM281 229
q-17 -4 -37.5 -11t-34.5 -16q-26 -16 -36 -38t-10 -48q0 -11 2.5 -23.5t11.5 -23.5q6 -8 15 -13.5t23 -5.5q8 0 23 3.5t41 17.5z" />
    <glyph glyph-name="b" unicode="b" horiz-adv-x="494" 
d="M191 420q14 8 35 15t51 7q48 0 78 -16t46 -31q20 -19 32.5 -41t19 -44.5t9 -45.5t2.5 -43q0 -17 -2 -39t-9.5 -46t-21.5 -48.5t-38 -46.5q-23 -20 -56.5 -35.5t-80.5 -15.5q-30 0 -56.5 8t-56.5 21q-19 -4 -35 -14q-11 -6 -20 -12t-17 -6t-9.5 4t-1.5 6q0 4 1.5 8t3.5 15
q1 4 1.5 10.5t0.5 11.5v629q0 13 -3.5 23t-9.5 20q-6 11 -10 16.5t-4 10.5q0 9 11 9q7 0 22 -3q14 -2 26.5 -2.5t29.5 -0.5t29.5 0.5t26.5 2.5q15 3 22 3q11 0 11 -9q0 -5 -4 -10.5t-10 -16.5q-6 -10 -9.5 -20t-3.5 -23v-251zM190 51q11 -8 24 -11.5t25 -3.5q16 0 37.5 9
t38.5 39q15 28 17.5 59.5t2.5 62.5q0 59 -4.5 92.5t-15.5 53.5q-7 12 -21.5 24.5t-40.5 12.5q-13 0 -29.5 -5.5t-33.5 -20.5v-312z" />
    <glyph glyph-name="c" unicode="c" horiz-adv-x="419" 
d="M380 350q-1 -5 -1.5 -11t-0.5 -11q-1 -8 -1 -15t-1 -15q-1 -5 -3 -9.5t-9 -4.5q-9 0 -12.5 7t-5.5 13q-5 17 -15 36t-22 32q-11 11 -24.5 17.5t-28.5 6.5q-18 0 -36 -9t-31 -26q-10 -14 -16 -30.5t-9 -34t-4 -34t-1 -29.5q0 -9 0.5 -24t3 -32.5t6.5 -35t11 -32.5
q12 -25 34 -42t59 -17q28 0 51 8.5t30 11.5q11 6 18.5 9.5t12.5 3.5q8 0 13.5 -6.5t5.5 -14.5q0 -12 -10.5 -22.5t-14.5 -12.5q-24 -17 -59 -27t-80 -10q-19 0 -39.5 2.5t-41.5 9.5t-41 19.5t-38 32.5q-31 35 -40.5 74t-9.5 77q0 15 2 37.5t9 47t21 50t38 47.5q27 25 66 40
t84 15q38 0 74 -9.5t64 -22.5z" />
    <glyph glyph-name="d" unicode="d" horiz-adv-x="489" 
d="M320 31q-27 -22 -56 -31.5t-55 -9.5q-31 0 -62 12t-57 38q-37 37 -48.5 82.5t-11.5 88.5q0 17 2 39t9.5 46.5t21.5 49t38 45.5q23 21 57 36t69 15q16 0 35.5 -4t40.5 -16v249q0 13 -3.5 23t-9.5 20q-6 11 -10 16.5t-4 10.5q0 9 11 9q7 0 22 -3q14 -2 26.5 -2.5t29.5 -0.5
t29.5 0.5t26.5 2.5q15 3 22 3q11 0 11 -9q0 -5 -4 -10.5t-10 -16.5q-6 -10 -9.5 -20t-3.5 -23v-592q0 -13 3.5 -23t9.5 -20q6 -11 10 -16.5t4 -10.5q0 -6 -3.5 -7.5t-7.5 -1.5h-102zM304 370q-14 11 -26.5 15t-22.5 4q-20 0 -40.5 -9.5t-35.5 -38.5t-17.5 -60t-2.5 -64
q0 -46 3 -82t17 -62q9 -16 21.5 -25t32.5 -9q15 0 34.5 7t36.5 28v296z" />
    <glyph glyph-name="e" unicode="e" horiz-adv-x="434" 
d="M296 251q0 23 -2.5 49.5t-8.5 45.5q-10 34 -26 43t-28 9q-13 0 -29 -10.5t-27 -39.5q-9 -23 -13 -50t-4 -47h138zM158 204q0 -23 5 -48.5t15 -45.5q18 -35 44 -47.5t51 -12.5q22 0 43 6t38 14q11 6 18.5 9.5t12.5 3.5q8 0 13.5 -6.5t5.5 -14.5q0 -12 -10.5 -22.5
t-14.5 -12.5q-24 -17 -59 -27t-80 -10q-19 0 -39.5 2.5t-41.5 9.5t-41 19.5t-38 32.5q-31 35 -40.5 74t-9.5 77q0 16 2 38t9 46.5t21 49.5t38 48q25 23 61 39t80 16q29 0 51 -8t41 -23q18 -14 33 -36.5t24 -51.5q6 -20 8 -39t2 -37q0 -16 -3.5 -25t-8.5 -13t-10.5 -4.5
t-9.5 -0.5h-210z" />
    <glyph glyph-name="f" unicode="f" horiz-adv-x="302" 
d="M241 688q0 -5 0.5 -12t1.5 -12q2 -7 3.5 -12t1.5 -10q0 -8 -3.5 -11t-6.5 -3q-5 0 -9 4t-6 7q-8 10 -20 17q-17 11 -45 11q-11 0 -21 -3.5t-19 -12.5q-10 -11 -13 -21.5t-3 -21.5q0 -20 8.5 -36.5t22.5 -27.5q13 -11 32.5 -18t41.5 -8v-89h82q7 0 11 -8t4 -17t-4 -17
t-11 -8h-82v-300q0 -13 3.5 -23t9.5 -20q6 -11 10 -16.5t4 -10.5q0 -6 -3.5 -7.5t-7.5 -1.5h-156q-4 0 -7.5 1.5t-3.5 7.5q0 5 4 10.5t10 16.5q6 10 9.5 20t3.5 23v300h-66q-7 0 -11 8t-4 17t4 17t11 8h66v59q0 14 -3 23.5t-8 23.5q-10 23 -18 44.5t-8 50.5q0 33 11 54.5
t22 32.5q32 33 80 33q39 0 58.5 -11t24.5 -16z" />
    <glyph glyph-name="g" unicode="g" horiz-adv-x="505" 
d="M137 161q-41 22 -59 59t-18 69t17 64.5t46 53.5q25 18 58.5 26.5t66.5 8.5q38 0 66.5 -8t51.5 -22l22 22q11 11 30 20.5t36 9.5q13 0 26.5 -5.5t23.5 -13.5l-1 -45v-17t0.5 -8.5t1 -8.5t0.5 -17q0 -14 -6.5 -18t-9.5 -4q-11 0 -15.5 12t-7.5 21q-8 21 -20.5 27.5
t-23.5 6.5t-17 -3t-10 -7q16 -13 30 -35.5t14 -63.5q0 -31 -11.5 -56.5t-28.5 -42.5q-23 -23 -62 -36t-84 -13q-15 0 -34.5 2t-34.5 4q-8 -6 -12.5 -14t-4.5 -15q0 -11 6 -16.5t12 -7.5q7 -3 18 -5.5t41 -7.5l111 -20q20 -4 45 -11t47 -22q24 -17 34.5 -40.5t10.5 -55.5
q0 -8 -1.5 -20.5t-7.5 -27.5t-18 -31t-33 -31q-35 -26 -84 -34t-103 -8q-73 0 -112 10t-60 21q-21 12 -33 25.5t-18.5 26.5t-8 25t-1.5 20q0 26 12 44t28 31q16 12 33.5 20.5t28.5 12.5v2q-27 5 -42.5 24t-15.5 39q0 18 17 41.5t64 40.5v2zM250 179q19 0 30.5 9.5t18.5 20.5
q9 16 11.5 36.5t2.5 46.5q0 22 -2.5 42.5t-13.5 37.5q-10 16 -22 21.5t-24 5.5q-8 0 -21.5 -5t-25.5 -22t-15 -39t-3 -45q0 -19 1.5 -41t12.5 -39q6 -11 18 -20t32 -9zM160 -6q-13 -21 -18 -39t-5 -34q0 -20 5.5 -39t24.5 -36q21 -20 44 -24.5t43 -4.5q23 0 45.5 4.5
t40.5 20.5q11 10 19 25t8 34q0 17 -6.5 28t-14.5 18q-7 5 -21.5 12t-45.5 13z" />
    <glyph glyph-name="h" unicode="h" horiz-adv-x="510" 
d="M191 79q0 -13 3.5 -23t9.5 -20q6 -11 10 -16.5t4 -10.5q0 -6 -3.5 -7.5t-7.5 -1.5h-156q-4 0 -7.5 1.5t-3.5 7.5q0 5 4 10.5t10 16.5q6 10 9.5 20t3.5 23v542q0 13 -3.5 23t-9.5 20q-6 11 -10 16.5t-4 10.5q0 9 11 9q7 0 22 -3q14 -2 26.5 -2.5t29.5 -0.5t29.5 0.5
t26.5 2.5q15 3 22 3q11 0 11 -9q0 -5 -4 -10.5t-10 -16.5q-6 -10 -9.5 -20t-3.5 -23v-225q8 10 15.5 15.5t17.5 10.5q18 10 37 15t46 5q19 0 41.5 -4.5t41.5 -15.5q9 -5 19 -13.5t18.5 -21t14.5 -29.5t6 -39v-240q0 -13 3.5 -23t9.5 -20q6 -11 10 -16.5t4 -10.5
q0 -6 -3.5 -7.5t-7.5 -1.5h-156q-4 0 -7.5 1.5t-3.5 7.5q0 5 4 10.5t10 16.5q6 10 9.5 20t3.5 23v246q0 13 -2 23.5t-10 21.5q-8 10 -16.5 13t-18.5 3q-17 0 -30 -5t-26 -13q-17 -11 -30 -26v-263z" />
    <glyph glyph-name="i" unicode="i" horiz-adv-x="258" 
d="M67 356q0 13 -3.5 23t-9.5 20q-6 11 -10 16.5t-4 10.5q0 9 11 9q7 0 22 -3q14 -2 26.5 -2.5t29.5 -0.5t29.5 0.5t26.5 2.5q15 3 22 3q11 0 11 -9q0 -5 -4 -10.5t-10 -16.5q-6 -10 -9.5 -20t-3.5 -23v-277q0 -13 3.5 -23t9.5 -20q6 -11 10 -16.5t4 -10.5q0 -6 -3.5 -7.5
t-7.5 -1.5h-156q-4 0 -7.5 1.5t-3.5 7.5q0 5 4 10.5t10 16.5q6 10 9.5 20t3.5 23v277zM203 569q0 -30 -21 -52.5t-53 -22.5t-53 22.5t-21 52.5t21 52t53 22t53 -22t21 -52z" />
    <glyph glyph-name="j" unicode="j" horiz-adv-x="267" 
d="M71 356q0 13 -3.5 23t-9.5 20q-6 11 -10 16.5t-4 10.5q0 9 11 9q7 0 22 -3q14 -2 26.5 -2.5t29.5 -0.5t29.5 0.5t26.5 2.5q15 3 22 3q11 0 11 -9q0 -5 -4 -10.5t-10 -16.5q-6 -10 -9.5 -20t-3.5 -23v-318q0 -14 3 -23.5t8 -23.5q10 -23 18 -44.5t8 -50.5q0 -33 -11 -54.5
t-22 -32.5q-32 -33 -80 -33q-39 0 -58.5 11t-24.5 16l1 35q0 5 -0.5 12t-1.5 12q-2 7 -3.5 12t-1.5 10q0 8 3.5 11t6.5 3q5 0 9 -4t6 -7q8 -10 20 -17q17 -11 45 -11q24 0 40 16q10 11 13 21.5t3 21.5q0 20 -8.5 36.5t-22.5 27.5q-13 11 -32.5 18t-41.5 8v348zM207 569
q0 -30 -21 -52.5t-53 -22.5t-53 22.5t-21 52.5t21 52t53 22t53 -22t21 -52z" />
    <glyph glyph-name="k" unicode="k" horiz-adv-x="518" 
d="M295 266q17 -11 34 -27t32 -39q17 -26 28 -54t22 -50q14 -29 29 -39q9 -7 25 -7q12 0 22 8q4 3 8.5 6.5t9.5 3.5t9 -4.5t4 -13.5q0 -13 -10 -26t-26 -21q-17 -9 -32.5 -11t-32.5 -2q-18 0 -35 4t-34 16q-21 14 -33 33t-21 39q-8 18 -16.5 37.5t-18.5 36.5
q-8 14 -17.5 26.5t-17.5 21.5q-8 8 -14.5 15.5t-6.5 14.5q0 5 3 8t6 5l123 96q7 5 12 16t5 19q0 6 -3.5 13.5t-13.5 15.5q-4 3 -8 6.5t-4 8.5t4.5 9t12.5 4q5 0 9.5 -1t11.5 -2q13 -2 24 -2.5t25 -0.5q21 0 29 0.5t19 2.5q9 2 13.5 2.5t7.5 0.5q8 0 11.5 -4t3.5 -8
q0 -6 -7 -11.5t-15 -10.5q-18 -12 -27 -17.5t-15 -10.5zM67 671q0 13 -3.5 23t-9.5 20q-6 11 -10 16.5t-4 10.5q0 9 11 9q7 0 22 -3q14 -2 26.5 -2.5t29.5 -0.5t29.5 0.5t26.5 2.5q15 3 22 3q11 0 11 -9q0 -5 -4 -10.5t-10 -16.5q-6 -10 -9.5 -20t-3.5 -23v-592
q0 -13 3.5 -23t9.5 -20q6 -11 10 -16.5t4 -10.5q0 -6 -3.5 -7.5t-7.5 -1.5h-156q-4 0 -7.5 1.5t-3.5 7.5q0 5 4 10.5t10 16.5q6 10 9.5 20t3.5 23v592z" />
    <glyph glyph-name="l" unicode="l" horiz-adv-x="248" 
d="M62 671q0 13 -3.5 23t-9.5 20q-6 11 -10 16.5t-4 10.5q0 9 11 9q7 0 22 -3q14 -2 26.5 -2.5t29.5 -0.5t29.5 0.5t26.5 2.5q15 3 22 3q11 0 11 -9q0 -5 -4 -10.5t-10 -16.5q-6 -10 -9.5 -20t-3.5 -23v-592q0 -13 3.5 -23t9.5 -20q6 -11 10 -16.5t4 -10.5q0 -6 -3.5 -7.5
t-7.5 -1.5h-156q-4 0 -7.5 1.5t-3.5 7.5q0 5 4 10.5t10 16.5q6 10 9.5 20t3.5 23v592z" />
    <glyph glyph-name="m" unicode="m" horiz-adv-x="699" 
d="M184 402q24 22 51 31t50 9q18 0 38.5 -5.5t34.5 -14.5q10 -6 19 -14.5t15 -16.5q27 24 56 37.5t62 13.5q19 0 38.5 -5.5t34.5 -14.5q9 -5 18.5 -13.5t17.5 -21t13 -29.5t5 -39v-240q0 -13 3.5 -23t9.5 -20q6 -11 10 -16.5t4 -10.5q0 -6 -3.5 -7.5t-7.5 -1.5h-154
q-4 0 -7.5 1.5t-3.5 7.5q0 5 4 10.5t10 16.5q6 10 9.5 20t3.5 23v246q0 12 -2 23t-10 22q-12 16 -31 16q-17 0 -35.5 -11.5t-28.5 -23.5q4 -15 4 -32v-240q0 -13 3.5 -23t9.5 -20q6 -11 10 -16.5t4 -10.5q0 -6 -3.5 -7.5t-7.5 -1.5h-152q-4 0 -7.5 1.5t-3.5 7.5q0 5 4 10.5
t10 16.5q6 10 9.5 20t3.5 23v246q0 12 -2 23t-10 22q-12 16 -31 16q-15 0 -32 -10t-28 -22v-275q0 -13 3.5 -23t9.5 -20q6 -11 10 -16.5t4 -10.5q0 -6 -3.5 -7.5t-7.5 -1.5h-154q-4 0 -7.5 1.5t-3.5 7.5q0 5 4 10.5t10 16.5q6 10 9.5 20t3.5 23v277q0 13 -3.5 23t-9.5 20
q-6 11 -10 16.5t-4 10.5q0 9 11 9q7 0 22 -3q14 -2 26.5 -2.5t29.5 -0.5h52z" />
    <glyph glyph-name="n" unicode="n" horiz-adv-x="510" 
d="M186 396q8 7 19 14t19 12q20 11 40 15.5t43 4.5q19 0 41.5 -4.5t41.5 -15.5q9 -5 19 -13.5t18.5 -21t14.5 -29.5t6 -39v-240q0 -13 3.5 -23t9.5 -20q6 -11 10 -16.5t4 -10.5q0 -6 -3.5 -7.5t-7.5 -1.5h-156q-4 0 -7.5 1.5t-3.5 7.5q0 5 4 10.5t10 16.5q6 10 9.5 20
t3.5 23v246q0 13 -2 23.5t-10 21.5q-8 10 -16.5 13t-18.5 3q-17 0 -30 -5t-26 -13q-17 -11 -30 -26v-263q0 -13 3.5 -23t9.5 -20q6 -11 10 -16.5t4 -10.5q0 -6 -3.5 -7.5t-7.5 -1.5h-156q-4 0 -7.5 1.5t-3.5 7.5q0 5 4 10.5t10 16.5q6 10 9.5 20t3.5 23v277q0 13 -3.5 23
t-9.5 20q-6 11 -10 16.5t-4 10.5q0 9 11 9q7 0 22 -3q14 -2 26.5 -2.5t29.5 -0.5h54z" />
    <glyph glyph-name="o" unicode="o" horiz-adv-x="484" 
d="M241 442q52 0 90.5 -19t62.5 -44q27 -28 43.5 -69.5t16.5 -93.5q0 -61 -19.5 -100.5t-40.5 -61.5q-9 -10 -23 -21t-33 -20.5t-43 -16t-53 -6.5t-53 6.5t-43 16t-33 20.5t-23 21q-21 22 -40.5 61.5t-19.5 100.5q0 52 16.5 93.5t43.5 69.5q25 26 63 44.5t88 18.5zM242 398
q-14 0 -26.5 -5t-25.5 -20q-11 -13 -17 -31t-9 -38t-4 -42.5t-1 -44.5q0 -56 5.5 -95.5t25.5 -62.5q10 -11 23.5 -18t28.5 -7t28.5 7t23.5 18q20 23 25.5 62.5t5.5 95.5q0 22 -1 44.5t-4 42.5t-9 38t-17 31q-13 15 -25.5 20t-26.5 5z" />
    <glyph glyph-name="p" unicode="p" horiz-adv-x="494" 
d="M174 413q26 15 53.5 22t52.5 7q39 0 69.5 -13.5t51.5 -33.5q20 -19 32.5 -41t19 -44.5t9 -45.5t2.5 -43q0 -17 -2 -39t-9.5 -46t-21.5 -48.5t-38 -46.5q-32 -30 -68 -40.5t-69 -10.5q-21 0 -36.5 2.5t-28.5 7.5v-139q0 -13 3.5 -23t9.5 -20q6 -11 10 -16.5t4 -10.5
q0 -6 -3.5 -7.5t-7.5 -1.5h-156q-4 0 -7.5 1.5t-3.5 7.5q0 5 4 10.5t10 16.5q6 10 9.5 20t3.5 23v495q0 13 -3.5 23t-9.5 20q-6 11 -10 16.5t-4 10.5q0 9 11 9q7 0 22 -3q14 -2 26.5 -2.5t29.5 -0.5h24zM190 51q11 -8 24 -11.5t25 -3.5q16 0 37.5 9t38.5 39q15 28 17.5 59.5
t2.5 62.5q0 59 -4.5 92.5t-15.5 53.5q-7 12 -21.5 24.5t-40.5 12.5q-13 0 -29.5 -5.5t-33.5 -20.5v-312z" />
    <glyph glyph-name="q" unicode="q" horiz-adv-x="494" 
d="M303 19q-23 -15 -47 -22t-47 -7q-31 0 -62 12t-57 38q-37 37 -48.5 82t-11.5 89q0 17 2 39t9.5 46.5t21.5 49t38 45.5q23 21 57 36t69 15q20 0 44 -6t49 -23l21 16h24q17 0 29.5 0.5t26.5 2.5q15 3 22 3q11 0 11 -9q0 -5 -4 -10.5t-10 -16.5q-6 -10 -9.5 -20t-3.5 -23
v-495q0 -13 3.5 -23t9.5 -20q6 -11 10 -16.5t4 -10.5q0 -6 -3.5 -7.5t-7.5 -1.5h-156q-4 0 -7.5 1.5t-3.5 7.5q0 5 4 10.5t10 16.5q6 10 9.5 20t3.5 23v158zM304 370q-14 11 -26.5 15t-22.5 4q-20 0 -40.5 -9.5t-35.5 -38.5t-17.5 -60t-2.5 -64q0 -46 3 -82t17 -62
q9 -16 21.5 -25t32.5 -9q15 0 34.5 7t36.5 28v296z" />
    <glyph glyph-name="r" unicode="r" horiz-adv-x="382" 
d="M186 396q12 8 20 12.5t20 10.5q14 7 33 15t45 8q17 0 35 -5t34 -13l-1 -65q0 -7 1 -14.5t1 -9.5q1 -6 2 -11.5t1 -10.5q0 -10 -4 -12t-6 -2q-5 0 -8.5 4t-5.5 9q-5 8 -12 19t-14 17q-10 9 -23.5 15t-33.5 6q-24 0 -45 -8t-34 -15v-267q0 -13 3.5 -23t9.5 -20
q6 -11 10 -16.5t4 -10.5q0 -6 -3.5 -7.5t-7.5 -1.5h-156q-4 0 -7.5 1.5t-3.5 7.5q0 5 4 10.5t10 16.5q6 10 9.5 20t3.5 23v277q0 13 -3.5 23t-9.5 20q-6 11 -10 16.5t-4 10.5q0 9 11 9q7 0 22 -3q14 -2 26.5 -2.5t29.5 -0.5h54z" />
    <glyph glyph-name="s" unicode="s" horiz-adv-x="426" 
d="M341 360q0 -6 -0.5 -9.5t-1 -8t-1 -10.5t-0.5 -17q0 -5 -1.5 -12t-9.5 -7q-10 0 -15 12t-7 17q-5 12 -14 26.5t-21 25.5q-11 9 -25 14.5t-28 5.5q-12 0 -24.5 -5t-20.5 -14q-13 -16 -13 -36q0 -23 12.5 -33t22.5 -15l99 -44q15 -7 31.5 -16t30.5 -24q16 -18 21 -37t5 -36
q0 -40 -15.5 -66.5t-33.5 -40.5q-48 -40 -143 -40q-29 0 -64 6.5t-74 23.5l2 67q1 14 -0.5 25t-1.5 18q0 14 4 19t9 5q8 0 12.5 -8.5t5.5 -11.5q7 -17 16.5 -36.5t26.5 -35.5q14 -12 29.5 -19t35.5 -7t35 6t24 16q5 6 9.5 15t4.5 23q0 22 -9 33t-20 16l-90 43q-16 8 -33 18
t-30.5 24.5t-22 34t-8.5 46.5q0 32 14.5 60.5t42.5 45.5q22 14 52 19.5t53 5.5q26 0 62 -7t71 -24z" />
    <glyph glyph-name="t" unicode="t" horiz-adv-x="323" 
d="M192 89q0 -11 3.5 -22t23.5 -11q11 0 21 3.5t20 8.5l21 10.5t12 3.5q8 0 14 -6.5t6 -14.5q0 -15 -27 -35t-51 -28t-53 -8q-12 0 -25.5 1.5t-26.5 7t-25 14.5t-21 24q-5 8 -10.5 27t-5.5 57v258h-63q-7 0 -11 7t-4 17q0 15 8.5 18.5t19.5 5.5q20 5 35.5 10t28.5 15
q10 8 18.5 20.5t14.5 30.5q2 8 4 14.5t4 14.5l6 21q4 12 10 21t21 9q13 0 22.5 -7t9.5 -18v-129h86q7 0 11 -8t4 -17t-4 -17t-11 -8h-86v-290z" />
    <glyph glyph-name="u" unicode="u" horiz-adv-x="510" 
d="M324 36q-8 -7 -19 -14t-19 -12q-20 -11 -40 -15.5t-43 -4.5q-19 0 -41.5 4.5t-41.5 15.5q-9 5 -19 13.5t-18.5 21t-14.5 29.5t-6 39v243q0 13 -3.5 23t-9.5 20q-6 11 -10 16.5t-4 10.5q0 9 11 9q7 0 22 -3q14 -2 26.5 -2.5t29.5 -0.5t29.5 0.5t26.5 2.5q15 3 22 3
q11 0 11 -9q0 -5 -4 -10.5t-10 -16.5q-6 -10 -9.5 -20t-3.5 -23v-249q0 -13 2 -23.5t10 -21.5q8 -10 16.5 -13t18.5 -3q17 0 30 5t26 13q16 11 30 26v266q0 13 -3.5 23t-9.5 20q-6 11 -10 16.5t-4 10.5q0 9 11 9q7 0 22 -3q14 -2 26.5 -2.5t29.5 -0.5t29.5 0.5t26.5 2.5
q15 3 22 3q11 0 11 -9q0 -5 -4 -10.5t-10 -16.5q-6 -10 -9.5 -20t-3.5 -23v-277q0 -13 3.5 -23t9.5 -20q6 -11 10 -16.5t4 -10.5q0 -6 -3.5 -7.5t-7.5 -1.5h-132z" />
    <glyph glyph-name="v" unicode="v" horiz-adv-x="430" 
d="M240 128h4l76 200q2 6 5 16.5t3 18.5q0 14 -6.5 22.5t-13.5 14.5t-10.5 8t-7.5 5q-8 6 -8 12q0 10 14 10q5 0 10 -0.5t14 -2.5q22 -3 47 -3q8 0 21.5 0.5t20.5 1.5q9 2 14 3t15 1q5 0 9.5 -1t4.5 -8q0 -5 -6 -9.5t-11 -8.5q-5 -3 -10 -7t-10 -9l-16.5 -16.5t-14.5 -23.5
l-133 -333q-4 -10 -12.5 -19.5t-25.5 -9.5q-8 0 -21 5t-21 26l-133 342q-3 8 -6.5 15.5t-13.5 15.5q-2 2 -6 5t-14 9q-4 2 -9 6.5t-5 9.5q0 8 5.5 9.5t8.5 1.5q6 0 11.5 -0.5t13.5 -2.5q15 -2 28 -2.5t26 -0.5h26t17.5 0.5t14 1t15.5 1.5q16 2 20.5 2.5t9.5 0.5
q3 0 8.5 -1.5t5.5 -9.5q0 -4 -2 -6l-4 -4q-9 -8 -12.5 -11t-5.5 -5q-8 -8 -8 -21q0 -4 0.5 -10t2.5 -10z" />
    <glyph glyph-name="w" unicode="w" horiz-adv-x="651" 
d="M458 128h4l79 200q2 5 5 16.5t3 18.5q0 14 -6.5 22.5t-13.5 14.5t-10.5 8t-7.5 5q-8 6 -8 12q0 3 3 6.5t11 3.5q4 0 9 -0.5t15 -2.5q22 -3 47 -3q8 0 21.5 0.5t20.5 1.5q9 2 14 3t15 1q5 0 9.5 -1t4.5 -8q0 -5 -6 -9.5t-11 -8.5q-5 -3 -10 -7t-10 -9q-9 -8 -17 -16.5
t-14 -23.5l-138 -333q-4 -10 -12.5 -19.5t-25.5 -9.5q-10 0 -22.5 6t-19.5 25l-59 163l-76 -161q-5 -10 -14.5 -21.5t-28.5 -11.5q-7 0 -20.5 5t-21.5 26l-129 342q-3 8 -6.5 15.5t-13.5 15.5q-2 2 -6 5t-14 9q-4 2 -9 6.5t-5 9.5q0 8 5.5 9.5t8.5 1.5q6 0 11.5 -0.5
t13.5 -2.5q14 -2 27 -2.5t27 -0.5q32 0 48.5 1t22.5 2q8 1 12 2t8 1q13 0 13 -10q0 -5 -6 -13q-2 -2 -4.5 -5.5t-4.5 -8.5q-5 -10 -5 -22q0 -8 1 -11t3 -8l80 -239h4l57 129l-41 116q-2 6 -7 16t-8 15q-6 9 -14 16q-3 2 -7 5.5t-4 8.5q0 4 3.5 7.5t9.5 3.5q3 0 6.5 -0.5
t12.5 -2.5q12 -2 22.5 -2.5t23.5 -0.5q15 0 30.5 0.5t35.5 2.5q5 0 10 0.5t10 1.5q2 0 3.5 0.5t3.5 0.5q8 0 10 -3t2 -8t-2 -6.5t-4 -3.5q-3 -2 -7 -7.5t-6 -8.5q-7 -10 -7 -21q0 -4 0.5 -10t2.5 -10z" />
    <glyph glyph-name="x" unicode="x" horiz-adv-x="464" 
d="M267 266l52 73q5 7 7.5 16t2.5 18q0 17 -10 27q-3 3 -9 8t-7 6q-2 2 -5 4.5t-3 6.5q0 10 17 10q3 0 6 -0.5l15 -2.5q10 -2 20 -2.5t24 -0.5q10 0 22 0.5t23 2.5q15 3 20 3q11 0 11 -8q0 -5 -7.5 -12t-18.5 -17q-9 -8 -21.5 -21.5t-20.5 -24.5l-91 -119l110 -170
q8 -13 19.5 -20t20.5 -12q5 -2 11 -6t6 -12q0 -3 -2.5 -8t-13.5 -5h-197q-11 0 -13 5t-2 7q0 5 3 7t5 4q4 3 7.5 6t7.5 8q7 10 7 21q0 10 -3 17.5t-7 13.5l-49 78l-54 -72q-5 -8 -8.5 -16.5t-3.5 -20.5q0 -6 1.5 -11t8.5 -12q2 -2 7.5 -7t8.5 -7t5.5 -4t2.5 -7q0 -8 -6.5 -9
t-10.5 -1h-139q-8 0 -10.5 4.5t-2.5 7.5q0 8 9.5 13.5t18.5 10.5q17 10 29 22t22 25l90 118l-113 176q-6 10 -15 17l-18 14q-3 2 -8 6.5t-5 9.5q0 3 2 7t11 4q7 0 12 -1t22 -3q12 -1 23 -1.5t31 -0.5q14 0 34 0.5t33 1.5q15 1 25 2.5t16 1.5q3 0 8.5 -1.5t5.5 -9.5
q0 -4 -2 -6l-4 -4q-9 -7 -16 -16q-7 -10 -7 -21q0 -10 3 -17.5t7 -13.5z" />
    <glyph glyph-name="y" unicode="y" horiz-adv-x="476" 
d="M271 97h2l89 231q2 6 5 16.5t3 18.5q0 14 -6.5 22.5t-13.5 14.5t-10.5 8t-7.5 5q-8 6 -8 12q0 10 14 10q5 0 10 -0.5t14 -2.5q22 -3 47 -3q8 0 21.5 0.5t20.5 1.5q9 2 14 3t15 1q5 0 9.5 -1t4.5 -8q0 -5 -6 -9.5t-11 -8.5q-5 -3 -10 -7t-10 -9q-9 -8 -17 -16.5t-14 -23.5
l-185 -449q-13 -31 -24 -53.5t-26 -39.5q-17 -19 -35.5 -26.5t-41.5 -7.5q-25 0 -42 6.5t-28 15.5v41q0 24 -1 34t-1 18q0 5 2 12.5t11 7.5q8 0 13 -6.5t9 -14.5q10 -17 23 -25q8 -5 14.5 -6.5t14.5 -1.5q15 0 24 3.5t14 8.5t11 14t9 17l25 60l-166 403q-3 8 -6.5 15.5
t-13.5 15.5q-2 2 -6 5t-14 9q-4 2 -9 6.5t-5 9.5q0 8 5.5 9.5t8.5 1.5q6 0 11.5 -0.5t13.5 -2.5q15 -2 28 -2.5t26 -0.5h26t17.5 0.5t14 1t15.5 1.5q16 2 20.5 2.5t9.5 0.5q3 0 8.5 -1.5t5.5 -9.5q0 -4 -2 -6l-4 -4q-9 -8 -12.5 -11t-5.5 -5q-3 -3 -5.5 -8t-2.5 -13
q0 -3 0.5 -9.5t2.5 -10.5z" />
    <glyph glyph-name="z" unicode="z" horiz-adv-x="446" 
d="M203 383q-13 0 -27 -1.5t-25 -6.5t-21 -15.5t-18 -22.5q-5 -8 -9.5 -18.5t-8.5 -20.5q-2 -6 -6 -12.5t-12 -6.5t-9.5 7t-1.5 12q0 10 1.5 19t1.5 29l-1 74q0 8 2 11.5t12 3.5q4 0 8 -0.5t12 -2.5q15 -2 27 -2.5t29 -0.5h151q22 0 35 0.5t22 2.5q7 1 12 2t13 1
q18 0 22.5 -8.5t4.5 -13.5q0 -7 -4.5 -16t-8.5 -14l-231 -337h96q17 0 28.5 1t25.5 9q24 13 37 36q5 9 9.5 19t8.5 20q2 6 6 12.5t12 6.5t9.5 -7t1.5 -12q0 -4 -0.5 -7t-0.5 -7q-1 -8 -1.5 -17t-0.5 -17l-2 -68q0 -15 -14 -15h-337q-14 0 -19 9t-5 17q0 11 4.5 18.5
t9.5 13.5l223 325h-61z" />
    <glyph glyph-name="braceleft" unicode="{" horiz-adv-x="439" 
d="M182 241q22 -5 39.5 -16.5t35.5 -36.5q24 -33 31.5 -65.5t7.5 -69.5q0 -14 -1 -28t-3 -37q-1 -18 -1.5 -30.5t-0.5 -23.5q0 -20 3.5 -42t18.5 -37q9 -9 22.5 -14.5t24.5 -7.5v-57q-53 -3 -91.5 19.5t-58.5 54.5q-15 25 -21.5 57t-6.5 63q0 15 2 38.5t2 55.5q0 19 -2 38.5
t-6.5 37.5t-11 32.5t-16.5 23.5q-9 8 -23 12t-26 4v66q12 0 26 4t23 12q10 9 16.5 23.5t11 32.5t6.5 37.5t2 37.5q0 19 -0.5 28.5t-1.5 17.5t-1.5 18t-0.5 31q0 32 6.5 63t21.5 56q20 33 58 55.5t92 19.5v-57q-29 -5 -47 -23q-15 -16 -18.5 -36.5t-3.5 -41.5q0 -11 0.5 -24
t1.5 -30q2 -23 3 -37t1 -28q0 -48 -11 -81t-28 -55q-29 -37 -75 -54v-6z" />
    <glyph glyph-name="bar" unicode="|" horiz-adv-x="236" 
d="M82 786h72v-793h-72v793z" />
    <glyph glyph-name="braceright" unicode="}" horiz-adv-x="429" 
d="M246 244q-14 11 -33 27t-32 33q-26 33 -32 71t-6 72q0 36 1 51t2 22.5l2 15t1 30.5q0 21 -3 42t-20 39q-7 8 -18 15t-28 9v48q46 2 83 -18t58 -55q14 -24 20.5 -54t6.5 -62q0 -23 -0.5 -35t-1.5 -20.5t-1.5 -18t-0.5 -28.5q0 -50 9.5 -85.5t28.5 -52.5q9 -8 21.5 -12
t25.5 -5v-56q-13 -1 -25.5 -5t-21.5 -12q-19 -16 -28.5 -52t-9.5 -88v-19.5t1 -19.5q1 -16 2 -31t1 -31q0 -7 -0.5 -20t-3.5 -29t-8.5 -33.5t-14.5 -33.5q-20 -34 -58 -54t-83 -18v48q29 5 46 23q17 17 20 39t3 43q0 16 -0.5 23t-1 10.5t-1.5 6.5t-1.5 11t-1 23.5t-0.5 44.5
q0 32 6 69.5t32 72.5q14 20 34.5 37t30.5 24v-2z" />
    <glyph glyph-name="asciitilde" unicode="~" horiz-adv-x="583" 
d="M95 307q11 43 40 75q23 26 48 36.5t50 10.5q23 0 44.5 -7t43.5 -15q35 -13 50.5 -18t25.5 -5q19 0 30 11.5t22 33.5h39q-5 -15 -13.5 -33t-21.5 -36q-19 -27 -40 -41t-56 -14q-23 0 -43 6t-37 14q-18 8 -37.5 17t-41.5 9q-20 0 -38 -10.5t-26 -33.5h-39z" />
    <glyph glyph-name="exclamdown" unicode="&#xa1;" horiz-adv-x="267" 
d="M197 84q1 -17 -2 -33t-10.5 -29t-20 -20.5t-30.5 -7.5t-30.5 7.5t-20.5 20t-11 28.5t-2 34l29 412q2 24 6.5 37.5t28.5 13.5t28.5 -13.5t6.5 -37.5zM194 655q0 -23 -15.5 -43t-44.5 -20q-26 0 -43 19t-17 44q0 26 17 45t43 19q29 0 44.5 -20t15.5 -44z" />
    <glyph glyph-name="cent" unicode="&#xa2;" 
d="M337 60q43 0 83 20q11 6 18.5 9.5t12.5 3.5q8 0 13.5 -6.5t5.5 -14.5q0 -12 -10.5 -22.5t-14.5 -12.5q-20 -15 -49.5 -24.5t-58.5 -11.5v-87h-41v86q-54 0 -91.5 20.5t-58.5 43.5q-31 35 -40.5 74t-9.5 77q0 15 2 37.5t9 47t21 50t38 47.5q23 22 57 36.5t73 17.5v100h41
v-100q32 -2 62 -11t55 -20l-8 -60q-1 -5 -1.5 -11t-0.5 -11q-1 -8 -1 -15t-1 -15q-1 -5 -3 -9.5t-9 -4.5q-9 0 -12.5 7t-5.5 13q-13 43 -31 62.5t-44 27.5v-344zM296 401q-35 -15 -53 -49.5t-18 -108.5q0 -56 8 -84.5t13 -39.5q11 -23 25 -34t25 -16v332z" />
    <glyph glyph-name="sterling" unicode="&#xa3;" 
d="M132 391q-4 17 -7.5 41t-3.5 45q0 40 13 82.5t46 80.5q36 42 75.5 56t92.5 14q43 0 78 -5.5t66 -15.5v-148q0 -7 -5.5 -11t-12.5 -4q-11 0 -15 6t-6 12q-8 20 -15 38t-18 34q-13 18 -30 29.5t-43 11.5q-23 0 -41 -11t-29 -25q-14 -20 -17.5 -43.5t-3.5 -43.5t2.5 -41.5
t5.5 -40.5t6.5 -35t5.5 -26h176q18 0 18 -28t-18 -28h-166q5 -21 7.5 -43.5t2.5 -43.5q0 -35 -6.5 -63t-16.5 -51q37 -17 78 -26.5t74 -9.5q23 0 43 5.5t40 20.5q8 7 17.5 14.5t17.5 7.5t15.5 -5t7.5 -15q0 -7 -4 -15.5t-9 -16t-11 -14.5t-10 -11q-10 -11 -23 -24.5
t-31.5 -25.5t-43 -20.5t-55.5 -8.5q-40 0 -80.5 15t-75.5 38q-24 -28 -54 -40.5t-56 -12.5q-42 0 -69 25.5t-27 65.5q0 25 9.5 44t24.5 31.5t33.5 18.5t36.5 6q12 0 27.5 -4.5t27.5 -9.5q-1 37 -7.5 75.5t-23.5 92.5h-101q-9 0 -14 9t-5 19t5 19t14 9h88zM156 83
q-10 7 -23 12.5t-26 5.5q-14 0 -24 -7.5t-10 -21.5q0 -11 9 -18.5t22 -7.5q14 0 28.5 11t23.5 26z" />
    <glyph glyph-name="currency" unicode="&#xa4;" horiz-adv-x="672" 
d="M622 579l-88 -94q27 -41 40 -84t13 -82q0 -40 -12.5 -83t-40.5 -82l88 -94l-45 -48l-87 94q-35 -29 -75.5 -42.5t-78.5 -13.5t-78.5 13.5t-75.5 42.5l-87 -94l-45 48l88 94q-28 39 -40.5 82t-12.5 83q0 39 13 82t40 84l-88 94l45 49l87 -96q39 35 81 46t73 11t73 -11
t81 -46l87 96zM152 319q0 -51 18 -89t45 -63.5t59.5 -38.5t61.5 -13t61.5 13t59.5 38.5t45 63.5t18 89q0 43 -14.5 80t-39.5 64.5t-58.5 43.5t-71.5 16t-71.5 -16t-58.5 -43.5t-39.5 -64.5t-14.5 -80z" />
    <glyph glyph-name="yen" unicode="&#xa5;" 
d="M406 590q4 9 7 17t3 19q0 17 -7 27t-17 17q-4 3 -11 7.5t-7 11.5q0 3 2.5 7t12.5 4q8 0 14.5 -1.5t15.5 -3.5q11 -2 19 -3t19 -1q17 0 32 1.5t30 3.5q8 2 15.5 3t15.5 1q3 0 9.5 -1.5t6.5 -9.5q0 -7 -7 -12t-12 -8q-22 -13 -40 -26.5t-28 -36.5l-123 -280h116v-44h-116
v-42h116v-44h-116v-116q0 -13 3.5 -22.5t9.5 -19.5t10 -16t4 -12q0 -7 -3.5 -8.5t-8.5 -1.5h-170q-5 0 -8.5 1.5t-3.5 8.5q0 6 4 12t10 16t9.5 19.5t3.5 22.5v116h-116v44h116v42h-116v44h108l-130 297q-5 11 -18.5 23.5t-24.5 20.5q-5 3 -11.5 8t-6.5 13q0 4 2.5 8t12.5 4
q8 0 16 -1.5t17 -3.5q17 -3 35 -3.5t34 -0.5q11 0 36.5 0.5t44.5 3.5l17.5 3.5t15.5 1.5q11 0 13 -4.5t2 -6.5q0 -5 -4.5 -9.5l-7.5 -7.5q-7 -7 -11.5 -18t-4.5 -22q0 -8 2 -19.5t6 -20.5l81 -195h5z" />
    <glyph glyph-name="brokenbar" unicode="&#xa6;" horiz-adv-x="236" 
d="M154 434h-72v352h72v-352zM82 345h72v-352h-72v352z" />
    <glyph glyph-name="section" unicode="&#xa7;" horiz-adv-x="562" 
d="M193 100q-18 10 -38 24.5t-36.5 34.5t-27.5 46t-11 61q0 25 5 44.5t15 36.5t25.5 33.5t35.5 34.5q-20 25 -27.5 37.5l-10.5 17.5q-8 15 -11.5 34.5t-3.5 36.5q0 34 14.5 69.5t44.5 61.5q26 23 55.5 30.5t62.5 7.5q26 0 62.5 -6.5t78.5 -27.5v-152q0 -8 -5.5 -12t-12.5 -4
q-11 0 -15.5 6t-6.5 11q-13 31 -21 54.5t-20 40.5q-14 20 -30.5 27t-30.5 7q-38 0 -58 -34q-13 -21 -13 -48q0 -34 18 -52t45 -34l95 -55q50 -29 81.5 -66.5t31.5 -95.5q0 -49 -21 -87t-57 -74q15 -13 23 -26t12 -21q8 -17 11.5 -35.5t3.5 -35.5q0 -34 -14.5 -69.5
t-44.5 -61.5q-26 -23 -55.5 -30.5t-62.5 -7.5q-57 0 -93.5 14t-56.5 27l9 145q1 9 6.5 12.5t11.5 3.5q11 0 15.5 -6t6.5 -11q10 -26 16 -47t17 -39q24 -43 67 -43q40 0 60 34q13 22 13 47q0 35 -18.5 53.5t-44.5 33.5zM208 376q-15 -12 -27.5 -31.5t-12.5 -40.5q0 -14 5 -24
t13.5 -18t19.5 -15t23 -15l125 -84q15 12 27.5 31.5t12.5 40.5q0 14 -5 24t-13.5 18t-19.5 15t-23 15z" />
    <glyph glyph-name="dieresis" unicode="&#xa8;" horiz-adv-x="352" 
d="M322 561q0 -20 -6.5 -31.5t-16 -18t-19.5 -8.5t-17 -2q-26 0 -43 17t-17 43q0 7 2 17t8.5 19.5t18 16t31.5 6.5q21 0 33 -7.5t18 -17t7 -19.5t1 -15zM149 561q0 -33 -19.5 -46.5t-39.5 -13.5q-26 0 -43 17t-17 43q0 20 13 39.5t47 19.5q4 0 14 -1.5t20 -7t17.5 -17.5
t7.5 -33z" />
    <glyph glyph-name="copyright" unicode="&#xa9;" horiz-adv-x="844" 
d="M579 181q-42 -37 -81 -47t-65 -10q-32 0 -58 6.5t-46 17t-34.5 23.5t-24.5 26q-14 17 -28 51.5t-14 91.5q0 13 1 31.5t6 40.5t15 45t28 44q19 24 41 38t43.5 22t42.5 10.5t38 2.5q20 0 33.5 -2t29.5 -7q16 -4 29 -8t29 -11v-102q0 -11 -6.5 -16t-12.5 -5q-9 0 -13 5
t-6 12q-10 27 -17 40.5t-12 20.5q-14 17 -28.5 22.5t-28.5 5.5q-30 0 -48 -13t-31 -41q-12 -26 -17 -56.5t-5 -65.5q0 -54 7.5 -86t18.5 -52q24 -46 73 -46q20 0 37.5 6.5t28.5 16.5q15 13 25 31.5t19 36.5q2 5 6 11t12 6q7 0 13.5 -6t5.5 -17zM149 350q0 -62 21 -115.5
t57.5 -93.5t86.5 -63t108 -23t107.5 23t86.5 63t58 93.5t21 115.5q0 61 -21 115t-58 94t-86.5 63t-107.5 23t-108 -23t-86.5 -63t-57.5 -94t-21 -115zM80 350q0 76 27 143.5t73.5 117t108.5 78.5t133 29q72 0 134 -29t108.5 -79.5t73 -117.5t26.5 -142q0 -74 -26 -141
t-72 -117.5t-108.5 -80t-135.5 -29.5q-72 0 -134 29t-108.5 79.5t-73 117.5t-26.5 142z" />
    <glyph glyph-name="ordfeminine" unicode="&#xaa;" horiz-adv-x="460" 
d="M263 407q-25 -14 -45 -21t-43 -7q-13 0 -29.5 4t-29.5 13q-15 11 -26 31t-11 44q0 43 39 72q18 14 38.5 21.5t43.5 13.5q7 2 19.5 5t37.5 8q-1 23 -2.5 34.5t-3.5 19.5q-5 16 -14.5 22t-24.5 6q-16 0 -31 -10q-11 -7 -17.5 -14.5t-12.5 -16.5q-5 -8 -7.5 -13t-5.5 -14
q-2 -5 -5.5 -11t-12.5 -6q-5 0 -9 4t-4 15q0 9 1.5 14.5t1.5 19.5l-1 46q20 11 33.5 14.5t30.5 7.5q14 3 25.5 5t30.5 2q23 0 48 -6t46 -27q12 -12 23 -34.5t10 -54.5l-2 -146q0 -14 9 -29q4 -7 7.5 -11.5t3.5 -9.5q0 -3 -2.5 -7.5t-10.5 -4.5h-94zM257 554
q-22 -8 -30.5 -11.5t-13.5 -6.5q-18 -11 -24.5 -27t-6.5 -37q0 -6 1.5 -16t7.5 -18q3 -4 8.5 -8t15.5 -4q7 0 18.5 4t22.5 12zM390 275h-320v69h320v-69z" />
    <glyph glyph-name="guillemotleft" unicode="&#xab;" horiz-adv-x="572" 
d="M136 146l-6.5 6.5l-5 5l-6.5 6.5t-10 12q-8 10 -13 17.5t-5 20.5t5 21t13 17q12 14 17.5 20.5t10.5 10.5l173 170l13 -61l-89 -131q-14 -20 -20.5 -31t-6.5 -16q0 -4 5 -12t22 -34l89 -131l-13 -62zM311 151l-6.5 6.5l-5.5 5.5t-6 6.5l-9 10.5q-7 8 -11.5 15t-4.5 19
q0 11 4.5 18.5t11.5 15.5q14 15 19 21t8 9l159 156l12 -58l-81 -120q-13 -19 -19 -27.5t-6 -14.5q0 -7 6 -15t19 -26l81 -119l-12 -60z" />
    <glyph glyph-name="logicalnot" unicode="&#xac;" horiz-adv-x="708" 
d="M90 419h528v-207h-71v133h-457v74z" />
    <glyph glyph-name="registered" unicode="&#xae;" horiz-adv-x="844" 
d="M80 350q0 76 27 143.5t73.5 117t108.5 78.5t133 29q72 0 134 -29t108.5 -79.5t73 -117.5t26.5 -142q0 -74 -26 -141t-72 -117.5t-108.5 -80t-135.5 -29.5q-72 0 -134 29t-108.5 79.5t-73 117.5t-26.5 142zM371 205q0 -12 7 -23q3 -5 6.5 -9.5t3.5 -9.5q0 -4 -2 -7.5
t-10 -3.5h-99q-3 0 -7.5 1.5t-4.5 8.5q0 5 3 10l6 10q7 11 7 23v315q0 11 -7 22q-3 5 -6 9.5t-3 10.5q0 2 2 6t10 4q3 0 5.5 -0.5l7.5 -1.5q8 -1 18.5 -1.5t19.5 -0.5h64q24 0 49 -3.5t49 -20.5q19 -13 33.5 -35.5t14.5 -59.5q0 -35 -17.5 -63t-52.5 -37v-4q8 -4 16 -8.5
t15 -10.5q16 -14 24 -29t16 -32q14 -28 18 -39t9 -16q3 -3 9 -7.5t10 -4.5q3 0 7.5 3l7.5 5q4 4 12 4q5 0 10 -3t5 -14q0 -9 -6 -15l-11 -11q-11 -10 -21 -15.5t-31 -5.5q-45 0 -71 36q-4 5 -13 21.5t-26 58.5q-5 14 -11.5 28.5t-19.5 27.5q-5 5 -10.5 9.5t-10.5 7.5
q-4 3 -7.5 5.5t-3.5 10.5q0 14 14 17q3 1 7 1t10 3q8 4 11.5 8t6.5 10q3 7 5.5 12.5t4 12.5t2 16t0.5 23q0 17 -4 38.5t-22 33.5q-10 6 -23.5 8t-25.5 1v-330zM149 350q0 -62 21 -115.5t57.5 -93.5t86.5 -63t108 -23t107.5 23t86.5 63t58 93.5t21 115.5q0 61 -21 115t-58 94
t-86.5 63t-107.5 23t-108 -23t-86.5 -63t-57.5 -94t-21 -115z" />
    <glyph glyph-name="macron" unicode="&#xaf;" horiz-adv-x="340" 
d="M320 585v-56h-300v56h300z" />
    <glyph glyph-name="macron" unicode="&#x2c9;" horiz-adv-x="340" 
d="M320 585v-56h-300v56h300z" />
    <glyph glyph-name="degree" unicode="&#xb0;" horiz-adv-x="398" 
d="M89 627q0 23 8 44.5t22.5 38t34.5 26t45 9.5t45 -9.5t34.5 -26t22.5 -38t8 -44.5q0 -18 -6 -39t-19.5 -38.5t-34.5 -29t-50 -11.5t-50 11.5t-34.5 29t-19.5 38.5t-6 39zM143 626q0 -22 13 -41t43 -19t43 19t13 41q0 27 -15.5 44.5t-40.5 17.5t-40.5 -17.5t-15.5 -44.5z
" />
    <glyph glyph-name="plusminus" unicode="&#xb1;" horiz-adv-x="745" 
d="M655 131v-78h-565v78h565zM335 196v207h-245v78h245v207h75v-207h245v-78h-245v-207h-75z" />
    <glyph glyph-name="uni00B2" unicode="&#xb2;" horiz-adv-x="512" 
d="M144 693q41 16 81 16q34 0 59 -7.5t42 -19.5q30 -20 44 -50t14 -61q0 -28 -11 -49t-27 -39q-21 -25 -51 -49t-61 -42v-5h38q2 0 7 0.5t20 2.5q7 1 12 2.5t10 1.5q11 0 15.5 -7t7.5 -13q7 -14 18.5 -33t29.5 -41h-272q-10 0 -15 9.5t-5 17.5q0 11 7 18.5t15 13.5
q9 7 15.5 12t12.5 9.5t11.5 9.5t13.5 12q17 15 30 26.5t32 33.5q12 14 28.5 38.5t16.5 53.5q0 17 -7.5 34t-19.5 27q-18 13 -41 13q-14 0 -28 -5t-25 -12q-8 -5 -13.5 -9t-11.5 -4q-13 0 -13 14q0 5 2 9.5t6 14.5t5 16t2 11z" />
    <glyph glyph-name="uni00B3" unicode="&#xb3;" horiz-adv-x="508" 
d="M210 621q-7 0 -22.5 -0.5t-21.5 -1.5q-4 0 -7 -0.5t-7 -1.5q-2 0 -2.5 -0.5t-2.5 -0.5q-5 0 -8.5 4t-3.5 9q0 4 2.5 8t6.5 11q6 10 8.5 14t4.5 7q1 2 3.5 8.5t3.5 10.5l4 12t11 6q4 0 8.5 -0.5t15.5 -2.5t23 -3t32 -1h130l-89 -118q9 -2 20 -7.5t23 -16.5
q23 -20 31.5 -42t8.5 -42q0 -33 -15.5 -67.5t-40.5 -57.5q-20 -20 -45.5 -30.5t-56.5 -10.5q-20 0 -37 5t-32 13q-14 8 -29 20.5t-26 25.5q8 10 14 18.5t11 18.5q6 11 9 17.5t8 16.5q2 4 5.5 9.5t9.5 5.5q2 0 6.5 -2.5t8.5 -15.5q2 -9 6 -20.5t14 -21.5q8 -8 23 -14t35 -6
q13 0 27.5 3.5t26.5 15.5q6 6 11.5 16.5t5.5 25.5q0 11 -6 29t-29 32q-16 10 -37 14.5t-44 0.5l74 107h-69z" />
    <glyph glyph-name="acute" unicode="&#xb4;" horiz-adv-x="241" 
d="M20 519l80 111q5 8 15 20t17 19q21 21 43 21t34 -14.5t12 -32.5q0 -12 -5 -22t-12.5 -18t-16 -14.5t-15.5 -10.5l-131 -81z" />
    <glyph glyph-name="mu" unicode="&#xb5;" horiz-adv-x="628" 
d="M492 106q-3 -11 -5 -18t-2 -13q0 -16 15 -16q8 0 15 5t12 10q8 8 17 20.5t15 22.5q4 6 9.5 13.5t12.5 7.5q5 0 11 -4t6 -12t-9 -23t-17 -25q-14 -18 -32.5 -36t-33.5 -28q-31 -20 -68 -20q-14 0 -27.5 4.5t-24.5 15.5q-12 13 -15.5 26.5t-3.5 26.5q0 16 5 36l7 28l40 130
l-5 2q-14 -27 -30.5 -60t-30.5 -59q-32 -59 -51.5 -86.5t-33.5 -40.5q-8 -7 -20 -15t-28 -8q-21 0 -40.5 17t-22.5 45h-4l-53 -177q-2 -8 -5 -20.5t-3 -23.5q0 -8 2.5 -15t10.5 -12q5 -3 9.5 -6.5t4.5 -8.5t-3.5 -6t-5.5 -1h-142l148 554q2 7 4.5 19.5t2.5 22.5q0 16 -12 25
q-5 5 -10 8.5t-5 8.5q0 7 4 8t7 1h153l-52 -190q-8 -30 -9.5 -46t-1.5 -19q0 -8 1.5 -17.5t3.5 -16.5q10 -27 39 -27q16 0 27 6t22 17q4 4 11 11.5t16.5 20.5t23 32.5t31.5 48.5q35 58 53 98.5t26 81.5h128z" />
    <glyph glyph-name="mu" unicode="&#x3bc;" horiz-adv-x="628" 
d="M492 106q-3 -11 -5 -18t-2 -13q0 -16 15 -16q8 0 15 5t12 10q8 8 17 20.5t15 22.5q4 6 9.5 13.5t12.5 7.5q5 0 11 -4t6 -12t-9 -23t-17 -25q-14 -18 -32.5 -36t-33.5 -28q-31 -20 -68 -20q-14 0 -27.5 4.5t-24.5 15.5q-12 13 -15.5 26.5t-3.5 26.5q0 16 5 36l7 28l40 130
l-5 2q-14 -27 -30.5 -60t-30.5 -59q-32 -59 -51.5 -86.5t-33.5 -40.5q-8 -7 -20 -15t-28 -8q-21 0 -40.5 17t-22.5 45h-4l-53 -177q-2 -8 -5 -20.5t-3 -23.5q0 -8 2.5 -15t10.5 -12q5 -3 9.5 -6.5t4.5 -8.5t-3.5 -6t-5.5 -1h-142l148 554q2 7 4.5 19.5t2.5 22.5q0 16 -12 25
q-5 5 -10 8.5t-5 8.5q0 7 4 8t7 1h153l-52 -190q-8 -30 -9.5 -46t-1.5 -19q0 -8 1.5 -17.5t3.5 -16.5q10 -27 39 -27q16 0 27 6t22 17q4 4 11 11.5t16.5 20.5t23 32.5t31.5 48.5q35 58 53 98.5t26 81.5h128z" />
    <glyph glyph-name="paragraph" unicode="&#xb6;" horiz-adv-x="514" 
d="M354 710h80v-928h-80v928zM200 361q-60 23 -90 63.5t-30 110.5q0 34 10.5 65.5t31 56t50 39t67.5 14.5h41v-928h-80v579z" />
    <glyph glyph-name="periodcentered" unicode="&#xb7;" horiz-adv-x="228" 
d="M56 376q0 23 16.5 42t41.5 19q18 0 38 -15t20 -46t-19.5 -46.5t-38.5 -15.5q-25 0 -41.5 19t-16.5 43z" />
    <glyph glyph-name="periodcentered" unicode="&#x22c5;" horiz-adv-x="228" 
d="M56 376q0 23 16.5 42t41.5 19q18 0 38 -15t20 -46t-19.5 -46.5t-38.5 -15.5q-25 0 -41.5 19t-16.5 43z" />
    <glyph glyph-name="periodcentered" unicode="&#x2219;" horiz-adv-x="228" 
d="M56 376q0 23 16.5 42t41.5 19q18 0 38 -15t20 -46t-19.5 -46.5t-38.5 -15.5q-25 0 -41.5 19t-16.5 43z" />
    <glyph glyph-name="cedilla" unicode="&#xb8;" horiz-adv-x="235" 
d="M152 13l-12 -48q7 -1 19 -3.5t25 -10.5q20 -13 27.5 -30t7.5 -40q0 -21 -7.5 -41.5t-34.5 -37.5q-8 -5 -30 -14t-63 -9q-35 0 -44.5 9t-9.5 17q0 9 6.5 14.5t14.5 5.5q6 0 8 -1.5t16 -1.5t29 5.5t26 14.5q8 8 15 20.5t7 23.5q0 9 -4 18.5t-12 14.5q-11 8 -27 8t-30 -3
l25 89h48z" />
    <glyph glyph-name="uni00B9" unicode="&#xb9;" horiz-adv-x="375" 
d="M228 367q0 -12 3.5 -22.5t9.5 -21.5t10 -16.5t4 -9.5q0 -2 -3 -5t-7 -3h-134q-4 0 -7 3t-3 5q0 4 4 9.5t10 16.5t9.5 21.5t3.5 22.5v234q0 7 -2.5 12t-10.5 10q-4 2 -9.5 6t-5.5 11q0 8 7.5 13.5t12.5 7.5q13 7 22.5 11.5t26.5 15.5q15 10 29 20.5t30 25.5v-367z" />
    <glyph glyph-name="ordmasculine" unicode="&#xba;" horiz-adv-x="420" 
d="M210 678q-10 0 -19.5 -5t-16.5 -13q-11 -14 -16.5 -40t-5.5 -72q0 -57 7 -80.5t15 -32.5q6 -7 16 -12t20 -5t20 5t16 12q8 9 15 32.5t7 80.5q0 46 -5.5 72t-16.5 40q-7 8 -16.5 13t-19.5 5zM209 716q33 0 62.5 -12t51.5 -35q17 -17 31 -46.5t14 -74.5q0 -28 -8.5 -60
t-36.5 -61q-30 -32 -61 -39.5t-52 -7.5t-52 7.5t-61 39.5q-28 29 -36.5 61t-8.5 60q0 45 14 74.5t31 46.5q22 23 51 35t61 12zM370 275h-320v69h320v-69z" />
    <glyph glyph-name="guillemotright" unicode="&#xbb;" horiz-adv-x="572" 
d="M250 37l89 131q17 26 22 34t5 12q0 5 -6.5 16t-20.5 31l-89 131l13 61l173 -170q5 -4 10.5 -10.5t17.5 -20.5q8 -9 13 -17t5 -21t-5 -20.5t-13 -17.5q-6 -8 -10 -12l-6.5 -6.5l-5 -5l-6.5 -6.5l-173 -171zM90 54l81 119q13 18 19 26t6 15q0 6 -6 14.5t-19 27.5l-81 120
l12 58l159 -156q3 -3 8 -9t19 -21q7 -8 11.5 -15.5t4.5 -18.5q0 -12 -4.5 -19t-11.5 -15l-9 -10.5t-6 -6.5l-5.5 -5.5l-6.5 -6.5l-159 -157z" />
    <glyph glyph-name="onequarter" unicode="&#xbc;" horiz-adv-x="846" 
d="M228 367q0 -12 3.5 -22.5t9.5 -21.5t10 -16.5t4 -9.5q0 -2 -3 -5t-7 -3h-134q-4 0 -7 3t-3 5q0 4 4 9.5t10 16.5t9.5 21.5t3.5 22.5v234q0 7 -2.5 12t-10.5 10q-4 2 -9.5 6t-5.5 11q0 8 7.5 13.5t12.5 7.5q13 7 22.5 11.5t26.5 15.5q15 10 29 20.5t30 25.5v-367zM665 96
v-25q0 -14 4 -25.5t9 -19.5q5 -7 8.5 -11.5t3.5 -8.5q0 -2 -1.5 -4t-6.5 -2h-126q-5 0 -6.5 2t-1.5 4q0 4 3.5 8.5t8.5 11.5q5 8 9 19.5t4 25.5v25h-124q-12 0 -15.5 7.5t-3.5 12.5t2 8.5t4 7.5l136 265q5 9 15 9q3 0 5.5 -0.5l7.5 -1.5t12.5 -1.5t12.5 -0.5q6 0 14.5 0.5
t14.5 1.5q5 1 8 1.5t7 0.5q5 0 8.5 -1.5t3.5 -7.5q0 -4 -2 -6.5t-4 -5.5l-168 -230v-5l66 9v45q22 9 36 17t28 17q10 6 14 9.5t8 3.5q3 0 6.5 -2.5t3.5 -7.5q0 -6 -2 -9t-2 -19v-43l25 4q13 -42 36 -78h-61zM616 754l43 -31l-493 -782l-43 31z" />
    <glyph glyph-name="onehalf" unicode="&#xbd;" horiz-adv-x="864" 
d="M228 367q0 -12 3.5 -22.5t9.5 -21.5t10 -16.5t4 -9.5q0 -2 -3 -5t-7 -3h-134q-4 0 -7 3t-3 5q0 4 4 9.5t10 16.5t9.5 21.5t3.5 22.5v234q0 7 -2.5 12t-10.5 10q-4 2 -9.5 6t-5.5 11q0 8 7.5 13.5t12.5 7.5q13 7 22.5 11.5t26.5 15.5q15 10 29 20.5t30 25.5v-367zM603 754
l43 -31l-493 -782l-43 31zM496 393q41 16 81 16q34 0 59 -7.5t42 -19.5q30 -20 44 -50t14 -61q0 -28 -11 -49t-27 -39q-21 -25 -51 -49t-61 -42v-5h38q2 0 7 0.5t20 2.5q7 1 12 2.5t10 1.5q11 0 15.5 -7t7.5 -13q7 -14 18.5 -33t29.5 -41h-272q-10 0 -15 9.5t-5 17.5
q0 11 7 18.5t15 13.5q9 7 15.5 12t12.5 9.5t11.5 9.5t13.5 12q17 15 30 26.5t32 33.5q12 14 28.5 38.5t16.5 53.5q0 17 -7.5 34t-19.5 27q-18 13 -41 13q-14 0 -28 -5t-25 -12q-8 -5 -13.5 -9t-11.5 -4q-13 0 -13 14q0 5 2 9.5t6 14.5t5 16t2 11z" />
    <glyph glyph-name="threequarters" unicode="&#xbe;" horiz-adv-x="922" 
d="M741 96v-25q0 -14 4 -25.5t9 -19.5q5 -7 8.5 -11.5t3.5 -8.5q0 -2 -1.5 -4t-6.5 -2h-126q-5 0 -6.5 2t-1.5 4q0 4 3.5 8.5t8.5 11.5q5 8 9 19.5t4 25.5v25h-124q-12 0 -15.5 7.5t-3.5 12.5t2 8.5t4 7.5l136 265q5 9 15 9q3 0 5.5 -0.5l7.5 -1.5t12.5 -1.5t12.5 -0.5
q6 0 14.5 0.5t14.5 1.5q5 1 8 1.5t7 0.5q5 0 8.5 -1.5t3.5 -7.5q0 -4 -2 -6.5t-4 -5.5l-168 -230v-5l66 9v45q22 9 36 17t28 17q10 6 14 9.5t8 3.5q3 0 6.5 -2.5t3.5 -7.5q0 -6 -2 -9t-2 -19v-43l25 4q13 -42 36 -78h-61zM210 621q-7 0 -22.5 -0.5t-21.5 -1.5q-4 0 -7 -0.5
t-7 -1.5q-2 0 -2.5 -0.5t-2.5 -0.5q-5 0 -8.5 4t-3.5 9q0 4 2.5 8t6.5 11q6 10 8.5 14t4.5 7q1 2 3.5 8.5t3.5 10.5l4 12t11 6q4 0 8.5 -0.5t15.5 -2.5t23 -3t32 -1h130l-89 -118q9 -2 20 -7.5t23 -16.5q23 -20 31.5 -42t8.5 -42q0 -33 -15.5 -67.5t-40.5 -57.5
q-20 -20 -45.5 -30.5t-56.5 -10.5q-20 0 -37 5t-32 13q-14 8 -29 20.5t-26 25.5q8 10 14 18.5t11 18.5q6 11 9 17.5t8 16.5q2 4 5.5 9.5t9.5 5.5q2 0 6.5 -2.5t8.5 -15.5q2 -9 6 -20.5t14 -21.5q8 -8 23 -14t35 -6q13 0 27.5 3.5t26.5 15.5q6 6 11.5 16.5t5.5 25.5
q0 11 -6 29t-29 32q-16 10 -37 14.5t-44 0.5l74 107h-69zM699 754l43 -31l-493 -782l-43 31z" />
    <glyph glyph-name="questiondown" unicode="&#xbf;" horiz-adv-x="476" 
d="M420 32q-15 -7 -31.5 -13.5t-36.5 -12.5q-23 -8 -47 -12t-56 -4q-14 0 -31 1t-35 5t-36.5 11.5t-34.5 19.5q-26 20 -41 50.5t-15 75.5q0 34 11.5 61t30.5 50q20 23 45 43t57 52q18 17 27 29.5t19 31.5q10 18 12 27.5t2 26.5q1 22 1.5 32t2.5 16q7 17 24 17q13 0 20 -5
t10 -10q1 -2 3 -11t2 -33q0 -36 -12.5 -64.5t-30.5 -56.5q-18 -27 -33.5 -50t-26.5 -55q-8 -23 -14 -55t-6 -56q0 -23 6 -44.5t19 -35.5q8 -8 20 -14t28 -6q29 0 47.5 16.5t29.5 34.5q14 23 21 42t14 42q2 5 5.5 11t13.5 6q5 0 10.5 -3.5t5.5 -14.5v-145zM347 646
q0 -23 -15.5 -43t-44.5 -20q-26 0 -43 19t-17 44q0 26 17 45t43 19q29 0 44.5 -20t15.5 -44z" />
    <glyph glyph-name="Agrave" unicode="&#xc0;" horiz-adv-x="657" 
d="M294 824q-15 9 -32.5 25.5t-17.5 42.5q0 20 13 35t36 15q17 0 27 -7t18 -15t16.5 -19t15.5 -20l82 -113l-24 -26zM227 302h151l-64 231zM394 717l200 -644q4 -12 15.5 -24.5t25.5 -20.5q6 -3 11.5 -7t5.5 -11t-3.5 -8.5t-7.5 -1.5h-213q-4 0 -8 1t-4 8q0 5 4 8.5t7 6.5
q11 9 13.5 19.5t2.5 21.5q0 17 -7 41l-43 140h-185l-53 -140q-3 -8 -6 -18t-3 -20q0 -15 6 -26t15 -16q5 -3 10.5 -6.5t5.5 -10.5t-4 -8t-8 -1h-159q-4 0 -8 1t-4 9t5 10.5t10 4.5q19 8 41.5 27t30.5 38l241 627h66z" />
    <glyph glyph-name="Aacute" unicode="&#xc1;" horiz-adv-x="657" 
d="M245 768l82 113q7 9 15.5 20t16.5 19t18 15t27 7q23 0 36 -15t13 -35q0 -26 -17.5 -42.5t-32.5 -25.5l-134 -82zM227 302h151l-64 231zM394 717l200 -644q4 -12 15.5 -24.5t25.5 -20.5q6 -3 11.5 -7t5.5 -11t-3.5 -8.5t-7.5 -1.5h-213q-4 0 -8 1t-4 8q0 5 4 8.5t7 6.5
q11 9 13.5 19.5t2.5 21.5q0 17 -7 41l-43 140h-185l-53 -140q-3 -8 -6 -18t-3 -20q0 -15 6 -26t15 -16q5 -3 10.5 -6.5t5.5 -10.5t-4 -8t-8 -1h-159q-4 0 -8 1t-4 9t5 10.5t10 4.5q19 8 41.5 27t30.5 38l241 627h66z" />
    <glyph glyph-name="Acircumflex" unicode="&#xc2;" horiz-adv-x="657" 
d="M278 870q7 9 13.5 18.5t23.5 22.5q13 10 21.5 12.5t21.5 2.5q14 0 22.5 -3t20.5 -12q17 -13 23 -22t14 -19l96 -122l-27 -22l-96 76q-28 22 -38.5 27.5t-14.5 5.5t-14.5 -5.5t-38.5 -27.5l-95 -76l-28 22zM227 302h151l-64 231zM394 717l200 -644q4 -12 15.5 -24.5
t25.5 -20.5q6 -3 11.5 -7t5.5 -11t-3.5 -8.5t-7.5 -1.5h-213q-4 0 -8 1t-4 8q0 5 4 8.5t7 6.5q11 9 13.5 19.5t2.5 21.5q0 17 -7 41l-43 140h-185l-53 -140q-3 -8 -6 -18t-3 -20q0 -15 6 -26t15 -16q5 -3 10.5 -6.5t5.5 -10.5t-4 -8t-8 -1h-159q-4 0 -8 1t-4 9t5 10.5
t10 4.5q19 8 41.5 27t30.5 38l241 627h66z" />
    <glyph glyph-name="Atilde" unicode="&#xc3;" horiz-adv-x="657" 
d="M560 830q-12 -14 -29.5 -28t-34.5 -24q-19 -11 -36.5 -15t-34.5 -4q-23 0 -42 4.5t-39 11.5q-22 8 -38.5 12.5t-31.5 4.5q-22 0 -40 -12q-5 -3 -13 -10.5t-13 -12.5l-34 34q12 12 30 27.5t35 24.5q20 11 38.5 14.5t32.5 3.5q23 0 41.5 -4.5t38.5 -11.5q22 -8 37.5 -12.5
t29.5 -4.5q13 0 22.5 3.5t18.5 8.5t15.5 9.5t13.5 13.5zM227 302h151l-64 231zM394 717l200 -644q4 -12 15.5 -24.5t25.5 -20.5q6 -3 11.5 -7t5.5 -11t-3.5 -8.5t-7.5 -1.5h-213q-4 0 -8 1t-4 8q0 5 4 8.5t7 6.5q11 9 13.5 19.5t2.5 21.5q0 17 -7 41l-43 140h-185l-53 -140
q-3 -8 -6 -18t-3 -20q0 -15 6 -26t15 -16q5 -3 10.5 -6.5t5.5 -10.5t-4 -8t-8 -1h-159q-4 0 -8 1t-4 9t5 10.5t10 4.5q19 8 41.5 27t30.5 38l241 627h66z" />
    <glyph glyph-name="Adieresis" unicode="&#xc4;" horiz-adv-x="657" 
d="M326 807q0 -15 -6 -26.5t-15 -19t-19.5 -11t-19.5 -3.5t-19.5 3.5t-19.5 11t-15 19t-6 26.5t6 26t15 18.5t19.5 11.5t19.5 4t19.5 -4t19.5 -11.5t15 -18.5t6 -26zM505 807q0 -15 -6 -26.5t-15 -19t-19.5 -11t-19.5 -3.5t-19.5 3.5t-19.5 11t-15 19t-6 26.5t6 26t15 18.5
t19.5 11.5t19.5 4t19.5 -4t19.5 -11.5t15 -18.5t6 -26zM227 302h151l-64 231zM394 717l200 -644q4 -12 15.5 -24.5t25.5 -20.5q6 -3 11.5 -7t5.5 -11t-3.5 -8.5t-7.5 -1.5h-213q-4 0 -8 1t-4 8q0 5 4 8.5t7 6.5q11 9 13.5 19.5t2.5 21.5q0 17 -7 41l-43 140h-185l-53 -140
q-3 -8 -6 -18t-3 -20q0 -15 6 -26t15 -16q5 -3 10.5 -6.5t5.5 -10.5t-4 -8t-8 -1h-159q-4 0 -8 1t-4 9t5 10.5t10 4.5q19 8 41.5 27t30.5 38l241 627h66z" />
    <glyph glyph-name="Aring" unicode="&#xc5;" horiz-adv-x="657" 
d="M394 717l200 -644q4 -12 15.5 -24.5t25.5 -20.5q6 -3 11.5 -7t5.5 -11t-3.5 -8.5t-7.5 -1.5h-213q-4 0 -8 1t-4 8q0 5 4 8.5t7 6.5q11 9 13.5 19.5t2.5 21.5q0 17 -7 41l-43 140h-185l-53 -140q-3 -8 -6 -18t-3 -20q0 -15 6 -26t15 -16q5 -3 10.5 -6.5t5.5 -10.5t-4 -8
t-8 -1h-159q-4 0 -8 1t-4 9t5 10.5t10 4.5q19 8 41.5 27t30.5 38l241 627h66zM227 302h151l-64 231zM258 835q0 12 5 27t16.5 28.5t30 23t44.5 9.5t44.5 -9.5t30 -23t16.5 -28.5t5 -27t-5 -27t-16.5 -28.5t-30 -23t-44.5 -9.5t-44.5 9.5t-30 23t-16.5 28.5t-5 27zM304 835
q0 -16 6.5 -24.5t15.5 -13t17 -5.5t11 -1t11 1t17 5.5t15.5 13t6.5 24.5t-6.5 24.5t-15.5 13t-17 5.5t-11 1t-11 -1t-17 -5.5t-15.5 -13t-6.5 -24.5z" />
    <glyph glyph-name="AE" unicode="&#xc6;" horiz-adv-x="870" 
d="M444 246h-184l-82 -140q-5 -7 -9.5 -15.5t-7.5 -17.5q-4 -10 -4 -17q0 -11 4.5 -18t11.5 -12q4 -3 8 -5.5t4 -10.5q0 -7 -5 -8.5t-9 -1.5h-159q-10 0 -10 10q0 8 6.5 10.5t11.5 4.5q8 4 20 9.5t23 13.5q14 10 25.5 20.5t17.5 21.5q42 71 84.5 137.5t84.5 131.5
t84.5 130.5t84.5 134.5q-1 9 -4.5 17t-8.5 18q-6 11 -10 16.5t-4 11.5q0 10 12 10q7 0 22 -3q17 -2 27 -2.5t27 -0.5h127q20 0 44.5 1.5t55.5 5.5q20 2 29.5 4t17.5 2q7 0 10 -3t6 -15q3 -13 5 -19t5 -14t5 -14t8 -15q9 -14 9 -19q0 -3 -2 -7t-10 -4q-2 0 -5.5 0.5
t-11.5 2.5l-158 45h-56v-236l126 23q13 2 18.5 4t11.5 2q11 0 14.5 -5.5t5.5 -12.5q4 -15 15 -33q3 -5 6.5 -10t8.5 -12q5 -6 7.5 -9.5t2.5 -7.5q0 -3 -3 -7.5t-14 -4.5q-4 0 -15 1.5t-16 2.5l-168 32v-320h76l168 63q15 6 22 6q8 0 11 -4.5t3 -8.5t-2.5 -8t-4.5 -9
q-6 -13 -9 -18t-5 -10l-25 -60h-389q-5 0 -8.5 1.5t-3.5 8.5q0 6 4 12t10 16t9.5 19.5t3.5 22.5v166zM444 302v237l-153 -237h153z" />
    <glyph glyph-name="Ccedilla" unicode="&#xc7;" horiz-adv-x="653" 
d="M613 77q-35 -30 -69 -47t-64 -26t-53 -11.5t-36 -2.5l-11 -42q7 -1 20.5 -4t27.5 -12q16 -11 28 -29.5t12 -49.5q0 -54 -48 -83q-28 -17 -56.5 -21t-54.5 -4q-9 0 -19.5 0.5t-19.5 3t-14.5 7.5t-5.5 14t6.5 15.5t18.5 6.5q2 0 5 -0.5t5 -0.5q3 -1 6.5 -1h6.5q18 0 39 5.5
t34 16.5q10 8 17 20.5t7 28.5q0 18 -9 27.5t-22 13.5t-27 4t-24 -2l25 88q-40 3 -73 14.5t-59.5 27.5t-46.5 35t-33 37q-27 35 -46.5 91.5t-19.5 138.5q0 49 7.5 89.5t19.5 72t26 55.5t28 41q19 23 44 44t56.5 37t69 25.5t81.5 9.5q23 0 55.5 -4t56.5 -10q17 -5 42.5 -13.5
t41.5 -13.5v-158q0 -7 -5.5 -11t-10.5 -4q-8 0 -12.5 6t-6.5 11q-10 25 -20.5 46t-25.5 40q-21 26 -47.5 42t-61.5 16q-19 0 -39.5 -4.5t-40 -16.5t-38 -32.5t-34.5 -52.5q-23 -48 -30.5 -97t-7.5 -98q0 -59 8.5 -117t35.5 -107q50 -89 142 -89q24 0 56.5 8t64.5 35
q26 23 43.5 51t30.5 55q2 5 6.5 10.5t13.5 5.5q4 0 9.5 -3t4.5 -14z" />
    <glyph glyph-name="Egrave" unicode="&#xc8;" horiz-adv-x="523" 
d="M215 824q-15 9 -32.5 25.5t-17.5 42.5q0 20 13 35t36 15q17 0 27 -7t18 -15t16.5 -19t15.5 -20l82 -113l-24 -26zM97 617q0 20 -13 42q-6 11 -10 16.5t-4 11.5q0 10 12 10q7 0 22 -3q17 -2 31.5 -2.5t31.5 -0.5h118q20 0 44.5 1.5t55.5 5.5q20 2 29.5 4t17.5 2q7 0 10 -3
t6 -15q3 -13 5 -19t5 -14t5 -14t8 -15q9 -14 9 -19q0 -3 -2 -7t-10 -4q-2 0 -5.5 0.5t-11.5 2.5l-158 45h-56v-236l126 23q13 2 18.5 4t11.5 2q11 0 14.5 -5.5t5.5 -12.5q4 -15 15 -33q3 -5 6.5 -10t8.5 -12q5 -6 7.5 -9.5t2.5 -7.5q0 -3 -3 -7.5t-14 -4.5q-4 0 -15 1.5
t-16 2.5l-168 32v-320h76l168 63q15 6 22 6q8 0 11 -4.5t3 -8.5t-2.5 -8t-4.5 -9q-6 -13 -9 -18t-5 -10l-25 -60h-389q-5 0 -8.5 1.5t-3.5 8.5q0 6 4 12t10 16t9.5 19.5t3.5 22.5v537z" />
    <glyph glyph-name="Eacute" unicode="&#xc9;" horiz-adv-x="523" 
d="M165 768l82 113q7 9 15.5 20t16.5 19t18 15t27 7q23 0 36 -15t13 -35q0 -26 -17.5 -42.5t-32.5 -25.5l-134 -82zM97 617q0 20 -13 42q-6 11 -10 16.5t-4 11.5q0 10 12 10q7 0 22 -3q17 -2 31.5 -2.5t31.5 -0.5h118q20 0 44.5 1.5t55.5 5.5q20 2 29.5 4t17.5 2q7 0 10 -3
t6 -15q3 -13 5 -19t5 -14t5 -14t8 -15q9 -14 9 -19q0 -3 -2 -7t-10 -4q-2 0 -5.5 0.5t-11.5 2.5l-158 45h-56v-236l126 23q13 2 18.5 4t11.5 2q11 0 14.5 -5.5t5.5 -12.5q4 -15 15 -33q3 -5 6.5 -10t8.5 -12q5 -6 7.5 -9.5t2.5 -7.5q0 -3 -3 -7.5t-14 -4.5q-4 0 -15 1.5
t-16 2.5l-168 32v-320h76l168 63q15 6 22 6q8 0 11 -4.5t3 -8.5t-2.5 -8t-4.5 -9q-6 -13 -9 -18t-5 -10l-25 -60h-389q-5 0 -8.5 1.5t-3.5 8.5q0 6 4 12t10 16t9.5 19.5t3.5 22.5v537z" />
    <glyph glyph-name="Ecircumflex" unicode="&#xca;" horiz-adv-x="523" 
d="M189 870q7 9 13.5 18.5t23.5 22.5q13 10 21.5 12.5t21.5 2.5q14 0 22.5 -3t20.5 -12q17 -13 23 -22t14 -19l96 -122l-27 -22l-96 76q-28 22 -38.5 27.5t-14.5 5.5t-14.5 -5.5t-38.5 -27.5l-95 -76l-28 22zM97 617q0 20 -13 42q-6 11 -10 16.5t-4 11.5q0 10 12 10
q7 0 22 -3q17 -2 31.5 -2.5t31.5 -0.5h118q20 0 44.5 1.5t55.5 5.5q20 2 29.5 4t17.5 2q7 0 10 -3t6 -15q3 -13 5 -19t5 -14t5 -14t8 -15q9 -14 9 -19q0 -3 -2 -7t-10 -4q-2 0 -5.5 0.5t-11.5 2.5l-158 45h-56v-236l126 23q13 2 18.5 4t11.5 2q11 0 14.5 -5.5t5.5 -12.5
q4 -15 15 -33q3 -5 6.5 -10t8.5 -12q5 -6 7.5 -9.5t2.5 -7.5q0 -3 -3 -7.5t-14 -4.5q-4 0 -15 1.5t-16 2.5l-168 32v-320h76l168 63q15 6 22 6q8 0 11 -4.5t3 -8.5t-2.5 -8t-4.5 -9q-6 -13 -9 -18t-5 -10l-25 -60h-389q-5 0 -8.5 1.5t-3.5 8.5q0 6 4 12t10 16t9.5 19.5
t3.5 22.5v537z" />
    <glyph glyph-name="Edieresis" unicode="&#xcb;" horiz-adv-x="523" 
d="M239 807q0 -15 -6 -26.5t-15 -19t-19.5 -11t-19.5 -3.5t-19.5 3.5t-19.5 11t-15 19t-6 26.5t6 26t15 18.5t19.5 11.5t19.5 4t19.5 -4t19.5 -11.5t15 -18.5t6 -26zM418 807q0 -15 -6 -26.5t-15 -19t-19.5 -11t-19.5 -3.5t-19.5 3.5t-19.5 11t-15 19t-6 26.5t6 26t15 18.5
t19.5 11.5t19.5 4t19.5 -4t19.5 -11.5t15 -18.5t6 -26zM97 617q0 20 -13 42q-6 11 -10 16.5t-4 11.5q0 10 12 10q7 0 22 -3q17 -2 31.5 -2.5t31.5 -0.5h118q20 0 44.5 1.5t55.5 5.5q20 2 29.5 4t17.5 2q7 0 10 -3t6 -15q3 -13 5 -19t5 -14t5 -14t8 -15q9 -14 9 -19
q0 -3 -2 -7t-10 -4q-2 0 -5.5 0.5t-11.5 2.5l-158 45h-56v-236l126 23q13 2 18.5 4t11.5 2q11 0 14.5 -5.5t5.5 -12.5q4 -15 15 -33q3 -5 6.5 -10t8.5 -12q5 -6 7.5 -9.5t2.5 -7.5q0 -3 -3 -7.5t-14 -4.5q-4 0 -15 1.5t-16 2.5l-168 32v-320h76l168 63q15 6 22 6
q8 0 11 -4.5t3 -8.5t-2.5 -8t-4.5 -9q-6 -13 -9 -18t-5 -10l-25 -60h-389q-5 0 -8.5 1.5t-3.5 8.5q0 6 4 12t10 16t9.5 19.5t3.5 22.5v537z" />
    <glyph glyph-name="Igrave" unicode="&#xcc;" horiz-adv-x="319" 
d="M113 824q-15 9 -32.5 25.5t-17.5 42.5q0 20 13 35t36 15q17 0 27 -7t18 -15t16.5 -19t15.5 -20l82 -113l-24 -26zM97 617q0 20 -13 42q-6 11 -10 16.5t-4 11.5q0 10 12 10q7 0 22 -3q17 -2 31.5 -2.5t31.5 -0.5t31.5 0.5t31.5 2.5q15 3 22 3q12 0 12 -10q0 -6 -4 -11.5
t-10 -16.5q-13 -22 -13 -42v-537q0 -13 3.5 -22.5t9.5 -19.5t10 -16t4 -12q0 -7 -3.5 -8.5t-8.5 -1.5h-170q-5 0 -8.5 1.5t-3.5 8.5q0 6 4 12t10 16t9.5 19.5t3.5 22.5v537z" />
    <glyph glyph-name="Iacute" unicode="&#xcd;" horiz-adv-x="319" 
d="M66 768l82 113q7 9 15.5 20t16.5 19t18 15t27 7q23 0 36 -15t13 -35q0 -26 -17.5 -42.5t-32.5 -25.5l-134 -82zM97 617q0 20 -13 42q-6 11 -10 16.5t-4 11.5q0 10 12 10q7 0 22 -3q17 -2 31.5 -2.5t31.5 -0.5t31.5 0.5t31.5 2.5q15 3 22 3q12 0 12 -10q0 -6 -4 -11.5
t-10 -16.5q-13 -22 -13 -42v-537q0 -13 3.5 -22.5t9.5 -19.5t10 -16t4 -12q0 -7 -3.5 -8.5t-8.5 -1.5h-170q-5 0 -8.5 1.5t-3.5 8.5q0 6 4 12t10 16t9.5 19.5t3.5 22.5v537z" />
    <glyph glyph-name="Icircumflex" unicode="&#xce;" horiz-adv-x="319" 
d="M82 870q7 9 13.5 18.5t23.5 22.5q13 10 21.5 12.5t21.5 2.5q14 0 22.5 -3t20.5 -12q17 -13 23 -22t14 -19l96 -122l-27 -22l-96 76q-28 22 -38.5 27.5t-14.5 5.5t-14.5 -5.5t-38.5 -27.5l-95 -76l-28 22zM97 617q0 20 -13 42q-6 11 -10 16.5t-4 11.5q0 10 12 10
q7 0 22 -3q17 -2 31.5 -2.5t31.5 -0.5t31.5 0.5t31.5 2.5q15 3 22 3q12 0 12 -10q0 -6 -4 -11.5t-10 -16.5q-13 -22 -13 -42v-537q0 -13 3.5 -22.5t9.5 -19.5t10 -16t4 -12q0 -7 -3.5 -8.5t-8.5 -1.5h-170q-5 0 -8.5 1.5t-3.5 8.5q0 6 4 12t10 16t9.5 19.5t3.5 22.5v537z
" />
    <glyph glyph-name="Idieresis" unicode="&#xcf;" horiz-adv-x="319" 
d="M134 807q0 -15 -6 -26.5t-15 -19t-19.5 -11t-19.5 -3.5t-19.5 3.5t-19.5 11t-15 19t-6 26.5t6 26t15 18.5t19.5 11.5t19.5 4t19.5 -4t19.5 -11.5t15 -18.5t6 -26zM313 807q0 -15 -6 -26.5t-15 -19t-19.5 -11t-19.5 -3.5t-19.5 3.5t-19.5 11t-15 19t-6 26.5t6 26t15 18.5
t19.5 11.5t19.5 4t19.5 -4t19.5 -11.5t15 -18.5t6 -26zM97 617q0 20 -13 42q-6 11 -10 16.5t-4 11.5q0 10 12 10q7 0 22 -3q17 -2 31.5 -2.5t31.5 -0.5t31.5 0.5t31.5 2.5q15 3 22 3q12 0 12 -10q0 -6 -4 -11.5t-10 -16.5q-13 -22 -13 -42v-537q0 -13 3.5 -22.5t9.5 -19.5
t10 -16t4 -12q0 -7 -3.5 -8.5t-8.5 -1.5h-170q-5 0 -8.5 1.5t-3.5 8.5q0 6 4 12t10 16t9.5 19.5t3.5 22.5v537z" />
    <glyph glyph-name="Eth" unicode="&#xd0;" horiz-adv-x="737" 
d="M353 691q33 0 69 -4t72.5 -16.5t71.5 -37t64 -66.5q33 -48 47.5 -109t14.5 -121q0 -75 -23.5 -145.5t-86.5 -125.5q-26 -23 -51 -36t-49 -20t-47 -8.5t-45 -1.5h-269q-5 0 -8.5 1.5t-3.5 8.5q0 6 4 12t10 16t9.5 19.5t3.5 22.5v263h-88v57h88v217q0 20 -13 42
q-6 11 -10 16.5t-4 11.5q0 10 12 10q7 0 22 -3q17 -2 31.5 -2.5t31.5 -0.5h147zM276 400h130v-57h-130v-284q15 -3 31.5 -4.5t37.5 -1.5q22 0 45 2.5t45.5 12t43 27.5t36.5 49q18 35 23.5 82t5.5 118q0 31 -1.5 62t-6 61t-14.5 56.5t-26 48.5q-27 36 -65.5 51t-89.5 15
q-7 0 -12.5 -0.5t-12 -1t-16 -1t-24.5 -1.5v-234z" />
    <glyph glyph-name="Ntilde" unicode="&#xd1;" horiz-adv-x="725" 
d="M563 830q-12 -14 -29.5 -28t-34.5 -24q-19 -11 -36.5 -15t-34.5 -4q-23 0 -42 4.5t-39 11.5q-22 8 -38.5 12.5t-31.5 4.5q-22 0 -40 -12q-5 -3 -13 -10.5t-13 -12.5l-34 34q12 12 30 27.5t35 24.5q20 11 38.5 14.5t32.5 3.5q23 0 41.5 -4.5t38.5 -11.5q22 -8 37.5 -12.5
t29.5 -4.5q13 0 22.5 3.5t18.5 8.5t15.5 9.5t13.5 13.5zM565 226h4v391q0 10 -3.5 23t-19.5 27q-3 3 -8.5 7.5t-5.5 10.5q0 9 6.5 10.5t9.5 1.5q7 0 12.5 -1t10.5 -2q6 -1 15 -2t15 -1t15 1t15 2q5 1 10.5 2t12.5 1q3 0 9.5 -1.5t6.5 -10.5q0 -6 -5.5 -10.5t-8.5 -7.5
q-16 -14 -19.5 -27t-3.5 -23v-603q0 -22 -11.5 -29t-19.5 -7t-18.5 4.5t-22.5 21.5l-386 550h-4v-474q0 -10 3.5 -23t19.5 -27q5 -4 9.5 -8.5t4.5 -9.5q0 -8 -5.5 -10t-10.5 -2h-106q-5 0 -10.5 2t-5.5 10q0 5 4.5 9.5t9.5 8.5q16 14 19.5 27t3.5 23v537q0 20 -13 42
q-6 11 -10 16.5t-4 11.5q0 10 12 10q7 0 22 -3q14 -2 27 -2.5t28 -0.5q16 0 30.5 0.5t34.5 5.5z" />
    <glyph glyph-name="Ograve" unicode="&#xd2;" horiz-adv-x="743" 
d="M325 824q-15 9 -32.5 25.5t-17.5 42.5q0 20 13 35t36 15q17 0 27 -7t18 -15t16.5 -19t15.5 -20l82 -113l-24 -26zM208 351v-51t2 -54.5t8.5 -55t19.5 -53.5q14 -29 31.5 -47t36.5 -28.5t37.5 -14.5t35.5 -4q15 0 33.5 4t37 14.5t36.5 28.5t32 47q23 45 27.5 99.5
t4.5 114.5t-4.5 113t-27.5 99q-25 52 -61.5 73t-77.5 21q-43 0 -79 -21.5t-62 -72.5q-13 -27 -19.5 -54.5t-8.5 -54.5t-2 -53v-50zM60 351q0 66 19 130t57 114q17 22 40 43t53 37t67.5 25.5t82.5 9.5t82.5 -9.5t67.5 -25.5t53 -37t40 -43q38 -50 57 -114t19 -130
q0 -67 -19 -132t-57 -115q-29 -37 -60.5 -59.5t-64 -34.5t-63 -16t-55.5 -4q-26 0 -56 4t-62.5 16t-64.5 34.5t-60 59.5q-38 50 -57 115t-19 132z" />
    <glyph glyph-name="Oacute" unicode="&#xd3;" horiz-adv-x="743" 
d="M275 768l82 113q7 9 15.5 20t16.5 19t18 15t27 7q23 0 36 -15t13 -35q0 -26 -17.5 -42.5t-32.5 -25.5l-134 -82zM208 351v-51t2 -54.5t8.5 -55t19.5 -53.5q14 -29 31.5 -47t36.5 -28.5t37.5 -14.5t35.5 -4q15 0 33.5 4t37 14.5t36.5 28.5t32 47q23 45 27.5 99.5
t4.5 114.5t-4.5 113t-27.5 99q-25 52 -61.5 73t-77.5 21q-43 0 -79 -21.5t-62 -72.5q-13 -27 -19.5 -54.5t-8.5 -54.5t-2 -53v-50zM60 351q0 66 19 130t57 114q17 22 40 43t53 37t67.5 25.5t82.5 9.5t82.5 -9.5t67.5 -25.5t53 -37t40 -43q38 -50 57 -114t19 -130
q0 -67 -19 -132t-57 -115q-29 -37 -60.5 -59.5t-64 -34.5t-63 -16t-55.5 -4q-26 0 -56 4t-62.5 16t-64.5 34.5t-60 59.5q-38 50 -57 115t-19 132z" />
    <glyph glyph-name="Ocircumflex" unicode="&#xd4;" horiz-adv-x="743" 
d="M299 870q7 9 13.5 18.5t23.5 22.5q13 10 21.5 12.5t21.5 2.5q14 0 22.5 -3t20.5 -12q17 -13 23 -22t14 -19l96 -122l-27 -22l-96 76q-28 22 -38.5 27.5t-14.5 5.5t-14.5 -5.5t-38.5 -27.5l-95 -76l-28 22zM208 351v-51t2 -54.5t8.5 -55t19.5 -53.5q14 -29 31.5 -47
t36.5 -28.5t37.5 -14.5t35.5 -4q15 0 33.5 4t37 14.5t36.5 28.5t32 47q23 45 27.5 99.5t4.5 114.5t-4.5 113t-27.5 99q-25 52 -61.5 73t-77.5 21q-43 0 -79 -21.5t-62 -72.5q-13 -27 -19.5 -54.5t-8.5 -54.5t-2 -53v-50zM60 351q0 66 19 130t57 114q17 22 40 43t53 37
t67.5 25.5t82.5 9.5t82.5 -9.5t67.5 -25.5t53 -37t40 -43q38 -50 57 -114t19 -130q0 -67 -19 -132t-57 -115q-29 -37 -60.5 -59.5t-64 -34.5t-63 -16t-55.5 -4q-26 0 -56 4t-62.5 16t-64.5 34.5t-60 59.5q-38 50 -57 115t-19 132z" />
    <glyph glyph-name="Otilde" unicode="&#xd5;" horiz-adv-x="743" 
d="M572 830q-12 -14 -29.5 -28t-34.5 -24q-19 -11 -36.5 -15t-34.5 -4q-23 0 -42 4.5t-39 11.5q-22 8 -38.5 12.5t-31.5 4.5q-22 0 -40 -12q-5 -3 -13 -10.5t-13 -12.5l-34 34q12 12 30 27.5t35 24.5q20 11 38.5 14.5t32.5 3.5q23 0 41.5 -4.5t38.5 -11.5q22 -8 37.5 -12.5
t29.5 -4.5q13 0 22.5 3.5t18.5 8.5t15.5 9.5t13.5 13.5zM208 351v-51t2 -54.5t8.5 -55t19.5 -53.5q14 -29 31.5 -47t36.5 -28.5t37.5 -14.5t35.5 -4q15 0 33.5 4t37 14.5t36.5 28.5t32 47q23 45 27.5 99.5t4.5 114.5t-4.5 113t-27.5 99q-25 52 -61.5 73t-77.5 21
q-43 0 -79 -21.5t-62 -72.5q-13 -27 -19.5 -54.5t-8.5 -54.5t-2 -53v-50zM60 351q0 66 19 130t57 114q17 22 40 43t53 37t67.5 25.5t82.5 9.5t82.5 -9.5t67.5 -25.5t53 -37t40 -43q38 -50 57 -114t19 -130q0 -67 -19 -132t-57 -115q-29 -37 -60.5 -59.5t-64 -34.5t-63 -16
t-55.5 -4q-26 0 -56 4t-62.5 16t-64.5 34.5t-60 59.5q-38 50 -57 115t-19 132z" />
    <glyph glyph-name="Odieresis" unicode="&#xd6;" horiz-adv-x="743" 
d="M349 807q0 -15 -6 -26.5t-15 -19t-19.5 -11t-19.5 -3.5t-19.5 3.5t-19.5 11t-15 19t-6 26.5t6 26t15 18.5t19.5 11.5t19.5 4t19.5 -4t19.5 -11.5t15 -18.5t6 -26zM528 807q0 -15 -6 -26.5t-15 -19t-19.5 -11t-19.5 -3.5t-19.5 3.5t-19.5 11t-15 19t-6 26.5t6 26t15 18.5
t19.5 11.5t19.5 4t19.5 -4t19.5 -11.5t15 -18.5t6 -26zM208 351v-51t2 -54.5t8.5 -55t19.5 -53.5q14 -29 31.5 -47t36.5 -28.5t37.5 -14.5t35.5 -4q15 0 33.5 4t37 14.5t36.5 28.5t32 47q23 45 27.5 99.5t4.5 114.5t-4.5 113t-27.5 99q-25 52 -61.5 73t-77.5 21
q-43 0 -79 -21.5t-62 -72.5q-13 -27 -19.5 -54.5t-8.5 -54.5t-2 -53v-50zM60 351q0 66 19 130t57 114q17 22 40 43t53 37t67.5 25.5t82.5 9.5t82.5 -9.5t67.5 -25.5t53 -37t40 -43q38 -50 57 -114t19 -130q0 -67 -19 -132t-57 -115q-29 -37 -60.5 -59.5t-64 -34.5t-63 -16
t-55.5 -4q-26 0 -56 4t-62.5 16t-64.5 34.5t-60 59.5q-38 50 -57 115t-19 132z" />
    <glyph glyph-name="multiply" unicode="&#xd7;" horiz-adv-x="635" 
d="M492 78l-173 173l-174 -173l-55 55l173 173l-173 173l53 53l173 -173l174 173l55 -55l-173 -173l173 -173z" />
    <glyph glyph-name="Oslash" unicode="&#xd8;" horiz-adv-x="743" 
d="M60 351q0 66 19 130t57 114q17 22 40 43t53 37t67.5 25.5t82.5 9.5q65 0 111 -18t84 -48l80 103l43 -35l-84 -107q22 -24 38.5 -55t26.5 -64.5t15 -68.5t5 -66q0 -9 -1.5 -35t-8.5 -61t-22.5 -75t-43.5 -76q-29 -37 -60.5 -59.5t-64 -34.5t-63 -16t-55.5 -4
q-66 0 -111.5 17t-84.5 49l-81 -103l-41 35l83 106q-43 52 -63.5 120t-20.5 137zM208 351q0 -20 -0.5 -38t0.5 -36.5t3 -39t8 -47.5l296 379q-6 11 -16 26t-26 29t-39.5 23.5t-54.5 9.5q-17 0 -35.5 -3.5t-37.5 -14t-36.5 -29t-31.5 -47.5q-13 -27 -19.5 -54.5t-8.5 -54.5
t-2 -53v-50zM241 131q15 -29 34.5 -46.5t38.5 -26.5t36 -12t29 -3q15 0 33.5 4t37 14.5t36.5 28.5t32 47q23 45 27.5 99t4.5 115v41t-1.5 37.5t-4 37t-7.5 41.5z" />
    <glyph glyph-name="Ugrave" unicode="&#xd9;" horiz-adv-x="681" 
d="M294 824q-15 9 -32.5 25.5t-17.5 42.5q0 20 13 35t36 15q17 0 27 -7t18 -15t16.5 -19t15.5 -20l82 -113l-24 -26zM237 191q0 -14 2.5 -30t9 -32t19 -30t32.5 -25t41 -14t42 -3q26 0 55.5 7.5t55.5 31.5q23 22 38.5 56.5t15.5 72.5v392q0 10 -3.5 23t-19.5 27
q-3 3 -8.5 7.5t-5.5 10.5q0 9 6.5 10.5t9.5 1.5q7 0 12.5 -1t10.5 -2q6 -1 15 -2t16 -1t16 1t15 2q5 1 10.5 2t12.5 1q3 0 9.5 -1.5t6.5 -10.5q0 -6 -5.5 -10.5t-8.5 -7.5q-16 -14 -19.5 -27t-3.5 -23v-375q0 -22 -3 -48t-12.5 -52.5t-26.5 -52.5t-45 -48q-36 -29 -79 -40
t-88 -11q-38 0 -85 10.5t-85 36.5q-17 12 -34 29t-30 39.5t-21 50t-8 60.5v401q0 20 -13 42q-6 11 -10 16.5t-4 11.5q0 10 12 10q7 0 22 -3q17 -2 31.5 -2.5t31.5 -0.5t31.5 0.5t31.5 2.5q15 3 22 3q12 0 12 -10q0 -6 -4 -11.5t-10 -16.5q-13 -22 -13 -42v-426z" />
    <glyph glyph-name="Uacute" unicode="&#xda;" horiz-adv-x="681" 
d="M283 768l82 113q7 9 15.5 20t16.5 19t18 15t27 7q23 0 36 -15t13 -35q0 -26 -17.5 -42.5t-32.5 -25.5l-134 -82zM237 191q0 -14 2.5 -30t9 -32t19 -30t32.5 -25t41 -14t42 -3q26 0 55.5 7.5t55.5 31.5q23 22 38.5 56.5t15.5 72.5v392q0 10 -3.5 23t-19.5 27
q-3 3 -8.5 7.5t-5.5 10.5q0 9 6.5 10.5t9.5 1.5q7 0 12.5 -1t10.5 -2q6 -1 15 -2t16 -1t16 1t15 2q5 1 10.5 2t12.5 1q3 0 9.5 -1.5t6.5 -10.5q0 -6 -5.5 -10.5t-8.5 -7.5q-16 -14 -19.5 -27t-3.5 -23v-375q0 -22 -3 -48t-12.5 -52.5t-26.5 -52.5t-45 -48q-36 -29 -79 -40
t-88 -11q-38 0 -85 10.5t-85 36.5q-17 12 -34 29t-30 39.5t-21 50t-8 60.5v401q0 20 -13 42q-6 11 -10 16.5t-4 11.5q0 10 12 10q7 0 22 -3q17 -2 31.5 -2.5t31.5 -0.5t31.5 0.5t31.5 2.5q15 3 22 3q12 0 12 -10q0 -6 -4 -11.5t-10 -16.5q-13 -22 -13 -42v-426z" />
    <glyph glyph-name="Ucircumflex" unicode="&#xdb;" horiz-adv-x="681" 
d="M290 870q7 9 13.5 18.5t23.5 22.5q13 10 21.5 12.5t21.5 2.5q14 0 22.5 -3t20.5 -12q17 -13 23 -22t14 -19l96 -122l-27 -22l-96 76q-28 22 -38.5 27.5t-14.5 5.5t-14.5 -5.5t-38.5 -27.5l-95 -76l-28 22zM237 191q0 -14 2.5 -30t9 -32t19 -30t32.5 -25t41 -14t42 -3
q26 0 55.5 7.5t55.5 31.5q23 22 38.5 56.5t15.5 72.5v392q0 10 -3.5 23t-19.5 27q-3 3 -8.5 7.5t-5.5 10.5q0 9 6.5 10.5t9.5 1.5q7 0 12.5 -1t10.5 -2q6 -1 15 -2t16 -1t16 1t15 2q5 1 10.5 2t12.5 1q3 0 9.5 -1.5t6.5 -10.5q0 -6 -5.5 -10.5t-8.5 -7.5q-16 -14 -19.5 -27
t-3.5 -23v-375q0 -22 -3 -48t-12.5 -52.5t-26.5 -52.5t-45 -48q-36 -29 -79 -40t-88 -11q-38 0 -85 10.5t-85 36.5q-17 12 -34 29t-30 39.5t-21 50t-8 60.5v401q0 20 -13 42q-6 11 -10 16.5t-4 11.5q0 10 12 10q7 0 22 -3q17 -2 31.5 -2.5t31.5 -0.5t31.5 0.5t31.5 2.5
q15 3 22 3q12 0 12 -10q0 -6 -4 -11.5t-10 -16.5q-13 -22 -13 -42v-426z" />
    <glyph glyph-name="Udieresis" unicode="&#xdc;" horiz-adv-x="681" 
d="M337 807q0 -15 -6 -26.5t-15 -19t-19.5 -11t-19.5 -3.5t-19.5 3.5t-19.5 11t-15 19t-6 26.5t6 26t15 18.5t19.5 11.5t19.5 4t19.5 -4t19.5 -11.5t15 -18.5t6 -26zM516 807q0 -15 -6 -26.5t-15 -19t-19.5 -11t-19.5 -3.5t-19.5 3.5t-19.5 11t-15 19t-6 26.5t6 26t15 18.5
t19.5 11.5t19.5 4t19.5 -4t19.5 -11.5t15 -18.5t6 -26zM237 191q0 -14 2.5 -30t9 -32t19 -30t32.5 -25t41 -14t42 -3q26 0 55.5 7.5t55.5 31.5q23 22 38.5 56.5t15.5 72.5v392q0 10 -3.5 23t-19.5 27q-3 3 -8.5 7.5t-5.5 10.5q0 9 6.5 10.5t9.5 1.5q7 0 12.5 -1t10.5 -2
q6 -1 15 -2t16 -1t16 1t15 2q5 1 10.5 2t12.5 1q3 0 9.5 -1.5t6.5 -10.5q0 -6 -5.5 -10.5t-8.5 -7.5q-16 -14 -19.5 -27t-3.5 -23v-375q0 -22 -3 -48t-12.5 -52.5t-26.5 -52.5t-45 -48q-36 -29 -79 -40t-88 -11q-38 0 -85 10.5t-85 36.5q-17 12 -34 29t-30 39.5t-21 50
t-8 60.5v401q0 20 -13 42q-6 11 -10 16.5t-4 11.5q0 10 12 10q7 0 22 -3q17 -2 31.5 -2.5t31.5 -0.5t31.5 0.5t31.5 2.5q15 3 22 3q12 0 12 -10q0 -6 -4 -11.5t-10 -16.5q-13 -22 -13 -42v-426z" />
    <glyph glyph-name="Yacute" unicode="&#xdd;" horiz-adv-x="565" 
d="M225 768l82 113q7 9 15.5 20t16.5 19t18 15t27 7q23 0 36 -15t13 -35q0 -26 -17.5 -42.5t-32.5 -25.5l-134 -82zM428 590q4 8 7 16.5t3 19.5t-5 23t-19 21q-4 3 -11 7.5t-7 11.5q0 4 3 7.5t12 3.5q8 0 14.5 -1.5t15.5 -3.5q11 -2 19 -3t19 -1q17 0 32 1.5t30 3.5
q8 2 15.5 3t15.5 1q3 0 9.5 -1.5t6.5 -9.5q0 -7 -7 -12t-12 -8q-21 -12 -38.5 -25.5t-29.5 -37.5l-137 -280v-246q0 -13 3.5 -22.5t9.5 -19.5t10 -16t4 -12q0 -7 -3.5 -8.5t-8.5 -1.5h-170q-5 0 -8.5 1.5t-3.5 8.5q0 6 4 12t10 16t9.5 19.5t3.5 22.5v227l-152 316
q-5 11 -18.5 23.5t-24.5 20.5q-5 3 -11.5 8t-6.5 13q0 4 2.5 8t12.5 4q8 0 16 -1.5t17 -3.5q17 -3 35 -3.5t34 -0.5q11 0 36.5 0.5t44.5 3.5l17.5 3.5t15.5 1.5q9 0 12 -3.5t3 -7.5q0 -5 -4.5 -9.5l-7.5 -7.5q-7 -7 -11.5 -18t-4.5 -22q0 -8 2 -20t6 -20l95 -195h5z" />
    <glyph glyph-name="Thorn" unicode="&#xde;" horiz-adv-x="535" 
d="M237 211q28 -2 50.5 1t40.5 16q16 12 25.5 27.5t14.5 33t6 35.5t1 33q0 16 -1 34.5t-6 36.5t-14.5 33.5t-25.5 27.5q-18 13 -40.5 16t-50.5 1v-295zM237 80q0 -13 3.5 -22.5t9.5 -19.5t10 -16t4 -12q0 -7 -3.5 -8.5t-8.5 -1.5h-170q-5 0 -8.5 1.5t-3.5 8.5q0 6 4 12
t10 16t9.5 19.5t3.5 22.5v537q0 20 -13 42q-6 11 -10 16.5t-4 11.5q0 10 12 10q7 0 22 -3q17 -2 31.5 -2.5t31.5 -0.5t31.5 0.5t31.5 2.5q15 3 22 3q12 0 12 -10q0 -6 -4 -11.5t-10 -16.5q-13 -22 -13 -42v-60h45q35 0 77 -6.5t81 -33.5q45 -31 61.5 -72t16.5 -87
q0 -18 -3 -39t-11.5 -41.5t-24 -40.5t-39.5 -37q-39 -27 -81 -33.5t-77 -6.5h-45v-80z" />
    <glyph glyph-name="germandbls" unicode="&#xdf;" horiz-adv-x="533" 
d="M247 451q26 0 44 13t30 35q11 20 14 41t3 43q0 38 -4 58.5t-10 32.5q-8 14 -19.5 23t-29.5 9q-17 0 -29.5 -6t-20.5 -15t-13 -20t-8 -20q-4 -14 -8.5 -41.5t-4.5 -78.5v-525h-140q-4 0 -7.5 1.5t-3.5 7.5q0 5 4 10.5t10 16.5q6 10 9.5 20t3.5 23v432q0 19 1 40t5 42.5
t12.5 43t23.5 41.5q18 24 39.5 38t43.5 21.5t43.5 10t40.5 2.5q20 0 47 -3.5t54 -18.5q14 -8 28 -19.5t25 -28.5t18 -39.5t7 -50.5q0 -36 -11.5 -61t-27.5 -42q-19 -20 -45.5 -33t-54.5 -18v-6q36 -2 69 -14t56 -32q38 -33 50 -75t12 -84q0 -21 -2.5 -44.5t-10 -47.5
t-20.5 -47.5t-33 -44.5q-26 -27 -56 -39t-66 -12q-19 0 -40.5 4t-39.5 9l6 43q1 6 2 12.5t1 17.5q0 7 -1 11q0 2 -0.5 3t-0.5 3t1.5 5.5t8.5 3.5q6 0 10 -3t6 -6q5 -8 7 -15t6 -17q3 -7 6.5 -12t9.5 -9q10 -7 21 -7q15 0 24 7t14.5 17t7.5 21t3 19q4 29 5.5 55.5t1.5 48.5
q0 34 -3 58.5t-7 41t-8 26t-6 13.5q-5 9 -12.5 19.5t-20 20.5t-29.5 16.5t-39 6.5h-19v48h17z" />
    <glyph glyph-name="agrave" unicode="&#xe0;" horiz-adv-x="463" 
d="M307 497l-131 81q-7 4 -15.5 10.5t-16 14.5t-12.5 18t-5 22q0 18 12 32.5t34 14.5t43 -21q7 -7 17 -19t15 -20l80 -111zM281 229q-17 -4 -37.5 -11t-34.5 -16q-26 -16 -36 -38t-10 -48q0 -11 2.5 -23.5t11.5 -23.5q6 -8 15 -13.5t23 -5.5q8 0 23 3.5t41 17.5zM286 33
q-32 -20 -62.5 -31.5t-62.5 -11.5q-20 0 -40.5 5.5t-37.5 17.5q-22 15 -35 40t-13 57q0 56 51 95q17 13 42.5 24.5t67.5 22.5q23 6 45 11t39 8q0 38 -2.5 56t-5.5 27q-9 26 -26.5 34.5t-34.5 8.5q-14 0 -25.5 -4.5t-21.5 -11.5q-26 -17 -42 -44q-4 -6 -10 -18.5t-9 -20.5
q-2 -6 -6 -12.5t-12 -6.5t-9.5 7t-1.5 12q0 8 1.5 18.5t1.5 29.5l-1 59q18 8 38.5 15.5t44.5 12.5q37 9 76 9q28 0 61.5 -7.5t62.5 -36.5q16 -16 30.5 -45t13.5 -72l-2 -202q0 -22 13 -43q6 -11 10 -16.5t4 -10.5q0 -6 -3.5 -7.5t-7.5 -1.5h-124z" />
    <glyph glyph-name="aacute" unicode="&#xe1;" horiz-adv-x="463" 
d="M127 519l80 111q5 8 15 20t17 19q21 21 43 21t34 -14.5t12 -32.5q0 -12 -5 -22t-12.5 -18t-16 -14.5t-15.5 -10.5l-131 -81zM281 229q-17 -4 -37.5 -11t-34.5 -16q-26 -16 -36 -38t-10 -48q0 -11 2.5 -23.5t11.5 -23.5q6 -8 15 -13.5t23 -5.5q8 0 23 3.5t41 17.5zM286 33
q-32 -20 -62.5 -31.5t-62.5 -11.5q-20 0 -40.5 5.5t-37.5 17.5q-22 15 -35 40t-13 57q0 56 51 95q17 13 42.5 24.5t67.5 22.5q23 6 45 11t39 8q0 38 -2.5 56t-5.5 27q-9 26 -26.5 34.5t-34.5 8.5q-14 0 -25.5 -4.5t-21.5 -11.5q-26 -17 -42 -44q-4 -6 -10 -18.5t-9 -20.5
q-2 -6 -6 -12.5t-12 -6.5t-9.5 7t-1.5 12q0 8 1.5 18.5t1.5 29.5l-1 59q18 8 38.5 15.5t44.5 12.5q37 9 76 9q28 0 61.5 -7.5t62.5 -36.5q16 -16 30.5 -45t13.5 -72l-2 -202q0 -22 13 -43q6 -11 10 -16.5t4 -10.5q0 -6 -3.5 -7.5t-7.5 -1.5h-124z" />
    <glyph glyph-name="acircumflex" unicode="&#xe2;" horiz-adv-x="463" 
d="M170 618q12 19 18.5 27.5t11.5 13.5q9 8 17 11t17 3t17 -3t17 -11q5 -5 11.5 -13.5t18.5 -27.5l77 -119l-18 -18l-93 90q-5 5 -13.5 12t-16.5 7t-16.5 -7t-13.5 -12l-93 -90l-18 18zM281 229q-17 -4 -37.5 -11t-34.5 -16q-26 -16 -36 -38t-10 -48q0 -11 2.5 -23.5
t11.5 -23.5q6 -8 15 -13.5t23 -5.5q8 0 23 3.5t41 17.5zM286 33q-32 -20 -62.5 -31.5t-62.5 -11.5q-20 0 -40.5 5.5t-37.5 17.5q-22 15 -35 40t-13 57q0 56 51 95q17 13 42.5 24.5t67.5 22.5q23 6 45 11t39 8q0 38 -2.5 56t-5.5 27q-9 26 -26.5 34.5t-34.5 8.5
q-14 0 -25.5 -4.5t-21.5 -11.5q-26 -17 -42 -44q-4 -6 -10 -18.5t-9 -20.5q-2 -6 -6 -12.5t-12 -6.5t-9.5 7t-1.5 12q0 8 1.5 18.5t1.5 29.5l-1 59q18 8 38.5 15.5t44.5 12.5q37 9 76 9q28 0 61.5 -7.5t62.5 -36.5q16 -16 30.5 -45t13.5 -72l-2 -202q0 -22 13 -43
q6 -11 10 -16.5t4 -10.5q0 -6 -3.5 -7.5t-7.5 -1.5h-124z" />
    <glyph glyph-name="atilde" unicode="&#xe3;" horiz-adv-x="463" 
d="M400 588q-11 -15 -24 -25.5t-30 -21.5q-17 -10 -30 -14.5t-31 -4.5q-20 0 -37.5 4.5t-34.5 11.5q-15 6 -31.5 11.5t-34.5 5.5q-11 0 -19.5 -3t-18.5 -10q-5 -4 -11 -9t-11 -10l-23 26q11 14 24 24.5t30 21.5q16 10 29.5 14.5t32.5 4.5q22 0 39.5 -5.5t31.5 -10.5
q19 -8 34 -12.5t29 -4.5q10 0 21 3.5t19 8.5q2 2 6.5 5.5t16.5 14.5zM281 229q-17 -4 -37.5 -11t-34.5 -16q-26 -16 -36 -38t-10 -48q0 -11 2.5 -23.5t11.5 -23.5q6 -8 15 -13.5t23 -5.5q8 0 23 3.5t41 17.5zM286 33q-32 -20 -62.5 -31.5t-62.5 -11.5q-20 0 -40.5 5.5
t-37.5 17.5q-22 15 -35 40t-13 57q0 56 51 95q17 13 42.5 24.5t67.5 22.5q23 6 45 11t39 8q0 38 -2.5 56t-5.5 27q-9 26 -26.5 34.5t-34.5 8.5q-14 0 -25.5 -4.5t-21.5 -11.5q-26 -17 -42 -44q-4 -6 -10 -18.5t-9 -20.5q-2 -6 -6 -12.5t-12 -6.5t-9.5 7t-1.5 12
q0 8 1.5 18.5t1.5 29.5l-1 59q18 8 38.5 15.5t44.5 12.5q37 9 76 9q28 0 61.5 -7.5t62.5 -36.5q16 -16 30.5 -45t13.5 -72l-2 -202q0 -22 13 -43q6 -11 10 -16.5t4 -10.5q0 -6 -3.5 -7.5t-7.5 -1.5h-124z" />
    <glyph glyph-name="adieresis" unicode="&#xe4;" horiz-adv-x="463" 
d="M381 561q0 -20 -6.5 -31.5t-16 -18t-19.5 -8.5t-17 -2q-26 0 -43 17t-17 43q0 7 2 17t8.5 19.5t18 16t31.5 6.5q21 0 33 -7.5t18 -17t7 -19.5t1 -15zM208 561q0 -33 -19.5 -46.5t-39.5 -13.5q-26 0 -43 17t-17 43q0 20 13 39.5t47 19.5q4 0 14 -1.5t20 -7t17.5 -17.5
t7.5 -33zM281 229q-17 -4 -37.5 -11t-34.5 -16q-26 -16 -36 -38t-10 -48q0 -11 2.5 -23.5t11.5 -23.5q6 -8 15 -13.5t23 -5.5q8 0 23 3.5t41 17.5zM286 33q-32 -20 -62.5 -31.5t-62.5 -11.5q-20 0 -40.5 5.5t-37.5 17.5q-22 15 -35 40t-13 57q0 56 51 95q17 13 42.5 24.5
t67.5 22.5q23 6 45 11t39 8q0 38 -2.5 56t-5.5 27q-9 26 -26.5 34.5t-34.5 8.5q-14 0 -25.5 -4.5t-21.5 -11.5q-26 -17 -42 -44q-4 -6 -10 -18.5t-9 -20.5q-2 -6 -6 -12.5t-12 -6.5t-9.5 7t-1.5 12q0 8 1.5 18.5t1.5 29.5l-1 59q18 8 38.5 15.5t44.5 12.5q37 9 76 9
q28 0 61.5 -7.5t62.5 -36.5q16 -16 30.5 -45t13.5 -72l-2 -202q0 -22 13 -43q6 -11 10 -16.5t4 -10.5q0 -6 -3.5 -7.5t-7.5 -1.5h-124z" />
    <glyph glyph-name="aring" unicode="&#xe5;" horiz-adv-x="463" 
d="M286 33q-32 -20 -62.5 -31.5t-62.5 -11.5q-20 0 -40.5 5.5t-37.5 17.5q-22 15 -35 40t-13 57q0 56 51 95q17 13 42.5 24.5t67.5 22.5q23 6 45 11t39 8q0 38 -2.5 56t-5.5 27q-9 26 -26.5 34.5t-34.5 8.5q-14 0 -25.5 -4.5t-21.5 -11.5q-26 -17 -42 -44q-4 -6 -10 -18.5
t-9 -20.5q-2 -6 -6 -12.5t-12 -6.5t-9.5 7t-1.5 12q0 8 1.5 18.5t1.5 29.5l-1 59q18 8 38.5 15.5t44.5 12.5q37 9 76 9q28 0 61.5 -7.5t62.5 -36.5q16 -16 30.5 -45t13.5 -72l-2 -202q0 -22 13 -43q6 -11 10 -16.5t4 -10.5q0 -6 -3.5 -7.5t-7.5 -1.5h-124zM281 229
q-17 -4 -37.5 -11t-34.5 -16q-26 -16 -36 -38t-10 -48q0 -11 2.5 -23.5t11.5 -23.5q6 -8 15 -13.5t23 -5.5q8 0 23 3.5t41 17.5zM151 567q0 22 7.5 38t19 26.5t25.5 15.5t27 5t27 -5t25.5 -15.5t19 -26.5t7.5 -38q0 -21 -7.5 -37t-18.5 -26.5t-25.5 -16t-27.5 -5.5
q-14 0 -28 5.5t-25 16t-18.5 26.5t-7.5 37zM189 567q0 -19 13.5 -31t27.5 -12t27.5 12t13.5 31q0 17 -12 30.5t-29 13.5t-29 -13.5t-12 -30.5z" />
    <glyph glyph-name="ae" unicode="&#xe6;" horiz-adv-x="670" 
d="M394 204q0 -23 5 -48.5t15 -45.5q18 -35 44 -47.5t51 -12.5q22 0 43 6t38 14q11 6 18.5 9.5t12.5 3.5q8 0 13.5 -6.5t5.5 -14.5q0 -12 -10.5 -22.5t-14.5 -12.5q-24 -17 -59 -27t-80 -10q-35 0 -75 9t-74 39q-14 -8 -30.5 -17.5t-36.5 -15.5q-26 -8 -54.5 -11.5
t-44.5 -3.5q-20 0 -40.5 5.5t-37.5 17.5q-22 15 -35 40t-13 57q0 56 51 95q17 13 42.5 24.5t67.5 22.5q23 6 45 11t39 8q0 38 -2.5 56t-5.5 27q-9 26 -26.5 34.5t-34.5 8.5q-14 0 -25.5 -4.5t-21.5 -11.5q-26 -17 -42 -44q-4 -6 -10 -18.5t-9 -20.5q-2 -6 -6 -12.5t-12 -6.5
t-9.5 7t-1.5 12q0 8 1.5 18.5t1.5 29.5l-1 59q18 8 38.5 15.5t44.5 12.5q37 9 76 9q26 0 58.5 -6.5t60.5 -30.5q24 17 56 27t67 10q29 0 51 -8t41 -23q18 -14 33 -36.5t24 -51.5q6 -20 8 -39t2 -37q0 -16 -3.5 -25t-8.5 -13t-10.5 -4.5t-9.5 -0.5h-210zM281 229
q-17 -4 -37.5 -11t-34.5 -16q-26 -16 -36 -38t-10 -48q0 -11 2.5 -23.5t11.5 -23.5q6 -8 15 -13.5t23 -5.5h14.5t22.5 5q6 2 12.5 5.5t14.5 10.5zM532 251q0 23 -2.5 49.5t-8.5 45.5q-10 34 -26 43t-28 9q-13 0 -29 -10.5t-27 -39.5q-9 -23 -13 -50t-4 -47h138z" />
    <glyph glyph-name="ccedilla" unicode="&#xe7;" horiz-adv-x="419" 
d="M380 350q-1 -5 -1.5 -11t-0.5 -11q-1 -8 -1 -15t-1 -15q-1 -5 -3 -9.5t-9 -4.5q-9 0 -12.5 7t-5.5 13q-5 17 -15 36t-22 32q-11 11 -24.5 17.5t-28.5 6.5q-18 0 -36 -9t-31 -26q-10 -14 -16 -30.5t-9 -34t-4 -34t-1 -29.5q0 -9 0.5 -24t3 -32.5t6.5 -35t11 -32.5
q12 -25 34 -42t59 -17q28 0 51 8.5t30 11.5q11 6 18.5 9.5t12.5 3.5q8 0 13.5 -6.5t5.5 -14.5q0 -12 -10.5 -22.5t-14.5 -12.5q-27 -20 -66 -29.5t-73 -7.5l-6 -25q7 -1 19 -3.5t25 -10.5q20 -13 27.5 -30t7.5 -40q0 -21 -7.5 -41.5t-34.5 -37.5q-8 -5 -30 -14t-63 -9
q-35 0 -44.5 9t-9.5 17q0 9 6.5 14.5t14.5 5.5q6 0 8 -1.5t16 -1.5t29 5.5t26 14.5q8 8 15 20.5t7 23.5q0 9 -4 18.5t-12 14.5q-11 8 -27 8t-30 -3l20 70q-23 3 -41.5 10.5t-32.5 16.5t-24 18t-15 15q-31 35 -40.5 74t-9.5 77q0 15 2 37.5t9 47t21 50t38 47.5q27 25 66 40
t84 15q38 0 74 -9.5t64 -22.5z" />
    <glyph glyph-name="egrave" unicode="&#xe8;" horiz-adv-x="434" 
d="M296 251q0 23 -2.5 49.5t-8.5 45.5q-10 34 -26 43t-28 9q-13 0 -29 -10.5t-27 -39.5q-9 -23 -13 -50t-4 -47h138zM158 204q0 -23 5 -48.5t15 -45.5q18 -35 44 -47.5t51 -12.5q22 0 43 6t38 14q11 6 18.5 9.5t12.5 3.5q8 0 13.5 -6.5t5.5 -14.5q0 -12 -10.5 -22.5
t-14.5 -12.5q-24 -17 -59 -27t-80 -10q-19 0 -39.5 2.5t-41.5 9.5t-41 19.5t-38 32.5q-31 35 -40.5 74t-9.5 77q0 16 2 38t9 46.5t21 49.5t38 48q25 23 61 39t80 16q29 0 51 -8t41 -23q18 -14 33 -36.5t24 -51.5q6 -20 8 -39t2 -37q0 -16 -3.5 -25t-8.5 -13t-10.5 -4.5
t-9.5 -0.5h-210zM293 497l-131 81q-7 4 -15.5 10.5t-16 14.5t-12.5 18t-5 22q0 18 12 32.5t34 14.5t43 -21q7 -7 17 -19t15 -20l80 -111z" />
    <glyph glyph-name="eacute" unicode="&#xe9;" horiz-adv-x="434" 
d="M296 251q0 23 -2.5 49.5t-8.5 45.5q-10 34 -26 43t-28 9q-13 0 -29 -10.5t-27 -39.5q-9 -23 -13 -50t-4 -47h138zM158 204q0 -23 5 -48.5t15 -45.5q18 -35 44 -47.5t51 -12.5q22 0 43 6t38 14q11 6 18.5 9.5t12.5 3.5q8 0 13.5 -6.5t5.5 -14.5q0 -12 -10.5 -22.5
t-14.5 -12.5q-24 -17 -59 -27t-80 -10q-19 0 -39.5 2.5t-41.5 9.5t-41 19.5t-38 32.5q-31 35 -40.5 74t-9.5 77q0 16 2 38t9 46.5t21 49.5t38 48q25 23 61 39t80 16q29 0 51 -8t41 -23q18 -14 33 -36.5t24 -51.5q6 -20 8 -39t2 -37q0 -16 -3.5 -25t-8.5 -13t-10.5 -4.5
t-9.5 -0.5h-210zM113 519l80 111q5 8 15 20t17 19q21 21 43 21t34 -14.5t12 -32.5q0 -12 -5 -22t-12.5 -18t-16 -14.5t-15.5 -10.5l-131 -81z" />
    <glyph glyph-name="ecircumflex" unicode="&#xea;" horiz-adv-x="434" 
d="M296 251q0 23 -2.5 49.5t-8.5 45.5q-10 34 -26 43t-28 9q-13 0 -29 -10.5t-27 -39.5q-9 -23 -13 -50t-4 -47h138zM158 204q0 -23 5 -48.5t15 -45.5q18 -35 44 -47.5t51 -12.5q22 0 43 6t38 14q11 6 18.5 9.5t12.5 3.5q8 0 13.5 -6.5t5.5 -14.5q0 -12 -10.5 -22.5
t-14.5 -12.5q-24 -17 -59 -27t-80 -10q-19 0 -39.5 2.5t-41.5 9.5t-41 19.5t-38 32.5q-31 35 -40.5 74t-9.5 77q0 16 2 38t9 46.5t21 49.5t38 48q25 23 61 39t80 16q29 0 51 -8t41 -23q18 -14 33 -36.5t24 -51.5q6 -20 8 -39t2 -37q0 -16 -3.5 -25t-8.5 -13t-10.5 -4.5
t-9.5 -0.5h-210zM156 618q12 19 18.5 27.5t11.5 13.5q9 8 17 11t17 3t17 -3t17 -11q5 -5 11.5 -13.5t18.5 -27.5l77 -119l-18 -18l-93 90q-5 5 -13.5 12t-16.5 7t-16.5 -7t-13.5 -12l-93 -90l-18 18z" />
    <glyph glyph-name="edieresis" unicode="&#xeb;" horiz-adv-x="434" 
d="M296 251q0 23 -2.5 49.5t-8.5 45.5q-10 34 -26 43t-28 9q-13 0 -29 -10.5t-27 -39.5q-9 -23 -13 -50t-4 -47h138zM158 204q0 -23 5 -48.5t15 -45.5q18 -35 44 -47.5t51 -12.5q22 0 43 6t38 14q11 6 18.5 9.5t12.5 3.5q8 0 13.5 -6.5t5.5 -14.5q0 -12 -10.5 -22.5
t-14.5 -12.5q-24 -17 -59 -27t-80 -10q-19 0 -39.5 2.5t-41.5 9.5t-41 19.5t-38 32.5q-31 35 -40.5 74t-9.5 77q0 16 2 38t9 46.5t21 49.5t38 48q25 23 61 39t80 16q29 0 51 -8t41 -23q18 -14 33 -36.5t24 -51.5q6 -20 8 -39t2 -37q0 -16 -3.5 -25t-8.5 -13t-10.5 -4.5
t-9.5 -0.5h-210zM194 561q0 -33 -19.5 -46.5t-39.5 -13.5q-26 0 -43 17t-17 43q0 20 13 39.5t47 19.5q4 0 14 -1.5t20 -7t17.5 -17.5t7.5 -33zM367 561q0 -20 -6.5 -31.5t-16 -18t-19.5 -8.5t-17 -2q-26 0 -43 17t-17 43q0 7 2 17t8.5 19.5t18 16t31.5 6.5q21 0 33 -7.5
t18 -17t7 -19.5t1 -15z" />
    <glyph glyph-name="igrave" unicode="&#xec;" horiz-adv-x="258" 
d="M200 497l-131 81q-7 4 -15.5 10.5t-16 14.5t-12.5 18t-5 22q0 18 12 32.5t34 14.5t43 -21q7 -7 17 -19t15 -20l80 -111zM67 356q0 13 -3.5 23t-9.5 20q-6 11 -10 16.5t-4 10.5q0 9 11 9q7 0 22 -3q14 -2 26.5 -2.5t29.5 -0.5t29.5 0.5t26.5 2.5q15 3 22 3q11 0 11 -9
q0 -5 -4 -10.5t-10 -16.5q-6 -10 -9.5 -20t-3.5 -23v-277q0 -13 3.5 -23t9.5 -20q6 -11 10 -16.5t4 -10.5q0 -6 -3.5 -7.5t-7.5 -1.5h-156q-4 0 -7.5 1.5t-3.5 7.5q0 5 4 10.5t10 16.5q6 10 9.5 20t3.5 23v277z" />
    <glyph glyph-name="iacute" unicode="&#xed;" horiz-adv-x="258" 
d="M20 519l80 111q5 8 15 20t17 19q21 21 43 21t34 -14.5t12 -32.5q0 -12 -5 -22t-12.5 -18t-16 -14.5t-15.5 -10.5l-131 -81zM67 356q0 13 -3.5 23t-9.5 20q-6 11 -10 16.5t-4 10.5q0 9 11 9q7 0 22 -3q14 -2 26.5 -2.5t29.5 -0.5t29.5 0.5t26.5 2.5q15 3 22 3q11 0 11 -9
q0 -5 -4 -10.5t-10 -16.5q-6 -10 -9.5 -20t-3.5 -23v-277q0 -13 3.5 -23t9.5 -20q6 -11 10 -16.5t4 -10.5q0 -6 -3.5 -7.5t-7.5 -1.5h-156q-4 0 -7.5 1.5t-3.5 7.5q0 5 4 10.5t10 16.5q6 10 9.5 20t3.5 23v277z" />
    <glyph glyph-name="icircumflex" unicode="&#xee;" horiz-adv-x="258" 
d="M65 618q12 19 18.5 27.5t11.5 13.5q9 8 17 11t17 3t17 -3t17 -11q5 -5 11.5 -13.5t18.5 -27.5l77 -119l-18 -18l-93 90q-5 5 -13.5 12t-16.5 7t-16.5 -7t-13.5 -12l-93 -90l-18 18zM67 356q0 13 -3.5 23t-9.5 20q-6 11 -10 16.5t-4 10.5q0 9 11 9q7 0 22 -3
q14 -2 26.5 -2.5t29.5 -0.5t29.5 0.5t26.5 2.5q15 3 22 3q11 0 11 -9q0 -5 -4 -10.5t-10 -16.5q-6 -10 -9.5 -20t-3.5 -23v-277q0 -13 3.5 -23t9.5 -20q6 -11 10 -16.5t4 -10.5q0 -6 -3.5 -7.5t-7.5 -1.5h-156q-4 0 -7.5 1.5t-3.5 7.5q0 5 4 10.5t10 16.5q6 10 9.5 20
t3.5 23v277z" />
    <glyph glyph-name="idieresis" unicode="&#xef;" horiz-adv-x="258" 
d="M274 561q0 -20 -6.5 -31.5t-16 -18t-19.5 -8.5t-17 -2q-26 0 -43 17t-17 43q0 7 2 17t8.5 19.5t18 16t31.5 6.5q21 0 33 -7.5t18 -17t7 -19.5t1 -15zM101 561q0 -33 -19.5 -46.5t-39.5 -13.5q-26 0 -43 17t-17 43q0 20 13 39.5t47 19.5q4 0 14 -1.5t20 -7t17.5 -17.5
t7.5 -33zM67 356q0 13 -3.5 23t-9.5 20q-6 11 -10 16.5t-4 10.5q0 9 11 9q7 0 22 -3q14 -2 26.5 -2.5t29.5 -0.5t29.5 0.5t26.5 2.5q15 3 22 3q11 0 11 -9q0 -5 -4 -10.5t-10 -16.5q-6 -10 -9.5 -20t-3.5 -23v-277q0 -13 3.5 -23t9.5 -20q6 -11 10 -16.5t4 -10.5
q0 -6 -3.5 -7.5t-7.5 -1.5h-156q-4 0 -7.5 1.5t-3.5 7.5q0 5 4 10.5t10 16.5q6 10 9.5 20t3.5 23v277z" />
    <glyph glyph-name="eth" unicode="&#xf0;" horiz-adv-x="484" 
d="M248 442q26 0 43 -4.5t31 -13.5q-5 26 -13.5 52t-22.5 53q-24 45 -58 79l-136 -77l-20 40l122 68q-17 15 -38 26t-37 18q-17 7 -30 13t-13 23t9.5 21t15.5 4q14 0 41 -9t59 -26q15 -8 29 -16.5t26 -16.5l102 58l22 -39l-87 -49q35 -32 60.5 -69.5t47.5 -85.5
q29 -63 41 -125t12 -128q0 -21 -2 -44.5t-8.5 -47.5t-18.5 -47.5t-31 -44.5q-6 -6 -18 -17t-30.5 -21.5t-44.5 -18t-59 -7.5q-29 0 -53 6.5t-43 16t-33 20.5t-23 21q-21 22 -40.5 61.5t-19.5 100.5q0 52 16.5 93t43.5 70q24 25 62.5 44t95.5 19zM242 398q-14 0 -26.5 -5
t-25.5 -20q-11 -13 -17 -31t-9 -38t-4 -42.5t-1 -44.5q0 -56 5.5 -95.5t25.5 -62.5q10 -11 23.5 -18t28.5 -7t28.5 7t23.5 18q20 23 25.5 62.5t5.5 95.5q0 22 -1 44.5t-4 42.5t-9 38t-17 31q-13 15 -25.5 20t-26.5 5z" />
    <glyph glyph-name="ntilde" unicode="&#xf1;" horiz-adv-x="510" 
d="M419 588q-11 -15 -24 -25.5t-30 -21.5q-17 -10 -30 -14.5t-31 -4.5q-20 0 -37.5 4.5t-34.5 11.5q-15 6 -31.5 11.5t-34.5 5.5q-11 0 -19.5 -3t-18.5 -10q-5 -4 -11 -9t-11 -10l-23 26q11 14 24 24.5t30 21.5q16 10 29.5 14.5t32.5 4.5q22 0 39.5 -5.5t31.5 -10.5
q19 -8 34 -12.5t29 -4.5q10 0 21 3.5t19 8.5q2 2 6.5 5.5t16.5 14.5zM186 396q8 7 19 14t19 12q20 11 40 15.5t43 4.5q19 0 41.5 -4.5t41.5 -15.5q9 -5 19 -13.5t18.5 -21t14.5 -29.5t6 -39v-240q0 -13 3.5 -23t9.5 -20q6 -11 10 -16.5t4 -10.5q0 -6 -3.5 -7.5t-7.5 -1.5
h-156q-4 0 -7.5 1.5t-3.5 7.5q0 5 4 10.5t10 16.5q6 10 9.5 20t3.5 23v246q0 13 -2 23.5t-10 21.5q-8 10 -16.5 13t-18.5 3q-17 0 -30 -5t-26 -13q-17 -11 -30 -26v-263q0 -13 3.5 -23t9.5 -20q6 -11 10 -16.5t4 -10.5q0 -6 -3.5 -7.5t-7.5 -1.5h-156q-4 0 -7.5 1.5
t-3.5 7.5q0 5 4 10.5t10 16.5q6 10 9.5 20t3.5 23v277q0 13 -3.5 23t-9.5 20q-6 11 -10 16.5t-4 10.5q0 9 11 9q7 0 22 -3q14 -2 26.5 -2.5t29.5 -0.5h54z" />
    <glyph glyph-name="ograve" unicode="&#xf2;" horiz-adv-x="484" 
d="M318 497l-131 81q-7 4 -15.5 10.5t-16 14.5t-12.5 18t-5 22q0 18 12 32.5t34 14.5t43 -21q7 -7 17 -19t15 -20l80 -111zM242 398q-14 0 -26.5 -5t-25.5 -20q-11 -13 -17 -31t-9 -38t-4 -42.5t-1 -44.5q0 -56 5.5 -95.5t25.5 -62.5q10 -11 23.5 -18t28.5 -7t28.5 7
t23.5 18q20 23 25.5 62.5t5.5 95.5q0 22 -1 44.5t-4 42.5t-9 38t-17 31q-13 15 -25.5 20t-26.5 5zM241 442q52 0 90.5 -19t62.5 -44q27 -28 43.5 -69.5t16.5 -93.5q0 -61 -19.5 -100.5t-40.5 -61.5q-9 -10 -23 -21t-33 -20.5t-43 -16t-53 -6.5t-53 6.5t-43 16t-33 20.5
t-23 21q-21 22 -40.5 61.5t-19.5 100.5q0 52 16.5 93.5t43.5 69.5q25 26 63 44.5t88 18.5z" />
    <glyph glyph-name="oacute" unicode="&#xf3;" horiz-adv-x="484" 
d="M138 519l80 111q5 8 15 20t17 19q21 21 43 21t34 -14.5t12 -32.5q0 -12 -5 -22t-12.5 -18t-16 -14.5t-15.5 -10.5l-131 -81zM242 398q-14 0 -26.5 -5t-25.5 -20q-11 -13 -17 -31t-9 -38t-4 -42.5t-1 -44.5q0 -56 5.5 -95.5t25.5 -62.5q10 -11 23.5 -18t28.5 -7t28.5 7
t23.5 18q20 23 25.5 62.5t5.5 95.5q0 22 -1 44.5t-4 42.5t-9 38t-17 31q-13 15 -25.5 20t-26.5 5zM241 442q52 0 90.5 -19t62.5 -44q27 -28 43.5 -69.5t16.5 -93.5q0 -61 -19.5 -100.5t-40.5 -61.5q-9 -10 -23 -21t-33 -20.5t-43 -16t-53 -6.5t-53 6.5t-43 16t-33 20.5
t-23 21q-21 22 -40.5 61.5t-19.5 100.5q0 52 16.5 93.5t43.5 69.5q25 26 63 44.5t88 18.5z" />
    <glyph glyph-name="ocircumflex" unicode="&#xf4;" horiz-adv-x="484" 
d="M174 618q12 19 18.5 27.5t11.5 13.5q9 8 17 11t17 3t17 -3t17 -11q5 -5 11.5 -13.5t18.5 -27.5l77 -119l-18 -18l-93 90q-5 5 -13.5 12t-16.5 7t-16.5 -7t-13.5 -12l-93 -90l-18 18zM242 398q-14 0 -26.5 -5t-25.5 -20q-11 -13 -17 -31t-9 -38t-4 -42.5t-1 -44.5
q0 -56 5.5 -95.5t25.5 -62.5q10 -11 23.5 -18t28.5 -7t28.5 7t23.5 18q20 23 25.5 62.5t5.5 95.5q0 22 -1 44.5t-4 42.5t-9 38t-17 31q-13 15 -25.5 20t-26.5 5zM241 442q52 0 90.5 -19t62.5 -44q27 -28 43.5 -69.5t16.5 -93.5q0 -61 -19.5 -100.5t-40.5 -61.5
q-9 -10 -23 -21t-33 -20.5t-43 -16t-53 -6.5t-53 6.5t-43 16t-33 20.5t-23 21q-21 22 -40.5 61.5t-19.5 100.5q0 52 16.5 93.5t43.5 69.5q25 26 63 44.5t88 18.5z" />
    <glyph glyph-name="otilde" unicode="&#xf5;" horiz-adv-x="484" 
d="M406 588q-11 -15 -24 -25.5t-30 -21.5q-17 -10 -30 -14.5t-31 -4.5q-20 0 -37.5 4.5t-34.5 11.5q-15 6 -31.5 11.5t-34.5 5.5q-11 0 -19.5 -3t-18.5 -10q-5 -4 -11 -9t-11 -10l-23 26q11 14 24 24.5t30 21.5q16 10 29.5 14.5t32.5 4.5q22 0 39.5 -5.5t31.5 -10.5
q19 -8 34 -12.5t29 -4.5q10 0 21 3.5t19 8.5q2 2 6.5 5.5t16.5 14.5zM242 398q-14 0 -26.5 -5t-25.5 -20q-11 -13 -17 -31t-9 -38t-4 -42.5t-1 -44.5q0 -56 5.5 -95.5t25.5 -62.5q10 -11 23.5 -18t28.5 -7t28.5 7t23.5 18q20 23 25.5 62.5t5.5 95.5q0 22 -1 44.5t-4 42.5
t-9 38t-17 31q-13 15 -25.5 20t-26.5 5zM241 442q52 0 90.5 -19t62.5 -44q27 -28 43.5 -69.5t16.5 -93.5q0 -61 -19.5 -100.5t-40.5 -61.5q-9 -10 -23 -21t-33 -20.5t-43 -16t-53 -6.5t-53 6.5t-43 16t-33 20.5t-23 21q-21 22 -40.5 61.5t-19.5 100.5q0 52 16.5 93.5
t43.5 69.5q25 26 63 44.5t88 18.5z" />
    <glyph glyph-name="odieresis" unicode="&#xf6;" horiz-adv-x="484" 
d="M392 561q0 -20 -6.5 -31.5t-16 -18t-19.5 -8.5t-17 -2q-26 0 -43 17t-17 43q0 7 2 17t8.5 19.5t18 16t31.5 6.5q21 0 33 -7.5t18 -17t7 -19.5t1 -15zM219 561q0 -33 -19.5 -46.5t-39.5 -13.5q-26 0 -43 17t-17 43q0 20 13 39.5t47 19.5q4 0 14 -1.5t20 -7t17.5 -17.5
t7.5 -33zM242 398q-14 0 -26.5 -5t-25.5 -20q-11 -13 -17 -31t-9 -38t-4 -42.5t-1 -44.5q0 -56 5.5 -95.5t25.5 -62.5q10 -11 23.5 -18t28.5 -7t28.5 7t23.5 18q20 23 25.5 62.5t5.5 95.5q0 22 -1 44.5t-4 42.5t-9 38t-17 31q-13 15 -25.5 20t-26.5 5zM241 442
q52 0 90.5 -19t62.5 -44q27 -28 43.5 -69.5t16.5 -93.5q0 -61 -19.5 -100.5t-40.5 -61.5q-9 -10 -23 -21t-33 -20.5t-43 -16t-53 -6.5t-53 6.5t-43 16t-33 20.5t-23 21q-21 22 -40.5 61.5t-19.5 100.5q0 52 16.5 93.5t43.5 69.5q25 26 63 44.5t88 18.5z" />
    <glyph glyph-name="divide" unicode="&#xf7;" horiz-adv-x="745" 
d="M305 106q0 17 6 30.5t16 22.5t21.5 14t23.5 5t23.5 -5t21.5 -14t16 -22.5t6 -30.5t-6 -30.5t-16 -22.5t-21.5 -13.5t-23.5 -4.5t-23.5 4.5t-21.5 13.5t-16 22.5t-6 30.5zM90 354h565v-78h-565v78zM305 523q0 34 21.5 52.5t45.5 18.5t45.5 -18.5t21.5 -52.5
q0 -17 -6 -30.5t-16 -22.5t-21.5 -14t-23.5 -5t-23.5 5t-21.5 14t-16 22.5t-6 30.5z" />
    <glyph glyph-name="oslash" unicode="&#xf8;" horiz-adv-x="484" 
d="M241 442q39 0 69 -10.5t53 -26.5l62 78l34 -29l-62 -78q29 -35 43 -73.5t14 -86.5q0 -61 -19.5 -100.5t-40.5 -61.5q-9 -10 -23 -21t-33 -20.5t-43 -16t-53 -6.5q-39 0 -68.5 10.5t-52.5 27.5l-62 -79l-34 29l63 79q-30 35 -44 73t-14 86q0 52 16.5 93t43.5 70
q25 26 63 44.5t88 18.5zM242 398q-14 0 -26.5 -5t-25.5 -20q-7 -9 -14 -24t-11.5 -40.5t-6 -64.5t2.5 -94l151 190q-7 22 -18 33.5t-22 17t-19.5 6.5t-10.5 1zM172 92q8 -29 29 -43.5t41 -14.5q15 0 28.5 7t23.5 18q4 6 11 18t12.5 37t7.5 65.5t-2 102.5z" />
    <glyph glyph-name="ugrave" unicode="&#xf9;" horiz-adv-x="510" 
d="M331 497l-131 81q-7 4 -15.5 10.5t-16 14.5t-12.5 18t-5 22q0 18 12 32.5t34 14.5t43 -21q7 -7 17 -19t15 -20l80 -111zM324 36q-8 -7 -19 -14t-19 -12q-20 -11 -40 -15.5t-43 -4.5q-19 0 -41.5 4.5t-41.5 15.5q-9 5 -19 13.5t-18.5 21t-14.5 29.5t-6 39v243
q0 13 -3.5 23t-9.5 20q-6 11 -10 16.5t-4 10.5q0 9 11 9q7 0 22 -3q14 -2 26.5 -2.5t29.5 -0.5t29.5 0.5t26.5 2.5q15 3 22 3q11 0 11 -9q0 -5 -4 -10.5t-10 -16.5q-6 -10 -9.5 -20t-3.5 -23v-249q0 -13 2 -23.5t10 -21.5q8 -10 16.5 -13t18.5 -3q17 0 30 5t26 13
q16 11 30 26v266q0 13 -3.5 23t-9.5 20q-6 11 -10 16.5t-4 10.5q0 9 11 9q7 0 22 -3q14 -2 26.5 -2.5t29.5 -0.5t29.5 0.5t26.5 2.5q15 3 22 3q11 0 11 -9q0 -5 -4 -10.5t-10 -16.5q-6 -10 -9.5 -20t-3.5 -23v-277q0 -13 3.5 -23t9.5 -20q6 -11 10 -16.5t4 -10.5
q0 -6 -3.5 -7.5t-7.5 -1.5h-132z" />
    <glyph glyph-name="uacute" unicode="&#xfa;" horiz-adv-x="510" 
d="M151 519l80 111q5 8 15 20t17 19q21 21 43 21t34 -14.5t12 -32.5q0 -12 -5 -22t-12.5 -18t-16 -14.5t-15.5 -10.5l-131 -81zM324 36q-8 -7 -19 -14t-19 -12q-20 -11 -40 -15.5t-43 -4.5q-19 0 -41.5 4.5t-41.5 15.5q-9 5 -19 13.5t-18.5 21t-14.5 29.5t-6 39v243
q0 13 -3.5 23t-9.5 20q-6 11 -10 16.5t-4 10.5q0 9 11 9q7 0 22 -3q14 -2 26.5 -2.5t29.5 -0.5t29.5 0.5t26.5 2.5q15 3 22 3q11 0 11 -9q0 -5 -4 -10.5t-10 -16.5q-6 -10 -9.5 -20t-3.5 -23v-249q0 -13 2 -23.5t10 -21.5q8 -10 16.5 -13t18.5 -3q17 0 30 5t26 13
q16 11 30 26v266q0 13 -3.5 23t-9.5 20q-6 11 -10 16.5t-4 10.5q0 9 11 9q7 0 22 -3q14 -2 26.5 -2.5t29.5 -0.5t29.5 0.5t26.5 2.5q15 3 22 3q11 0 11 -9q0 -5 -4 -10.5t-10 -16.5q-6 -10 -9.5 -20t-3.5 -23v-277q0 -13 3.5 -23t9.5 -20q6 -11 10 -16.5t4 -10.5
q0 -6 -3.5 -7.5t-7.5 -1.5h-132z" />
    <glyph glyph-name="ucircumflex" unicode="&#xfb;" horiz-adv-x="510" 
d="M187 618q12 19 18.5 27.5t11.5 13.5q9 8 17 11t17 3t17 -3t17 -11q5 -5 11.5 -13.5t18.5 -27.5l77 -119l-18 -18l-93 90q-5 5 -13.5 12t-16.5 7t-16.5 -7t-13.5 -12l-93 -90l-18 18zM324 36q-8 -7 -19 -14t-19 -12q-20 -11 -40 -15.5t-43 -4.5q-19 0 -41.5 4.5
t-41.5 15.5q-9 5 -19 13.5t-18.5 21t-14.5 29.5t-6 39v243q0 13 -3.5 23t-9.5 20q-6 11 -10 16.5t-4 10.5q0 9 11 9q7 0 22 -3q14 -2 26.5 -2.5t29.5 -0.5t29.5 0.5t26.5 2.5q15 3 22 3q11 0 11 -9q0 -5 -4 -10.5t-10 -16.5q-6 -10 -9.5 -20t-3.5 -23v-249q0 -13 2 -23.5
t10 -21.5q8 -10 16.5 -13t18.5 -3q17 0 30 5t26 13q16 11 30 26v266q0 13 -3.5 23t-9.5 20q-6 11 -10 16.5t-4 10.5q0 9 11 9q7 0 22 -3q14 -2 26.5 -2.5t29.5 -0.5t29.5 0.5t26.5 2.5q15 3 22 3q11 0 11 -9q0 -5 -4 -10.5t-10 -16.5q-6 -10 -9.5 -20t-3.5 -23v-277
q0 -13 3.5 -23t9.5 -20q6 -11 10 -16.5t4 -10.5q0 -6 -3.5 -7.5t-7.5 -1.5h-132z" />
    <glyph glyph-name="udieresis" unicode="&#xfc;" horiz-adv-x="510" 
d="M405 561q0 -20 -6.5 -31.5t-16 -18t-19.5 -8.5t-17 -2q-26 0 -43 17t-17 43q0 7 2 17t8.5 19.5t18 16t31.5 6.5q21 0 33 -7.5t18 -17t7 -19.5t1 -15zM232 561q0 -33 -19.5 -46.5t-39.5 -13.5q-26 0 -43 17t-17 43q0 20 13 39.5t47 19.5q4 0 14 -1.5t20 -7t17.5 -17.5
t7.5 -33zM324 36q-8 -7 -19 -14t-19 -12q-20 -11 -40 -15.5t-43 -4.5q-19 0 -41.5 4.5t-41.5 15.5q-9 5 -19 13.5t-18.5 21t-14.5 29.5t-6 39v243q0 13 -3.5 23t-9.5 20q-6 11 -10 16.5t-4 10.5q0 9 11 9q7 0 22 -3q14 -2 26.5 -2.5t29.5 -0.5t29.5 0.5t26.5 2.5q15 3 22 3
q11 0 11 -9q0 -5 -4 -10.5t-10 -16.5q-6 -10 -9.5 -20t-3.5 -23v-249q0 -13 2 -23.5t10 -21.5q8 -10 16.5 -13t18.5 -3q17 0 30 5t26 13q16 11 30 26v266q0 13 -3.5 23t-9.5 20q-6 11 -10 16.5t-4 10.5q0 9 11 9q7 0 22 -3q14 -2 26.5 -2.5t29.5 -0.5t29.5 0.5t26.5 2.5
q15 3 22 3q11 0 11 -9q0 -5 -4 -10.5t-10 -16.5q-6 -10 -9.5 -20t-3.5 -23v-277q0 -13 3.5 -23t9.5 -20q6 -11 10 -16.5t4 -10.5q0 -6 -3.5 -7.5t-7.5 -1.5h-132z" />
    <glyph glyph-name="yacute" unicode="&#xfd;" horiz-adv-x="476" 
d="M156 519l80 111q5 8 15 20t17 19q21 21 43 21t34 -14.5t12 -32.5q0 -12 -5 -22t-12.5 -18t-16 -14.5t-15.5 -10.5l-131 -81zM271 97h2l89 231q2 6 5 16.5t3 18.5q0 14 -6.5 22.5t-13.5 14.5t-10.5 8t-7.5 5q-8 6 -8 12q0 10 14 10q5 0 10 -0.5t14 -2.5q22 -3 47 -3
q8 0 21.5 0.5t20.5 1.5q9 2 14 3t15 1q5 0 9.5 -1t4.5 -8q0 -5 -6 -9.5t-11 -8.5q-5 -3 -10 -7t-10 -9q-9 -8 -17 -16.5t-14 -23.5l-185 -449q-13 -31 -24 -53.5t-26 -39.5q-17 -19 -35.5 -26.5t-41.5 -7.5q-25 0 -42 6.5t-28 15.5v41q0 24 -1 34t-1 18q0 5 2 12.5t11 7.5
q8 0 13 -6.5t9 -14.5q10 -17 23 -25q8 -5 14.5 -6.5t14.5 -1.5q15 0 24 3.5t14 8.5t11 14t9 17l25 60l-166 403q-3 8 -6.5 15.5t-13.5 15.5q-2 2 -6 5t-14 9q-4 2 -9 6.5t-5 9.5q0 8 5.5 9.5t8.5 1.5q6 0 11.5 -0.5t13.5 -2.5q15 -2 28 -2.5t26 -0.5h26t17.5 0.5t14 1
t15.5 1.5q16 2 20.5 2.5t9.5 0.5q3 0 8.5 -1.5t5.5 -9.5q0 -4 -2 -6l-4 -4q-9 -8 -12.5 -11t-5.5 -5q-3 -3 -5.5 -8t-2.5 -13q0 -3 0.5 -9.5t2.5 -10.5z" />
    <glyph glyph-name="thorn" unicode="&#xfe;" horiz-adv-x="494" 
d="M191 -139q0 -13 3.5 -23t9.5 -20q6 -11 10 -16.5t4 -10.5q0 -6 -3.5 -7.5t-7.5 -1.5h-156q-4 0 -7.5 1.5t-3.5 7.5q0 5 4 10.5t10 16.5q6 10 9.5 20t3.5 23v810q0 13 -3.5 23t-9.5 20q-6 11 -10 16.5t-4 10.5q0 9 11 9q7 0 22 -3q14 -2 26.5 -2.5t29.5 -0.5t29.5 0.5
t26.5 2.5q15 3 22 3q11 0 11 -9q0 -5 -4 -10.5t-10 -16.5q-6 -10 -9.5 -20t-3.5 -23l-1 -256q22 14 44.5 20.5t45.5 6.5q33 0 64 -11.5t57 -35.5q20 -19 32.5 -41t19 -44.5t9 -45.5t2.5 -43q0 -17 -2 -39t-9.5 -46t-21.5 -48.5t-38 -46.5q-32 -30 -68 -40.5t-69 -10.5
q-21 0 -36.5 2.5t-28.5 7.5v-139zM190 51q11 -8 24 -11.5t25 -3.5q16 0 37.5 9t38.5 39q15 28 17.5 59.5t2.5 62.5q0 59 -4.5 92.5t-15.5 53.5q-7 12 -21.5 24.5t-40.5 12.5q-13 0 -29.5 -5.5t-33.5 -20.5v-312z" />
    <glyph glyph-name="ydieresis" unicode="&#xff;" horiz-adv-x="476" 
d="M388 561q0 -20 -6.5 -31.5t-16 -18t-19.5 -8.5t-17 -2q-26 0 -43 17t-17 43q0 7 2 17t8.5 19.5t18 16t31.5 6.5q21 0 33 -7.5t18 -17t7 -19.5t1 -15zM215 561q0 -33 -19.5 -46.5t-39.5 -13.5q-26 0 -43 17t-17 43q0 20 13 39.5t47 19.5q4 0 14 -1.5t20 -7t17.5 -17.5
t7.5 -33zM271 97h2l89 231q2 6 5 16.5t3 18.5q0 14 -6.5 22.5t-13.5 14.5t-10.5 8t-7.5 5q-8 6 -8 12q0 10 14 10q5 0 10 -0.5t14 -2.5q22 -3 47 -3q8 0 21.5 0.5t20.5 1.5q9 2 14 3t15 1q5 0 9.5 -1t4.5 -8q0 -5 -6 -9.5t-11 -8.5q-5 -3 -10 -7t-10 -9q-9 -8 -17 -16.5
t-14 -23.5l-185 -449q-13 -31 -24 -53.5t-26 -39.5q-17 -19 -35.5 -26.5t-41.5 -7.5q-25 0 -42 6.5t-28 15.5v41q0 24 -1 34t-1 18q0 5 2 12.5t11 7.5q8 0 13 -6.5t9 -14.5q10 -17 23 -25q8 -5 14.5 -6.5t14.5 -1.5q15 0 24 3.5t14 8.5t11 14t9 17l25 60l-166 403
q-3 8 -6.5 15.5t-13.5 15.5q-2 2 -6 5t-14 9q-4 2 -9 6.5t-5 9.5q0 8 5.5 9.5t8.5 1.5q6 0 11.5 -0.5t13.5 -2.5q15 -2 28 -2.5t26 -0.5h26t17.5 0.5t14 1t15.5 1.5q16 2 20.5 2.5t9.5 0.5q3 0 8.5 -1.5t5.5 -9.5q0 -4 -2 -6l-4 -4q-9 -8 -12.5 -11t-5.5 -5q-3 -3 -5.5 -8
t-2.5 -13q0 -3 0.5 -9.5t2.5 -10.5z" />
    <glyph glyph-name="OE" unicode="&#x152;" horiz-adv-x="921" 
d="M60 351q0 66 19 130t57 114q17 22 40 43t53 37t67.5 25.5t82.5 9.5q32 0 60 -5t52 -14h74h118q20 0 44.5 1.5t55.5 5.5q20 2 29.5 4t17.5 2q7 0 10 -3t6 -15q3 -13 5 -19t5 -14t5 -14t8 -15q9 -14 9 -19q0 -3 -2 -7t-10 -4q-2 0 -5.5 0.5t-11.5 2.5l-158 45h-56v-236
l126 23q13 2 18.5 4t11.5 2q11 0 14.5 -5.5t5.5 -12.5q4 -15 15 -33q3 -5 6.5 -10t8.5 -12q5 -6 7.5 -9.5t2.5 -7.5q0 -3 -3 -7.5t-14 -4.5q-4 0 -15 1.5t-16 2.5l-168 32v-320h76l168 63q15 6 22 6q8 0 11 -4.5t3 -8.5t-2.5 -8t-4.5 -9q-6 -13 -9 -18t-5 -10l-25 -60h-403
q-24 -6 -46 -8t-41 -2q-26 0 -56 4t-62.5 16t-64.5 34.5t-60 59.5q-38 50 -57 115t-19 132zM208 351v-51t2 -54.5t8.5 -55t19.5 -53.5q14 -29 31.5 -47t36.5 -28.5t37.5 -14.5t35.5 -4q25 0 56.5 11.5t59.5 45.5v500q-24 31 -54 44t-62 13q-43 0 -79 -21.5t-62 -72.5
q-13 -27 -19.5 -54.5t-8.5 -54.5t-2 -53v-50z" />
    <glyph glyph-name="oe" unicode="&#x153;" horiz-adv-x="732" 
d="M456 204q0 -23 5 -48.5t15 -45.5q18 -35 44 -47.5t51 -12.5q22 0 43 6t38 14q11 6 18.5 9.5t12.5 3.5q8 0 13.5 -6.5t5.5 -14.5q0 -12 -10.5 -22.5t-14.5 -12.5q-24 -17 -59 -27t-80 -10q-37 0 -77.5 10.5t-75.5 45.5q-20 -19 -55 -37.5t-88 -18.5q-29 0 -53 6.5t-43 16
t-33 20.5t-23 21q-21 22 -40.5 61.5t-19.5 100.5q0 52 16.5 93.5t43.5 69.5q25 26 63 44.5t88 18.5q51 0 89 -18.5t62 -42.5l6 6q25 23 61 39t80 16q29 0 51 -8t41 -23q18 -14 33 -36.5t24 -51.5q6 -20 8 -39t2 -37q0 -16 -3.5 -25t-8.5 -13t-10.5 -4.5t-9.5 -0.5h-210z
M242 398q-14 0 -26.5 -5t-25.5 -20q-11 -13 -17 -31t-9 -38t-4 -42.5t-1 -44.5q0 -56 5.5 -95.5t25.5 -62.5q10 -11 23.5 -18t28.5 -7t28.5 7t23.5 18q20 23 25.5 62.5t5.5 95.5q0 22 -1 44.5t-4 42.5t-9 38t-17 31q-13 15 -25.5 20t-26.5 5zM594 251q0 23 -2.5 49.5
t-8.5 45.5q-10 34 -25.5 43t-27.5 9q-13 0 -29.5 -10.5t-27.5 -39.5q-9 -23 -13 -50t-4 -47h138z" />
    <glyph glyph-name="Scaron" unicode="&#x160;" horiz-adv-x="588" 
d="M381 796q-7 -9 -13.5 -18.5t-23.5 -22.5q-13 -10 -21.5 -12.5t-21.5 -2.5q-14 0 -22.5 3t-20.5 12q-17 13 -23 22t-14 19l-96 122l27 22l96 -76q28 -22 38.5 -27.5t14.5 -5.5t14.5 5.5t38.5 27.5l95 76l28 -22zM258 303q-27 13 -56.5 30.5t-55 41t-42 55.5t-16.5 75
q0 59 22 100t54 64q29 20 68.5 30.5t71.5 10.5q21 0 54.5 -4t57.5 -10q17 -5 43 -13.5t41 -13.5v-158q0 -7 -5.5 -11t-10.5 -4q-8 0 -12.5 6t-6.5 11q-10 24 -20.5 45.5t-25.5 40.5q-24 30 -52.5 44t-56.5 14q-35 0 -59 -22q-15 -14 -23.5 -36t-8.5 -51q0 -27 9.5 -46
t24.5 -33t34.5 -24.5t40.5 -19.5l69 -31q25 -11 50 -26.5t45.5 -37.5t33 -52.5t12.5 -72.5q0 -63 -26.5 -107t-60.5 -67q-22 -15 -46 -23.5t-46 -12t-39.5 -4.5t-25.5 -1q-35 0 -88 13t-118 56l-13 178q-1 14 5.5 19t11.5 5q11 0 16 -9t7 -13q4 -12 10.5 -28t15 -33.5
t18 -35t20.5 -32.5q7 -9 17 -20.5t24.5 -22t32.5 -17.5t41 -7q24 0 44 8.5t33 22.5q11 12 20.5 32.5t9.5 50.5q0 29 -8.5 48.5t-21 32.5t-27 21t-26.5 14z" />
    <glyph glyph-name="scaron" unicode="&#x161;" horiz-adv-x="426" 
d="M273 529q-12 -19 -18.5 -27.5t-11.5 -13.5q-9 -8 -17 -11t-17 -3t-17 3t-17 11q-5 5 -11.5 13.5t-18.5 27.5l-77 119l18 18l93 -90q5 -5 13.5 -12t16.5 -7t16.5 7t13.5 12l93 90l18 -18zM341 360q0 -6 -0.5 -9.5t-1 -8t-1 -10.5t-0.5 -17q0 -5 -1.5 -12t-9.5 -7
q-10 0 -15 12t-7 17q-5 12 -14 26.5t-21 25.5q-11 9 -25 14.5t-28 5.5q-12 0 -24.5 -5t-20.5 -14q-13 -16 -13 -36q0 -23 12.5 -33t22.5 -15l99 -44q15 -7 31.5 -16t30.5 -24q16 -18 21 -37t5 -36q0 -40 -15.5 -66.5t-33.5 -40.5q-48 -40 -143 -40q-29 0 -64 6.5t-74 23.5
l2 67q1 14 -0.5 25t-1.5 18q0 14 4 19t9 5q8 0 12.5 -8.5t5.5 -11.5q7 -17 16.5 -36.5t26.5 -35.5q14 -12 29.5 -19t35.5 -7t35 6t24 16q5 6 9.5 15t4.5 23q0 22 -9 33t-20 16l-90 43q-16 8 -33 18t-30.5 24.5t-22 34t-8.5 46.5q0 32 14.5 60.5t42.5 45.5q22 14 52 19.5
t53 5.5q26 0 62 -7t71 -24z" />
    <glyph glyph-name="Ydieresis" unicode="&#x178;" horiz-adv-x="565" 
d="M273 807q0 -15 -6 -26.5t-15 -19t-19.5 -11t-19.5 -3.5t-19.5 3.5t-19.5 11t-15 19t-6 26.5t6 26t15 18.5t19.5 11.5t19.5 4t19.5 -4t19.5 -11.5t15 -18.5t6 -26zM452 807q0 -15 -6 -26.5t-15 -19t-19.5 -11t-19.5 -3.5t-19.5 3.5t-19.5 11t-15 19t-6 26.5t6 26t15 18.5
t19.5 11.5t19.5 4t19.5 -4t19.5 -11.5t15 -18.5t6 -26zM428 590q4 8 7 16.5t3 19.5t-5 23t-19 21q-4 3 -11 7.5t-7 11.5q0 4 3 7.5t12 3.5q8 0 14.5 -1.5t15.5 -3.5q11 -2 19 -3t19 -1q17 0 32 1.5t30 3.5q8 2 15.5 3t15.5 1q3 0 9.5 -1.5t6.5 -9.5q0 -7 -7 -12t-12 -8
q-21 -12 -38.5 -25.5t-29.5 -37.5l-137 -280v-246q0 -13 3.5 -22.5t9.5 -19.5t10 -16t4 -12q0 -7 -3.5 -8.5t-8.5 -1.5h-170q-5 0 -8.5 1.5t-3.5 8.5q0 6 4 12t10 16t9.5 19.5t3.5 22.5v227l-152 316q-5 11 -18.5 23.5t-24.5 20.5q-5 3 -11.5 8t-6.5 13q0 4 2.5 8t12.5 4
q8 0 16 -1.5t17 -3.5q17 -3 35 -3.5t34 -0.5q11 0 36.5 0.5t44.5 3.5l17.5 3.5t15.5 1.5q9 0 12 -3.5t3 -7.5q0 -5 -4.5 -9.5l-7.5 -7.5q-7 -7 -11.5 -18t-4.5 -22q0 -8 2 -20t6 -20l95 -195h5z" />
    <glyph glyph-name="Zcaron" unicode="&#x17d;" horiz-adv-x="627" 
d="M431 796q-7 -9 -13.5 -18.5t-23.5 -22.5q-13 -10 -21.5 -12.5t-21.5 -2.5q-14 0 -22.5 3t-20.5 12q-17 13 -23 22t-14 19l-96 122l27 22l96 -76q28 -22 38.5 -27.5t14.5 -5.5t14.5 5.5t38.5 27.5l95 76l28 -22zM272 642l-149 -45q-3 -1 -8 -2t-9 -1q-8 0 -10 4t-2 7
q0 5 9 19q6 9 8 15t5 14t5 14t5 19q3 12 6 15t10 3q8 0 17.5 -2t29.5 -4q31 -4 55.5 -5.5t44.5 -1.5h174q7 0 20.5 0.5t22.5 1.5q19 2 28.5 4t18.5 2q20 0 25 -10.5t5 -15.5q0 -10 -5.5 -21t-7.5 -14l-354 -589h219l146 74q5 2 9.5 4t9.5 2q8 0 11 -4.5t3 -7.5q0 -4 -2 -8
t-7 -12l-9.5 -19t-7.5 -17l-24 -61h-485q-12 0 -17.5 9t-5.5 18q0 3 2 10t10 21l350 584h-146z" />
    <glyph glyph-name="zcaron" unicode="&#x17e;" horiz-adv-x="446" 
d="M293 529q-12 -19 -18.5 -27.5t-11.5 -13.5q-9 -8 -17 -11t-17 -3t-17 3t-17 11q-5 5 -11.5 13.5t-18.5 27.5l-77 119l18 18l93 -90q5 -5 13.5 -12t16.5 -7t16.5 7t13.5 12l93 90l18 -18zM203 383q-13 0 -27 -1.5t-25 -6.5t-21 -15.5t-18 -22.5q-5 -8 -9.5 -18.5
t-8.5 -20.5q-2 -6 -6 -12.5t-12 -6.5t-9.5 7t-1.5 12q0 10 1.5 19t1.5 29l-1 74q0 8 2 11.5t12 3.5q4 0 8 -0.5t12 -2.5q15 -2 27 -2.5t29 -0.5h151q22 0 35 0.5t22 2.5q7 1 12 2t13 1q18 0 22.5 -8.5t4.5 -13.5q0 -7 -4.5 -16t-8.5 -14l-231 -337h96q17 0 28.5 1t25.5 9
q24 13 37 36q5 9 9.5 19t8.5 20q2 6 6 12.5t12 6.5t9.5 -7t1.5 -12q0 -4 -0.5 -7t-0.5 -7q-1 -8 -1.5 -17t-0.5 -17l-2 -68q0 -15 -14 -15h-337q-14 0 -19 9t-5 17q0 11 4.5 18.5t9.5 13.5l223 325h-61z" />
    <glyph glyph-name="florin" unicode="&#x192;" horiz-adv-x="312" 
d="M54 383q-9 0 -12 5.5t-3 12.5q0 9 6 18t15 9h77l15 55q5 15 5.5 32.5t0.5 36.5q0 22 1 37t3 27q4 23 13.5 44.5t28.5 40.5q7 7 18 15.5t26.5 16t36.5 12.5t48 5q42 0 71 -10.5t49 -23.5l-12 -48q-1 -3 -2 -7.5t-1 -7.5l-3 -25q-1 -5 -3 -10t-10 -5q-5 0 -8 3.5t-5 6.5
q-2 5 -5.5 11.5t-10.5 14.5q-10 11 -29 21t-51 10q-7 0 -26 -2t-38 -13q-17 -10 -29 -28t-12 -43t11 -42.5t26 -32.5q8 -8 15.5 -17.5t7.5 -27.5q0 -10 -2 -18.5t-4 -18.5l-2 -9h79q9 0 11.5 -6t2.5 -12q0 -13 -6 -20t-15 -7h-83l-84 -330q-2 -9 -4 -19t-2 -21
q0 -7 0.5 -10.5t0.5 -8.5t0.5 -13t0.5 -23q0 -13 -1 -31t-6.5 -38.5t-16 -41t-28.5 -38.5q-17 -17 -36.5 -25t-46.5 -8q-29 0 -49 7.5t-35 18.5l16 87q1 5 2.5 9t7.5 4q7 0 8.5 -5t3.5 -10q2 -7 6.5 -12t9.5 -9q11 -8 22 -10.5t22 -2.5q30 0 50 17q14 12 21 28t7 33
q0 26 -11.5 44t-25.5 34q-12 14 -19.5 27t-7.5 34q0 18 3.5 31.5t7.5 30.5l59 251h-70z" />
    <glyph glyph-name="circumflex" unicode="&#x2c6;" horiz-adv-x="322" 
d="M97 618q12 19 18.5 27.5t11.5 13.5q9 8 17 11t17 3t17 -3t17 -11q5 -5 11.5 -13.5t18.5 -27.5l77 -119l-18 -18l-93 90q-5 5 -13.5 12t-16.5 7t-16.5 -7t-13.5 -12l-93 -90l-18 18z" />
    <glyph glyph-name="tilde" unicode="&#x2dc;" horiz-adv-x="376" 
d="M356 588q-11 -15 -24 -25.5t-30 -21.5q-17 -10 -30 -14.5t-31 -4.5q-20 0 -37.5 4.5t-34.5 11.5q-15 6 -31.5 11.5t-34.5 5.5q-11 0 -19.5 -3t-18.5 -10q-5 -4 -11 -9t-11 -10l-23 26q11 14 24 24.5t30 21.5q16 10 29.5 14.5t32.5 4.5q22 0 39.5 -5.5t31.5 -10.5
q19 -8 34 -12.5t29 -4.5q10 0 21 3.5t19 8.5q2 2 6.5 5.5t16.5 14.5z" />
    <glyph glyph-name="endash" unicode="&#x2013;" horiz-adv-x="774" 
d="M90 199v49l12 13h570l12 -13v-49l-12 -13h-570z" />
    <glyph glyph-name="emdash" unicode="&#x2014;" horiz-adv-x="900" 
d="M90 199v49l12 13h696l12 -13v-49l-12 -13h-696z" />
    <glyph glyph-name="quoteleft" unicode="&#x2018;" horiz-adv-x="266" 
d="M70 608q0 24 5 50t13 46q6 15 17.5 35.5t20.5 32.5q14 19 22.5 25.5t14.5 6.5q8 0 14.5 -6t6.5 -14t-5.5 -14.5t-11.5 -13.5q-11 -14 -19.5 -33.5t-12.5 -36.5q-2 -11 -3.5 -22t-2.5 -22q2 0 6.5 1t8.5 1q18 0 35 -14t17 -43q0 -21 -13.5 -40t-45.5 -19q-17 0 -29 5.5
t-23 19.5t-13 28t-2 27z" />
    <glyph glyph-name="quoteright" unicode="&#x2019;" horiz-adv-x="286" 
d="M206 639q0 -24 -5 -50t-13 -46q-6 -15 -17.5 -35.5t-20.5 -32.5q-14 -19 -22.5 -25.5t-14.5 -6.5q-8 0 -14.5 6t-6.5 14t5.5 14.5t11.5 13.5q11 14 19.5 33.5t12.5 36.5q2 11 3.5 22t2.5 22q-2 0 -6.5 -1t-8.5 -1q-18 0 -35 14t-17 43q0 21 13.5 40t45.5 19q17 0 29 -5.5
t23 -19.5t13 -28t2 -27z" />
    <glyph glyph-name="quotesinglbase" unicode="&#x201a;" horiz-adv-x="246" 
d="M186 33q0 -24 -5 -50t-13 -46q-6 -15 -17.5 -35.5t-20.5 -32.5q-14 -19 -22.5 -25.5t-14.5 -6.5q-8 0 -14.5 6t-6.5 14t5.5 14.5t11.5 13.5q11 14 19.5 33.5t12.5 36.5q2 11 3.5 22t2.5 22q-2 0 -6.5 -1t-8.5 -1q-18 0 -35 14t-17 43q0 21 13.5 40t45.5 19q17 0 29 -5.5
t23 -19.5t13 -28t2 -27z" />
    <glyph glyph-name="quotedblleft" unicode="&#x201c;" horiz-adv-x="442" 
d="M70 608q0 24 5 50t13 46q6 15 17.5 35.5t20.5 32.5q14 19 22.5 25.5t14.5 6.5q8 0 14.5 -6t6.5 -14t-5.5 -14.5t-11.5 -13.5q-11 -14 -19.5 -33.5t-12.5 -36.5q-2 -11 -3.5 -22t-2.5 -22q2 0 6.5 1t8.5 1q18 0 35 -14t17 -43q0 -21 -13.5 -40t-45.5 -19q-17 0 -29 5.5
t-23 19.5t-13 28t-2 27zM246 608q0 24 5 50t13 46q6 15 17.5 35.5t20.5 32.5q14 19 22.5 25.5t14.5 6.5q8 0 14.5 -6t6.5 -14t-5.5 -14.5t-11.5 -13.5q-11 -14 -19.5 -33.5t-12.5 -36.5q-2 -11 -3.5 -22t-2.5 -22q2 0 6.5 1t8.5 1q18 0 35 -14t17 -43q0 -21 -13.5 -40
t-45.5 -19q-17 0 -29 5.5t-23 19.5t-13 28t-2 27z" />
    <glyph glyph-name="quotedblright" unicode="&#x201d;" horiz-adv-x="462" 
d="M382 639q0 -24 -5 -50t-13 -46q-6 -15 -17.5 -35.5t-20.5 -32.5q-14 -19 -22.5 -25.5t-14.5 -6.5q-8 0 -14.5 6t-6.5 14t5.5 14.5t11.5 13.5q11 14 19.5 33.5t12.5 36.5q2 11 3.5 22t2.5 22q-2 0 -6.5 -1t-8.5 -1q-18 0 -35 14t-17 43q0 21 13.5 40t45.5 19q17 0 29 -5.5
t23 -19.5t13 -28t2 -27zM206 639q0 -24 -5 -50t-13 -46q-6 -15 -17.5 -35.5t-20.5 -32.5q-14 -19 -22.5 -25.5t-14.5 -6.5q-8 0 -14.5 6t-6.5 14t5.5 14.5t11.5 13.5q11 14 19.5 33.5t12.5 36.5q2 11 3.5 22t2.5 22q-2 0 -6.5 -1t-8.5 -1q-18 0 -35 14t-17 43q0 21 13.5 40
t45.5 19q17 0 29 -5.5t23 -19.5t13 -28t2 -27z" />
    <glyph glyph-name="quotedblbase" unicode="&#x201e;" horiz-adv-x="462" 
d="M382 33q0 -24 -5 -50t-13 -46q-6 -15 -17.5 -35.5t-20.5 -32.5q-14 -19 -22.5 -25.5t-14.5 -6.5q-8 0 -14.5 6t-6.5 14t5.5 14.5t11.5 13.5q11 14 19.5 33.5t12.5 36.5q2 11 3.5 22t2.5 22q-2 0 -6.5 -1t-8.5 -1q-18 0 -35 14t-17 43q0 21 13.5 40t45.5 19q17 0 29 -5.5
t23 -19.5t13 -28t2 -27zM206 33q0 -24 -5 -50t-13 -46q-6 -15 -17.5 -35.5t-20.5 -32.5q-14 -19 -22.5 -25.5t-14.5 -6.5q-8 0 -14.5 6t-6.5 14t5.5 14.5t11.5 13.5q11 14 19.5 33.5t12.5 36.5q2 11 3.5 22t2.5 22q-2 0 -6.5 -1t-8.5 -1q-18 0 -35 14t-17 43q0 21 13.5 40
t45.5 19q17 0 29 -5.5t23 -19.5t13 -28t2 -27z" />
    <glyph glyph-name="dagger" unicode="&#x2020;" horiz-adv-x="688" 
d="M313 -54q0 64 -4.5 112t-12.5 85.5t-18.5 65.5t-23.5 52q16 16 26 33.5t18 41.5q8 23 11 42.5t5 37.5l-148 -21q-10 -2 -23 -4t-21 -7q-11 -5 -17 -11.5t-13 -6.5q-8 0 -10 5t-2 10q0 7 1 13l2 12q3 19 3.5 28.5t0.5 11.5t-0.5 11.5t-3.5 29.5q-2 8 -2.5 13.5t-0.5 11.5
q0 5 2 10t10 5q7 0 13 -6.5t17 -11.5q8 -5 21 -7t23 -4l147 -21l-21 147q-2 10 -4 23t-7 21q-5 11 -11.5 17t-6.5 13q0 8 5 10t10 2q10 0 25 -3q11 -2 19 -2.5t22 -0.5t22 0.5t19 2.5q15 3 25 3q5 0 10 -2t5 -10q0 -7 -6.5 -13t-11.5 -17q-5 -8 -7 -21t-4 -23l-21 -147
l147 21q10 2 23 4t21 7q11 5 17 11.5t13 6.5q8 0 10 -5t2 -10q0 -6 -0.5 -11.5t-2.5 -13.5q-3 -20 -3.5 -29.5t-0.5 -11.5t0.5 -11.5t3.5 -28.5l2 -12t1 -13q0 -5 -2 -10t-10 -5q-7 0 -13 6.5t-17 11.5q-8 5 -21 7t-23 4l-148 21q2 -18 5 -37.5t11 -42.5q8 -24 18 -41.5
t26 -33.5q-13 -24 -23.5 -52t-18.5 -65.5t-12.5 -85.5t-4.5 -112v-151h-62v151z" />
    <glyph glyph-name="daggerdbl" unicode="&#x2021;" horiz-adv-x="684" 
d="M370 422q1 -24 4.5 -49.5t11.5 -48.5q4 -12 8 -23.5t8 -22.5l4 -12l4 -12l-4 -12l-4 -12q-4 -11 -8 -22.5t-8 -23.5q-8 -23 -11.5 -48.5t-4.5 -49.5l150 21q5 1 20 3.5t25 7.5q12 6 17 12t12 6q8 0 9 -4t1 -9q0 -10 -0.5 -13.5t-2.5 -11.5q-1 -4 -2.5 -17t-1.5 -24
t1.5 -24t2.5 -17q2 -8 2.5 -11.5t0.5 -13.5q0 -5 -1 -9t-9 -4q-7 0 -12 6t-17 12q-10 5 -25 7.5t-20 3.5l-149 21l21 -149q1 -5 3.5 -20t7.5 -25q6 -12 12 -17t6 -12q0 -8 -4 -9t-9 -1q-10 0 -14 1t-11 2q-10 2 -18.5 2.5t-22.5 0.5t-22.5 -0.5t-18.5 -2.5q-7 -1 -11 -2
t-14 -1q-5 0 -9 1t-4 9q0 7 6 12t12 17q5 10 7.5 25t3.5 20l21 149l-149 -21q-5 -1 -20 -3.5t-25 -7.5q-12 -6 -17 -12t-12 -6q-8 0 -9 4t-1 9q0 10 0.5 13.5t2.5 11.5q1 4 2.5 17t1.5 24t-1.5 24t-2.5 17q-2 8 -2.5 11.5t-0.5 13.5q0 5 1 9t9 4q7 0 12 -6t17 -12
q10 -5 25 -7.5t20 -3.5l150 -21q-1 20 -4 42t-10 47q-4 14 -9.5 30.5t-16.5 48.5q11 32 16.5 48.5t9.5 30.5q7 25 10 47t4 42l-150 -21q-5 -1 -20 -3.5t-25 -7.5q-12 -6 -17 -12t-12 -6q-8 0 -9 4t-1 9q0 10 0.5 13.5t2.5 11.5q1 4 2.5 17t1.5 24t-1.5 24t-2.5 17
q-2 8 -2.5 11.5t-0.5 13.5q0 5 1 9t9 4q7 0 12 -6t17 -12q10 -5 25 -7.5t20 -3.5l149 -21l-21 149q-1 5 -3.5 20t-7.5 25q-6 12 -12 17t-6 12q0 8 4 9t9 1q10 0 14 -1t11 -2q10 -2 18.5 -2.5t22.5 -0.5t22.5 0.5t18.5 2.5q7 1 11 2t14 1q5 0 9 -1t4 -9q0 -7 -6 -12t-12 -17
q-5 -10 -7.5 -25t-3.5 -20l-21 -149l149 21q5 1 20 3.5t25 7.5q12 6 17 12t12 6q8 0 9 -4t1 -9q0 -10 -0.5 -13.5t-2.5 -11.5q-1 -4 -2.5 -17t-1.5 -24t1.5 -24t2.5 -17q2 -8 2.5 -11.5t0.5 -13.5q0 -5 -1 -9t-9 -4q-7 0 -12 6t-17 12q-10 5 -25 7.5t-20 3.5z" />
    <glyph glyph-name="bullet" unicode="&#x2022;" horiz-adv-x="412" 
d="M56 336q0 33 11.5 62t31.5 51t47.5 35t59.5 13t59.5 -13t47.5 -35t31.5 -51t11.5 -62t-11.5 -62t-31.5 -51t-47.5 -35t-59.5 -13t-59.5 13t-47.5 35t-31.5 51t-11.5 62z" />
    <glyph glyph-name="ellipsis" unicode="&#x2026;" horiz-adv-x="750" 
d="M573 53q0 23 16 42.5t42 19.5q25 0 42 -18.5t17 -43.5q0 -26 -17 -44.5t-42 -18.5q-15 0 -26 6.5t-18 16.5t-10.5 20.5t-3.5 19.5zM316 53q0 23 16.5 42.5t42.5 19.5q25 0 42 -18.5t17 -43.5q0 -26 -17.5 -44.5t-41.5 -18.5q-15 0 -26.5 6.5t-18.5 16.5t-10.5 21t-3.5 19
zM60 53q0 25 17 43.5t42 18.5q26 0 42 -19.5t16 -42.5q0 -9 -3.5 -19.5t-10.5 -20.5t-18 -16.5t-26 -6.5q-25 0 -42 18.5t-17 44.5z" />
    <glyph glyph-name="perthousand" unicode="&#x2030;" horiz-adv-x="1081" 
d="M874 330q18 0 35 -3.5t34 -14.5t27 -26t17 -35q10 -26 12 -48.5t2 -42.5t-2 -43.5t-12 -48.5q-6 -17 -17 -33.5t-27 -27.5t-34 -14t-35 -3t-35 3t-34 14t-27 27.5t-17 33.5q-10 25 -12 48.5t-2 43.5t2 42.5t12 48.5q7 20 17 35t27 26t34 14.5t35 3.5zM880 287
q-5 0 -11.5 -0.5t-12.5 -7.5q-3 -4 -6.5 -10.5t-5.5 -19.5t-3.5 -34.5t-1.5 -54.5t1.5 -54t4 -34.5t5.5 -20t6 -10.5q5 -6 9 -7.5t9 -1.5t9 1.5t9 7.5q3 4 6 10.5t5.5 20t4 34.5t1.5 54t-1.5 54.5t-3.5 34.5t-5.5 19.5t-6.5 10.5q-6 8 -12 8zM565 330q18 0 35 -3.5t34 -14.5
t27 -26t17 -35q10 -26 12 -48.5t2 -42.5t-2 -43.5t-12 -48.5q-6 -17 -17 -33.5t-27 -27.5t-34 -14t-35 -3t-35 3t-34 14t-27 27.5t-17 33.5q-10 25 -12 48.5t-2 43.5t2 42.5t12 48.5q7 20 17 35t27 26t34 14.5t35 3.5zM565 288q-11 0 -18 -9q-3 -4 -6.5 -10.5t-5.5 -19.5
t-3.5 -34.5t-1.5 -54.5t1.5 -54t4 -34.5t5.5 -20t6 -10.5q5 -6 9 -7.5t9 -1.5t9 1.5t9 7.5q3 4 6 10.5t5.5 20t4 34.5t1.5 54t-1.5 54.5t-3.5 34.5t-5.5 19.5t-6.5 10.5q-8 9 -18 9zM207 710q18 0 35 -3.5t34 -14.5t27 -26t17 -35q10 -26 12 -48.5t2 -42.5t-2 -43.5
t-12 -48.5q-6 -17 -17 -33.5t-27 -27.5t-34 -14t-35 -3t-35 3t-34 14t-27 27.5t-17 33.5q-10 25 -12 48.5t-2 43.5t2 42.5t12 48.5q7 20 17 35t27 26t34 14.5t35 3.5zM207 668q-11 0 -18 -9q-3 -4 -6.5 -10.5t-5.5 -19.5t-3.5 -34.5t-1.5 -54.5t1.5 -54t4 -34.5t5.5 -20
t6 -10.5q5 -6 9 -7.5t9 -1.5t9 1.5t9 7.5q3 4 6 10.5t5.5 20t4 34.5t1.5 54t-1.5 54.5t-3.5 34.5t-5.5 19.5t-6.5 10.5q-8 9 -18 9zM618 764l46 -34l-502 -792l-46 34z" />
    <glyph glyph-name="guilsinglleft" unicode="&#x2039;" horiz-adv-x="412" 
d="M137 146q-3 3 -6 6.5t-6 6.5q-4 5 -8 8.5t-9 8.5q-18 19 -18 38q0 13 5 21t13 17q7 8 11 12.5t6.5 7.5t5 5t6.5 6l172 170l13 -61l-89 -133q-14 -21 -20.5 -30.5t-6.5 -14.5q0 -6 7 -15.5t20 -28.5l89 -133l-13 -62z" />
    <glyph glyph-name="guilsinglright" unicode="&#x203a;" horiz-adv-x="412" 
d="M90 37l89 133q13 19 20 28.5t7 15.5q0 5 -6.5 14.5t-20.5 30.5l-89 133l13 61l172 -170q4 -4 6.5 -6t5 -5t6.5 -7.5t11 -12.5q8 -9 13 -17t5 -21q0 -19 -18 -38q-5 -5 -9 -8.5t-8 -8.5q-3 -3 -6 -6.5t-6 -6.5l-172 -171z" />
    <glyph glyph-name="Euro" unicode="&#x20ac;" 
d="M552 74q-30 -28 -60.5 -44.5t-58 -25.5t-51 -11.5t-41.5 -2.5q-45 0 -80 10t-63 26.5t-48.5 37t-35.5 42.5q-28 42 -40.5 86.5t-15.5 79.5h-85l19 44h62v54h-81l19 44h67q5 35 20 84.5t48 95.5q13 18 33 38.5t47.5 37.5t63.5 28.5t82 11.5q23 0 49.5 -3.5t51.5 -9.5
q20 -5 39 -12.5t36 -15.5v-158q0 -7 -4.5 -11t-9.5 -4q-8 0 -12.5 7t-6.5 11q-12 28 -20 51t-23 45q-20 29 -41.5 38t-41.5 9q-18 0 -36 -5t-36 -17t-34.5 -32.5t-29.5 -51.5q-17 -40 -23 -77.5t-8 -59.5h238l-19 -44h-221v-54h199l-19 -44h-177q3 -37 12 -73.5t24 -66.5
q6 -13 16.5 -28.5t26 -29t36.5 -22.5t49 -9q27 0 52 12.5t43 30.5q24 23 37 50.5t26 55.5q2 5 6.5 10.5t13.5 5.5q3 0 9.5 -3t5.5 -14z" />
    <glyph glyph-name="trademark" unicode="&#x2122;" horiz-adv-x="903" 
d="M593 440l-82 171h-4v-161q0 -11 3.5 -20t14.5 -21q11 -11 11 -15q0 -3 -2.5 -6t-7.5 -3h-84q-5 0 -7.5 3t-2.5 6q0 4 11 15q11 12 14.5 21t3.5 20v219q0 12 -2.5 18.5t-6.5 13.5q-6 12 -9 16.5t-3 7.5t3.5 6t6.5 3q4 0 8.5 -1t10.5 -2q5 -1 17.5 -1.5t18.5 -0.5h21
q13 0 19 -6t10 -15l75 -165h3l78 171q5 10 14.5 12.5t18.5 2.5h13q6 0 19 0.5t18 1.5q6 1 10.5 2t8.5 1q3 0 6.5 -3t3.5 -6t-3 -7.5t-9 -16.5q-4 -7 -6.5 -13.5t-2.5 -18.5v-219q0 -8 2.5 -18t6.5 -16q2 -4 7 -10t5 -12q0 -3 -2.5 -6t-7.5 -3h-124q-6 0 -8.5 3.5t-2.5 5.5
q0 4 3 7.5t9 16.5q3 7 6.5 15t3.5 17v146h-4l-74 -156h-29zM291 450q0 -13 4 -22.5t8 -15.5q3 -5 6 -8.5t3 -8.5q0 -3 -2 -6.5t-9 -3.5h-125q-9 0 -9 10q0 4 2.5 8t6.5 9q12 19 12 38v241h-15q-8 0 -13 -2l-10 -4q-14 -7 -18.5 -13t-9.5 -18q-8 -17 -9 -20.5t-4 -11.5
q-2 -5 -5.5 -10.5t-11.5 -5.5t-10 5.5t-2 11.5q0 7 1 17t1 21l-1 59q0 8 4.5 11t8.5 3t7.5 -1t9.5 -2q3 0 9.5 -0.5l13 -1t12.5 -0.5h9h169h9t12.5 0.5l13 1t9.5 0.5q6 1 9.5 2t7.5 1t8.5 -3t4.5 -11l-1 -59q0 -11 1 -21t1 -17q0 -6 -2 -11.5t-10 -5.5t-11.5 5.5t-5.5 10.5
q-3 8 -4 11.5t-9 20.5q-5 12 -9.5 18t-18.5 13l-10 4t-13 2h-15v-241z" />
  </font>
</defs>
</svg>
